<svg width="16" height="16" viewBox="0 0 16 16" fill="none" xmlns="http://www.w3.org/2000/svg">
<path d="M14.2222 2.22217H1.77778C0.796 2.22217 0 3.01817 0 3.99995V11.9999C0 12.9817 0.796 13.7777 1.77778 13.7777H14.2222C15.204 13.7777 16 12.9817 16 11.9999V3.99995C16 3.01817 15.204 2.22217 14.2222 2.22217Z" fill="white" fill-opacity="0.08"/>
<path d="M7.3564 9.40642C7.3564 8.91362 7.4268 8.53282 7.5676 8.26402C7.7084 7.98882 7.9516 7.75842 8.2972 7.57282C8.534 7.44482 8.7132 7.33282 8.8348 7.23682C8.9564 7.13442 9.0364 7.02882 9.0748 6.92002C9.1196 6.80482 9.142 6.66402 9.142 6.49762C9.142 6.22882 9.0524 6.00802 8.8732 5.83522C8.7004 5.66242 8.4508 5.57602 8.1244 5.57602C7.7468 5.57602 7.4556 5.67522 7.2508 5.87362C7.046 6.07202 6.9212 6.36322 6.8764 6.74722L5.59 6.68962C5.6284 6.26722 5.75 5.89282 5.9548 5.56642C6.166 5.24002 6.454 4.98402 6.8188 4.79842C7.1836 4.61282 7.6188 4.52002 8.1244 4.52002C8.6044 4.52002 9.014 4.60642 9.3532 4.77922C9.6988 4.95202 9.9612 5.18882 10.1404 5.48962C10.3196 5.78402 10.4092 6.12002 10.4092 6.49762C10.4092 6.77922 10.3676 7.01602 10.2844 7.20802C10.2076 7.40002 10.0796 7.57602 9.9004 7.73602C9.7276 7.88962 9.5004 8.05282 9.2188 8.22562C8.9756 8.36642 8.806 8.52002 8.71 8.68642C8.6204 8.85282 8.5756 9.09282 8.5756 9.40642H7.3564ZM7.2508 11.4896V10.1456H8.6524V11.4896H7.2508Z" fill="white" fill-opacity="0.6"/>
</svg>
