<svg viewBox="0 0 16 16" fill="none" xmlns="http://www.w3.org/2000/svg">
<path d="M14.2222 2.22217H1.77778C0.796 2.22217 0 3.01817 0 3.99995V11.9999C0 12.9817 0.796 13.7777 1.77778 13.7777H14.2222C15.204 13.7777 16 12.9817 16 11.9999V3.99995C16 3.01817 15.204 2.22217 14.2222 2.22217Z" fill="#003399"/>
<path d="M8.23956 4.31324L8.6169 4.03901H8.15067L8.00623 3.59546L7.86223 4.03901H7.39601L7.77334 4.31324L7.6289 4.75679L8.00623 4.48257L8.38356 4.75679L8.23956 4.31324ZM8.23956 12.0168L8.6169 11.7426H8.15067L8.00623 11.299L7.86223 11.7426H7.39601L7.77334 12.0168L7.6289 12.4603L8.00623 12.1861L8.38356 12.4603L8.23956 12.0168ZM4.38801 8.16479L4.76534 7.89057H4.29867L4.15467 7.44701L4.01023 7.89057H3.54401L3.92134 8.16479L3.77734 8.60835L4.15467 8.33413L4.53201 8.60835L4.38801 8.16479ZM4.88001 6.26035L5.25734 5.98613H4.79067L4.64667 5.54257L4.50267 5.98613H4.03601L4.41334 6.26035L4.26934 6.7039L4.64667 6.42968L5.02401 6.7039L4.88001 6.26035ZM4.88001 10.091L5.25734 9.81679H4.79067L4.64667 9.37324L4.50267 9.81679H4.03601L4.41334 10.091L4.26934 10.5346L4.64667 10.2603L5.02401 10.5346L4.88001 10.091ZM6.31378 4.82924L6.69112 4.55501H6.22445L6.08045 4.11146L5.93645 4.55501H5.46978L5.84712 4.82924L5.70312 5.27279L6.08045 4.99857L6.45778 5.27279L6.31378 4.82924ZM6.31378 11.5257L6.69112 11.2515H6.22445L6.08045 10.8079L5.93645 11.2515H5.46978L5.84712 11.5257L5.70312 11.9692L6.08045 11.6955L6.45778 11.9692L6.31378 11.5257ZM11.612 8.16479L11.2347 7.89057H11.7013L11.8453 7.44701L11.9898 7.89057H12.456L12.0787 8.16479L12.2227 8.60835L11.8453 8.33413L11.468 8.60835L11.612 8.16479ZM11.12 6.26035L10.7427 5.98613H11.2093L11.3533 5.54257L11.4973 5.98613H11.964L11.5867 6.26035L11.7307 6.7039L11.3533 6.42968L10.976 6.7039L11.12 6.26035ZM11.12 10.091L10.7427 9.81679H11.2093L11.3533 9.37324L11.4973 9.81679H11.964L11.5867 10.091L11.7307 10.5346L11.3533 10.2603L10.976 10.5346L11.12 10.091ZM9.68623 4.82924L9.30889 4.55501H9.77556L9.91956 4.11146L10.0636 4.55501H10.5302L10.1529 4.82924L10.2969 5.27279L9.91956 4.99857L9.54223 5.27279L9.68623 4.82924ZM9.68623 11.5257L9.30889 11.2515H9.77556L9.91956 10.8079L10.0636 11.2515H10.5302L10.1529 11.5257L10.2969 11.9692L9.91956 11.6955L9.54223 11.9692L9.68623 11.5257Z" fill="#FFCC00"/>
</svg>
