<svg viewBox="0 0 16 16" fill="none" xmlns="http://www.w3.org/2000/svg">
<path d="M15.7533 3.11106C15.4453 2.58172 14.8787 2.22217 14.2222 2.22217H8V3.11106H15.7533ZM0 11.1111H16V11.9999H0V11.1111ZM8 7.5555H16V8.44439H8V7.5555ZM8 5.77772H16V6.66661H8V5.77772ZM0 9.33328H16V10.2222H0V9.33328ZM1.77778 13.7777H14.2222C14.8787 13.7777 15.4453 13.4182 15.7533 12.8888H0.246667C0.554667 13.4182 1.12133 13.7777 1.77778 13.7777ZM8 3.99995H16V4.88883H8V3.99995Z" fill="#B22334"/>
<path d="M0.0302222 12.3018C0.0377778 12.3431 0.0462222 12.3844 0.0564444 12.4249C0.068 12.4698 0.0822222 12.5129 0.0973333 12.5564C0.136889 12.6715 0.184889 12.7826 0.245333 12.8866L0.246667 12.8889H15.7533L15.7542 12.8871C15.8142 12.7835 15.8622 12.6724 15.9018 12.5578C15.9169 12.5138 15.9316 12.4698 15.9431 12.424C15.9533 12.384 15.9618 12.3431 15.9693 12.3018C15.9876 12.204 16 12.1035 16 12H0C0 12.1035 0.0124444 12.2035 0.0302222 12.3018ZM0 10.2222H16V11.1111H0V10.2222ZM0 8.44442V9.33331H16V8.44442H8H0ZM8 6.66664H16V7.55553H8V6.66664ZM8 4.88886H16V5.77775H8V4.88886ZM0 3.99997C0 3.89642 0.0133333 3.79686 0.0302222 3.6982C0.0124444 3.79642 0 3.89642 0 3.99997ZM0.0568889 3.57508C0.068 3.52975 0.0835556 3.48664 0.0977778 3.44308C0.0826667 3.48664 0.0684444 3.53019 0.0568889 3.57508ZM8 3.99997H16C16 3.89642 15.9876 3.79597 15.9693 3.69775C15.9618 3.65686 15.9538 3.61597 15.9431 3.57597C15.9311 3.53019 15.9169 3.48575 15.9013 3.44175C15.8618 3.32708 15.8138 3.21642 15.7538 3.11286C15.7542 3.11242 15.7538 3.11153 15.7533 3.11108H8V3.99997Z" fill="#EEEEEE"/>
<path d="M8 2.22217H1.77778C0.796 2.22217 0 3.01817 0 3.99995V8.44439H8V2.22217Z" fill="#3C3B6E"/>
<path d="M0.889328 3.43375L1.16399 3.63331L1.05911 3.95553L1.33333 3.75642L1.60799 3.95553L1.50311 3.63331L1.77777 3.43375H1.43822L1.33333 3.11108L1.22888 3.43375H0.889328ZM1.77822 4.32264L2.05288 4.5222L1.94799 4.84442L2.22222 4.64531L2.49688 4.84442L2.39199 4.5222L2.66666 4.32264H2.32711L2.22222 3.99997L2.11777 4.32264H1.77822ZM3.55599 4.32264L3.83066 4.5222L3.72577 4.84442L3.99999 4.64531L4.27466 4.84442L4.16977 4.5222L4.44444 4.32264H4.10488L3.99999 3.99997L3.89555 4.32264H3.55599ZM5.33377 4.32264L5.60844 4.5222L5.50355 4.84442L5.77777 4.64531L6.05244 4.84442L5.94755 4.5222L6.22222 4.32264H5.88266L5.77777 3.99997L5.67333 4.32264H5.33377ZM1.77822 6.10042L2.05288 6.29997L1.94799 6.6222L2.22222 6.42308L2.49688 6.6222L2.39199 6.29997L2.66666 6.10042H2.32711L2.22222 5.77775L2.11777 6.10042H1.77822ZM3.55599 6.10042L3.83066 6.29997L3.72577 6.6222L3.99999 6.42308L4.27466 6.6222L4.16977 6.29997L4.44444 6.10042H4.10488L3.99999 5.77775L3.89555 6.10042H3.55599ZM5.33377 6.10042L5.60844 6.29997L5.50355 6.6222L5.77777 6.42308L6.05244 6.6222L5.94755 6.29997L6.22222 6.10042H5.88266L5.77777 5.77775L5.67333 6.10042H5.33377ZM2.66711 3.43375L2.94177 3.63331L2.83688 3.95553L3.11111 3.75642L3.38577 3.95553L3.28088 3.63331L3.55555 3.43375H3.21599L3.11111 3.11108L3.00666 3.43375H2.66711ZM4.44488 3.43375L4.71955 3.63331L4.61466 3.95553L4.88888 3.75642L5.16355 3.95553L5.05866 3.63331L5.33333 3.43375H4.99377L4.88888 3.11108L4.78444 3.43375H4.44488ZM6.22266 3.43375L6.49733 3.63331L6.39244 3.95553L6.66666 3.75642L6.94133 3.95553L6.83644 3.63331L7.11111 3.43375H6.77155L6.66666 3.11108L6.56222 3.43375H6.22266ZM0.889328 5.21153L1.16399 5.41108L1.05911 5.73331L1.33333 5.5342L1.60799 5.73331L1.50311 5.41108L1.77777 5.21153H1.43822L1.33333 4.88886L1.22888 5.21153H0.889328ZM2.83688 5.73331L3.11111 5.5342L3.38577 5.73331L3.28088 5.41108L3.55555 5.21153H3.21599L3.11111 4.88886L3.00666 5.21153H2.66711L2.94177 5.41108L2.83688 5.73331ZM4.44488 5.21153L4.71955 5.41108L4.61466 5.73331L4.88888 5.5342L5.16355 5.73331L5.05866 5.41108L5.33333 5.21153H4.99377L4.88888 4.88886L4.78444 5.21153H4.44488ZM6.22266 5.21153L6.49733 5.41108L6.39244 5.73331L6.66666 5.5342L6.94133 5.73331L6.83644 5.41108L7.11111 5.21153H6.77155L6.66666 4.88886L6.56222 5.21153H6.22266ZM0.889328 6.98931L1.16399 7.18886L1.05911 7.51108L1.33333 7.31197L1.60799 7.51108L1.50311 7.18886L1.77777 6.98931H1.43822L1.33333 6.66664L1.22888 6.98931H0.889328ZM2.83688 7.51108L3.11111 7.31197L3.38577 7.51108L3.28088 7.18886L3.55555 6.98931H3.21599L3.11111 6.66664L3.00666 6.98931H2.66711L2.94177 7.18886L2.83688 7.51108ZM4.44488 6.98931L4.71955 7.18886L4.61466 7.51108L4.88888 7.31197L5.16355 7.51108L5.05866 7.18886L5.33333 6.98931H4.99377L4.88888 6.66664L4.78444 6.98931H4.44488ZM6.22266 6.98931L6.49733 7.18886L6.39244 7.51108L6.66666 7.31197L6.94133 7.51108L6.83644 7.18886L7.11111 6.98931H6.77155L6.66666 6.66664L6.56222 6.98931H6.22266Z" fill="white"/>
</svg>
