<svg width="128" height="27" viewBox="0 0 128 27" fill="none" xmlns="http://www.w3.org/2000/svg">
<path d="M16.0396 2.55562C16.6498 2.26916 17.1445 2.65458 17.1445 3.41656V6.1758C17.1445 6.93765 16.6498 7.78765 16.0396 8.07411L6.83249 12.3965L3.88626 16.9988V13.7797L3.51803 13.9526C2.90775 14.2391 2.41309 13.8537 2.41309 13.0917V10.3326C2.41309 9.57059 2.90775 8.72073 3.51803 8.43427L16.0396 2.55562Z" fill="#E76E50"/>
<path d="M9.85107 13.6967C9.85107 13.138 10.2138 12.5147 10.6613 12.3047L16.3325 9.64219C16.78 9.43211 17.1427 9.71475 17.1427 10.2735V13.3085C17.1427 13.8672 16.78 14.4904 16.3325 14.7005L10.6613 17.363C10.2138 17.573 9.85107 17.2903 9.85107 16.7316V13.6967Z" fill="white"/>
<path d="M23.4815 13.0483C24.0917 12.7618 24.5864 13.1473 24.5864 13.9092V16.6685C24.5864 17.4303 24.0917 18.2803 23.4815 18.5668L23.1133 18.7397V21.9587L20.167 20.1228L10.9599 24.4453C10.3496 24.7318 9.85498 24.3463 9.85498 23.5844V20.8253C9.85498 20.0633 10.3496 19.2134 10.9599 18.9269L23.4815 13.0483Z" fill="#E76E50"/>
<path d="M113.987 19.9529V6.56543H120.528C121.433 6.56543 122.23 6.74393 122.919 7.10093C123.62 7.44518 124.168 7.92968 124.563 8.55443C124.959 9.17918 125.156 9.89955 125.156 10.7156C125.156 11.5698 124.914 12.3221 124.43 12.9723C123.958 13.6226 123.333 14.1071 122.555 14.4258L125.501 19.9529H122.402L119.782 14.8274H116.78V19.9529H113.987ZM116.78 12.5516H120.279C120.904 12.5516 121.401 12.3858 121.771 12.0543C122.154 11.7228 122.345 11.2893 122.345 10.7538C122.345 10.2183 122.154 9.78481 121.771 9.45331C121.401 9.1218 120.904 8.95605 120.279 8.95605H116.78V12.5516Z" fill="white"/>
<path d="M104.131 19.9529L98.6992 6.56543H101.702L105.795 17.1033L109.983 6.56543H112.852L107.344 19.9529H104.131Z" fill="white"/>
<path d="M93.3682 19.9526V10.371H94.7834V11.7289C95.0767 11.2316 95.4464 10.8491 95.8927 10.5814C96.3517 10.3009 96.8744 10.1606 97.4609 10.1606C97.7924 10.1606 98.092 10.2053 98.3598 10.2945V11.595C98.194 11.5313 98.0283 11.4866 97.8625 11.4611C97.6968 11.4356 97.531 11.4229 97.3653 11.4229C96.7788 11.4229 96.2624 11.595 95.8162 11.9393C95.3827 12.2708 95.0384 12.7553 94.7834 13.3928V19.9526H93.3682Z" fill="white"/>
<path d="M87.068 20.125C86.15 20.125 85.3149 19.9083 84.5627 19.4748C83.8232 19.0285 83.2303 18.4293 82.784 17.677C82.3505 16.9248 82.1338 16.0833 82.1338 15.1525C82.1338 14.2345 82.3442 13.4058 82.7649 12.6663C83.1857 11.914 83.753 11.3211 84.467 10.8876C85.181 10.4414 85.9779 10.2183 86.8577 10.2183C87.7119 10.2183 88.4769 10.4414 89.1527 10.8876C89.8412 11.3211 90.383 11.914 90.7783 12.6663C91.1863 13.4058 91.3903 14.2345 91.3903 15.1525V15.5924H83.5299C83.6064 16.2171 83.804 16.7781 84.1228 17.2754C84.4543 17.7726 84.8814 18.1679 85.4042 18.4611C85.9269 18.7416 86.5007 18.8819 87.1254 18.8819C87.6227 18.8819 88.1072 18.8054 88.5789 18.6524C89.0507 18.4994 89.4459 18.2826 89.7647 18.0021L90.6444 18.9393C90.1089 19.3345 89.5479 19.6341 88.9614 19.8381C88.3877 20.0294 87.7565 20.125 87.068 20.125ZM83.5682 14.464H89.975C89.8985 13.8903 89.7073 13.3803 89.4013 12.934C89.108 12.475 88.7383 12.118 88.292 11.863C87.8458 11.5953 87.3549 11.4614 86.8194 11.4614C86.2712 11.4614 85.7675 11.5889 85.3085 11.8439C84.8495 12.0989 84.467 12.4559 84.161 12.9149C83.855 13.3611 83.6574 13.8775 83.5682 14.464Z" fill="white"/>
<path d="M72.0771 19.9529V6.56536L73.4924 6.24023V11.4996C74.2447 10.6199 75.2519 10.18 76.5141 10.18C77.2409 10.18 77.8784 10.3394 78.4267 10.6581C78.9877 10.9641 79.4212 11.3976 79.7272 11.9586C80.0459 12.5069 80.2053 13.1507 80.2053 13.8902V19.9529H78.8092V14.1771C78.8092 13.3229 78.5669 12.6535 78.0824 12.169C77.6107 11.6717 76.9604 11.4231 76.1316 11.4231C75.5579 11.4231 75.0479 11.5506 74.6016 11.8056C74.1554 12.0606 73.7857 12.424 73.4924 12.8957V19.9529H72.0771Z" fill="white"/>
<path d="M60.7959 23.8544V10.3713H62.192V11.404C63.0208 10.6135 64.0535 10.2183 65.2903 10.2183C66.1955 10.2183 67.0115 10.4414 67.7383 10.8876C68.465 11.3211 69.0388 11.9076 69.4595 12.6471C69.893 13.3866 70.1098 14.2218 70.1098 15.1525C70.1098 16.0833 69.893 16.9248 69.4595 17.677C69.0388 18.4165 68.465 19.0094 67.7383 19.4556C67.0115 19.8891 66.1891 20.1059 65.2711 20.1059C64.7101 20.1059 64.1683 20.0103 63.6455 19.819C63.1228 19.6278 62.6446 19.3536 62.2111 18.9966V23.8544H60.7959ZM65.1564 18.8628C65.8322 18.8628 66.4378 18.7034 66.9733 18.3846C67.5088 18.0531 67.9295 17.6133 68.2355 17.065C68.5543 16.504 68.7137 15.8729 68.7137 15.1716C68.7137 14.4704 68.5543 13.8393 68.2355 13.2783C67.9295 12.7173 67.5088 12.2774 66.9733 11.9586C66.4378 11.6271 65.8322 11.4614 65.1564 11.4614C64.5572 11.4614 63.9961 11.5825 63.4734 11.8248C62.9634 12.0543 62.5426 12.3794 62.2111 12.8001V17.5431C62.5426 17.9511 62.9698 18.2763 63.4925 18.5185C64.0153 18.748 64.5699 18.8628 65.1564 18.8628Z" fill="white"/>
<path d="M51.4489 24.0455C51.2704 24.0455 51.0982 24.0327 50.9325 24.0072C50.7795 23.9945 50.652 23.9753 50.55 23.9498V22.6685C50.7667 22.7195 51.0345 22.745 51.3532 22.745C52.1947 22.745 52.8322 22.2477 53.2657 21.2532L53.8395 19.9336L49.938 10.3711H51.5062L54.6045 18.2315L57.9514 10.3711H59.4814L54.7001 21.4445C54.4324 22.0565 54.1455 22.5537 53.8395 22.9362C53.5335 23.3187 53.1829 23.5992 52.7876 23.7777C52.4051 23.9562 51.9589 24.0455 51.4489 24.0455Z" fill="white"/>
<path d="M38.9458 19.9529V18.9011L47.4564 7.86593H39.0223V6.56543H49.3881V7.6173L40.8392 18.6524H49.5411V19.9529H38.9458Z" fill="white"/>
</svg>
