<svg width="24" height="24" viewBox="0 0 24 24" fill="none" xmlns="http://www.w3.org/2000/svg">
<path d="M12 3C16.9706 3 21 7.02944 21 12C21 16.9706 16.9706 21 12 21C7.02944 21 3 16.9706 3 12C3 7.02944 7.02944 3 12 3ZM8.25 12.75C7.95163 12.75 7.66606 12.8691 7.45508 13.0801C7.2441 13.2911 7.125 13.5766 7.125 13.875C7.125 14.9039 7.77157 15.8536 8.58594 16.4941C9.44091 17.1645 10.6232 17.625 12 17.625C13.377 17.625 14.56 17.1646 15.415 16.4941C16.2308 15.8536 16.875 14.9038 16.875 13.875C16.875 13.5769 16.7566 13.291 16.5459 13.0801C16.3349 12.8691 16.0484 12.75 15.75 12.75H8.25ZM9 7.5C8.70163 7.5 8.41606 7.6191 8.20508 7.83008C7.9941 8.04106 7.875 8.32663 7.875 8.625V10.125C7.875 10.4234 7.9941 10.7099 8.20508 10.9209C8.41601 11.1316 8.70186 11.25 9 11.25C9.29837 11.25 9.58492 11.1319 9.7959 10.9209C10.0069 10.7099 10.125 10.4234 10.125 10.125V8.625C10.125 8.32686 10.0066 8.04101 9.7959 7.83008C9.58492 7.6191 9.29837 7.5 9 7.5ZM15 7.5C14.7016 7.5 14.4161 7.6191 14.2051 7.83008C13.9941 8.04106 13.875 8.32663 13.875 8.625V10.125C13.875 10.4234 13.9941 10.7099 14.2051 10.9209C14.416 11.1316 14.7019 11.25 15 11.25C15.2984 11.25 15.5849 11.1319 15.7959 10.9209C16.0069 10.7099 16.125 10.4234 16.125 10.125V8.625C16.125 8.32686 16.0066 8.04101 15.7959 7.83008C15.5849 7.6191 15.2984 7.5 15 7.5Z" fill="currentColor"/>
</svg>
