<svg width="24" height="24" viewBox="0 0 24 24" fill="none" xmlns="http://www.w3.org/2000/svg">
<path d="M18.0961 16.4449L11.9994 22.5416L5.90273 16.4449C4.69693 15.2391 3.87578 13.7028 3.54311 12.0303C3.21043 10.3578 3.38118 8.62425 4.03377 7.04879C4.68635 5.47333 5.79145 4.12677 7.20933 3.17938C8.6272 2.23199 10.2942 1.72632 11.9994 1.72632C13.7047 1.72632 15.3717 2.23199 16.7895 3.17938C18.2074 4.12677 19.3125 5.47333 19.9651 7.04879C20.6177 8.62425 20.7884 10.3578 20.4558 12.0303C20.1231 13.7028 19.3019 15.2391 18.0961 16.4449ZM11.9994 14.1802C13.0157 14.1802 13.9904 13.7765 14.7091 13.0579C15.4277 12.3392 15.8314 11.3645 15.8314 10.3482C15.8314 9.33193 15.4277 8.35724 14.7091 7.6386C13.9904 6.91997 13.0157 6.51624 11.9994 6.51624C10.9831 6.51624 10.0084 6.91997 9.28981 7.6386C8.57117 8.35724 8.16744 9.33193 8.16744 10.3482C8.16744 11.3645 8.57117 12.3392 9.28981 13.0579C10.0084 13.7765 10.9831 14.1802 11.9994 14.1802ZM11.9994 12.2642C11.4913 12.2642 11.0039 12.0624 10.6446 11.703C10.2853 11.3437 10.0834 10.8564 10.0834 10.3482C10.0834 9.84008 10.2853 9.35274 10.6446 8.99342C11.0039 8.6341 11.4913 8.43224 11.9994 8.43224C12.5076 8.43224 12.9949 8.6341 13.3543 8.99342C13.7136 9.35274 13.9154 9.84008 13.9154 10.3482C13.9154 10.8564 13.7136 11.3437 13.3543 11.703C12.9949 12.0624 12.5076 12.2642 11.9994 12.2642Z" fill="currentColor"/>
</svg>
