<svg width="100" height="100" viewBox="0 0 100 100" fill="none" xmlns="http://www.w3.org/2000/svg">
<path fill-rule="evenodd" clip-rule="evenodd" d="M12.5 16.5C12.5 14.2909 14.2909 12.5 16.5 12.5H18.5C29.6696 12.5 39.3116 19.0402 43.8055 28.5H56.1945C60.6884 19.0402 70.3304 12.5 81.5 12.5H83.5C85.7091 12.5 87.5 14.2909 87.5 16.5V36.5V38.5V71.5C87.5 80.3365 80.3366 87.5 71.5 87.5H28.5C19.6634 87.5 12.5 80.3365 12.5 71.5V38.5V36.5V16.5ZM52.2486 56.8333C52.2486 55.5447 51.2424 54.5 50.0011 54.5C48.7598 54.5 47.7536 55.5447 47.7536 56.8333V56.8367C47.753 58.1254 47.4098 59.3888 46.7617 60.4879C46.1135 61.5874 45.1854 62.4796 44.0798 63.0663C42.9742 63.653 41.734 63.9113 40.496 63.8129C39.2579 63.7144 38.0701 63.2629 37.0635 62.5081C36.0572 61.7537 34.6524 61.989 33.9256 63.0337C33.1989 64.0784 33.4255 65.5369 34.4318 66.2914C36.1095 67.5493 38.0891 68.3018 40.1525 68.4659C42.2159 68.63 44.2829 68.1995 46.1256 67.2216C47.6531 66.4111 48.9773 65.2505 50.0011 63.8333C51.0242 65.2495 52.3473 66.4095 53.8736 67.22C55.716 68.1984 57.7828 68.6297 59.8463 68.4662C61.9097 68.3027 63.8896 67.5508 65.5676 66.2935C66.5741 65.5393 66.8012 64.0808 66.0748 63.0359C65.3483 61.991 63.9435 61.7552 62.937 62.5094C61.9302 63.2638 60.7423 63.7149 59.5042 63.813C58.2662 63.9111 57.026 63.6524 55.9206 63.0654C54.8152 62.4783 53.8873 61.5858 53.2394 60.4861C52.5915 59.3864 52.2486 58.1224 52.2486 56.8333Z" fill="white"/>
</svg>
