<svg viewBox="0 0 70 24" fill="none" xmlns="http://www.w3.org/2000/svg">
  <path d="M70 0V24H6V22H4V20H2V18H0V0H70Z" fill="url(#paint0_linear_663_955)" />
  <path
    d="M10 12H8V4H4V14H6V16H8V18H10V20H12V18H14V16H16V14H18V4H14V12H12V14H10V12ZM30 8V10H28V12H24V8H30ZM58 8H56V4H52V10H54V14H52V20H56V16H58V14H60V16H62V20H66V14H64V10H66V4H62V8H60V10H58V8ZM48 4H40V6H38V8H36V16H38V18H40V20H48V18H50V14H46V16H42V14H40V10H42V8H46V10H50V6H48V4ZM20 20H24V16H28V18H30V20H34V16H32V14H34V6H32V4H20V20ZM68 22H60V18H58V22H38V20H36V22H28V20H26V22H18V18H16V20H14V22H8V20H6V18H4V16H2V2H10V10H12V2H34V4H38V2H58V6H60V2H68V22Z"
    fill="black" />
  <path
    d="M8 12H10V14H12V12H14V4H18V12H16V14H14V16H12V18H10V16H8V14H6V12H4V4H8V12ZM32 6H34V12H30V14H32V16H34V18H30V16H28V14H24V18H20V4H32V6ZM48 6H50V8H46V6H42V8H40V14H42V16H46V14H50V16H48V18H40V16H38V14H36V8H38V6H40V4H48V6ZM56 8H58V10H60V8H62V4H66V8H64V10H62V12H64V14H66V18H62V14H60V12H58V14H56V18H52V14H54V12H56V10H54V8H52V4H56V8ZM24 12H28V10H30V6H24V12Z"
    fill="white" />
  <defs>
    <linearGradient id="paint0_linear_663_955" x1="35" y1="0" x2="35" y2="24"
      gradientUnits="userSpaceOnUse">
      <stop stop-color="#F7B2A1" />
      <stop offset="1" stop-color="#E76E50" />
    </linearGradient>
  </defs>
</svg>