<svg width="24" height="24" viewBox="0 0 24 24" fill="none" xmlns="http://www.w3.org/2000/svg">
<path d="M24 16.0869C23.5515 15.7708 23.0142 15.5958 22.458 15.5957C21.8402 15.5958 21.2443 15.8095 20.7695 16.1953C20.6323 15.9578 20.4638 15.7363 20.2666 15.5391C19.6725 14.9451 18.8662 14.6105 18.0254 14.6104C17.1845 14.6104 16.3784 14.9451 15.7842 15.5391C15.19 16.1332 14.8556 16.9393 14.8555 17.7803C14.8555 18.4564 15.0714 19.1104 15.4648 19.6494C15.3361 19.6913 15.2101 19.7449 15.0908 19.8086L14.8984 19.9238C14.7722 20.008 14.6543 20.1046 14.5469 20.2119C14.1143 20.6445 13.8702 21.2314 13.8701 21.8438V21.9814C13.8702 21.9867 13.871 21.9927 13.8711 21.999C13.8714 22.0121 13.8713 22.0283 13.8721 22.0459C13.8736 22.0809 13.8769 22.1252 13.8818 22.1768C13.8917 22.2797 13.9101 22.416 13.9453 22.5742C14.0151 22.8881 14.1553 23.312 14.4414 23.7412C14.5006 23.83 14.566 23.9156 14.6348 24H0V0H24V16.0869Z" fill="white"/>
</svg>
