<svg width="12" height="12" viewBox="0 0 12 12" fill="none" xmlns="http://www.w3.org/2000/svg">
<path d="M9.20801 9.72236C9.4295 9.72236 9.60977 9.90156 9.60977 10.123C9.60974 10.3445 9.42948 10.5237 9.20801 10.5237H2.79171C2.57024 10.5237 2.39105 10.3445 2.39102 10.123C2.39102 9.90156 2.57022 9.72236 2.79171 9.72236H9.20801ZM6.08419 1.48096C6.13962 1.48843 6.1938 1.50322 6.24532 1.525L6.32051 1.5626L6.39034 1.61094C6.43406 1.64545 6.47319 1.68542 6.50635 1.73018L6.55255 1.80107L6.55577 1.80752L7.90606 4.37168C7.91002 4.37899 7.91552 4.38606 7.92217 4.39102C7.929 4.39602 7.9375 4.39907 7.94581 4.40068C7.954 4.40226 7.96242 4.4027 7.97051 4.40068C7.97871 4.39859 7.98655 4.39425 7.99307 4.38887L9.95567 2.70771C10.0591 2.62358 10.1867 2.5741 10.3198 2.56699C10.4529 2.55992 10.5851 2.59536 10.6969 2.66797C10.8087 2.74066 10.8943 2.84742 10.9418 2.97197C10.9893 3.0966 10.9961 3.23318 10.9611 3.36191V3.36406L9.66241 8.05947C9.6127 8.23965 9.50559 8.39896 9.35733 8.51279C9.20908 8.6266 9.02752 8.68855 8.84063 8.69004H3.16016C2.97321 8.68873 2.79185 8.62651 2.64346 8.51279C2.5322 8.42746 2.44376 8.31662 2.38565 8.19053L2.33731 8.05947L1.03966 3.36406L1.03858 3.36191C1.00373 3.23331 1.01043 3.09647 1.05792 2.97197L1.10089 2.88281C1.15024 2.79705 1.21917 2.72357 1.30284 2.66904L1.39092 2.62178C1.48133 2.58155 1.58015 2.56284 1.67989 2.56807L1.77872 2.58096C1.84332 2.59477 1.90523 2.61877 1.96241 2.65186L2.04512 2.70771L2.05264 2.71416L4.00665 4.38994L4.02921 4.40068C4.03728 4.40274 4.04573 4.40329 4.05391 4.40176C4.06221 4.40015 4.07072 4.39602 4.07755 4.39102C4.08413 4.38609 4.08972 4.37998 4.09366 4.37275L5.44395 1.80752L5.44825 1.80107C5.50265 1.70247 5.58225 1.6199 5.67921 1.5626L5.7544 1.525C5.83183 1.49224 5.91576 1.47559 6.0004 1.47559L6.08419 1.48096Z" fill="currentColor"/>
</svg>
