<svg width="400" height="164" viewBox="0 0 400 164" fill="none" xmlns="http://www.w3.org/2000/svg">
<path d="M22.6567 45.9395V22.4194H40.3303V26.0483H26.7895V32.2979H35.6935V35.8259H26.7895V42.3107H40.4647V45.9395H22.6567ZM49.1249 46.2419C47.8929 46.2419 46.7953 46.0179 45.8321 45.5699C44.8913 45.1219 44.1521 44.5059 43.6145 43.7219C43.0769 42.9155 42.8081 41.9971 42.8081 40.9667C42.8081 39.3091 43.4241 38.0211 44.6561 37.1027C45.9105 36.1843 47.6241 35.7251 49.7969 35.7251C51.4097 35.7251 52.9105 35.9939 54.2993 36.5315V34.9859C54.2993 33.8659 53.9633 33.0259 53.2913 32.4659C52.6417 31.9059 51.6673 31.6259 50.3681 31.6259C49.6065 31.6259 48.8001 31.7379 47.9489 31.9619C47.0977 32.1859 46.1233 32.5555 45.0257 33.0707L43.6145 30.1139C44.9361 29.5091 46.1905 29.0611 47.3777 28.7699C48.5649 28.4563 49.7633 28.2995 50.9729 28.2995C53.2577 28.2995 55.0273 28.8483 56.2817 29.9459C57.5361 31.0435 58.1633 32.5891 58.1633 34.5827V45.9395H54.2993V44.5619C53.5601 45.1443 52.7649 45.5699 51.9137 45.8387C51.0625 46.1075 50.1329 46.2419 49.1249 46.2419ZM46.5377 40.8659C46.5377 41.6275 46.8625 42.2435 47.5121 42.7139C48.1617 43.1619 49.0241 43.3859 50.0993 43.3859C50.9281 43.3859 51.6897 43.2739 52.3841 43.0499C53.1009 42.8035 53.7393 42.4451 54.2993 41.9747V39.2195C53.6945 38.9283 53.0561 38.7155 52.3841 38.5811C51.7345 38.4243 51.0177 38.3459 50.2337 38.3459C49.0913 38.3459 48.1841 38.5699 47.5121 39.0179C46.8625 39.4659 46.5377 40.0819 46.5377 40.8659ZM68.0742 46.2755C66.5286 46.2755 65.095 46.0627 63.7734 45.6371C62.4518 45.2115 61.3094 44.5955 60.3462 43.7891L62.3622 41.1683C63.3254 41.8851 64.2662 42.4227 65.1846 42.7811C66.1254 43.1171 67.0662 43.2851 68.007 43.2851C69.127 43.2851 70.0342 43.0835 70.7286 42.6803C71.423 42.2547 71.7702 41.7059 71.7702 41.0339C71.7702 40.4963 71.5686 40.0707 71.1654 39.7571C70.7622 39.4435 70.135 39.2195 69.2838 39.0851L66.0582 38.6147C64.3334 38.3683 63.0342 37.8307 62.1606 37.0019C61.287 36.1507 60.8502 35.0419 60.8502 33.6755C60.8502 32.6003 61.1302 31.6707 61.6902 30.8867C62.2726 30.0803 63.0902 29.4531 64.143 29.0051C65.1958 28.5571 66.4278 28.3331 67.839 28.3331C69.0934 28.3331 70.303 28.5123 71.4678 28.8707C72.655 29.2291 73.775 29.7779 74.8278 30.5171L72.9126 33.1043C71.9494 32.4995 71.031 32.0627 70.1574 31.7939C69.2838 31.5027 68.399 31.3571 67.503 31.3571C66.5622 31.3571 65.8006 31.5475 65.2182 31.9283C64.6582 32.2867 64.3782 32.7795 64.3782 33.4067C64.3782 33.9667 64.5798 34.4035 64.983 34.7171C65.3862 35.0083 66.0582 35.2211 66.999 35.3555L70.191 35.8259C71.9158 36.0499 73.2262 36.5875 74.1222 37.4387C75.0182 38.2675 75.4662 39.3539 75.4662 40.6979C75.4662 41.7731 75.1414 42.7363 74.4918 43.5875C73.8422 44.4163 72.9574 45.0771 71.8374 45.5699C70.7398 46.0403 69.4854 46.2755 68.0742 46.2755ZM77.9043 45.9395V28.6355H81.8355V45.9395H77.9043ZM79.8531 26.1827C79.2259 26.1827 78.6771 25.9587 78.2067 25.5107C77.7587 25.0627 77.5347 24.5139 77.5347 23.8643C77.5347 23.2147 77.7587 22.6659 78.2067 22.2179C78.6771 21.7699 79.2259 21.5459 79.8531 21.5459C80.5027 21.5459 81.0515 21.7699 81.4995 22.2179C81.9475 22.6659 82.1715 23.2147 82.1715 23.8643C82.1715 24.5139 81.9475 25.0627 81.4995 25.5107C81.0515 25.9587 80.5027 26.1827 79.8531 26.1827ZM85.6481 45.9395V22.4194L89.5793 21.7139V45.9395H85.6481ZM94.7694 53.1635C94.411 53.1635 94.0526 53.1411 93.6942 53.0963C93.3582 53.0739 93.0782 53.0291 92.8542 52.9619V49.5683C93.2798 49.6579 93.795 49.7027 94.3998 49.7027C96.0126 49.7027 97.1662 48.8851 97.8606 47.2499L98.3646 46.0403L91.5438 28.6355H95.8782L100.582 41.1683L105.824 28.6355H110.091L101.893 47.7203C101.333 49.0195 100.717 50.0723 100.045 50.8787C99.395 51.6851 98.6446 52.2675 97.7934 52.6259C96.9422 52.9843 95.9342 53.1635 94.7694 53.1635ZM125.135 46.2755C123.59 46.2755 122.156 46.0627 120.834 45.6371C119.513 45.2115 118.37 44.5955 117.407 43.7891L119.423 41.1683C120.386 41.8851 121.327 42.4227 122.246 42.7811C123.186 43.1171 124.127 43.2851 125.068 43.2851C126.188 43.2851 127.095 43.0835 127.79 42.6803C128.484 42.2547 128.831 41.7059 128.831 41.0339C128.831 40.4963 128.63 40.0707 128.226 39.7571C127.823 39.4435 127.196 39.2195 126.345 39.0851L123.119 38.6147C121.394 38.3683 120.095 37.8307 119.222 37.0019C118.348 36.1507 117.911 35.0419 117.911 33.6755C117.911 32.6003 118.191 31.6707 118.751 30.8867C119.334 30.0803 120.151 29.4531 121.204 29.0051C122.257 28.5571 123.489 28.3331 124.9 28.3331C126.154 28.3331 127.364 28.5123 128.529 28.8707C129.716 29.2291 130.836 29.7779 131.889 30.5171L129.974 33.1043C129.01 32.4995 128.092 32.0627 127.218 31.7939C126.345 31.5027 125.46 31.3571 124.564 31.3571C123.623 31.3571 122.862 31.5475 122.279 31.9283C121.719 32.2867 121.439 32.7795 121.439 33.4067C121.439 33.9667 121.641 34.4035 122.044 34.7171C122.447 35.0083 123.119 35.2211 124.06 35.3555L127.252 35.8259C128.977 36.0499 130.287 36.5875 131.183 37.4387C132.079 38.2675 132.527 39.3539 132.527 40.6979C132.527 41.7731 132.202 42.7363 131.553 43.5875C130.903 44.4163 130.018 45.0771 128.898 45.5699C127.801 46.0403 126.546 46.2755 125.135 46.2755ZM143.496 46.2419C141.771 46.2419 140.214 45.8499 138.825 45.0659C137.459 44.2819 136.361 43.2179 135.533 41.8739C134.726 40.5075 134.323 38.9843 134.323 37.3043C134.323 35.6243 134.715 34.1123 135.499 32.7683C136.283 31.4243 137.336 30.3603 138.657 29.5763C139.979 28.7699 141.457 28.3667 143.093 28.3667C144.728 28.3667 146.173 28.7699 147.427 29.5763C148.704 30.3827 149.712 31.4803 150.451 32.8691C151.19 34.2355 151.56 35.7923 151.56 37.5395V38.5811H138.321C138.501 39.4323 138.837 40.1827 139.329 40.8323C139.822 41.4819 140.449 41.9971 141.211 42.3779C141.973 42.7363 142.79 42.9155 143.664 42.9155C144.47 42.9155 145.232 42.7923 145.949 42.5459C146.688 42.2995 147.304 41.9411 147.797 41.4707L150.35 43.8899C149.32 44.6963 148.256 45.2899 147.158 45.6707C146.061 46.0515 144.84 46.2419 143.496 46.2419ZM138.288 35.7251H147.662C147.505 34.9187 147.203 34.2131 146.755 33.6083C146.307 33.0035 145.758 32.5331 145.109 32.1971C144.481 31.8387 143.787 31.6595 143.025 31.6595C142.241 31.6595 141.513 31.8275 140.841 32.1635C140.192 32.4995 139.643 32.9699 139.195 33.5747C138.769 34.1795 138.467 34.8963 138.288 35.7251ZM163.052 46.2419C161.327 46.2419 159.77 45.8499 158.382 45.0659C157.015 44.2819 155.918 43.2179 155.089 41.8739C154.282 40.5075 153.879 38.9843 153.879 37.3043C153.879 35.6243 154.271 34.1123 155.055 32.7683C155.839 31.4243 156.892 30.3603 158.214 29.5763C159.535 28.7699 161.014 28.3667 162.649 28.3667C164.284 28.3667 165.729 28.7699 166.983 29.5763C168.26 30.3827 169.268 31.4803 170.007 32.8691C170.746 34.2355 171.116 35.7923 171.116 37.5395V38.5811H157.878C158.057 39.4323 158.393 40.1827 158.886 40.8323C159.378 41.4819 160.006 41.9971 160.767 42.3779C161.529 42.7363 162.346 42.9155 163.22 42.9155C164.026 42.9155 164.788 42.7923 165.505 42.5459C166.244 42.2995 166.86 41.9411 167.353 41.4707L169.906 43.8899C168.876 44.6963 167.812 45.2899 166.714 45.6707C165.617 46.0515 164.396 46.2419 163.052 46.2419ZM157.844 35.7251H167.218C167.062 34.9187 166.759 34.2131 166.311 33.6083C165.863 33.0035 165.314 32.5331 164.665 32.1971C164.038 31.8387 163.343 31.6595 162.582 31.6595C161.798 31.6595 161.07 31.8275 160.398 32.1635C159.748 32.4995 159.199 32.9699 158.751 33.5747C158.326 34.1795 158.023 34.8963 157.844 35.7251Z" fill="white"/>
<rect x="181.9" y="13.5391" width="129.2" height="40.8" rx="14.4691" fill="white" fill-opacity="0.06"/>
<rect x="191.5" y="20.7393" width="26.4" height="26.4" rx="13.2" fill="#19191A"/>
<path d="M207.152 39.0677C207.614 39.2421 208.19 39.3516 208.91 39.3516C209.63 39.3516 210.206 39.2433 210.666 39.0689C212.516 38.3688 212.516 36.6151 212.516 36.6151C212.516 35.8008 211.856 35.1416 211.043 35.1416H206.775C205.961 35.1416 205.302 35.8008 205.302 36.6151C205.302 36.6151 205.302 38.3676 207.152 39.0689" fill="url(#paint0_linear_1598_1475)"/>
<path d="M207.152 39.0677C207.614 39.2421 208.19 39.3516 208.91 39.3516C209.63 39.3516 210.206 39.2433 210.666 39.0689C212.516 38.3688 212.516 36.6151 212.516 36.6151C212.516 35.8008 211.856 35.1416 211.043 35.1416H206.775C205.961 35.1416 205.302 35.8008 205.302 36.6151C205.302 36.6151 205.302 38.3676 207.152 39.0689" fill="url(#paint1_radial_1598_1475)" fill-opacity="0.5"/>
<path d="M206.505 36.9459C206.505 36.4674 206.315 36.0084 205.976 35.6701C205.638 35.3317 205.179 35.1416 204.7 35.1416H198.686C198.208 35.1416 197.749 35.3317 197.41 35.6701C197.072 36.0084 196.882 36.4674 196.882 36.9459V37.0361C196.882 37.0361 196.882 40.5544 201.693 40.5544C206.279 40.5544 206.494 37.3597 206.505 37.0589V36.9459Z" fill="url(#paint2_linear_1598_1475)"/>
<path d="M206.505 36.9459C206.505 36.4674 206.315 36.0084 205.976 35.6701C205.638 35.3317 205.179 35.1416 204.7 35.1416H198.686C198.208 35.1416 197.749 35.3317 197.41 35.6701C197.072 36.0084 196.882 36.4674 196.882 36.9459V37.0361C196.882 37.0361 196.882 40.5544 201.693 40.5544C206.279 40.5544 206.494 37.3597 206.505 37.0589V36.9459Z" fill="url(#paint3_linear_1598_1475)"/>
<path d="M208.91 33.9384C209.548 33.9384 210.16 33.6849 210.611 33.2337C211.063 32.7826 211.316 32.1707 211.316 31.5327C211.316 30.8946 211.063 30.2827 210.611 29.8316C210.16 29.3804 209.548 29.127 208.91 29.127C208.272 29.127 207.66 29.3804 207.209 29.8316C206.758 30.2827 206.505 30.8946 206.505 31.5327C206.505 32.1707 206.758 32.7826 207.209 33.2337C207.66 33.6849 208.272 33.9384 208.91 33.9384Z" fill="url(#paint4_linear_1598_1475)"/>
<path d="M204.7 30.9319C204.7 31.7295 204.383 32.4943 203.819 33.0583C203.255 33.6222 202.49 33.9391 201.693 33.9391C200.895 33.9391 200.131 33.6222 199.567 33.0583C199.003 32.4943 198.686 31.7295 198.686 30.9319C198.686 30.1344 199.003 29.3695 199.567 28.8056C200.131 28.2416 200.895 27.9248 201.693 27.9248C202.49 27.9248 203.255 28.2416 203.819 28.8056C204.383 29.3695 204.7 30.1344 204.7 30.9319Z" fill="url(#paint5_linear_1598_1475)"/>
<path d="M227.769 41.4395V26.3195H235.026C236.02 26.3195 236.891 26.5139 237.64 26.9027C238.389 27.2915 238.972 27.8387 239.39 28.5443C239.807 29.2355 240.016 30.0347 240.016 30.9419C240.016 31.8347 239.807 32.6267 239.39 33.3179C238.972 34.0091 238.382 34.5563 237.618 34.9595C236.87 35.3483 236.006 35.5427 235.026 35.5427H230.426V41.4395H227.769ZM230.426 33.2963H234.746C235.538 33.2963 236.164 33.0875 236.625 32.6699C237.1 32.2379 237.338 31.6691 237.338 30.9635C237.338 30.2579 237.1 29.6963 236.625 29.2787C236.164 28.8467 235.538 28.6307 234.746 28.6307H230.426V33.2963ZM242.023 41.4395V26.3195L244.55 25.8659V41.4395H242.023ZM250.522 41.6339C249.73 41.6339 249.024 41.4899 248.405 41.2019C247.8 40.9139 247.325 40.5179 246.979 40.0139C246.634 39.4955 246.461 38.9051 246.461 38.2427C246.461 37.1771 246.857 36.3491 247.649 35.7587C248.455 35.1683 249.557 34.8731 250.954 34.8731C251.99 34.8731 252.955 35.0459 253.848 35.3915V34.3979C253.848 33.6779 253.632 33.1379 253.2 32.7779C252.782 32.4179 252.156 32.2379 251.321 32.2379C250.831 32.2379 250.313 32.3099 249.766 32.4539C249.218 32.5979 248.592 32.8355 247.886 33.1667L246.979 31.2659C247.829 30.8771 248.635 30.5891 249.398 30.4019C250.162 30.2003 250.932 30.0995 251.71 30.0995C253.178 30.0995 254.316 30.4523 255.122 31.1579C255.929 31.8635 256.332 32.8571 256.332 34.1387V41.4395H253.848V40.5539C253.373 40.9283 252.862 41.2019 252.314 41.3747C251.767 41.5475 251.17 41.6339 250.522 41.6339ZM248.858 38.1779C248.858 38.6675 249.067 39.0635 249.485 39.3659C249.902 39.6539 250.457 39.7979 251.148 39.7979C251.681 39.7979 252.17 39.7259 252.617 39.5819C253.078 39.4235 253.488 39.1931 253.848 38.8907V37.1195C253.459 36.9323 253.049 36.7955 252.617 36.7091C252.199 36.6083 251.738 36.5579 251.234 36.5579C250.5 36.5579 249.917 36.7019 249.485 36.9899C249.067 37.2779 248.858 37.6739 248.858 38.1779ZM259.404 46.0835C259.173 46.0835 258.943 46.0691 258.712 46.0403C258.496 46.0259 258.316 45.9971 258.172 45.9539V43.7723C258.446 43.8299 258.777 43.8587 259.166 43.8587C260.203 43.8587 260.944 43.3331 261.391 42.2819L261.715 41.5043L257.33 30.3155H260.116L263.14 38.3723L266.51 30.3155H269.253L263.983 42.5843C263.623 43.4195 263.227 44.0963 262.795 44.6147C262.377 45.1331 261.895 45.5075 261.348 45.7379C260.8 45.9683 260.152 46.0835 259.404 46.0835ZM275.582 41.6339C274.474 41.6339 273.473 41.3819 272.58 40.8779C271.702 40.3739 270.996 39.6899 270.463 38.8259C269.945 37.9475 269.686 36.9683 269.686 35.8883C269.686 34.8083 269.938 33.8363 270.442 32.9723C270.946 32.1083 271.622 31.4243 272.472 30.9203C273.322 30.4019 274.272 30.1427 275.323 30.1427C276.374 30.1427 277.303 30.4019 278.11 30.9203C278.93 31.4387 279.578 32.1443 280.054 33.0371C280.529 33.9155 280.766 34.9163 280.766 36.0395V36.7091H272.256C272.371 37.2563 272.587 37.7387 272.904 38.1563C273.221 38.5739 273.624 38.9051 274.114 39.1499C274.603 39.3803 275.129 39.4955 275.69 39.4955C276.209 39.4955 276.698 39.4163 277.159 39.2579C277.634 39.0995 278.03 38.8691 278.347 38.5667L279.989 40.1219C279.326 40.6403 278.642 41.0219 277.937 41.2667C277.231 41.5115 276.446 41.6339 275.582 41.6339ZM272.234 34.8731H278.261C278.16 34.3547 277.966 33.9011 277.678 33.5123C277.39 33.1235 277.037 32.8211 276.619 32.6051C276.216 32.3747 275.77 32.2595 275.28 32.2595C274.776 32.2595 274.308 32.3675 273.876 32.5835C273.458 32.7995 273.106 33.1019 272.818 33.4907C272.544 33.8795 272.35 34.3403 272.234 34.8731ZM282.713 41.4395V30.3155H285.24V31.6547C285.585 31.1507 286.01 30.7619 286.514 30.4883C287.033 30.2147 287.609 30.0779 288.242 30.0779C288.746 30.0779 289.135 30.1499 289.409 30.2939V32.5403C289.207 32.4395 288.984 32.3675 288.739 32.3243C288.509 32.2811 288.271 32.2595 288.026 32.2595C287.421 32.2595 286.874 32.4179 286.385 32.7347C285.909 33.0515 285.528 33.5051 285.24 34.0955V41.4395H282.713ZM295.124 41.6555C294.131 41.6555 293.209 41.5187 292.36 41.2451C291.51 40.9715 290.776 40.5755 290.156 40.0571L291.452 38.3723C292.072 38.8331 292.676 39.1787 293.267 39.4091C293.872 39.6251 294.476 39.7331 295.081 39.7331C295.801 39.7331 296.384 39.6035 296.831 39.3443C297.277 39.0707 297.5 38.7179 297.5 38.2859C297.5 37.9403 297.371 37.6667 297.112 37.4651C296.852 37.2635 296.449 37.1195 295.902 37.0331L293.828 36.7307C292.72 36.5723 291.884 36.2267 291.323 35.6939C290.761 35.1467 290.48 34.4339 290.48 33.5555C290.48 32.8643 290.66 32.2667 291.02 31.7627C291.395 31.2443 291.92 30.8411 292.597 30.5531C293.274 30.2651 294.066 30.1211 294.973 30.1211C295.78 30.1211 296.557 30.2363 297.306 30.4667C298.069 30.6971 298.789 31.0499 299.466 31.5251L298.235 33.1883C297.616 32.7995 297.025 32.5187 296.464 32.3459C295.902 32.1587 295.333 32.0651 294.757 32.0651C294.152 32.0651 293.663 32.1875 293.288 32.4323C292.928 32.6627 292.748 32.9795 292.748 33.3827C292.748 33.7427 292.878 34.0235 293.137 34.2251C293.396 34.4123 293.828 34.5491 294.433 34.6355L296.485 34.9379C297.594 35.0819 298.436 35.4275 299.012 35.9747C299.588 36.5075 299.876 37.2059 299.876 38.0699C299.876 38.7611 299.668 39.3803 299.25 39.9275C298.832 40.4603 298.264 40.8851 297.544 41.2019C296.838 41.5043 296.032 41.6555 295.124 41.6555Z" fill="white"/>
<path d="M328.356 46.2419C327.124 46.2419 326.027 46.0179 325.063 45.5699C324.123 45.1219 323.383 44.5059 322.846 43.7219C322.308 42.9155 322.039 41.9971 322.039 40.9667C322.039 39.3091 322.655 38.0211 323.887 37.1027C325.142 36.1843 326.855 35.7251 329.028 35.7251C330.641 35.7251 332.142 35.9939 333.531 36.5315V34.9859C333.531 33.8659 333.195 33.0259 332.523 32.4659C331.873 31.9059 330.899 31.6259 329.599 31.6259C328.838 31.6259 328.031 31.7379 327.18 31.9619C326.329 32.1859 325.355 32.5555 324.257 33.0707L322.846 30.1139C324.167 29.5091 325.422 29.0611 326.609 28.7699C327.796 28.4563 328.995 28.2995 330.204 28.2995C332.489 28.2995 334.259 28.8483 335.513 29.9459C336.767 31.0435 337.395 32.5891 337.395 34.5827V45.9395H333.531V44.5619C332.791 45.1443 331.996 45.5699 331.145 45.8387C330.294 46.1075 329.364 46.2419 328.356 46.2419ZM325.769 40.8659C325.769 41.6275 326.094 42.2435 326.743 42.7139C327.393 43.1619 328.255 43.3859 329.331 43.3859C330.159 43.3859 330.921 43.2739 331.615 43.0499C332.332 42.8035 332.971 42.4451 333.531 41.9747V39.2195C332.926 38.9283 332.287 38.7155 331.615 38.5811C330.966 38.4243 330.249 38.3459 329.465 38.3459C328.323 38.3459 327.415 38.5699 326.743 39.0179C326.094 39.4659 325.769 40.0819 325.769 40.8659ZM341.123 45.9395V28.6355H345.054V30.2483C346.376 28.9491 348.056 28.2995 350.094 28.2995C351.416 28.2995 352.581 28.5907 353.589 29.1731C354.619 29.7555 355.426 30.5619 356.008 31.5923C356.59 32.6003 356.882 33.7875 356.882 35.1539V45.9395H352.95V35.7587C352.95 34.5043 352.592 33.5187 351.875 32.8019C351.158 32.0851 350.195 31.7267 348.986 31.7267C348.134 31.7267 347.373 31.9059 346.701 32.2643C346.051 32.6003 345.502 33.0819 345.054 33.7091V45.9395H341.123ZM368.544 46.2083C366.931 46.2083 365.453 45.8163 364.109 45.0323C362.765 44.2259 361.701 43.1507 360.917 41.8067C360.155 40.4627 359.775 38.9507 359.775 37.2707C359.775 35.6131 360.167 34.1123 360.951 32.7683C361.735 31.4243 362.799 30.3603 364.143 29.5763C365.487 28.7923 366.987 28.4003 368.645 28.4003C369.541 28.4003 370.415 28.5347 371.266 28.8035C372.117 29.0499 372.901 29.4307 373.618 29.9459V22.4194L377.549 21.7139V45.9395H373.651V44.3939C372.218 45.6035 370.515 46.2083 368.544 46.2083ZM369.115 42.8147C370.034 42.8147 370.874 42.6579 371.635 42.3443C372.419 42.0083 373.08 41.5267 373.618 40.8995V33.6083C373.08 33.0259 372.419 32.5779 371.635 32.2643C370.874 31.9283 370.034 31.7603 369.115 31.7603C368.107 31.7603 367.178 32.0067 366.327 32.4995C365.498 32.9699 364.837 33.6195 364.344 34.4483C363.874 35.2771 363.639 36.2179 363.639 37.2707C363.639 38.3011 363.874 39.2419 364.344 40.0931C364.837 40.9219 365.498 41.5827 366.327 42.0755C367.178 42.5683 368.107 42.8147 369.115 42.8147Z" fill="white"/>
<rect x="12.6001" y="61.5391" width="126.2" height="40.8" rx="14.4691" fill="white" fill-opacity="0.06"/>
<rect x="19.8" y="67.5391" width="36" height="28.8" rx="7.2" fill="#19191A"/>
<path d="M31.1597 77.1281L36.6031 76.3784V81.6373H31.1589L31.1597 77.1281ZM31.1597 86.7517L36.6031 87.5021V82.3074H31.1589L31.1597 86.7517ZM37.2016 87.5818L44.4418 88.5809V82.3074H37.2016V87.5818ZM37.2016 76.2979V81.6373H44.4418V75.2988L37.2016 76.2979Z" fill="#298DFF"/>
<path d="M70.8962 89.6555C69.6866 89.6555 68.5058 89.4251 67.3538 88.9643C66.2162 88.4891 65.2082 87.8267 64.3298 86.9771L65.9066 85.0763C66.7562 85.8683 67.5914 86.4515 68.4122 86.8259C69.2474 87.2003 70.133 87.3875 71.069 87.3875C71.7458 87.3875 72.3362 87.2939 72.8402 87.1067C73.3586 86.9195 73.7546 86.6603 74.0282 86.3291C74.3162 85.9835 74.4602 85.5875 74.4602 85.1411C74.4602 84.5363 74.2442 84.0755 73.8122 83.7587C73.3946 83.4275 72.6818 83.1827 71.6738 83.0243L68.9306 82.5491C67.5914 82.3187 66.5834 81.8723 65.9066 81.2099C65.2298 80.5331 64.8914 79.6547 64.8914 78.5747C64.8914 77.6675 65.1218 76.8827 65.5826 76.2203C66.0578 75.5435 66.7274 75.0251 67.5914 74.6651C68.4554 74.3051 69.4706 74.1251 70.637 74.1251C71.7314 74.1251 72.8186 74.3051 73.8986 74.6651C74.9786 75.0251 75.9434 75.5363 76.793 76.1987L75.3242 78.2075C73.7258 76.9835 72.1058 76.3715 70.4642 76.3715C69.8594 76.3715 69.3266 76.4579 68.8658 76.6307C68.405 76.7891 68.045 77.0195 67.7858 77.3219C67.541 77.6099 67.4186 77.9555 67.4186 78.3587C67.4186 78.9059 67.6058 79.3235 67.9802 79.6115C68.369 79.8995 68.9954 80.1155 69.8594 80.2595L72.4946 80.6915C74.0642 80.9507 75.2234 81.4259 75.9722 82.1171C76.721 82.8083 77.0954 83.7443 77.0954 84.9251C77.0954 85.8755 76.8362 86.7107 76.3178 87.4307C75.8138 88.1363 75.0938 88.6835 74.1578 89.0723C73.2362 89.4611 72.149 89.6555 70.8962 89.6555ZM83.5413 89.6339C82.3893 89.6339 81.5109 89.3675 80.9061 88.8347C80.3157 88.3019 80.0205 87.5243 80.0205 86.5019V80.4539H77.6877V78.3155H80.0205V75.4859L82.5477 74.9027V78.3155H85.7661V80.4539H82.5477V85.9619C82.5477 86.5091 82.6629 86.8979 82.8933 87.1283C83.1381 87.3587 83.5485 87.4739 84.1245 87.4739C84.4269 87.4739 84.6933 87.4523 84.9237 87.4091C85.1685 87.3659 85.4277 87.3011 85.7013 87.2147V89.3099C85.4133 89.4107 85.0605 89.4899 84.6429 89.5475C84.2253 89.6051 83.8581 89.6339 83.5413 89.6339ZM90.8475 89.6339C90.0555 89.6339 89.3499 89.4899 88.7307 89.2019C88.1259 88.9139 87.6507 88.5179 87.3051 88.0139C86.9595 87.4955 86.7867 86.9051 86.7867 86.2427C86.7867 85.1771 87.1827 84.3491 87.9747 83.7587C88.7811 83.1683 89.8827 82.8731 91.2795 82.8731C92.3163 82.8731 93.2811 83.0459 94.1739 83.3915V82.3979C94.1739 81.6779 93.9579 81.1379 93.5259 80.7779C93.1083 80.4179 92.4819 80.2379 91.6467 80.2379C91.1571 80.2379 90.6387 80.3099 90.0915 80.4539C89.5443 80.5979 88.9179 80.8355 88.2123 81.1667L87.3051 79.2659C88.1547 78.8771 88.9611 78.5891 89.7243 78.4019C90.4875 78.2003 91.2579 78.0995 92.0355 78.0995C93.5043 78.0995 94.6419 78.4523 95.4483 79.1579C96.2547 79.8635 96.6579 80.8571 96.6579 82.1387V89.4395H94.1739V88.5539C93.6987 88.9283 93.1875 89.2019 92.6403 89.3747C92.0931 89.5475 91.4955 89.6339 90.8475 89.6339ZM89.1843 86.1779C89.1843 86.6675 89.3931 87.0635 89.8107 87.3659C90.2283 87.6539 90.7827 87.7979 91.4739 87.7979C92.0067 87.7979 92.4963 87.7259 92.9427 87.5819C93.4035 87.4235 93.8139 87.1931 94.1739 86.8907V85.1195C93.7851 84.9323 93.3747 84.7955 92.9427 84.7091C92.5251 84.6083 92.0643 84.5579 91.5603 84.5579C90.8259 84.5579 90.2427 84.7019 89.8107 84.9899C89.3931 85.2779 89.1843 85.6739 89.1843 86.1779ZM103.728 89.6339C102.576 89.6339 101.698 89.3675 101.093 88.8347C100.502 88.3019 100.207 87.5243 100.207 86.5019V80.4539H97.8744V78.3155H100.207V75.4859L102.734 74.9027V78.3155H105.953V80.4539H102.734V85.9619C102.734 86.5091 102.85 86.8979 103.08 87.1283C103.325 87.3587 103.735 87.4739 104.311 87.4739C104.614 87.4739 104.88 87.4523 105.11 87.4091C105.355 87.3659 105.614 87.3011 105.888 87.2147V89.3099C105.6 89.4107 105.247 89.4899 104.83 89.5475C104.412 89.6051 104.045 89.6339 103.728 89.6339ZM111.812 89.6555C110.962 89.6555 110.206 89.4755 109.544 89.1155C108.881 88.7411 108.363 88.2227 107.989 87.5603C107.629 86.8979 107.449 86.1347 107.449 85.2707V78.3155H109.954V84.8603C109.954 85.6523 110.185 86.2859 110.645 86.7611C111.121 87.2363 111.747 87.4739 112.525 87.4739C113.072 87.4739 113.561 87.3587 113.993 87.1283C114.425 86.8979 114.778 86.5739 115.052 86.1563V78.3155H117.579V89.4395H115.052V88.4243C114.188 89.2451 113.108 89.6555 111.812 89.6555ZM123.996 89.6555C123.003 89.6555 122.081 89.5187 121.232 89.2451C120.382 88.9715 119.648 88.5755 119.028 88.0571L120.324 86.3723C120.944 86.8331 121.548 87.1787 122.139 87.4091C122.744 87.6251 123.348 87.7331 123.953 87.7331C124.673 87.7331 125.256 87.6035 125.703 87.3443C126.149 87.0707 126.372 86.7179 126.372 86.2859C126.372 85.9403 126.243 85.6667 125.984 85.4651C125.724 85.2635 125.321 85.1195 124.774 85.0331L122.7 84.7307C121.592 84.5723 120.756 84.2267 120.195 83.6939C119.633 83.1467 119.352 82.4339 119.352 81.5555C119.352 80.8643 119.532 80.2667 119.892 79.7627C120.267 79.2443 120.792 78.8411 121.469 78.5531C122.146 78.2651 122.938 78.1211 123.845 78.1211C124.652 78.1211 125.429 78.2363 126.178 78.4667C126.941 78.6971 127.661 79.0499 128.338 79.5251L127.107 81.1883C126.488 80.7995 125.897 80.5187 125.336 80.3459C124.774 80.1587 124.205 80.0651 123.629 80.0651C123.024 80.0651 122.535 80.1875 122.16 80.4323C121.8 80.6627 121.62 80.9795 121.62 81.3827C121.62 81.7427 121.75 82.0235 122.009 82.2251C122.268 82.4123 122.7 82.5491 123.305 82.6355L125.357 82.9379C126.466 83.0819 127.308 83.4275 127.884 83.9747C128.46 84.5075 128.748 85.2059 128.748 86.0699C128.748 86.7611 128.54 87.3803 128.122 87.9275C127.704 88.4603 127.136 88.8851 126.416 89.2019C125.71 89.5043 124.904 89.6555 123.996 89.6555Z" fill="white"/>
<path d="M158.71 94.2755C157.007 94.2755 155.462 93.8835 154.073 93.0995C152.707 92.2931 151.62 91.2179 150.814 89.8739C150.007 88.5075 149.604 86.9843 149.604 85.3043C149.604 83.6243 150.007 82.1123 150.814 80.7683C151.62 79.4019 152.707 78.3267 154.073 77.5427C155.462 76.7363 157.007 76.3331 158.71 76.3331C160.435 76.3331 161.98 76.7363 163.347 77.5427C164.735 78.3267 165.833 79.4019 166.639 80.7683C167.446 82.1123 167.849 83.6243 167.849 85.3043C167.849 86.9843 167.446 88.5075 166.639 89.8739C165.833 91.2179 164.735 92.2931 163.347 93.0995C161.98 93.8835 160.435 94.2755 158.71 94.2755ZM158.71 90.8483C159.695 90.8483 160.58 90.6019 161.364 90.1091C162.171 89.6163 162.809 88.9555 163.279 88.1267C163.75 87.2755 163.985 86.3347 163.985 85.3043C163.985 84.2515 163.75 83.3107 163.279 82.4819C162.809 81.6531 162.171 80.9923 161.364 80.4995C160.58 80.0067 159.695 79.7603 158.71 79.7603C157.747 79.7603 156.862 80.0067 156.055 80.4995C155.249 80.9923 154.611 81.6531 154.14 82.4819C153.692 83.3107 153.468 84.2515 153.468 85.3043C153.468 86.3347 153.692 87.2755 154.14 88.1267C154.611 88.9555 155.249 89.6163 156.055 90.1091C156.862 90.6019 157.747 90.8483 158.71 90.8483ZM172.653 93.9395V79.9619H168.689V76.6355H172.653V74.485C172.653 72.6034 173.18 71.1699 174.233 70.1843C175.308 69.1987 176.842 68.7058 178.836 68.7058C179.284 68.7058 179.732 68.7395 180.18 68.8067C180.65 68.8514 181.053 68.9298 181.389 69.0418V72.3683C180.986 72.2563 180.628 72.1779 180.314 72.1331C180.001 72.0883 179.653 72.0659 179.273 72.0659C178.377 72.0659 177.693 72.2787 177.223 72.7043C176.775 73.1075 176.551 73.7347 176.551 74.5859V76.6355H181.389V79.9619H176.551V93.9395H172.653ZM192.18 101.163C191.822 101.163 191.464 101.141 191.105 101.096C190.769 101.074 190.489 101.029 190.265 100.962V97.5683C190.691 97.6579 191.206 97.7027 191.811 97.7027C193.424 97.7027 194.577 96.8851 195.272 95.2499L195.776 94.0403L188.955 76.6355H193.289L197.993 89.1683L203.235 76.6355H207.502L199.304 95.7203C198.744 97.0195 198.128 98.0723 197.456 98.8787C196.806 99.6851 196.056 100.267 195.204 100.626C194.353 100.984 193.345 101.163 192.18 101.163ZM217.28 94.2755C215.578 94.2755 214.032 93.8835 212.643 93.0995C211.277 92.2931 210.191 91.2179 209.384 89.8739C208.578 88.5075 208.175 86.9843 208.175 85.3043C208.175 83.6243 208.578 82.1123 209.384 80.7683C210.191 79.4019 211.277 78.3267 212.643 77.5427C214.032 76.7363 215.578 76.3331 217.28 76.3331C219.005 76.3331 220.551 76.7363 221.917 77.5427C223.306 78.3267 224.403 79.4019 225.21 80.7683C226.016 82.1123 226.419 83.6243 226.419 85.3043C226.419 86.9843 226.016 88.5075 225.21 89.8739C224.403 91.2179 223.306 92.2931 221.917 93.0995C220.551 93.8835 219.005 94.2755 217.28 94.2755ZM217.28 90.8483C218.266 90.8483 219.151 90.6019 219.935 90.1091C220.741 89.6163 221.379 88.9555 221.85 88.1267C222.32 87.2755 222.555 86.3347 222.555 85.3043C222.555 84.2515 222.32 83.3107 221.85 82.4819C221.379 81.6531 220.741 80.9923 219.935 80.4995C219.151 80.0067 218.266 79.7603 217.28 79.7603C216.317 79.7603 215.432 80.0067 214.626 80.4995C213.819 80.9923 213.181 81.6531 212.711 82.4819C212.263 83.3107 212.039 84.2515 212.039 85.3043C212.039 86.3347 212.263 87.2755 212.711 88.1267C213.181 88.9555 213.819 89.6163 214.626 90.1091C215.432 90.6019 216.317 90.8483 217.28 90.8483ZM236.142 94.2755C234.821 94.2755 233.645 93.9955 232.614 93.4355C231.584 92.8531 230.778 92.0467 230.195 91.0163C229.635 89.9859 229.355 88.7987 229.355 87.4547V76.6355H233.253V86.8163C233.253 88.0483 233.611 89.0339 234.328 89.7731C235.067 90.5123 236.042 90.8819 237.251 90.8819C238.102 90.8819 238.864 90.7027 239.536 90.3443C240.208 89.9859 240.757 89.4819 241.182 88.8323V76.6355H245.114V93.9395H241.182V92.3603C239.838 93.6371 238.158 94.2755 236.142 94.2755ZM248.914 93.9395V76.6355H252.845V78.7187C253.383 77.9347 254.043 77.3299 254.827 76.9043C255.634 76.4787 256.53 76.2659 257.515 76.2659C258.299 76.2659 258.904 76.3779 259.33 76.6019V80.0963C259.016 79.9395 258.669 79.8275 258.288 79.7603C257.93 79.6931 257.56 79.6595 257.179 79.6595C256.239 79.6595 255.387 79.9059 254.626 80.3987C253.887 80.8915 253.293 81.5971 252.845 82.5155V93.9395H248.914ZM280.625 94.3091C278.877 94.3091 277.253 94.0067 275.753 93.4019C274.252 92.7747 272.93 91.9123 271.788 90.8147C270.668 89.6947 269.794 88.4067 269.167 86.9507C268.54 85.4723 268.226 83.8819 268.226 82.1795C268.226 80.4771 268.54 78.8979 269.167 77.4419C269.794 75.9635 270.668 74.6755 271.788 73.5779C272.93 72.4579 274.252 71.5955 275.753 70.9907C277.276 70.3635 278.9 70.0499 280.625 70.0499C281.879 70.0499 283.1 70.2179 284.287 70.5539C285.497 70.8898 286.605 71.3714 287.613 71.9986C288.644 72.6259 289.529 73.3875 290.268 74.2835L287.479 77.0723C286.605 76.0195 285.575 75.2243 284.388 74.6867C283.201 74.1491 281.946 73.8803 280.625 73.8803C279.46 73.8803 278.385 74.0931 277.399 74.5187C276.413 74.9219 275.551 75.5043 274.812 76.2659C274.073 77.0051 273.49 77.8787 273.065 78.8867C272.661 79.8947 272.46 80.9923 272.46 82.1795C272.46 83.3443 272.661 84.4307 273.065 85.4387C273.49 86.4467 274.073 87.3315 274.812 88.0931C275.573 88.8323 276.458 89.4147 277.466 89.8403C278.474 90.2435 279.572 90.4451 280.759 90.4451C282.058 90.4451 283.279 90.1875 284.421 89.6723C285.586 89.1347 286.583 88.3731 287.412 87.3875L290.133 90.1091C289.394 90.9603 288.509 91.7107 287.479 92.3603C286.471 92.9875 285.373 93.4691 284.186 93.8051C283.021 94.1411 281.834 94.3091 280.625 94.3091ZM299.175 94.2755C297.854 94.2755 296.678 93.9955 295.647 93.4355C294.617 92.8531 293.81 92.0467 293.228 91.0163C292.668 89.9859 292.388 88.7987 292.388 87.4547V76.6355H296.286V86.8163C296.286 88.0483 296.644 89.0339 297.361 89.7731C298.1 90.5123 299.074 90.8819 300.284 90.8819C301.135 90.8819 301.897 90.7027 302.569 90.3443C303.241 89.9859 303.79 89.4819 304.215 88.8323V76.6355H308.146V93.9395H304.215V92.3603C302.871 93.6371 301.191 94.2755 299.175 94.2755ZM311.947 93.9395V76.6355H315.878V78.7187C316.415 77.9347 317.076 77.3299 317.86 76.9043C318.667 76.4787 319.563 76.2659 320.548 76.2659C321.332 76.2659 321.937 76.3779 322.363 76.6019V80.0963C322.049 79.9395 321.702 79.8275 321.321 79.7603C320.963 79.6931 320.593 79.6595 320.212 79.6595C319.271 79.6595 318.42 79.9059 317.659 80.3987C316.919 80.8915 316.326 81.5971 315.878 82.5155V93.9395H311.947ZM324.973 93.9395V76.6355H328.904V78.7187C329.442 77.9347 330.103 77.3299 330.887 76.9043C331.693 76.4787 332.589 76.2659 333.575 76.2659C334.359 76.2659 334.964 76.3779 335.389 76.6019V80.0963C335.076 79.9395 334.728 79.8275 334.348 79.7603C333.989 79.6931 333.62 79.6595 333.239 79.6595C332.298 79.6595 331.447 79.9059 330.685 80.3987C329.946 80.8915 329.352 81.5971 328.904 82.5155V93.9395H324.973ZM345.513 94.2419C343.788 94.2419 342.231 93.8499 340.843 93.0659C339.476 92.2819 338.379 91.2179 337.55 89.8739C336.743 88.5075 336.34 86.9843 336.34 85.3043C336.34 83.6243 336.732 82.1123 337.516 80.7683C338.3 79.4243 339.353 78.3603 340.675 77.5763C341.996 76.7699 343.475 76.3667 345.11 76.3667C346.745 76.3667 348.19 76.7699 349.444 77.5763C350.721 78.3827 351.729 79.4803 352.468 80.8691C353.207 82.2355 353.577 83.7923 353.577 85.5395V86.5811H340.339C340.518 87.4323 340.854 88.1827 341.347 88.8323C341.839 89.4819 342.467 89.9971 343.228 90.3779C343.99 90.7363 344.807 90.9155 345.681 90.9155C346.487 90.9155 347.249 90.7923 347.966 90.5459C348.705 90.2995 349.321 89.9411 349.814 89.4707L352.367 91.8899C351.337 92.6963 350.273 93.2899 349.175 93.6707C348.078 94.0515 346.857 94.2419 345.513 94.2419ZM340.305 83.7251H349.679C349.523 82.9187 349.22 82.2131 348.772 81.6083C348.324 81.0035 347.775 80.5331 347.126 80.1971C346.499 79.8387 345.804 79.6595 345.043 79.6595C344.259 79.6595 343.531 79.8275 342.859 80.1635C342.209 80.4995 341.66 80.9699 341.212 81.5747C340.787 82.1795 340.484 82.8963 340.305 83.7251ZM356.604 93.9395V76.6355H360.536V78.2483C361.857 76.9491 363.537 76.2995 365.576 76.2995C366.897 76.2995 368.062 76.5907 369.07 77.1731C370.1 77.7555 370.907 78.5619 371.489 79.5923C372.072 80.6003 372.363 81.7875 372.363 83.1539V93.9395H368.432V83.7587C368.432 82.5043 368.073 81.5187 367.356 80.8019C366.64 80.0851 365.676 79.7267 364.467 79.7267C363.616 79.7267 362.854 79.9059 362.182 80.2643C361.532 80.6003 360.984 81.0819 360.536 81.7091V93.9395H356.604ZM383.332 94.2419C381.54 94.2419 380.173 93.8275 379.232 92.9987C378.314 92.1699 377.855 90.9603 377.855 89.3699V79.9619H374.226V76.6355H377.855V72.2339L381.786 71.3267V76.6355H386.792V79.9619H381.786V88.5299C381.786 89.3811 381.965 89.9859 382.324 90.3443C382.704 90.7027 383.343 90.8819 384.239 90.8819C384.709 90.8819 385.124 90.8483 385.482 90.7811C385.863 90.7139 386.266 90.6131 386.692 90.4787V93.7379C386.244 93.8947 385.695 94.0179 385.045 94.1075C384.396 94.1971 383.824 94.2419 383.332 94.2419Z" fill="white"/>
<rect x="106.1" y="115.546" width="85.2" height="27.3857" rx="4.56429" fill="white"/>
<path d="M183.447 120.11C183.833 120.11 184.216 120.189 184.573 120.341C184.93 120.493 185.254 120.716 185.528 120.997C185.801 121.278 186.018 121.611 186.165 121.979C186.313 122.346 186.388 122.74 186.388 123.137V135.917C186.388 136.314 186.312 136.707 186.164 137.074C186.017 137.441 185.8 137.774 185.527 138.055C185.253 138.335 184.928 138.558 184.572 138.71C184.215 138.862 183.833 138.94 183.447 138.94H138.839C138.453 138.94 138.071 138.862 137.714 138.71C137.357 138.558 137.033 138.335 136.76 138.055C136.487 137.774 136.27 137.441 136.122 137.074C135.975 136.707 135.898 136.314 135.898 135.917V123.133C135.898 122.331 136.209 121.562 136.76 120.995C137.311 120.429 138.059 120.11 138.839 120.11H183.447ZM120.742 121.554C121.489 121.554 122.481 122.056 122.482 122.732C122.479 122.795 122.465 122.869 122.441 122.952L118.364 136.669C118.176 137.326 117.393 137.629 116.584 137.629C115.775 137.629 115.014 137.323 114.801 136.669L110.704 122.952C110.682 122.865 110.664 122.778 110.664 122.732C110.665 122.033 111.661 121.558 112.404 121.558C112.87 121.558 113.227 121.709 113.337 122.124L116.584 133.944L119.809 122.12C119.916 121.709 120.276 121.554 120.742 121.554ZM143.075 121.55C140.402 121.55 138.174 122.907 138.174 126.546V132.63C138.174 136.276 140.38 137.625 143.053 137.625C146.027 137.625 148.123 135.947 148.123 133.31C148.123 132.199 147.682 131.915 146.726 131.915C146.005 131.915 145.41 132.131 145.369 132.808C145.303 133.726 145.134 135.138 143.204 135.139C141.741 135.139 140.935 134.33 140.935 132.63V126.546C140.935 124.845 141.741 124.04 143.163 124.04C145.178 124.04 145.325 125.522 145.369 126.194C145.388 126.852 145.962 127.094 146.748 127.094C147.682 127.094 148.127 126.829 148.127 125.695C148.127 123.164 146.024 121.55 143.075 121.55ZM129.25 121.554C132.03 121.554 134.281 122.646 134.281 126.115C134.28 128.62 133.089 129.973 131.497 130.472L134.277 135.777C134.345 135.88 134.38 136.001 134.379 136.125C134.379 136.843 133.467 137.61 132.662 137.61C132.28 137.61 131.92 137.368 131.706 136.934L128.692 130.914H126.912V136.604C126.912 137.194 126.228 137.5 125.53 137.5C124.831 137.5 124.155 137.194 124.155 136.604V122.427C124.156 122.309 124.18 122.193 124.226 122.085C124.272 121.977 124.338 121.879 124.421 121.798C124.504 121.717 124.601 121.653 124.708 121.611C124.815 121.569 124.93 121.55 125.044 121.554H129.25ZM159.117 121.558C158.419 121.558 157.739 121.818 157.739 122.427V128.121H152.962V122.427C152.962 121.818 152.282 121.558 151.583 121.558C150.885 121.558 150.204 121.818 150.204 122.427V136.604C150.205 137.194 150.903 137.5 151.583 137.5C152.263 137.5 152.962 137.194 152.962 136.604V130.347H157.739V136.604C157.739 137.194 158.437 137.5 159.117 137.5C159.797 137.5 160.495 137.194 160.495 136.604V122.427C160.495 121.818 159.816 121.558 159.117 121.558ZM168.07 121.425C167.287 121.425 166.5 121.731 166.313 122.385L162.216 136.103C162.194 136.189 162.172 136.276 162.172 136.321C162.172 137.016 163.169 137.497 163.911 137.497C164.378 137.497 164.738 137.345 164.845 136.93L165.651 134.027H170.511L171.321 136.93C171.427 137.345 171.787 137.497 172.254 137.497C172.993 137.497 173.993 136.998 173.993 136.321C173.989 136.258 173.974 136.185 173.949 136.103L169.853 122.385C169.661 121.727 168.853 121.425 168.07 121.425ZM174.269 121.558C173.673 121.558 173.398 122.215 173.398 122.827C173.398 123.518 173.718 124.112 174.269 124.112H177.387V136.602C177.387 137.191 178.086 137.497 178.766 137.497C179.446 137.497 180.144 137.191 180.145 136.602V124.108H183.244C183.796 124.108 184.115 123.503 184.115 122.823C184.115 122.211 183.836 121.558 183.24 121.558H174.269ZM169.92 131.806H166.228L168.073 125.109L169.92 131.806ZM126.916 128.685H129.254L129.25 128.688C130.633 128.688 131.523 128.099 131.523 126.376C131.523 124.653 130.629 124.041 129.25 124.041H126.916V128.685Z" fill="black"/>
<path d="M186.736 142.932L186.736 150.539L179.129 142.932H186.736Z" fill="white"/>
<path d="M203.518 142V118.48H214.539C216.129 118.48 217.518 118.782 218.705 119.387C219.915 119.97 220.844 120.798 221.494 121.874C222.166 122.949 222.502 124.192 222.502 125.603C222.502 127.104 222.076 128.426 221.225 129.568C220.374 130.71 219.231 131.539 217.798 132.054L223.006 142H218.403L213.665 132.659H207.651V142H203.518ZM207.651 129.232H214.203C215.457 129.232 216.454 128.907 217.193 128.258C217.955 127.608 218.335 126.734 218.335 125.637C218.335 124.584 217.955 123.733 217.193 123.083C216.454 122.411 215.457 122.075 214.203 122.075H207.651V129.232ZM232.907 142.336C231.204 142.336 229.659 141.944 228.27 141.16C226.904 140.354 225.817 139.278 225.011 137.934C224.204 136.568 223.801 135.045 223.801 133.365C223.801 131.685 224.204 130.173 225.011 128.829C225.817 127.462 226.904 126.387 228.27 125.603C229.659 124.797 231.204 124.394 232.907 124.394C234.632 124.394 236.177 124.797 237.544 125.603C238.932 126.387 240.03 127.462 240.836 128.829C241.643 130.173 242.046 131.685 242.046 133.365C242.046 135.045 241.643 136.568 240.836 137.934C240.03 139.278 238.932 140.354 237.544 141.16C236.177 141.944 234.632 142.336 232.907 142.336ZM232.907 138.909C233.892 138.909 234.777 138.662 235.561 138.17C236.368 137.677 237.006 137.016 237.476 136.187C237.947 135.336 238.182 134.395 238.182 133.365C238.182 132.312 237.947 131.371 237.476 130.542C237.006 129.714 236.368 129.053 235.561 128.56C234.777 128.067 233.892 127.821 232.907 127.821C231.944 127.821 231.059 128.067 230.252 128.56C229.446 129.053 228.808 129.714 228.337 130.542C227.889 131.371 227.665 132.312 227.665 133.365C227.665 134.395 227.889 135.336 228.337 136.187C228.808 137.016 229.446 137.677 230.252 138.17C231.059 138.662 231.944 138.909 232.907 138.909ZM253.382 142.336C251.679 142.336 250.134 141.944 248.745 141.16C247.379 140.354 246.292 139.278 245.486 137.934C244.679 136.568 244.276 135.045 244.276 133.365C244.276 131.685 244.679 130.173 245.486 128.829C246.292 127.462 247.379 126.387 248.745 125.603C250.134 124.797 251.679 124.394 253.382 124.394C255.107 124.394 256.652 124.797 258.019 125.603C259.407 126.387 260.505 127.462 261.311 128.829C262.118 130.173 262.521 131.685 262.521 133.365C262.521 135.045 262.118 136.568 261.311 137.934C260.505 139.278 259.407 140.354 258.019 141.16C256.652 141.944 255.107 142.336 253.382 142.336ZM253.382 138.909C254.367 138.909 255.252 138.662 256.036 138.17C256.843 137.677 257.481 137.016 257.951 136.187C258.422 135.336 258.657 134.395 258.657 133.365C258.657 132.312 258.422 131.371 257.951 130.542C257.481 129.714 256.843 129.053 256.036 128.56C255.252 128.067 254.367 127.821 253.382 127.821C252.419 127.821 251.534 128.067 250.727 128.56C249.921 129.053 249.283 129.714 248.812 130.542C248.364 131.371 248.14 132.312 248.14 133.365C248.14 134.395 248.364 135.336 248.812 136.187C249.283 137.016 249.921 137.677 250.727 138.17C251.534 138.662 252.419 138.909 253.382 138.909ZM265.558 142V124.696H269.489V126.208C270.743 124.976 272.3 124.36 274.159 124.36C275.324 124.36 276.354 124.606 277.25 125.099C278.169 125.592 278.908 126.264 279.468 127.115C280.162 126.219 280.991 125.536 281.954 125.066C282.94 124.595 284.038 124.36 285.247 124.36C286.524 124.36 287.644 124.651 288.607 125.234C289.593 125.816 290.366 126.622 290.926 127.653C291.486 128.661 291.766 129.848 291.766 131.214V142H287.868V131.819C287.868 130.565 287.532 129.579 286.86 128.862C286.21 128.146 285.326 127.787 284.206 127.787C283.444 127.787 282.75 127.955 282.122 128.291C281.495 128.627 280.958 129.142 280.51 129.837C280.532 130.038 280.554 130.262 280.577 130.509C280.599 130.733 280.61 130.968 280.61 131.214V142H276.713V131.819C276.713 130.565 276.377 129.579 275.705 128.862C275.055 128.146 274.182 127.787 273.084 127.787C272.322 127.787 271.639 127.944 271.034 128.258C270.43 128.571 269.914 129.03 269.489 129.635V142H265.558Z" fill="white"/>
<defs>
<linearGradient id="paint0_linear_1598_1475" x1="207.017" y1="35.7009" x2="208.555" y2="39.9085" gradientUnits="userSpaceOnUse">
<stop offset="0.125" stop-color="#9C6CFE"/>
<stop offset="1" stop-color="#7A41DC"/>
</linearGradient>
<radialGradient id="paint1_radial_1598_1475" cx="0" cy="0" r="1" gradientUnits="userSpaceOnUse" gradientTransform="translate(204.388 37.2466) rotate(-7.36814) scale(4.78742 4.96073)">
<stop offset="0.392" stop-color="#3B148A"/>
<stop offset="1" stop-color="#3B148A" stop-opacity="0"/>
</radialGradient>
<linearGradient id="paint2_linear_1598_1475" x1="199.17" y1="35.8609" x2="201.092" y2="41.317" gradientUnits="userSpaceOnUse">
<stop offset="0.125" stop-color="#BD96FF"/>
<stop offset="1" stop-color="#9C6CFE"/>
</linearGradient>
<linearGradient id="paint3_linear_1598_1475" x1="201.693" y1="34.4969" x2="204.4" y2="43.4882" gradientUnits="userSpaceOnUse">
<stop stop-color="#885EDB" stop-opacity="0"/>
<stop offset="1" stop-color="#E362F8"/>
</linearGradient>
<linearGradient id="paint4_linear_1598_1475" x1="207.649" y1="29.7669" x2="210.101" y2="33.6821" gradientUnits="userSpaceOnUse">
<stop offset="0.125" stop-color="#9C6CFE"/>
<stop offset="1" stop-color="#7A41DC"/>
</linearGradient>
<linearGradient id="paint5_linear_1598_1475" x1="200.116" y1="28.7247" x2="203.181" y2="33.6191" gradientUnits="userSpaceOnUse">
<stop offset="0.125" stop-color="#BD96FF"/>
<stop offset="1" stop-color="#9C6CFE"/>
</linearGradient>
</defs>
</svg>
