<svg width="24" height="24" viewBox="0 0 24 24" fill="none" xmlns="http://www.w3.org/2000/svg">
<path d="M24 15.4072C23.7079 15.4652 23.4336 15.5931 23.2021 15.7812C23.1945 15.7875 23.1862 15.7943 23.1787 15.8008L22.3037 16.5498L21.6211 15.2529L21.6201 15.2539C21.602 15.2191 21.5829 15.1843 21.5615 15.1514L21.5156 15.0801L21.4746 15.0205L21.3975 14.9238C21.3182 14.8309 21.2304 14.747 21.1377 14.6738L21.0771 14.6289L21.0078 14.5811L20.8613 14.4941L20.7861 14.457L20.7168 14.4248L20.6025 14.3809C20.4878 14.3412 20.3681 14.3131 20.248 14.2969L20.165 14.2881L20.0811 14.2832L20.0039 14.2803C19.7632 14.2804 19.5196 14.3282 19.291 14.4248L19.2217 14.457L19.1465 14.4941L19.0723 14.5342C18.7885 14.702 18.5578 14.944 18.4014 15.2275C18.3965 15.2362 18.3904 15.2452 18.3857 15.2539L17.7031 16.5498L16.8379 15.8076L16.8301 15.8018L16.7207 15.7178L16.6377 15.6621L16.5674 15.6182L16.4414 15.5518C16.3127 15.4901 16.175 15.4425 16.0332 15.4121L15.9375 15.3955L15.8389 15.3828C15.8085 15.3789 15.7766 15.3766 15.7461 15.375C15.4556 15.3599 15.168 15.4143 14.9072 15.5303L14.8271 15.5693L14.7393 15.6162L14.6514 15.6689C14.4072 15.8282 14.2067 16.0419 14.0645 16.2891L14.0234 16.3672L13.9805 16.4561L13.9404 16.5488C13.8023 16.9111 13.7829 17.3082 13.8838 17.6807C13.8845 17.6832 13.886 17.6859 13.8867 17.6885L15.1846 22.3838C15.1935 22.416 15.2043 22.4482 15.2158 22.4795L15.2637 22.6104C15.2745 22.6396 15.2868 22.669 15.2998 22.6973C15.3684 22.8461 15.4545 22.9866 15.5557 23.1143C15.3625 23.3504 15.2357 23.6435 15.2031 23.9639L15.2012 24H0V0H24V15.4072Z" fill="white"/>
</svg>
