<svg width="12" height="12" viewBox="0 0 12 12" fill="none" xmlns="http://www.w3.org/2000/svg">
<path d="M5.877 6.73891C6.06076 6.73891 6.2397 6.78475 6.39889 6.86974C6.43063 6.88669 6.46168 6.90502 6.49172 6.92506C6.55201 6.96525 6.60856 7.01159 6.66055 7.06358C6.86838 7.27142 6.98523 7.55321 6.98523 7.84713V7.97027C6.98523 7.97027 6.98523 10.1867 4.02997 10.1867C1.07471 10.1867 1.07471 7.97027 1.07471 7.97027V7.84713C1.07471 7.55321 1.19155 7.27142 1.39938 7.06358C1.45137 7.01159 1.50793 6.96525 1.56821 6.92506C1.59825 6.90502 1.62931 6.88669 1.66105 6.86974C1.82024 6.78475 1.99918 6.73891 2.18293 6.73891H5.877ZM9.84188 6.73891C10.1293 6.73891 10.4049 6.85316 10.6081 7.05637C10.8113 7.25958 10.9256 7.53521 10.9256 7.8226C10.9255 7.8369 10.9146 9.4479 8.46286 9.4479C8.08261 9.4479 7.76128 9.40806 7.48931 9.34256C7.65892 9.03319 7.75317 8.73935 7.80437 8.50899C7.83641 8.3648 7.85333 8.24161 7.86209 8.14968C7.86647 8.10365 7.86892 8.06486 7.87027 8.03472C7.87094 8.01966 7.87148 8.00649 7.87171 7.99576V7.84713C7.87171 7.44981 7.75336 7.06458 7.53597 6.73891H9.84188ZM4.02997 1.81348C4.55249 1.81348 5.05346 2.0212 5.42294 2.39068C5.79242 2.76015 6.00014 3.26113 6.00014 3.78365C6.00014 4.30617 5.79242 4.80714 5.42294 5.17662C5.05346 5.5461 4.55249 5.75382 4.02997 5.75382C3.50744 5.75382 3.00647 5.5461 2.63699 5.17662C2.26751 4.80714 2.05979 4.30617 2.05979 3.78365C2.05979 3.26113 2.26751 2.76015 2.63699 2.39068C3.00647 2.0212 3.50744 1.81348 4.02997 1.81348ZM8.46286 2.79856C8.85475 2.79856 9.23048 2.95435 9.50759 3.23146C9.7847 3.50857 9.94049 3.8843 9.94049 4.27619C9.94049 4.66808 9.7847 5.04381 9.50759 5.32092C9.23048 5.59803 8.85475 5.75382 8.46286 5.75382C8.07096 5.75382 7.69524 5.59803 7.41813 5.32092C7.14102 5.04381 6.98523 4.66808 6.98523 4.27619C6.98523 3.8843 7.14102 3.50857 7.41813 3.23146C7.69524 2.95435 8.07096 2.79856 8.46286 2.79856Z" fill="currentColor"/>
</svg>
