<svg width="300" height="192" viewBox="0 0 300 192" fill="none" xmlns="http://www.w3.org/2000/svg">
<g clip-path="url(#clip0_1592_3416)">
<rect width="300" height="192" fill="url(#paint0_linear_1592_3416)"/>
<circle cx="59" cy="79" r="28" fill="#E76E50"/>
<circle cx="41" cy="102" r="18" fill="#E76E50"/>
<circle cx="66" cy="117" r="21" fill="#E76E50"/>
<circle cx="3" cy="3" r="3" transform="matrix(1 0 0 -1 35 33)" fill="#E76E50"/>
<circle cx="31" cy="158" r="10" fill="#E76E50"/>
<circle cx="64" cy="156" r="6" fill="#E76E50"/>
<g filter="url(#filter0_d_1592_3416)">
<rect x="64" y="24" width="284" height="189.845" rx="6" fill="url(#paint1_linear_1592_3416)" shape-rendering="crispEdges"/>
<rect x="64.4167" y="24.4167" width="283.167" height="189.012" rx="5.58333" stroke="white" stroke-opacity="0.05" stroke-width="0.833333" shape-rendering="crispEdges"/>
<path d="M73.5517 39.3047V36.0348H74.2518V39.1159L73.8649 38.7152H75.7577V39.3047H73.5517ZM77.2111 39.36C76.9593 39.36 76.7398 39.3078 76.5525 39.2034C76.3652 39.0959 76.2194 38.9455 76.115 38.752C76.0106 38.5586 75.9584 38.3314 75.9584 38.0704C75.9584 37.8095 76.0106 37.5838 76.115 37.3934C76.2194 37.2 76.3652 37.0496 76.5525 36.9421C76.7398 36.8347 76.9593 36.7809 77.2111 36.7809C77.4628 36.7809 77.6823 36.8347 77.8696 36.9421C78.0569 37.0496 78.2028 37.2 78.3071 37.3934C78.4115 37.5838 78.4637 37.8095 78.4637 38.0704C78.4637 38.3314 78.4115 38.5586 78.3071 38.752C78.2028 38.9455 78.0569 39.0959 77.8696 39.2034C77.6823 39.3078 77.4628 39.36 77.2111 39.36ZM77.2111 38.8303C77.383 38.8303 77.5165 38.7643 77.6117 38.6323C77.7069 38.4972 77.7545 38.3099 77.7545 38.0704C77.7545 37.831 77.7069 37.6452 77.6117 37.5132C77.5165 37.3781 77.383 37.3105 77.2111 37.3105C77.0391 37.3105 76.9056 37.3781 76.8104 37.5132C76.7152 37.6452 76.6676 37.831 76.6676 38.0704C76.6676 38.3099 76.7152 38.4972 76.8104 38.6323C76.9056 38.7643 77.0391 38.8303 77.2111 38.8303ZM80.013 39.36C79.7612 39.36 79.5417 39.3078 79.3544 39.2034C79.1671 39.0959 79.0213 38.9455 78.9169 38.752C78.8125 38.5586 78.7603 38.3314 78.7603 38.0704C78.7603 37.8095 78.8125 37.5838 78.9169 37.3934C79.0213 37.2 79.1671 37.0496 79.3544 36.9421C79.5417 36.8347 79.7612 36.7809 80.013 36.7809C80.231 36.7809 80.4259 36.8193 80.5979 36.8961C80.7729 36.9728 80.9141 37.0833 81.0216 37.2276C81.129 37.372 81.195 37.5454 81.2196 37.7481L80.5058 37.7803C80.4843 37.6268 80.429 37.5116 80.34 37.4349C80.254 37.3551 80.145 37.3152 80.013 37.3152C79.841 37.3152 79.7075 37.3812 79.6123 37.5132C79.5171 37.6452 79.4695 37.831 79.4695 38.0704C79.4695 38.3099 79.5171 38.4972 79.6123 38.6323C79.7075 38.7643 79.841 38.8303 80.013 38.8303C80.145 38.8303 80.2555 38.7904 80.3446 38.7106C80.4336 38.6277 80.4873 38.5033 80.5058 38.3376L81.2196 38.3652C81.1981 38.5678 81.1336 38.7444 81.0262 38.8948C80.9218 39.0422 80.7821 39.1573 80.6071 39.2402C80.4351 39.32 80.2371 39.36 80.013 39.36ZM82.3561 39.36C82.1013 39.36 81.8925 39.3016 81.7298 39.1849C81.5701 39.0652 81.4903 38.8994 81.4903 38.6876C81.4903 38.4696 81.5578 38.3022 81.6929 38.1856C81.8311 38.0658 82.0337 37.9783 82.3008 37.9231L83.0976 37.7665C83.0976 37.6068 83.0607 37.4871 82.987 37.4073C82.9164 37.3244 82.8136 37.2829 82.6785 37.2829C82.5464 37.2829 82.4436 37.3136 82.3699 37.375C82.2962 37.4334 82.2486 37.5209 82.2271 37.6375L81.5317 37.6053C81.5778 37.3351 81.699 37.1309 81.8955 36.9928C82.0951 36.8515 82.3561 36.7809 82.6785 36.7809C83.0469 36.7809 83.3232 36.8684 83.5074 37.0434C83.6947 37.2184 83.7884 37.4748 83.7884 37.8125V38.6553C83.7884 38.7259 83.7991 38.7735 83.8206 38.7981C83.8452 38.8196 83.8805 38.8303 83.9265 38.8303H83.9956V39.3047C83.9741 39.3108 83.9388 39.317 83.8897 39.3231C83.8436 39.3292 83.7976 39.3323 83.7515 39.3323C83.6533 39.3323 83.5612 39.3154 83.4752 39.2817C83.3923 39.2479 83.3248 39.1911 83.2726 39.1113C83.2204 39.0284 83.1943 38.9117 83.1943 38.7612L83.2541 38.8073C83.2234 38.9178 83.1682 39.0145 83.0883 39.0974C83.0116 39.1803 82.9103 39.2448 82.7844 39.2909C82.6616 39.3369 82.5188 39.36 82.3561 39.36ZM82.5219 38.8856C82.6355 38.8856 82.7353 38.8641 82.8212 38.8211C82.9072 38.7751 82.9747 38.7091 83.0239 38.6231C83.073 38.5371 83.0976 38.4358 83.0976 38.3191V38.1994L82.5357 38.3191C82.4252 38.3406 82.3407 38.3775 82.2824 38.4297C82.2271 38.4788 82.1995 38.5433 82.1995 38.6231C82.1995 38.706 82.2271 38.7705 82.2824 38.8165C82.3377 38.8626 82.4175 38.8856 82.5219 38.8856ZM85.2458 39.3047C84.9909 39.3047 84.8036 39.2464 84.6839 39.1297C84.5642 39.0099 84.5043 38.8211 84.5043 38.5632V36.2559H85.1951V38.4803C85.1951 38.6001 85.2197 38.6814 85.2688 38.7244C85.321 38.7674 85.3977 38.7889 85.4991 38.7889H85.8445V39.3047H85.2458ZM84.1082 37.352V36.8362H85.8445V37.352H84.1082ZM86.2517 39.3047V36.8362H86.9425V39.3047H86.2517ZM86.2379 36.5322V35.9796H86.9517V36.5322H86.2379ZM88.6211 39.36C88.3694 39.36 88.1498 39.3078 87.9626 39.2034C87.7753 39.0959 87.6294 38.9455 87.525 38.752C87.4207 38.5586 87.3685 38.3314 87.3685 38.0704C87.3685 37.8095 87.4207 37.5838 87.525 37.3934C87.6294 37.2 87.7753 37.0496 87.9626 36.9421C88.1498 36.8347 88.3694 36.7809 88.6211 36.7809C88.8729 36.7809 89.0924 36.8347 89.2797 36.9421C89.467 37.0496 89.6128 37.2 89.7172 37.3934C89.8216 37.5838 89.8738 37.8095 89.8738 38.0704C89.8738 38.3314 89.8216 38.5586 89.7172 38.752C89.6128 38.9455 89.467 39.0959 89.2797 39.2034C89.0924 39.3078 88.8729 39.36 88.6211 39.36ZM88.6211 38.8303C88.7931 38.8303 88.9266 38.7643 89.0218 38.6323C89.117 38.4972 89.1646 38.3099 89.1646 38.0704C89.1646 37.831 89.117 37.6452 89.0218 37.5132C88.9266 37.3781 88.7931 37.3105 88.6211 37.3105C88.4492 37.3105 88.3156 37.3781 88.2205 37.5132C88.1253 37.6452 88.0777 37.831 88.0777 38.0704C88.0777 38.3099 88.1253 38.4972 88.2205 38.6323C88.3156 38.7643 88.4492 38.8303 88.6211 38.8303ZM90.3039 39.3047V36.8362H90.9257L90.9533 37.5592L90.8658 37.5362C90.8904 37.352 90.9395 37.2046 91.0132 37.0941C91.0899 36.9836 91.1851 36.9037 91.2987 36.8546C91.4123 36.8055 91.5366 36.7809 91.6717 36.7809C91.8498 36.7809 92.0003 36.8193 92.1231 36.8961C92.249 36.9728 92.3441 37.0818 92.4086 37.223C92.4762 37.3612 92.5099 37.5255 92.5099 37.7158V39.3047H91.8191V37.9461C91.8191 37.8141 91.8084 37.702 91.7869 37.6099C91.7654 37.5178 91.727 37.4487 91.6717 37.4027C91.6165 37.3535 91.5397 37.329 91.4415 37.329C91.2972 37.329 91.1866 37.3827 91.1099 37.4902C91.0331 37.5945 90.9947 37.7465 90.9947 37.9461V39.3047H90.3039Z" fill="#F2F5F7"/>
<path d="M157.162 38.8047V36.2615H158.147C158.446 36.2615 158.679 36.3331 158.846 36.4764C159.013 36.6197 159.097 36.8179 159.097 37.071C159.097 37.2406 159.058 37.3874 158.982 37.5116C158.906 37.6334 158.797 37.7265 158.656 37.791C158.515 37.8555 158.346 37.8877 158.147 37.8877H157.628V38.8047H157.162ZM157.628 37.4829H158.126C158.283 37.4829 158.404 37.4483 158.488 37.3791C158.574 37.3098 158.617 37.2071 158.617 37.071C158.617 36.9373 158.574 36.837 158.488 36.7701C158.404 36.7009 158.283 36.6662 158.126 36.6662H157.628V37.4829ZM159.964 38.8047C159.825 38.8047 159.714 38.7689 159.631 38.6972C159.547 38.6256 159.505 38.511 159.505 38.3534V36.2615H159.964V38.3068C159.964 38.3546 159.976 38.3904 159.999 38.4143C160.026 38.4381 160.062 38.4501 160.107 38.4501H160.247V38.8047H159.964ZM161.117 38.8477C160.916 38.8477 160.755 38.8023 160.633 38.7116C160.511 38.6184 160.45 38.4895 160.45 38.3247C160.45 38.1599 160.502 38.031 160.605 37.9378C160.707 37.8447 160.864 37.7779 161.074 37.7373L161.708 37.6119C161.708 37.4758 161.677 37.3743 161.615 37.3074C161.553 37.2382 161.461 37.2035 161.339 37.2035C161.229 37.2035 161.142 37.2298 161.077 37.2823C161.015 37.3325 160.972 37.4053 160.948 37.5008L160.483 37.4794C160.521 37.2764 160.614 37.1212 160.762 37.0137C160.91 36.9038 161.102 36.8489 161.339 36.8489C161.611 36.8489 161.816 36.9182 161.955 37.0567C162.096 37.1928 162.166 37.3886 162.166 37.6441V38.339C162.166 38.3892 162.175 38.4238 162.191 38.4429C162.21 38.462 162.238 38.4716 162.274 38.4716H162.335V38.8047C162.32 38.8095 162.296 38.813 162.263 38.8154C162.232 38.8178 162.2 38.819 162.166 38.819C162.087 38.819 162.017 38.8071 161.955 38.7832C161.893 38.7569 161.845 38.7127 161.812 38.6507C161.778 38.5862 161.762 38.499 161.762 38.3892L161.801 38.4178C161.782 38.5014 161.74 38.5766 161.676 38.6435C161.613 38.708 161.535 38.7581 161.439 38.7939C161.344 38.8298 161.236 38.8477 161.117 38.8477ZM161.21 38.5145C161.313 38.5145 161.401 38.4942 161.475 38.4537C161.549 38.4131 161.606 38.3569 161.647 38.2853C161.687 38.2137 161.708 38.1289 161.708 38.031V37.9235L161.213 38.0238C161.111 38.0453 161.037 38.0775 160.991 38.1205C160.948 38.1611 160.927 38.2149 160.927 38.2817C160.927 38.3557 160.951 38.4131 160.999 38.4537C161.049 38.4942 161.119 38.5145 161.21 38.5145ZM162.664 39.342V38.9874H162.907C162.969 38.9874 163.015 38.9778 163.043 38.9587C163.074 38.9396 163.098 38.9074 163.115 38.862L163.169 38.7295H163.036L162.352 36.8919H162.828L163.308 38.2996L163.767 36.8919H164.243L163.495 39.0053C163.452 39.1247 163.391 39.2106 163.312 39.2632C163.235 39.3157 163.128 39.342 162.99 39.342H162.664ZM165.296 38.8477C165.105 38.8477 164.939 38.8071 164.798 38.7259C164.657 38.6423 164.549 38.5253 164.472 38.3748C164.396 38.2244 164.358 38.0489 164.358 37.8483C164.358 37.6477 164.396 37.4734 164.472 37.3253C164.549 37.1749 164.656 37.0579 164.795 36.9743C164.936 36.8907 165.099 36.8489 165.286 36.8489C165.467 36.8489 165.626 36.8895 165.762 36.9707C165.9 37.0519 166.007 37.1689 166.081 37.3217C166.155 37.4746 166.192 37.6585 166.192 37.8734V37.9772H164.834C164.844 38.1444 164.889 38.271 164.97 38.3569C165.054 38.4405 165.164 38.4823 165.3 38.4823C165.403 38.4823 165.487 38.4596 165.554 38.4143C165.623 38.3665 165.671 38.3008 165.697 38.2172L166.167 38.2459C166.114 38.4322 166.01 38.579 165.855 38.6865C165.702 38.7939 165.516 38.8477 165.296 38.8477ZM164.834 37.6692H165.719C165.709 37.514 165.665 37.3994 165.586 37.3253C165.508 37.2489 165.407 37.2107 165.286 37.2107C165.164 37.2107 165.062 37.2501 164.981 37.3289C164.902 37.4077 164.853 37.5211 164.834 37.6692ZM166.55 38.8047V36.8919H166.98L166.998 37.422L166.959 37.4149C166.987 37.231 167.041 37.0985 167.12 37.0173C167.201 36.9337 167.311 36.8919 167.449 36.8919H167.625V37.2859H167.446C167.348 37.2859 167.267 37.3003 167.202 37.3289C167.138 37.3576 167.089 37.4029 167.055 37.465C167.024 37.5247 167.009 37.6035 167.009 37.7014V38.8047H166.55ZM168.65 38.8477C168.461 38.8477 168.302 38.8202 168.173 38.7653C168.047 38.7104 167.949 38.6339 167.88 38.536C167.81 38.4381 167.771 38.3271 167.761 38.2029L168.231 38.1814C168.247 38.2817 168.289 38.3593 168.356 38.4143C168.423 38.4692 168.522 38.4966 168.653 38.4966C168.761 38.4966 168.844 38.4799 168.904 38.4465C168.966 38.4107 168.997 38.3557 168.997 38.2817C168.997 38.2387 168.986 38.2029 168.965 38.1743C168.943 38.1456 168.903 38.1205 168.843 38.099C168.783 38.0775 168.695 38.0561 168.578 38.0346C168.382 38.0011 168.228 37.9605 168.116 37.9128C168.004 37.8626 167.924 37.8005 167.876 37.7265C167.831 37.6525 167.808 37.5605 167.808 37.4507C167.808 37.2716 167.876 37.1271 168.012 37.0173C168.151 36.905 168.352 36.8489 168.617 36.8489C168.789 36.8489 168.934 36.8776 169.051 36.9349C169.168 36.9898 169.259 37.0662 169.323 37.1641C169.39 37.2597 169.432 37.3695 169.448 37.4937L168.986 37.5152C168.974 37.4507 168.953 37.3946 168.922 37.3468C168.891 37.2991 168.849 37.2632 168.797 37.2394C168.744 37.2131 168.682 37.2 168.61 37.2C168.503 37.2 168.422 37.2215 168.367 37.2644C168.312 37.3074 168.284 37.3647 168.284 37.4364C168.284 37.4865 168.296 37.5283 168.32 37.5617C168.346 37.5952 168.388 37.6226 168.446 37.6441C168.503 37.6632 168.579 37.6811 168.675 37.6979C168.875 37.7289 169.033 37.7695 169.148 37.8196C169.265 37.8674 169.347 37.9295 169.395 38.0059C169.445 38.0799 169.47 38.1695 169.47 38.2746C169.47 38.3963 169.435 38.5002 169.366 38.5862C169.299 38.6722 169.204 38.7378 169.08 38.7832C168.958 38.8262 168.814 38.8477 168.65 38.8477Z" fill="white"/>
<path d="M160.969 41.6533C160.969 41.3707 161.199 41.1416 161.481 41.1416H165.063C165.346 41.1416 165.575 41.3707 165.575 41.6533V41.9092H160.969V41.6533Z" fill="#E76E50"/>
<path opacity="0.5" d="M175.279 38.8047V36.2615H176.991V36.6662H175.745V37.3289H176.948V37.7301H175.745V38.3999H177.02V38.8047H175.279ZM177.886 38.8047L177.188 36.8919H177.671L178.158 38.3426L178.646 36.8919H179.129L178.431 38.8047H177.886ZM180.181 38.8477C179.99 38.8477 179.824 38.8071 179.683 38.7259C179.542 38.6423 179.434 38.5253 179.357 38.3748C179.281 38.2244 179.243 38.0489 179.243 37.8483C179.243 37.6477 179.281 37.4734 179.357 37.3253C179.434 37.1749 179.541 37.0579 179.68 36.9743C179.82 36.8907 179.984 36.8489 180.17 36.8489C180.352 36.8489 180.511 36.8895 180.647 36.9707C180.785 37.0519 180.891 37.1689 180.965 37.3217C181.04 37.4746 181.077 37.6585 181.077 37.8734V37.9772H179.719C179.729 38.1444 179.774 38.271 179.855 38.3569C179.939 38.4405 180.049 38.4823 180.185 38.4823C180.287 38.4823 180.372 38.4596 180.439 38.4143C180.508 38.3665 180.556 38.3008 180.582 38.2172L181.051 38.2459C180.999 38.4322 180.895 38.579 180.74 38.6865C180.587 38.7939 180.401 38.8477 180.181 38.8477ZM179.719 37.6692H180.604C180.594 37.514 180.55 37.3994 180.471 37.3253C180.392 37.2489 180.292 37.2107 180.17 37.2107C180.049 37.2107 179.947 37.2501 179.866 37.3289C179.787 37.4077 179.738 37.5211 179.719 37.6692ZM181.435 38.8047V36.8919H181.85L181.868 37.4292L181.815 37.4077C181.834 37.274 181.873 37.1665 181.933 37.0853C181.993 37.0041 182.065 36.9444 182.151 36.9062C182.237 36.868 182.332 36.8489 182.434 36.8489C182.575 36.8489 182.693 36.88 182.789 36.9421C182.887 37.0041 182.961 37.0901 183.011 37.2C183.061 37.3074 183.086 37.4328 183.086 37.5761V38.8047H182.628V37.7229C182.628 37.6155 182.617 37.5247 182.595 37.4507C182.574 37.3767 182.538 37.3206 182.488 37.2823C182.44 37.2417 182.376 37.2215 182.295 37.2215C182.173 37.2215 182.075 37.2644 182.001 37.3504C181.929 37.4364 181.893 37.5605 181.893 37.7229V38.8047H181.435ZM184.22 38.8047C184.029 38.8047 183.888 38.7605 183.797 38.6722C183.709 38.5838 183.665 38.4453 183.665 38.2566V36.4442H184.123V38.2137C184.123 38.302 184.142 38.3641 184.18 38.3999C184.219 38.4334 184.278 38.4501 184.36 38.4501H184.628V38.8047H184.22ZM183.364 37.2465V36.8919H184.628V37.2465H183.364ZM185.864 38.8047V36.2615H186.33V37.4758L186.115 37.3217H187.612L187.401 37.4758V36.2615H187.867V38.8047H187.401V37.5761L187.612 37.7265H186.115L186.33 37.5761V38.8047H185.864ZM188.347 38.8047V36.8919H188.806V38.8047H188.347ZM188.34 36.6376V36.2292H188.816V36.6376H188.34ZM190.051 38.8477C189.863 38.8477 189.704 38.8202 189.575 38.7653C189.448 38.7104 189.35 38.6339 189.281 38.536C189.212 38.4381 189.173 38.3271 189.163 38.2029L189.632 38.1814C189.649 38.2817 189.691 38.3593 189.758 38.4143C189.824 38.4692 189.924 38.4966 190.055 38.4966C190.162 38.4966 190.246 38.4799 190.306 38.4465C190.368 38.4107 190.399 38.3557 190.399 38.2817C190.399 38.2387 190.388 38.2029 190.367 38.1743C190.345 38.1456 190.304 38.1205 190.245 38.099C190.185 38.0775 190.097 38.0561 189.98 38.0346C189.784 38.0011 189.63 37.9605 189.518 37.9128C189.405 37.8626 189.325 37.8005 189.278 37.7265C189.232 37.6525 189.21 37.5605 189.21 37.4507C189.21 37.2716 189.278 37.1271 189.414 37.0173C189.552 36.905 189.754 36.8489 190.019 36.8489C190.191 36.8489 190.335 36.8776 190.452 36.9349C190.569 36.9898 190.66 37.0662 190.725 37.1641C190.792 37.2597 190.833 37.3695 190.85 37.4937L190.388 37.5152C190.376 37.4507 190.355 37.3946 190.324 37.3468C190.292 37.2991 190.251 37.2632 190.198 37.2394C190.146 37.2131 190.084 37.2 190.012 37.2C189.904 37.2 189.823 37.2215 189.768 37.2644C189.713 37.3074 189.686 37.3647 189.686 37.4364C189.686 37.4865 189.698 37.5283 189.722 37.5617C189.748 37.5952 189.79 37.6226 189.847 37.6441C189.904 37.6632 189.981 37.6811 190.076 37.6979C190.277 37.7289 190.435 37.7695 190.549 37.8196C190.666 37.8674 190.749 37.9295 190.796 38.0059C190.847 38.0799 190.872 38.1695 190.872 38.2746C190.872 38.3963 190.837 38.5002 190.768 38.5862C190.701 38.6722 190.605 38.7378 190.481 38.7832C190.359 38.8262 190.216 38.8477 190.051 38.8477ZM191.929 38.8047C191.738 38.8047 191.598 38.7605 191.507 38.6722C191.418 38.5838 191.374 38.4453 191.374 38.2566V36.4442H191.833V38.2137C191.833 38.302 191.852 38.3641 191.89 38.3999C191.928 38.4334 191.988 38.4501 192.069 38.4501H192.338V38.8047H191.929ZM191.073 37.2465V36.8919H192.338V37.2465H191.073ZM193.474 38.8477C193.285 38.8477 193.119 38.8071 192.976 38.7259C192.835 38.6423 192.725 38.5253 192.646 38.3748C192.57 38.2244 192.532 38.0489 192.532 37.8483C192.532 37.6453 192.57 37.4698 192.646 37.3217C192.725 37.1713 192.835 37.0555 192.976 36.9743C193.119 36.8907 193.285 36.8489 193.474 36.8489C193.662 36.8489 193.827 36.8907 193.968 36.9743C194.109 37.0555 194.217 37.1713 194.294 37.3217C194.373 37.4698 194.412 37.6453 194.412 37.8483C194.412 38.0489 194.373 38.2244 194.294 38.3748C194.217 38.5253 194.109 38.6423 193.968 38.7259C193.827 38.8071 193.662 38.8477 193.474 38.8477ZM193.474 38.4751C193.622 38.4751 193.735 38.4202 193.814 38.3104C193.895 38.2005 193.936 38.0465 193.936 37.8483C193.936 37.6525 193.895 37.4997 193.814 37.3898C193.735 37.2776 193.622 37.2215 193.474 37.2215C193.326 37.2215 193.211 37.2776 193.13 37.3898C193.049 37.4997 193.008 37.6525 193.008 37.8483C193.008 38.0465 193.049 38.2005 193.13 38.3104C193.211 38.4202 193.326 38.4751 193.474 38.4751ZM194.766 38.8047V36.8919H195.196L195.214 37.422L195.174 37.4149C195.203 37.231 195.257 37.0985 195.335 37.0173C195.417 36.9337 195.526 36.8919 195.665 36.8919H195.841V37.2859H195.661C195.564 37.2859 195.482 37.3003 195.418 37.3289C195.353 37.3576 195.304 37.4029 195.271 37.465C195.24 37.5247 195.224 37.6035 195.224 37.7014V38.8047H194.766ZM196.284 39.342V38.9874H196.527C196.589 38.9874 196.635 38.9778 196.663 38.9587C196.694 38.9396 196.718 38.9074 196.735 38.862L196.789 38.7295H196.656L195.972 36.8919H196.449L196.929 38.2996L197.387 36.8919H197.863L197.115 39.0053C197.072 39.1247 197.011 39.2106 196.932 39.2632C196.856 39.3157 196.748 39.342 196.61 39.342H196.284Z" fill="white"/>
<rect x="73.2109" y="46.0039" width="71.6396" height="53.7297" rx="3.07027" fill="#E76E50" fill-opacity="0.2"/>
<path d="M87.0419 75.108L85.7879 70.278H86.8859L87.6599 73.548H87.6959L88.5839 70.278H89.7179L90.6599 73.548H90.6959L91.4699 70.278H92.5679L91.2599 75.108H90.1859L89.1719 71.862H89.1359L88.1159 75.108H87.0419ZM95.0089 75.192C94.5569 75.192 94.1629 75.09 93.8269 74.886C93.4949 74.682 93.2389 74.394 93.0589 74.022C92.8789 73.646 92.7889 73.204 92.7889 72.696C92.7889 72.188 92.8789 71.746 93.0589 71.37C93.2389 70.994 93.4949 70.704 93.8269 70.5C94.1629 70.296 94.5569 70.194 95.0089 70.194C95.4609 70.194 95.8529 70.296 96.1849 70.5C96.5169 70.704 96.7729 70.994 96.9529 71.37C97.1329 71.746 97.2229 72.188 97.2229 72.696C97.2229 73.204 97.1329 73.646 96.9529 74.022C96.7729 74.394 96.5169 74.682 96.1849 74.886C95.8529 75.09 95.4609 75.192 95.0089 75.192ZM95.0089 74.208C95.3609 74.208 95.6389 74.072 95.8429 73.8C96.0469 73.528 96.1489 73.16 96.1489 72.696C96.1489 72.232 96.0469 71.864 95.8429 71.592C95.6389 71.316 95.3609 71.178 95.0089 71.178C94.6569 71.178 94.3769 71.316 94.1689 71.592C93.9649 71.864 93.8629 72.232 93.8629 72.696C93.8629 73.16 93.9649 73.528 94.1689 73.8C94.3769 74.072 94.6569 74.208 95.0089 74.208ZM100.47 75.108L99.5998 73.428H98.9338V75.108H97.8838V70.278H99.5638C99.9598 70.278 100.3 70.342 100.584 70.47C100.868 70.598 101.084 70.78 101.232 71.016C101.384 71.252 101.46 71.53 101.46 71.85C101.46 72.17 101.388 72.448 101.244 72.684C101.104 72.92 100.9 73.102 100.632 73.23L101.7 75.108H100.47ZM98.9338 71.232V72.468H99.4138C99.7258 72.468 99.9658 72.416 100.134 72.312C100.302 72.204 100.386 72.05 100.386 71.85C100.386 71.65 100.302 71.498 100.134 71.394C99.9658 71.286 99.7258 71.232 99.4138 71.232H98.9338ZM103.194 70.278V74.154H105.378V75.108H102.144V70.278H103.194ZM105.935 75.108V70.278H107.633C108.149 70.278 108.591 70.376 108.959 70.572C109.327 70.768 109.607 71.048 109.799 71.412C109.991 71.772 110.087 72.2 110.087 72.696C110.087 73.188 109.987 73.616 109.787 73.98C109.587 74.34 109.295 74.618 108.911 74.814C108.527 75.01 108.067 75.108 107.531 75.108H105.935ZM107.537 74.124C108.005 74.124 108.367 73.998 108.623 73.746C108.883 73.49 109.013 73.14 109.013 72.696C109.013 72.248 108.889 71.898 108.641 71.646C108.393 71.39 108.041 71.262 107.585 71.262H106.985V74.124H107.537ZM113.957 75.108H112.907V70.278H113.873L115.751 73.128H115.787V70.278H116.837V75.108H115.925L113.993 72.258H113.957V75.108ZM121.908 75.108H120.792L120.438 74.07H118.752L118.398 75.108H117.288L119.058 70.278H120.132L121.908 75.108ZM119.58 71.658L119.088 73.086H120.102L119.616 71.658H119.58ZM123.367 75.108H122.353V70.278H123.289L124.825 72.612H124.861L126.397 70.278H127.333V75.108H126.313V72.234H126.277L125.233 73.782H124.453L123.403 72.258H123.367V75.108ZM129.174 73.134V74.154H131.364V75.108H128.124V70.278H131.292V71.232H129.174V72.18H131.178V73.134H129.174Z" fill="white"/>
<rect x="73.3389" y="103.955" width="71.3838" height="8.95496" rx="2.43063" stroke="white" stroke-opacity="0.1" stroke-width="0.255856"/>
<g filter="url(#filter1_dd_1592_3416)">
<rect x="74.2344" y="104.851" width="34.7964" height="7.16396" rx="1.53514" fill="white" fill-opacity="0.07" shape-rendering="crispEdges"/>
<path d="M86.9191 109.433V106.889H87.983C88.1669 106.889 88.3257 106.92 88.4594 106.983C88.5931 107.045 88.697 107.133 88.771 107.248C88.845 107.362 88.8821 107.497 88.8821 107.652C88.8821 107.769 88.857 107.873 88.8068 107.964C88.7567 108.055 88.6886 108.128 88.6027 108.183C88.5191 108.237 88.4259 108.271 88.3233 108.283L88.3054 108.247C88.4701 108.247 88.5967 108.284 88.685 108.358C88.7758 108.432 88.8271 108.545 88.8391 108.698L88.9035 109.433H88.4307L88.377 108.766C88.3698 108.666 88.3376 108.592 88.2803 108.544C88.223 108.497 88.1274 108.473 87.9937 108.473H87.3848V109.433H86.9191ZM87.3848 108.064H87.9543C88.0952 108.064 88.2051 108.031 88.2839 107.964C88.3627 107.897 88.4021 107.803 88.4021 107.681C88.4021 107.557 88.3615 107.461 88.2803 107.394C88.2015 107.328 88.0857 107.294 87.9328 107.294H87.3848V108.064ZM90.128 109.476C89.9393 109.476 89.7734 109.435 89.6301 109.354C89.4892 109.27 89.3793 109.153 89.3005 109.003C89.2241 108.852 89.1859 108.677 89.1859 108.476C89.1859 108.273 89.2241 108.098 89.3005 107.95C89.3793 107.799 89.4892 107.683 89.6301 107.602C89.7734 107.519 89.9393 107.477 90.128 107.477C90.3166 107.477 90.4814 107.519 90.6223 107.602C90.7632 107.683 90.8718 107.799 90.9482 107.95C91.027 108.098 91.0664 108.273 91.0664 108.476C91.0664 108.677 91.027 108.852 90.9482 109.003C90.8718 109.153 90.7632 109.27 90.6223 109.354C90.4814 109.435 90.3166 109.476 90.128 109.476ZM90.128 109.103C90.276 109.103 90.3895 109.048 90.4683 108.938C90.5494 108.828 90.59 108.674 90.59 108.476C90.59 108.28 90.5494 108.128 90.4683 108.018C90.3895 107.905 90.276 107.849 90.128 107.849C89.9799 107.849 89.8653 107.905 89.7841 108.018C89.7029 108.128 89.6623 108.28 89.6623 108.476C89.6623 108.674 89.7029 108.828 89.7841 108.938C89.8653 109.048 89.9799 109.103 90.128 109.103ZM92.2513 109.476C92.0626 109.476 91.8967 109.435 91.7534 109.354C91.6125 109.27 91.5026 109.153 91.4238 109.003C91.3474 108.852 91.3092 108.677 91.3092 108.476C91.3092 108.273 91.3474 108.098 91.4238 107.95C91.5026 107.799 91.6125 107.683 91.7534 107.602C91.8967 107.519 92.0626 107.477 92.2513 107.477C92.4399 107.477 92.6047 107.519 92.7456 107.602C92.8865 107.683 92.9951 107.799 93.0715 107.95C93.1503 108.098 93.1898 108.273 93.1898 108.476C93.1898 108.677 93.1503 108.852 93.0715 109.003C92.9951 109.153 92.8865 109.27 92.7456 109.354C92.6047 109.435 92.4399 109.476 92.2513 109.476ZM92.2513 109.103C92.3993 109.103 92.5128 109.048 92.5916 108.938C92.6728 108.828 92.7133 108.674 92.7133 108.476C92.7133 108.28 92.6728 108.128 92.5916 108.018C92.5128 107.905 92.3993 107.849 92.2513 107.849C92.1032 107.849 91.9886 107.905 91.9074 108.018C91.8262 108.128 91.7856 108.28 91.7856 108.476C91.7856 108.674 91.8262 108.828 91.9074 108.938C91.9886 109.048 92.1032 109.103 92.2513 109.103ZM93.5436 109.433V107.52H93.9591L93.9734 107.989L93.9304 107.968C93.9519 107.865 93.9889 107.778 94.0415 107.706C94.0964 107.632 94.162 107.576 94.2385 107.538C94.3173 107.497 94.4032 107.477 94.4964 107.477C94.6587 107.477 94.7901 107.523 94.8904 107.617C94.9907 107.707 95.054 107.833 95.0802 107.993H95.0193C95.0408 107.88 95.0778 107.787 95.1304 107.713C95.1829 107.637 95.2486 107.578 95.3274 107.538C95.4086 107.497 95.4993 107.477 95.5996 107.477C95.731 107.477 95.8444 107.506 95.9399 107.563C96.0354 107.618 96.1083 107.699 96.1584 107.806C96.2109 107.914 96.2372 108.046 96.2372 108.204V109.433H95.7787V108.322C95.7787 108.165 95.7513 108.046 95.6963 107.968C95.6438 107.889 95.5626 107.849 95.4528 107.849C95.3787 107.849 95.3154 107.868 95.2629 107.907C95.2104 107.945 95.1698 108.001 95.1411 108.075C95.1149 108.147 95.1017 108.234 95.1017 108.337V109.433H94.6755V108.337C94.6755 108.179 94.6516 108.058 94.6038 107.975C94.5561 107.891 94.4737 107.849 94.3567 107.849C94.2826 107.849 94.2194 107.868 94.1668 107.907C94.1167 107.945 94.0761 108.001 94.045 108.075C94.0164 108.147 94.002 108.234 94.002 108.337V109.433H93.5436Z" fill="white"/>
</g>
<path d="M122.238 109.433L121.565 106.889H121.977L122.471 108.899L122.966 106.889H123.36L123.854 108.899L124.345 106.889H124.764L124.087 109.433H123.635L123.163 107.577L122.69 109.433H122.238ZM125.791 109.476C125.61 109.476 125.451 109.435 125.315 109.354C125.179 109.273 125.074 109.157 125 109.006C124.926 108.856 124.889 108.68 124.889 108.48C124.889 108.277 124.926 108.101 125 107.953C125.074 107.805 125.179 107.691 125.315 107.609C125.451 107.526 125.61 107.484 125.791 107.484C125.973 107.484 126.131 107.526 126.268 107.609C126.404 107.691 126.509 107.805 126.583 107.953C126.657 108.101 126.694 108.277 126.694 108.48C126.694 108.68 126.657 108.856 126.583 109.006C126.509 109.157 126.404 109.273 126.268 109.354C126.131 109.435 125.973 109.476 125.791 109.476ZM125.791 109.146C125.954 109.146 126.079 109.088 126.167 108.971C126.256 108.851 126.3 108.688 126.3 108.48C126.3 108.272 126.256 108.11 126.167 107.993C126.079 107.873 125.954 107.814 125.791 107.814C125.631 107.814 125.506 107.873 125.415 107.993C125.327 108.11 125.283 108.272 125.283 108.48C125.283 108.688 125.327 108.851 125.415 108.971C125.506 109.088 125.631 109.146 125.791 109.146ZM127.078 109.433V107.527H127.425L127.439 108.032L127.407 108.021C127.433 107.849 127.486 107.724 127.565 107.645C127.646 107.566 127.755 107.527 127.891 107.527H128.073V107.867H127.891C127.795 107.867 127.715 107.883 127.651 107.914C127.586 107.945 127.537 107.993 127.504 108.057C127.473 108.122 127.457 108.205 127.457 108.308V109.433H127.078ZM128.801 109.433C128.677 109.433 128.577 109.4 128.5 109.336C128.424 109.271 128.386 109.169 128.386 109.028V106.889H128.766V108.992C128.766 109.035 128.776 109.067 128.798 109.089C128.822 109.11 128.855 109.121 128.898 109.121H129.049V109.433H128.801ZM130.049 109.476C129.887 109.476 129.745 109.435 129.623 109.354C129.504 109.273 129.412 109.158 129.347 109.01C129.285 108.859 129.254 108.683 129.254 108.48C129.254 108.277 129.286 108.101 129.351 107.953C129.415 107.803 129.507 107.687 129.627 107.606C129.746 107.525 129.887 107.484 130.049 107.484C130.181 107.484 130.298 107.511 130.4 107.566C130.503 107.621 130.581 107.698 130.633 107.796V106.889H131.013V109.433H130.658L130.647 109.146C130.595 109.249 130.515 109.33 130.407 109.39C130.302 109.447 130.183 109.476 130.049 109.476ZM130.15 109.146C130.252 109.146 130.339 109.12 130.411 109.067C130.483 109.015 130.538 108.938 130.576 108.838C130.614 108.738 130.633 108.618 130.633 108.48C130.633 108.337 130.614 108.216 130.576 108.118C130.538 108.018 130.483 107.943 130.411 107.892C130.339 107.84 130.252 107.814 130.15 107.814C129.997 107.814 129.875 107.873 129.784 107.993C129.693 108.11 129.648 108.272 129.648 108.48C129.648 108.685 129.693 108.848 129.784 108.967C129.875 109.086 129.997 109.146 130.15 109.146Z" fill="white" fill-opacity="0.8"/>
<rect x="73.2109" y="118.667" width="12.7928" height="3.58198" rx="1.27928" fill="white" fill-opacity="0.07"/>
<rect x="73.2109" y="124.04" width="24.818" height="3.58198" rx="1.27928" fill="white" fill-opacity="0.07"/>
<rect x="136.28" y="119.18" width="7.93153" height="7.93153" rx="3.96577" stroke="url(#paint2_linear_1592_3416)" stroke-opacity="0.17" stroke-width="0.255856"/>
<g clip-path="url(#clip1_1592_3416)">
<path d="M140.245 121.952L141.439 123.146M141.439 123.146L140.245 124.34M141.439 123.146L139.051 123.146" stroke="white" stroke-width="0.307027" stroke-linecap="round" stroke-linejoin="round"/>
</g>
<rect opacity="0.08" x="73.2749" y="133.316" width="71.5117" height="0.127928" stroke="white" stroke-width="0.127928"/>
<rect x="73.2109" y="139.136" width="12.7928" height="3.58198" rx="1.27928" fill="white" fill-opacity="0.07"/>
<rect x="73.2109" y="144.509" width="24.818" height="3.58198" rx="1.27928" fill="white" fill-opacity="0.07"/>
<rect x="111.078" y="139.136" width="12.7928" height="3.58198" rx="1.27928" fill="white" fill-opacity="0.07"/>
<rect x="111.078" y="144.509" width="24.818" height="3.58198" rx="1.27928" fill="white" fill-opacity="0.07"/>
<rect x="73.2109" y="154.232" width="12.7928" height="3.58198" rx="1.27928" fill="white" fill-opacity="0.07"/>
<rect x="73.2109" y="159.604" width="24.818" height="3.58198" rx="1.27928" fill="white" fill-opacity="0.07"/>
<path d="M153.038 48.0508C153.038 46.9203 153.954 46.0039 155.085 46.0039H336.742C337.873 46.0039 338.789 46.9203 338.789 48.0508V54.1913C338.789 55.3217 337.873 56.2381 336.742 56.2381H155.085C153.954 56.2381 153.038 55.3217 153.038 54.1913V48.0508Z" fill="white" fill-opacity="0.03"/>
<rect x="156.876" y="60.8447" width="6.14054" height="6.14054" rx="3.07027" fill="white" fill-opacity="0.07"/>
<rect x="166.854" y="62.124" width="24.818" height="3.58198" rx="1.27928" fill="white" fill-opacity="0.07"/>
<rect x="243.611" y="62.124" width="15.8631" height="3.58198" rx="1.27928" fill="white" fill-opacity="0.07"/>
<rect x="270.731" y="62.124" width="15.8631" height="3.58198" rx="1.27928" fill="white" fill-opacity="0.07"/>
<rect x="297.852" y="62.124" width="20.7243" height="3.58198" rx="1.27928" fill="white" fill-opacity="0.07"/>
<rect x="156.876" y="73.125" width="6.14054" height="6.14054" rx="3.07027" fill="white" fill-opacity="0.07"/>
<rect x="166.854" y="74.4043" width="24.818" height="3.58198" rx="1.27928" fill="white" fill-opacity="0.07"/>
<rect x="243.611" y="74.4043" width="15.8631" height="3.58198" rx="1.27928" fill="white" fill-opacity="0.07"/>
<rect x="270.731" y="74.4043" width="15.8631" height="3.58198" rx="1.27928" fill="white" fill-opacity="0.07"/>
<rect x="297.852" y="74.4043" width="20.7243" height="3.58198" rx="1.27928" fill="white" fill-opacity="0.07"/>
<rect x="156.876" y="85.4053" width="6.14054" height="6.14054" rx="3.07027" fill="white" fill-opacity="0.07"/>
<rect x="166.854" y="86.6846" width="24.818" height="3.58198" rx="1.27928" fill="white" fill-opacity="0.07"/>
<rect x="243.611" y="86.6846" width="15.8631" height="3.58198" rx="1.27928" fill="white" fill-opacity="0.07"/>
<rect x="270.731" y="86.6846" width="15.8631" height="3.58198" rx="1.27928" fill="white" fill-opacity="0.07"/>
<rect x="297.852" y="86.6846" width="20.7243" height="3.58198" rx="1.27928" fill="white" fill-opacity="0.07"/>
<rect x="156.876" y="97.6865" width="6.14054" height="6.14054" rx="3.07027" fill="white" fill-opacity="0.07"/>
<rect x="166.854" y="98.9658" width="24.818" height="3.58198" rx="1.27928" fill="white" fill-opacity="0.07"/>
<rect x="243.611" y="98.9658" width="15.8631" height="3.58198" rx="1.27928" fill="white" fill-opacity="0.07"/>
<rect x="270.731" y="98.9658" width="15.8631" height="3.58198" rx="1.27928" fill="white" fill-opacity="0.07"/>
<rect x="297.852" y="98.9658" width="20.7243" height="3.58198" rx="1.27928" fill="white" fill-opacity="0.07"/>
<rect x="156.876" y="109.967" width="6.14054" height="6.14054" rx="3.07027" fill="white" fill-opacity="0.07"/>
<rect x="166.854" y="111.246" width="24.818" height="3.58198" rx="1.27928" fill="white" fill-opacity="0.07"/>
<rect x="243.611" y="111.246" width="15.8631" height="3.58198" rx="1.27928" fill="white" fill-opacity="0.07"/>
<rect x="270.731" y="111.246" width="15.8631" height="3.58198" rx="1.27928" fill="white" fill-opacity="0.07"/>
<rect x="297.852" y="111.246" width="20.7243" height="3.58198" rx="1.27928" fill="white" fill-opacity="0.07"/>
<rect x="156.876" y="122.249" width="6.14054" height="6.14054" rx="3.07027" fill="white" fill-opacity="0.07"/>
<rect x="166.854" y="123.528" width="24.818" height="3.58198" rx="1.27928" fill="white" fill-opacity="0.07"/>
<rect x="243.611" y="123.528" width="15.8631" height="3.58198" rx="1.27928" fill="white" fill-opacity="0.07"/>
<rect x="270.731" y="123.528" width="15.8631" height="3.58198" rx="1.27928" fill="white" fill-opacity="0.07"/>
<rect x="297.852" y="123.528" width="20.7243" height="3.58198" rx="1.27928" fill="white" fill-opacity="0.07"/>
<rect x="156.876" y="134.531" width="6.14054" height="6.14054" rx="3.07027" fill="white" fill-opacity="0.07"/>
<rect x="166.854" y="135.811" width="24.818" height="3.58198" rx="1.27928" fill="white" fill-opacity="0.07"/>
<rect x="243.611" y="135.811" width="15.8631" height="3.58198" rx="1.27928" fill="white" fill-opacity="0.07"/>
<rect x="270.731" y="135.811" width="15.8631" height="3.58198" rx="1.27928" fill="white" fill-opacity="0.07"/>
<rect x="297.852" y="135.811" width="20.7243" height="3.58198" rx="1.27928" fill="white" fill-opacity="0.07"/>
<rect x="156.876" y="146.812" width="6.14054" height="6.14054" rx="3.07027" fill="white" fill-opacity="0.07"/>
<rect x="166.854" y="148.091" width="24.818" height="3.58198" rx="1.27928" fill="white" fill-opacity="0.07"/>
<rect x="243.611" y="148.091" width="15.8631" height="3.58198" rx="1.27928" fill="white" fill-opacity="0.07"/>
<rect x="270.731" y="148.091" width="15.8631" height="3.58198" rx="1.27928" fill="white" fill-opacity="0.07"/>
<rect x="297.852" y="148.091" width="20.7243" height="3.58198" rx="1.27928" fill="white" fill-opacity="0.07"/>
<rect x="156.876" y="159.093" width="6.14054" height="6.14054" rx="3.07027" fill="white" fill-opacity="0.07"/>
<rect x="166.854" y="160.372" width="24.818" height="3.58198" rx="1.27928" fill="white" fill-opacity="0.07"/>
<rect x="243.611" y="160.372" width="15.8631" height="3.58198" rx="1.27928" fill="white" fill-opacity="0.07"/>
<rect x="270.731" y="160.372" width="15.8631" height="3.58198" rx="1.27928" fill="white" fill-opacity="0.07"/>
<rect x="297.852" y="160.372" width="20.7243" height="3.58198" rx="1.27928" fill="white" fill-opacity="0.07"/>
<rect x="156.876" y="171.373" width="6.14054" height="6.14054" rx="3.07027" fill="white" fill-opacity="0.07"/>
<rect x="166.854" y="172.652" width="24.818" height="3.58198" rx="1.27928" fill="white" fill-opacity="0.07"/>
<rect x="243.611" y="172.652" width="15.8631" height="3.58198" rx="1.27928" fill="white" fill-opacity="0.07"/>
<rect x="270.731" y="172.652" width="15.8631" height="3.58198" rx="1.27928" fill="white" fill-opacity="0.07"/>
<rect x="297.852" y="172.652" width="20.7243" height="3.58198" rx="1.27928" fill="white" fill-opacity="0.07"/>
<rect x="156.876" y="183.653" width="6.14054" height="6.14054" rx="3.07027" fill="white" fill-opacity="0.07"/>
<rect x="166.854" y="184.933" width="24.818" height="3.58198" rx="1.27928" fill="white" fill-opacity="0.07"/>
<rect x="243.611" y="184.933" width="15.8631" height="3.58198" rx="1.27928" fill="white" fill-opacity="0.07"/>
<rect x="270.731" y="184.933" width="15.8631" height="3.58198" rx="1.27928" fill="white" fill-opacity="0.07"/>
<rect x="297.852" y="184.933" width="20.7243" height="3.58198" rx="1.27928" fill="white" fill-opacity="0.07"/>
</g>
</g>
<defs>
<filter id="filter0_d_1592_3416" x="40" y="24" width="332" height="249.845" filterUnits="userSpaceOnUse" color-interpolation-filters="sRGB">
<feFlood flood-opacity="0" result="BackgroundImageFix"/>
<feColorMatrix in="SourceAlpha" type="matrix" values="0 0 0 0 0 0 0 0 0 0 0 0 0 0 0 0 0 0 127 0" result="hardAlpha"/>
<feOffset dy="36"/>
<feGaussianBlur stdDeviation="12"/>
<feComposite in2="hardAlpha" operator="out"/>
<feColorMatrix type="matrix" values="0 0 0 0 0 0 0 0 0 0 0 0 0 0 0 0 0 0 0.15 0"/>
<feBlend mode="normal" in2="BackgroundImageFix" result="effect1_dropShadow_1592_3416"/>
<feBlend mode="normal" in="SourceGraphic" in2="effect1_dropShadow_1592_3416" result="shape"/>
</filter>
<filter id="filter1_dd_1592_3416" x="73.4668" y="104.339" width="36.3315" height="8.6992" filterUnits="userSpaceOnUse" color-interpolation-filters="sRGB">
<feFlood flood-opacity="0" result="BackgroundImageFix"/>
<feColorMatrix in="SourceAlpha" type="matrix" values="0 0 0 0 0 0 0 0 0 0 0 0 0 0 0 0 0 0 127 0" result="hardAlpha"/>
<feOffset dy="0.255856"/>
<feGaussianBlur stdDeviation="0.383784"/>
<feComposite in2="hardAlpha" operator="out"/>
<feColorMatrix type="matrix" values="0 0 0 0 0 0 0 0 0 0 0 0 0 0 0 0 0 0 0.1 0"/>
<feBlend mode="normal" in2="BackgroundImageFix" result="effect1_dropShadow_1592_3416"/>
<feColorMatrix in="SourceAlpha" type="matrix" values="0 0 0 0 0 0 0 0 0 0 0 0 0 0 0 0 0 0 127 0" result="hardAlpha"/>
<feMorphology radius="0.255856" operator="erode" in="SourceAlpha" result="effect2_dropShadow_1592_3416"/>
<feOffset dy="0.255856"/>
<feGaussianBlur stdDeviation="0.255856"/>
<feComposite in2="hardAlpha" operator="out"/>
<feColorMatrix type="matrix" values="0 0 0 0 0 0 0 0 0 0 0 0 0 0 0 0 0 0 0.04 0"/>
<feBlend mode="normal" in2="effect1_dropShadow_1592_3416" result="effect2_dropShadow_1592_3416"/>
<feBlend mode="normal" in="SourceGraphic" in2="effect2_dropShadow_1592_3416" result="shape"/>
</filter>
<linearGradient id="paint0_linear_1592_3416" x1="150" y1="0" x2="150" y2="192" gradientUnits="userSpaceOnUse">
<stop stop-color="#E76E50" stop-opacity="0"/>
<stop offset="1" stop-color="#E76E50" stop-opacity="0.06"/>
</linearGradient>
<linearGradient id="paint1_linear_1592_3416" x1="64" y1="118.923" x2="348" y2="118.923" gradientUnits="userSpaceOnUse">
<stop stop-color="#281F1E"/>
<stop offset="1" stop-color="#1C1A1B"/>
</linearGradient>
<linearGradient id="paint2_linear_1592_3416" x1="136.152" y1="119.052" x2="144.339" y2="127.239" gradientUnits="userSpaceOnUse">
<stop stop-color="white"/>
<stop offset="1" stop-color="white" stop-opacity="0"/>
</linearGradient>
<clipPath id="clip0_1592_3416">
<rect width="300" height="192" fill="white"/>
</clipPath>
<clipPath id="clip1_1592_3416">
<rect width="4.09369" height="4.09369" fill="white" transform="translate(142.292 125.191) rotate(-180)"/>
</clipPath>
</defs>
</svg>
