<svg width="300" height="192" viewBox="0 0 300 192" fill="none" xmlns="http://www.w3.org/2000/svg">
<g clip-path="url(#clip0_1592_3600)">
<rect width="300" height="192" fill="url(#paint0_linear_1592_3600)"/>
<circle cx="150" cy="96" r="63" fill="#192727" stroke="#30D4D4" stroke-width="2"/>
<circle opacity="0.2" cx="150" cy="96.0001" r="55.9581" stroke="#30D4D4" stroke-width="5" stroke-linecap="round" stroke-dasharray="12.06 8.04"/>
<path d="M131.379 90.2461V81.6815H133.743V89.7515L132.392 88.3522H137.471V90.2461H131.379ZM142.147 90.4391C141.247 90.4391 140.47 90.2582 139.819 89.8963C139.168 89.5344 138.669 89.0197 138.323 88.3522C137.977 87.6848 137.805 86.8926 137.805 85.9759C137.805 85.0591 137.977 84.267 138.323 83.5995C138.669 82.924 139.168 82.4053 139.819 82.0434C140.47 81.6734 141.247 81.4885 142.147 81.4885C143.056 81.4885 143.832 81.6734 144.475 82.0434C145.127 82.4053 145.625 82.924 145.971 83.5995C146.317 84.267 146.49 85.0591 146.49 85.9759C146.49 86.8926 146.317 87.6848 145.971 88.3522C145.625 89.0197 145.127 89.5344 144.475 89.8963C143.832 90.2582 143.056 90.4391 142.147 90.4391ZM142.147 88.5452C142.549 88.5452 142.891 88.4447 143.173 88.2437C143.462 88.0426 143.683 87.7531 143.836 87.3751C143.989 86.9891 144.065 86.5227 144.065 85.9759C144.065 85.429 143.989 84.9626 143.836 84.5766C143.683 84.1906 143.462 83.897 143.173 83.696C142.891 83.4869 142.549 83.3823 142.147 83.3823C141.745 83.3823 141.399 83.4869 141.11 83.696C140.828 83.897 140.611 84.1906 140.458 84.5766C140.306 84.9626 140.229 85.429 140.229 85.9759C140.229 86.5227 140.306 86.9891 140.458 87.3751C140.611 87.7531 140.828 88.0426 141.11 88.2437C141.399 88.4447 141.745 88.5452 142.147 88.5452ZM151.494 90.4391C150.657 90.4391 149.937 90.2541 149.334 89.8842C148.731 89.5062 148.265 88.9835 147.935 88.316C147.613 87.6486 147.453 86.8685 147.453 85.9759C147.453 85.1154 147.617 84.3474 147.947 83.6719C148.285 82.9963 148.767 82.4656 149.395 82.0796C150.022 81.6855 150.778 81.4885 151.662 81.4885C152.442 81.4885 153.098 81.6131 153.629 81.8624C154.167 82.1037 154.598 82.4575 154.919 82.924C155.249 83.3904 155.482 83.9533 155.619 84.6128L153.17 84.7093C153.098 84.283 152.945 83.9573 152.712 83.7322C152.479 83.499 152.137 83.3823 151.687 83.3823C151.301 83.3823 150.971 83.4909 150.697 83.708C150.432 83.9252 150.227 84.2267 150.082 84.6128C149.945 84.9988 149.877 85.4531 149.877 85.9759C149.877 86.4905 149.941 86.9409 150.07 87.3269C150.207 87.7129 150.412 88.0145 150.685 88.2316C150.959 88.4407 151.309 88.5452 151.735 88.5452C152.032 88.5452 152.286 88.497 152.495 88.4005C152.712 88.2959 152.885 88.1512 153.013 87.9662C153.15 87.7732 153.239 87.544 153.279 87.2786H151.674V85.7105H155.643V90.2461H154.268L154.147 88.509L154.413 88.5573C154.34 88.9353 154.167 89.265 153.894 89.5464C153.629 89.8279 153.287 90.0491 152.869 90.2099C152.459 90.3627 152 90.4391 151.494 90.4391ZM156.93 90.2461V81.6815H159.294V90.2461H156.93ZM160.676 90.2461V81.6815H163.064L165.923 86.5066V81.6815H168.288V90.2461H165.899L163.04 85.6622V90.2461H160.676Z" fill="#30D4D4"/>
<path d="M115.601 104L113.19 97.3386H114.475L116.342 102.64L118.2 97.3386H119.485L117.065 104H115.601ZM120.176 104V97.3386H122.962C123.444 97.3386 123.86 97.42 124.21 97.5826C124.56 97.7452 124.833 97.9766 125.026 98.2769C125.22 98.5771 125.317 98.9305 125.317 99.337C125.317 99.6435 125.252 99.9156 125.12 100.153C124.989 100.391 124.811 100.582 124.585 100.726C124.367 100.869 124.123 100.957 123.854 100.988L123.807 100.894C124.238 100.894 124.57 100.991 124.801 101.185C125.039 101.379 125.173 101.676 125.205 102.077L125.374 104H124.135L123.994 102.255C123.976 101.992 123.891 101.798 123.741 101.673C123.591 101.548 123.341 101.486 122.99 101.486H121.395V104H120.176ZM121.395 100.416H122.887C123.256 100.416 123.544 100.328 123.75 100.153C123.957 99.9782 124.06 99.7311 124.06 99.4121C124.06 99.0869 123.954 98.8367 123.741 98.6615C123.535 98.4864 123.231 98.3988 122.831 98.3988H121.395V100.416ZM129.247 104.15C128.64 104.15 128.105 104.013 127.642 103.737C127.179 103.456 126.817 103.059 126.554 102.546C126.291 102.027 126.16 101.404 126.16 100.679C126.16 99.9657 126.288 99.3496 126.544 98.8304C126.801 98.305 127.161 97.9016 127.623 97.6201C128.086 97.3324 128.63 97.1885 129.256 97.1885C130.107 97.1885 130.766 97.4012 131.236 97.8265C131.705 98.2456 132.011 98.8335 132.155 99.5904L130.879 99.656C130.798 99.2182 130.623 98.8742 130.354 98.624C130.085 98.3738 129.719 98.2487 129.256 98.2487C128.881 98.2487 128.555 98.3488 128.28 98.5489C128.005 98.7491 127.792 99.0306 127.642 99.3933C127.492 99.7561 127.417 100.185 127.417 100.679C127.417 101.179 127.492 101.611 127.642 101.973C127.799 102.33 128.014 102.605 128.29 102.799C128.565 102.993 128.884 103.09 129.247 103.09C129.741 103.09 130.122 102.955 130.391 102.686C130.666 102.411 130.842 102.036 130.917 101.561L132.193 101.626C132.105 102.145 131.936 102.596 131.686 102.977C131.436 103.353 131.104 103.643 130.691 103.85C130.285 104.05 129.803 104.15 129.247 104.15ZM133.138 104V97.3386H134.339V100.135H134.189C134.239 99.8468 134.339 99.6123 134.489 99.4309C134.639 99.2432 134.824 99.1056 135.043 99.0181C135.262 98.9242 135.503 98.8773 135.765 98.8773C136.134 98.8773 136.444 98.9586 136.694 99.1213C136.951 99.2776 137.141 99.4997 137.266 99.7874C137.398 100.075 137.463 100.407 137.463 100.782V104H136.263V101.073C136.263 100.666 136.194 100.363 136.056 100.163C135.919 99.9563 135.703 99.8531 135.409 99.8531C135.084 99.8531 134.824 99.9594 134.63 100.172C134.436 100.385 134.339 100.694 134.339 101.101V104H133.138ZM140.117 104.113C139.592 104.113 139.17 103.994 138.851 103.756C138.532 103.512 138.372 103.174 138.372 102.743C138.372 102.311 138.507 101.973 138.776 101.73C139.045 101.486 139.454 101.31 140.005 101.204L141.665 100.876C141.665 100.519 141.584 100.253 141.422 100.078C141.259 99.8969 141.018 99.8062 140.699 99.8062C140.411 99.8062 140.183 99.875 140.014 100.013C139.852 100.144 139.739 100.335 139.676 100.585L138.457 100.529C138.557 99.9969 138.801 99.5904 139.189 99.3089C139.576 99.0212 140.08 98.8773 140.699 98.8773C141.412 98.8773 141.95 99.0587 142.313 99.4215C142.682 99.778 142.866 100.291 142.866 100.96V102.78C142.866 102.912 142.888 103.002 142.932 103.052C142.982 103.102 143.054 103.127 143.148 103.127H143.307V104C143.27 104.013 143.207 104.022 143.12 104.028C143.038 104.034 142.954 104.038 142.866 104.038C142.66 104.038 142.475 104.006 142.313 103.944C142.15 103.875 142.025 103.759 141.938 103.597C141.85 103.428 141.806 103.199 141.806 102.912L141.909 102.987C141.859 103.206 141.75 103.403 141.581 103.578C141.418 103.747 141.212 103.878 140.962 103.972C140.712 104.066 140.43 104.113 140.117 104.113ZM140.361 103.24C140.63 103.24 140.862 103.187 141.056 103.081C141.25 102.974 141.4 102.827 141.506 102.64C141.612 102.452 141.665 102.23 141.665 101.973V101.692L140.371 101.955C140.102 102.011 139.908 102.095 139.789 102.208C139.676 102.314 139.62 102.455 139.62 102.63C139.62 102.824 139.683 102.974 139.808 103.081C139.939 103.187 140.124 103.24 140.361 103.24ZM145.838 104C145.338 104 144.969 103.884 144.731 103.653C144.5 103.421 144.384 103.059 144.384 102.565V97.8171H145.585V102.452C145.585 102.683 145.635 102.846 145.735 102.94C145.835 103.027 145.992 103.071 146.204 103.071H146.908V104H145.838ZM143.596 99.9187V98.9899H146.908V99.9187H143.596ZM149.573 104L151.975 97.3386H153.467L155.869 104H154.593L154.039 102.424H151.403L150.849 104H149.573ZM151.759 101.382H153.683L152.726 98.5677L151.759 101.382ZM158.67 104.113C158.169 104.113 157.735 104.006 157.366 103.794C156.996 103.575 156.709 103.268 156.502 102.874C156.302 102.48 156.202 102.02 156.202 101.495C156.202 100.97 156.302 100.513 156.502 100.125C156.709 99.7311 156.996 99.4246 157.366 99.2057C157.735 98.9868 158.169 98.8773 158.67 98.8773C159.095 98.8773 159.473 98.9524 159.805 99.1025C160.136 99.2526 160.405 99.4684 160.612 99.7499C160.824 100.025 160.956 100.363 161.006 100.763L159.767 100.829C159.717 100.51 159.592 100.269 159.392 100.106C159.198 99.9375 158.957 99.8531 158.67 99.8531C158.282 99.8531 157.982 100 157.769 100.294C157.556 100.582 157.45 100.982 157.45 101.495C157.45 102.014 157.556 102.418 157.769 102.705C157.982 102.993 158.282 103.137 158.67 103.137C158.964 103.137 159.208 103.052 159.401 102.884C159.602 102.715 159.724 102.452 159.767 102.095L161.006 102.152C160.956 102.552 160.828 102.899 160.621 103.193C160.415 103.487 160.146 103.715 159.814 103.878C159.483 104.034 159.101 104.113 158.67 104.113ZM164.02 104.113C163.52 104.113 163.085 104.006 162.716 103.794C162.347 103.575 162.06 103.268 161.853 102.874C161.653 102.48 161.553 102.02 161.553 101.495C161.553 100.97 161.653 100.513 161.853 100.125C162.06 99.7311 162.347 99.4246 162.716 99.2057C163.085 98.9868 163.52 98.8773 164.02 98.8773C164.446 98.8773 164.824 98.9524 165.156 99.1025C165.487 99.2526 165.756 99.4684 165.963 99.7499C166.175 100.025 166.307 100.363 166.357 100.763L165.118 100.829C165.068 100.51 164.943 100.269 164.743 100.106C164.549 99.9375 164.308 99.8531 164.02 99.8531C163.633 99.8531 163.332 100 163.12 100.294C162.907 100.582 162.801 100.982 162.801 101.495C162.801 102.014 162.907 102.418 163.12 102.705C163.332 102.993 163.633 103.137 164.02 103.137C164.314 103.137 164.558 103.052 164.752 102.884C164.952 102.715 165.074 102.452 165.118 102.095L166.357 102.152C166.307 102.552 166.178 102.899 165.972 103.193C165.766 103.487 165.497 103.715 165.165 103.878C164.834 104.034 164.452 104.113 164.02 104.113ZM169.371 104.113C168.877 104.113 168.442 104.006 168.067 103.794C167.698 103.575 167.41 103.268 167.204 102.874C167.004 102.48 166.904 102.02 166.904 101.495C166.904 100.963 167.004 100.504 167.204 100.116C167.41 99.7217 167.698 99.4184 168.067 99.2057C168.442 98.9868 168.877 98.8773 169.371 98.8773C169.865 98.8773 170.297 98.9868 170.666 99.2057C171.035 99.4184 171.32 99.7217 171.52 100.116C171.726 100.504 171.829 100.963 171.829 101.495C171.829 102.02 171.726 102.48 171.52 102.874C171.32 103.268 171.035 103.575 170.666 103.794C170.297 104.006 169.865 104.113 169.371 104.113ZM169.371 103.137C169.759 103.137 170.056 102.993 170.263 102.705C170.475 102.418 170.582 102.014 170.582 101.495C170.582 100.982 170.475 100.582 170.263 100.294C170.056 100 169.759 99.8531 169.371 99.8531C168.983 99.8531 168.683 100 168.471 100.294C168.258 100.582 168.152 100.982 168.152 101.495C168.152 102.014 168.258 102.418 168.471 102.705C168.683 102.993 168.983 103.137 169.371 103.137ZM174.407 104.113C173.901 104.113 173.497 103.947 173.197 103.615C172.903 103.278 172.756 102.812 172.756 102.217V98.9899H173.957V101.917C173.957 102.336 174.026 102.646 174.163 102.846C174.307 103.04 174.523 103.137 174.811 103.137C175.136 103.137 175.386 103.031 175.561 102.818C175.743 102.599 175.833 102.283 175.833 101.87V98.9899H177.034V104H175.937L175.908 102.621L176.059 102.668C175.984 103.143 175.805 103.503 175.524 103.747C175.242 103.991 174.87 104.113 174.407 104.113ZM178.354 104V98.9899H179.443L179.489 100.397L179.349 100.341C179.399 99.9907 179.502 99.7092 179.658 99.4965C179.815 99.2839 180.006 99.1275 180.231 99.0274C180.456 98.9274 180.703 98.8773 180.972 98.8773C181.341 98.8773 181.651 98.9586 181.901 99.1213C182.157 99.2839 182.351 99.5091 182.482 99.7968C182.614 100.078 182.679 100.407 182.679 100.782V104H181.479V101.167C181.479 100.885 181.45 100.647 181.394 100.454C181.338 100.26 181.244 100.113 181.113 100.013C180.988 99.9062 180.819 99.8531 180.606 99.8531C180.287 99.8531 180.031 99.9657 179.837 100.191C179.649 100.416 179.555 100.741 179.555 101.167V104H178.354ZM185.649 104C185.148 104 184.779 103.884 184.542 103.653C184.31 103.421 184.194 103.059 184.194 102.565V97.8171H185.395V102.452C185.395 102.683 185.445 102.846 185.545 102.94C185.646 103.027 185.802 103.071 186.015 103.071H186.718V104H185.649ZM183.406 99.9187V98.9899H186.718V99.9187H183.406Z" fill="white"/>
<rect x="121.67" y="130.67" width="56.6597" height="14.6597" rx="5.32984" fill="#184646" stroke="#217F7F" stroke-width="1.34031"/>
<path d="M117.162 62.9956C127.717 62.9956 126.545 54.7859 129.058 55.7911C131.571 56.7963 131.403 61.3199 134.419 62.3251C136.272 62.943 137.267 57.9691 138.942 56.6291C139.714 56.012 141.498 56.1057 142.796 55.1209C143.51 54.5792 144.299 52.5427 145.476 51.6017C146.807 50.5392 148.492 50.764 148.492 50.764C151.173 50.932 153.016 58.9739 156.199 59.8115C159.382 60.6492 160.555 57.1309 163.236 54.1152C165.916 51.0995 168.764 58.6396 171.445 58.6396C174.126 58.6396 176.471 59.644 177.644 61.4869C178.094 62.1937 180.176 62.7732 182.67 62.9956" stroke="white" stroke-width="0.670157" stroke-linecap="round"/>
<circle cx="44" cy="158" r="10" fill="#184646"/>
<circle cx="100" cy="187" r="19" fill="#184646"/>
<circle cx="253" cy="128" r="10" fill="#184646"/>
<circle cx="34" cy="61" r="3" fill="#184646"/>
<circle cx="235" cy="61" r="3" fill="#184646"/>
<circle cx="76" cy="40" r="2" fill="#184646"/>
<circle cx="256" cy="35" r="3" fill="#184646"/>
<circle cx="70" cy="118" r="4" fill="#184646"/>
</g>
<defs>
<linearGradient id="paint0_linear_1592_3600" x1="150" y1="0" x2="150" y2="192" gradientUnits="userSpaceOnUse">
<stop stop-color="#008691" stop-opacity="0"/>
<stop offset="1" stop-color="#008691" stop-opacity="0.07"/>
</linearGradient>
<clipPath id="clip0_1592_3600">
<rect width="300" height="192" fill="white"/>
</clipPath>
</defs>
</svg>
