<svg width="430" height="178" viewBox="0 0 430 178" fill="none" xmlns="http://www.w3.org/2000/svg">
<path d="M181.92 48.7412C179.798 48.7542 177.884 48.2855 176.178 47.335C174.485 46.3714 173.151 45.0368 172.174 43.3311C171.211 41.6253 170.729 39.6787 170.729 37.4912C170.729 35.3688 171.224 33.4482 172.213 31.7295C173.203 30.0107 174.544 28.6696 176.237 27.7061C177.929 26.7425 179.817 26.2607 181.901 26.2607C184.244 26.2607 186.295 26.7816 188.053 27.8232C189.824 28.8649 191.145 30.3428 192.018 32.2568C192.903 34.1579 193.222 36.3389 192.975 38.7998H172.897V35.1865H188.424L187.467 35.6162C187.441 34.6527 187.187 33.7868 186.705 33.0186C186.237 32.2503 185.599 31.6579 184.791 31.2412C183.984 30.8115 183.073 30.5967 182.057 30.5967C180.976 30.5967 179.993 30.8441 179.108 31.3389C178.222 31.8337 177.519 32.5303 176.998 33.4287C176.49 34.3141 176.237 35.3102 176.237 36.417V38.4482C176.237 39.568 176.484 40.5771 176.979 41.4756C177.474 42.361 178.164 43.0511 179.049 43.5459C179.934 44.0407 180.924 44.2881 182.018 44.2881C182.851 44.2751 183.626 44.1318 184.342 43.8584C185.058 43.5719 185.664 43.1878 186.158 42.7061C186.666 42.2243 187.024 41.6774 187.233 41.0654H192.819C192.48 42.5628 191.803 43.8975 190.787 45.0693C189.772 46.2282 188.496 47.1331 186.959 47.7842C185.423 48.4352 183.743 48.7542 181.92 48.7412Z" fill="white"/>
<path d="M158.483 48.7412C156.36 48.7542 154.446 48.2855 152.74 47.335C151.048 46.3714 149.713 45.0368 148.737 43.3311C147.773 41.6253 147.291 39.6787 147.291 37.4912C147.291 35.3688 147.786 33.4482 148.776 31.7295C149.765 30.0107 151.106 28.6696 152.799 27.7061C154.492 26.7425 156.38 26.2607 158.463 26.2607C160.807 26.2607 162.858 26.7816 164.615 27.8232C166.386 28.8649 167.708 30.3428 168.58 32.2568C169.466 34.1579 169.785 36.3389 169.537 38.7998H149.459V35.1865H164.987L164.03 35.6162C164.003 34.6527 163.75 33.7868 163.268 33.0186C162.799 32.2503 162.161 31.6579 161.354 31.2412C160.546 30.8115 159.635 30.5967 158.619 30.5967C157.539 30.5967 156.556 30.8441 155.67 31.3389C154.785 31.8337 154.082 32.5303 153.561 33.4287C153.053 34.3141 152.799 35.3102 152.799 36.417V38.4482C152.799 39.568 153.046 40.5771 153.541 41.4756C154.036 42.361 154.726 43.0511 155.612 43.5459C156.497 44.0407 157.487 44.2881 158.58 44.2881C159.414 44.2751 160.188 44.1318 160.905 43.8584C161.621 43.5719 162.226 43.1878 162.721 42.7061C163.229 42.2243 163.587 41.6774 163.795 41.0654H169.381C169.043 42.5628 168.365 43.8975 167.35 45.0693C166.334 46.2282 165.058 47.1331 163.522 47.7842C161.985 48.4352 160.306 48.7542 158.483 48.7412Z" fill="white"/>
<path d="M140.221 33.2334C140.143 32.6605 139.961 32.1527 139.674 31.71C139.401 31.2542 139.043 30.9092 138.6 30.6748C138.157 30.4274 137.669 30.3037 137.135 30.3037C136.679 30.3037 136.276 30.4079 135.924 30.6162C135.573 30.8245 135.293 31.098 135.084 31.4365C134.876 31.7751 134.772 32.1462 134.772 32.5498C134.772 33.0446 134.948 33.4808 135.299 33.8584C135.664 34.223 136.198 34.5094 136.901 34.7178L140.123 35.5381C141.998 36.0459 143.392 36.8337 144.303 37.9014C145.214 38.9691 145.67 40.3037 145.67 41.9053C145.67 43.1943 145.325 44.3467 144.635 45.3623C143.945 46.3779 142.994 47.1722 141.783 47.7451C140.573 48.318 139.199 48.6045 137.662 48.6045C136.009 48.6045 134.537 48.318 133.248 47.7451C131.959 47.1592 130.924 46.3454 130.143 45.3037C129.362 44.249 128.899 43.0316 128.756 41.6514H134.069C134.173 42.2113 134.388 42.7191 134.713 43.1748C135.052 43.6175 135.475 43.9691 135.983 44.2295C136.49 44.4769 137.063 44.6006 137.701 44.6006C138.222 44.6006 138.684 44.5094 139.088 44.3271C139.492 44.1449 139.798 43.904 140.006 43.6045C140.227 43.292 140.338 42.9339 140.338 42.5303C140.325 41.9574 140.143 41.4821 139.791 41.1045C139.44 40.7139 138.925 40.4209 138.248 40.2256L135.221 39.4443C133.893 39.0928 132.806 38.637 131.959 38.0771C131.113 37.5042 130.475 36.8206 130.045 36.0264C129.615 35.2191 129.401 34.2881 129.401 33.2334C129.401 31.9183 129.739 30.7334 130.416 29.6787C131.093 28.624 132.037 27.7972 133.248 27.1982C134.459 26.5863 135.839 26.2803 137.389 26.2803C138.925 26.2803 140.286 26.5667 141.471 27.1396C142.656 27.6995 143.593 28.5068 144.283 29.5615C144.987 30.6032 145.403 31.8271 145.533 33.2334H140.221Z" fill="white"/>
<path d="M110.592 51.9053C110.189 53.0381 109.674 53.9756 109.049 54.7178C108.437 55.473 107.689 56.0394 106.803 56.417C105.918 56.7946 104.902 56.9834 103.756 56.9834H99.8696V52.374H102.975C103.392 52.374 103.763 52.3089 104.088 52.1787C104.414 52.0485 104.687 51.8532 104.909 51.5928C105.13 51.3454 105.325 51.0199 105.495 50.6162C105.534 50.5251 105.56 50.4535 105.573 50.4014C105.599 50.3493 105.631 50.2777 105.67 50.1865L106.334 48.2725L98.0142 26.71H103.991L110.866 46.5928H107.506L113.737 26.71H119.479L110.592 51.9053Z" fill="white"/>
<path d="M96.5688 48.2334H91.2368V18.4873H96.5688V48.2334ZM91.2368 18.4873H96.5688V22.7646H91.2368V18.4873ZM91.2368 43.9365H96.5688V48.2334H91.2368V43.9365Z" fill="white"/>
<path d="M82.5454 26.71H87.897V48.2334H82.5454V26.71ZM82.4673 18.9756H88.0728V24.4248H82.4673V18.9756Z" fill="white"/>
<path d="M74.3228 33.2334C74.2446 32.6605 74.0623 32.1527 73.7759 31.71C73.5024 31.2542 73.1444 30.9092 72.7017 30.6748C72.259 30.4274 71.7707 30.3037 71.2368 30.3037C70.7811 30.3037 70.3774 30.4079 70.0259 30.6162C69.6743 30.8245 69.3944 31.098 69.186 31.4365C68.9777 31.7751 68.8735 32.1462 68.8735 32.5498C68.8735 33.0446 69.0493 33.4808 69.4009 33.8584C69.7655 34.223 70.2993 34.5094 71.0024 34.7178L74.2251 35.5381C76.1001 36.0459 77.4933 36.8337 78.4048 37.9014C79.3162 38.9691 79.772 40.3037 79.772 41.9053C79.772 43.1943 79.4269 44.3467 78.7368 45.3623C78.0467 46.3779 77.0962 47.1722 75.8853 47.7451C74.6743 48.318 73.3006 48.6045 71.7642 48.6045C70.1105 48.6045 68.6392 48.318 67.3501 47.7451C66.061 47.1592 65.0259 46.3454 64.2446 45.3037C63.4634 44.249 63.0011 43.0316 62.8579 41.6514H68.1704C68.2746 42.2113 68.4894 42.7191 68.8149 43.1748C69.1535 43.6175 69.5767 43.9691 70.0845 44.2295C70.5923 44.4769 71.1652 44.6006 71.8032 44.6006C72.3241 44.6006 72.7863 44.5094 73.1899 44.3271C73.5936 44.1449 73.8996 43.904 74.1079 43.6045C74.3293 43.292 74.4399 42.9339 74.4399 42.5303C74.4269 41.9574 74.2446 41.4821 73.8931 41.1045C73.5415 40.7139 73.0272 40.4209 72.3501 40.2256L69.3228 39.4443C67.9946 39.0928 66.9074 38.637 66.061 38.0771C65.2147 37.5042 64.5767 36.8206 64.147 36.0264C63.7173 35.2191 63.5024 34.2881 63.5024 33.2334C63.5024 31.9183 63.841 30.7334 64.5181 29.6787C65.1951 28.624 66.1392 27.7972 67.3501 27.1982C68.561 26.5863 69.9412 26.2803 71.4907 26.2803C73.0272 26.2803 74.3879 26.5667 75.5728 27.1396C76.7576 27.6995 77.6951 28.5068 78.3853 29.5615C79.0884 30.6032 79.505 31.8271 79.6353 33.2334H74.3228Z" fill="white"/>
<path d="M48.2095 48.6438C46.2433 48.6438 44.4855 48.1555 42.936 47.179C41.3996 46.2024 40.1886 44.8678 39.3032 43.1751C38.4308 41.4693 37.9946 39.5423 37.9946 37.3938C38.0076 35.2454 38.4634 33.3248 39.3618 31.6321C40.2603 29.9264 41.4907 28.5982 43.0532 27.6477C44.6157 26.6972 46.3866 26.2285 48.3657 26.2415C49.6418 26.2415 50.8657 26.4889 52.0376 26.9837C53.2095 27.4654 54.1925 28.149 54.9868 29.0344C55.7811 29.9068 56.2759 30.8834 56.4712 31.9641L55.1235 31.9055V26.7102H60.4751V48.2337H55.1626L55.1821 43.7415L56.6274 42.9602C56.2889 44.054 55.6834 45.037 54.811 45.9094C53.9386 46.7688 52.9165 47.4394 51.7446 47.9212C50.5858 48.4029 49.4074 48.6438 48.2095 48.6438ZM49.2446 43.8196C50.3644 43.8196 51.3866 43.5462 52.311 42.9993C53.2485 42.4394 53.9842 41.6777 54.5181 40.7141C55.0649 39.7376 55.3449 38.6308 55.3579 37.3938C55.3579 36.1699 55.0845 35.0761 54.5376 34.1126C54.0037 33.136 53.2681 32.3743 52.3306 31.8274C51.3931 31.2805 50.3644 31.0071 49.2446 31.0071C48.1379 31.0071 47.1483 31.274 46.2759 31.8079C45.4165 32.3287 44.7459 33.0774 44.2642 34.054C43.7824 35.0305 43.5415 36.1438 43.5415 37.3938C43.5415 38.6568 43.7824 39.7701 44.2642 40.7337C44.7459 41.6972 45.4165 42.4524 46.2759 42.9993C47.1483 43.5462 48.1379 43.8196 49.2446 43.8196Z" fill="white"/>
<path d="M19.6157 19.4834H36.2563V24.3857H25.2407V31.3389H36.2563V36.1631H25.2407V43.3311H36.2563V48.2334H19.6157V19.4834Z" fill="white"/>
<rect x="206.569" y="11.4269" width="124.2" height="38.8" rx="13.4691" transform="rotate(3.17212 206.569 11.4269)" stroke="#AE7EF7" stroke-width="2"/>
<rect x="214.812" y="18.0928" width="26.4" height="26.4" rx="13.2" transform="rotate(3.17212 214.812 18.0928)" fill="white" fill-opacity="0.06"/>
<path d="M229.426 37.2588C229.877 37.4585 230.446 37.5997 231.166 37.6395C231.884 37.6793 232.465 37.6031 232.935 37.4545C234.821 36.8579 234.918 35.1068 234.918 35.1068C234.963 34.2937 234.34 33.599 233.528 33.554L229.267 33.3179C228.454 33.2728 227.759 33.8945 227.714 34.7076C227.714 34.7076 227.617 36.4574 229.425 37.26" fill="url(#paint0_linear_1638_1343)"/>
<path d="M229.426 37.2588C229.877 37.4585 230.446 37.5997 231.166 37.6395C231.884 37.6793 232.465 37.6031 232.935 37.4545C234.821 36.8579 234.918 35.1068 234.918 35.1068C234.963 34.2937 234.34 33.599 233.528 33.554L229.267 33.3179C228.454 33.2728 227.759 33.8945 227.714 34.7076C227.714 34.7076 227.617 36.4574 229.425 37.26" fill="url(#paint1_radial_1638_1343)" fill-opacity="0.5"/>
<path d="M228.897 35.1045C228.923 34.6267 228.759 34.158 228.44 33.8014C228.121 33.4448 227.673 33.2296 227.195 33.2032L221.19 32.8703C220.712 32.8439 220.244 33.0083 219.887 33.3274C219.531 33.6465 219.315 34.0942 219.289 34.572L219.284 34.6621C219.284 34.6621 219.089 38.175 223.893 38.4413C228.471 38.695 228.863 35.517 228.891 35.2174L228.897 35.1045Z" fill="url(#paint2_linear_1638_1343)"/>
<path d="M228.897 35.1045C228.923 34.6267 228.759 34.158 228.44 33.8014C228.121 33.4448 227.673 33.2296 227.195 33.2032L221.19 32.8703C220.712 32.8439 220.244 33.0083 219.887 33.3274C219.531 33.6465 219.315 34.0942 219.289 34.572L219.284 34.6621C219.284 34.6621 219.089 38.175 223.893 38.4413C228.471 38.695 228.863 35.517 228.891 35.2174L228.897 35.1045Z" fill="url(#paint3_linear_1638_1343)"/>
<path d="M231.465 32.236C232.102 32.2713 232.727 32.0521 233.203 31.6266C233.678 31.2011 233.965 30.6041 234 29.9671C234.036 29.33 233.817 28.705 233.391 28.2296C232.966 27.7542 232.369 27.4673 231.732 27.4319C231.095 27.3966 230.47 27.6159 229.994 28.0414C229.519 28.4669 229.232 29.0638 229.196 29.7008C229.161 30.3379 229.38 30.9629 229.806 31.4383C230.231 31.9137 230.828 32.2007 231.465 32.236Z" fill="url(#paint4_linear_1638_1343)"/>
<path d="M227.428 29.0004C227.384 29.7967 227.025 30.5428 226.431 31.0747C225.837 31.6066 225.055 31.8806 224.259 31.8365C223.463 31.7923 222.717 31.4337 222.185 30.8394C221.653 30.2451 221.379 29.4639 221.423 28.6676C221.467 27.8712 221.826 27.1251 222.42 26.5932C223.014 26.0613 223.796 25.7873 224.592 25.8314C225.388 25.8756 226.134 26.2342 226.666 26.8285C227.198 27.4228 227.472 28.204 227.428 29.0004Z" fill="url(#paint5_linear_1638_1343)"/>
<path d="M316.031 36.823C316.006 36.5117 315.923 36.2325 315.781 35.9852C315.647 35.7313 315.465 35.5346 315.233 35.395C315.002 35.2484 314.742 35.1671 314.454 35.1511C314.209 35.1375 313.988 35.1816 313.792 35.2835C313.596 35.3853 313.437 35.5243 313.315 35.7006C313.192 35.877 313.125 36.0739 313.113 36.2916C313.098 36.5583 313.18 36.7988 313.358 37.0129C313.544 37.2203 313.823 37.3907 314.196 37.5241L315.909 38.0627C316.905 38.3925 317.633 38.8589 318.092 39.4618C318.552 40.0647 318.757 40.7979 318.71 41.6614C318.671 42.3565 318.451 42.9675 318.048 43.4944C317.646 44.0214 317.109 44.4213 316.439 44.694C315.769 44.9667 315.02 45.0801 314.192 45.0342C313.3 44.9848 312.515 44.7864 311.838 44.4389C311.16 44.0845 310.626 43.6148 310.236 43.0298C309.846 42.4378 309.634 41.7676 309.598 41.0191L312.462 41.1779C312.501 41.4829 312.602 41.7631 312.764 42.0185C312.933 42.2673 313.151 42.4695 313.417 42.6251C313.683 42.7737 313.989 42.8575 314.333 42.8766C314.613 42.8921 314.865 42.8568 315.088 42.7706C315.311 42.6843 315.484 42.5636 315.605 42.4084C315.734 42.2465 315.804 42.0567 315.816 41.8391C315.826 41.5298 315.742 41.2681 315.564 41.054C315.386 40.8329 315.117 40.6596 314.758 40.534L313.149 40.0223C312.444 39.7931 311.871 39.5149 311.431 39.1877C310.992 38.8535 310.669 38.4659 310.461 38.0248C310.253 37.5767 310.165 37.0683 310.197 36.4996C310.236 35.7906 310.454 35.1618 310.85 34.6134C311.247 34.065 311.781 33.6474 312.452 33.3606C313.123 33.0668 313.876 32.9431 314.711 32.9894C315.54 33.0353 316.265 33.2304 316.887 33.5747C317.509 33.912 317.99 34.3753 318.331 34.9646C318.679 35.5472 318.867 36.2196 318.895 36.9817L316.031 36.823Z" fill="white"/>
<path d="M303.821 32.6182L306.569 32.7705L306.428 35.3189L305.859 35.4881C306.026 34.8847 306.29 34.3677 306.652 33.9371C307.015 33.4994 307.448 33.1748 307.953 32.9634C308.457 32.7519 309.008 32.6627 309.605 32.6958L309.456 35.3811C308.839 35.3399 308.302 35.4228 307.847 35.63C307.399 35.8305 307.047 36.149 306.791 36.5855C306.535 37.0149 306.389 37.5456 306.354 38.1774L306.01 44.38L303.177 44.223L303.821 32.6182Z" fill="white"/>
<path d="M295.991 44.0998C294.846 44.0434 293.828 43.7335 292.937 43.17C292.053 42.5999 291.373 41.8404 290.898 40.8916C290.429 39.9431 290.227 38.8791 290.293 37.6997C290.356 36.5554 290.68 35.5346 291.265 34.6375C291.85 33.7404 292.613 33.0573 293.555 32.5884C294.496 32.1194 295.529 31.9161 296.652 31.9784C297.916 32.0484 299.006 32.3905 299.922 33.0047C300.846 33.6192 301.515 34.4555 301.928 35.5136C302.348 36.5651 302.455 37.7505 302.248 39.07L291.423 38.47L291.531 36.5218L299.903 36.9858L299.374 37.1889C299.388 36.6686 299.277 36.1942 299.041 35.7656C298.811 35.3373 298.485 34.9988 298.062 34.7501C297.639 34.4943 297.154 34.3512 296.607 34.3208C296.024 34.2886 295.487 34.3926 294.994 34.6329C294.502 34.8732 294.102 35.2278 293.795 35.6966C293.494 36.1589 293.328 36.6883 293.295 37.2851L293.234 38.3803C293.2 38.984 293.304 39.5355 293.544 40.0347C293.784 40.5269 294.135 40.9196 294.598 41.2128C295.061 41.5061 295.587 41.669 296.176 41.7017C296.626 41.7196 297.048 41.6655 297.442 41.5395C297.837 41.4064 298.175 41.2174 298.456 40.9725C298.744 40.7279 298.954 40.4437 299.084 40.12L302.096 40.2869C301.869 41.0841 301.464 41.7835 300.881 42.385C300.299 42.9795 299.584 43.4293 298.736 43.7344C297.888 44.0395 296.973 44.1613 295.991 44.0998Z" fill="white"/>
<path d="M285.302 45.2183C285.051 45.817 284.746 46.3071 284.386 46.6886C284.034 47.0775 283.613 47.3605 283.125 47.5377C282.636 47.7148 282.083 47.7862 281.465 47.752L279.369 47.6359L279.507 45.1506L281.181 45.2434C281.406 45.2559 281.608 45.2318 281.787 45.1714C281.967 45.1109 282.12 45.0138 282.247 44.88C282.374 44.7532 282.489 44.5835 282.592 44.3709C282.616 44.323 282.632 44.2851 282.641 44.2574C282.656 44.2301 282.676 44.1925 282.7 44.1445L283.115 43.1323L279.273 31.2578L282.496 31.4364L285.609 42.3621L283.797 42.2617L287.751 31.7276L290.847 31.8992L285.302 45.2183Z" fill="white"/>
<path d="M271.246 42.6751C270.186 42.6164 269.253 42.3006 268.447 41.7277C267.648 41.1553 267.035 40.3995 266.608 39.4604C266.188 38.5146 266.011 37.4626 266.075 36.3042C266.146 35.1462 266.449 34.1243 266.984 33.2385C267.52 32.3457 268.223 31.6663 269.094 31.2005C269.964 30.7347 270.933 30.5349 272 30.6011C272.688 30.6392 273.341 30.8092 273.958 31.1109C274.575 31.4057 275.085 31.8037 275.486 32.3048C275.889 32.7989 276.126 33.3402 276.199 33.9288L275.474 33.8569L275.63 31.0557L278.515 31.2156L277.872 42.8205L275.008 42.6617L275.152 40.2403L275.955 39.8622C275.74 40.4418 275.384 40.9538 274.887 41.3981C274.391 41.8354 273.82 42.1664 273.174 42.3911C272.535 42.6162 271.892 42.7109 271.246 42.6751ZM271.949 40.105C272.552 40.1384 273.112 40.0215 273.626 39.7543C274.149 39.4804 274.568 39.0917 274.885 38.5882C275.209 38.078 275.393 37.4896 275.437 36.823C275.473 36.1631 275.359 35.5652 275.093 35.0294C274.834 34.4869 274.46 34.0542 273.971 33.7313C273.482 33.4084 272.935 33.2303 272.331 33.1968C271.735 33.1637 271.193 33.2781 270.707 33.5399C270.228 33.795 269.844 34.1786 269.555 34.6908C269.266 35.2029 269.103 35.796 269.066 36.4699C269.028 37.1509 269.125 37.7584 269.356 38.2923C269.586 38.8262 269.925 39.2534 270.372 39.574C270.827 39.8949 271.352 40.0719 271.949 40.105Z" fill="white"/>
<path d="M264.498 42.0794L261.623 41.9201L262.512 25.8818L265.387 26.0412L264.498 42.0794ZM262.512 25.8818L265.387 26.0412L265.259 28.3474L262.384 28.1881L262.512 25.8818ZM261.752 39.6034L264.626 39.7627L264.498 42.0794L261.623 41.9201L261.752 39.6034Z" fill="white"/>
<path d="M250.172 25.7373L256.016 26.0612C257.048 26.1184 257.956 26.3835 258.74 26.8565C259.523 27.3295 260.115 27.9644 260.515 28.7611C260.921 29.5583 261.097 30.4518 261.042 31.4417C260.987 32.4316 260.713 33.3037 260.221 34.0581C259.736 34.8058 259.078 35.375 258.246 35.7655C257.422 36.1564 256.493 36.3233 255.461 36.2661L251.544 36.049L251.692 33.3742L255.209 33.5691C255.701 33.5963 256.142 33.5186 256.532 33.3361C256.923 33.1535 257.233 32.889 257.464 32.5426C257.694 32.1892 257.823 31.7774 257.849 31.307C257.875 30.8366 257.793 30.4131 257.602 30.0363C257.419 29.6529 257.14 29.3523 256.765 29.1343C256.39 28.9093 255.957 28.7832 255.466 28.756L253.054 28.6223L252.346 41.4066L249.313 41.2385L250.172 25.7373Z" fill="white"/>
<path d="M399.146 48.6436C397.167 48.6436 395.403 48.1618 393.853 47.1982C392.317 46.2347 391.112 44.9066 390.24 43.2139C389.381 41.5081 388.951 39.5745 388.951 37.4131C388.964 35.2516 389.413 33.318 390.299 31.6123C391.184 29.9066 392.408 28.585 393.97 27.6475C395.533 26.6969 397.31 26.2282 399.302 26.2412C400.605 26.2412 401.842 26.5016 403.013 27.0225C404.198 27.5303 405.181 28.2399 405.963 29.1514C406.744 30.0498 407.226 31.0459 407.408 32.1396H406.119V18.5068H411.47V48.2334H406.158L406.177 43.0381L407.447 42.9209C407.148 44.0146 406.568 44.9977 405.709 45.8701C404.862 46.7295 403.853 47.4066 402.681 47.9014C401.523 48.3962 400.344 48.6436 399.146 48.6436ZM400.26 43.7803C401.353 43.7803 402.362 43.5068 403.287 42.96C404.211 42.4001 404.941 41.6383 405.474 40.6748C406.021 39.7113 406.301 38.6175 406.314 37.3936C406.314 36.1696 406.047 35.0758 405.513 34.1123C404.98 33.1357 404.244 32.3805 403.306 31.8467C402.382 31.2998 401.366 31.0329 400.26 31.0459C399.127 31.0329 398.124 31.2933 397.252 31.8271C396.379 32.348 395.702 33.0967 395.22 34.0732C394.739 35.0368 394.498 36.1436 394.498 37.3936C394.498 38.6436 394.739 39.7503 395.22 40.7139C395.702 41.6774 396.379 42.4326 397.252 42.9795C398.124 43.5133 399.127 43.7803 400.26 43.7803Z" fill="white"/>
<path d="M373.013 48.2334H367.662V26.71H372.877V31.4951L371.822 31.9834C372.03 30.8636 372.486 29.8675 373.189 28.9951C373.905 28.1097 374.784 27.4326 375.826 26.9639C376.868 26.4821 377.987 26.2412 379.185 26.2412C380.709 26.2412 382.05 26.5732 383.209 27.2373C384.368 27.9014 385.26 28.8519 385.885 30.0889C386.51 31.3128 386.822 32.7321 386.822 34.3467V48.2334H381.49V35.5381C381.49 34.6266 381.321 33.8324 380.982 33.1553C380.657 32.4782 380.188 31.9639 379.576 31.6123C378.977 31.2477 378.267 31.0654 377.447 31.0654C376.614 31.0654 375.858 31.2868 375.181 31.7295C374.517 32.1592 373.99 32.7581 373.599 33.5264C373.209 34.2816 373.013 35.1344 373.013 36.085V48.2334Z" fill="white"/>
<path d="M352.135 48.6438C350.168 48.6438 348.411 48.1555 346.861 47.179C345.325 46.2024 344.114 44.8678 343.228 43.1751C342.356 41.4693 341.92 39.5423 341.92 37.3938C341.933 35.2454 342.388 33.3248 343.287 31.6321C344.185 29.9264 345.416 28.5982 346.978 27.6477C348.541 26.6972 350.312 26.2285 352.291 26.2415C353.567 26.2415 354.791 26.4889 355.963 26.9837C357.135 27.4654 358.118 28.149 358.912 29.0344C359.706 29.9068 360.201 30.8834 360.396 31.9641L359.049 31.9055V26.7102H364.4V48.2337H359.088L359.107 43.7415L360.552 42.9602C360.214 44.054 359.608 45.037 358.736 45.9094C357.864 46.7688 356.842 47.4394 355.67 47.9212C354.511 48.4029 353.332 48.6438 352.135 48.6438ZM353.17 43.8196C354.289 43.8196 355.312 43.5462 356.236 42.9993C357.174 42.4394 357.909 41.6777 358.443 40.7141C358.99 39.7376 359.27 38.6308 359.283 37.3938C359.283 36.1699 359.01 35.0761 358.463 34.1126C357.929 33.136 357.193 32.3743 356.256 31.8274C355.318 31.2805 354.289 31.0071 353.17 31.0071C352.063 31.0071 351.073 31.274 350.201 31.8079C349.342 32.3287 348.671 33.0774 348.189 34.054C347.707 35.0305 347.467 36.1438 347.467 37.3938C347.467 38.6568 347.707 39.7701 348.189 40.7337C348.671 41.6972 349.342 42.4524 350.201 42.9993C351.073 43.5462 352.063 43.8196 353.17 43.8196Z" fill="white"/>
<rect x="14.3121" y="69.4916" width="121.2" height="38.8" rx="13.4691" transform="rotate(-2.49686 14.3121 69.4916)" stroke="#298DFF" stroke-width="2"/>
<rect x="20.7241" y="74.2168" width="36" height="28.8" rx="9" transform="rotate(-2.49686 20.7241 74.2168)" fill="white" fill-opacity="0.06"/>
<path d="M32.4906 83.3011L37.8962 82.315L38.1253 87.569L32.6863 87.8061L32.4906 83.3011ZM32.9098 92.9156L38.3808 93.4282L38.1545 88.2383L32.7155 88.4755L32.9098 92.9156ZM38.9821 93.4817L46.259 94.1645L45.9857 87.8968L38.7524 88.2123L38.9821 93.4817ZM38.4906 82.2085L38.7232 87.5429L45.9565 87.2275L45.6804 80.895L38.4906 82.2085Z" fill="#298DFF"/>
<path d="M123.584 84.0449C123.528 83.7376 123.418 83.468 123.253 83.2359C123.095 82.9965 122.893 82.8187 122.649 82.7027C122.404 82.5796 122.138 82.5244 121.85 82.537C121.604 82.5477 121.389 82.6134 121.204 82.734C121.019 82.8547 120.875 83.0088 120.77 83.1963C120.666 83.3839 120.618 83.5865 120.628 83.8043C120.64 84.0712 120.745 84.3024 120.943 84.4979C121.148 84.686 121.443 84.8279 121.827 84.9238L123.585 85.2905C124.609 85.5204 125.379 85.9126 125.896 86.4672C126.413 87.0217 126.69 87.731 126.728 88.5951C126.758 89.2905 126.599 89.9203 126.25 90.4844C125.902 91.0486 125.408 91.4995 124.768 91.837C124.128 92.1746 123.394 92.3614 122.565 92.3976C121.673 92.4365 120.872 92.3166 120.164 92.0378C119.454 91.752 118.877 91.3373 118.431 90.7938C117.984 90.2431 117.706 89.5972 117.597 88.856L120.463 88.731C120.532 89.0306 120.66 89.2995 120.846 89.5377C121.039 89.7686 121.276 89.9483 121.556 90.0768C121.836 90.1984 122.148 90.2516 122.492 90.2366C122.773 90.2244 123.02 90.1643 123.234 90.0565C123.447 89.9486 123.607 89.8115 123.712 89.645C123.824 89.4712 123.875 89.2754 123.866 89.0577C123.845 88.7489 123.736 88.4968 123.537 88.3014C123.338 88.0989 123.054 87.9529 122.684 87.8635L121.032 87.5132C120.308 87.3548 119.71 87.1345 119.241 86.8524C118.771 86.5632 118.41 86.2094 118.16 85.791C117.909 85.3656 117.771 84.8684 117.746 84.2994C117.715 83.59 117.87 82.9428 118.211 82.3578C118.551 81.7729 119.041 81.3046 119.68 80.953C120.319 80.5944 121.056 80.3968 121.892 80.3604C122.721 80.3242 123.462 80.4468 124.115 80.728C124.767 81.0022 125.292 81.4156 125.689 81.9684C126.093 82.5138 126.347 83.1643 126.45 83.9199L123.584 84.0449Z" fill="white"/>
<path d="M113.073 80.9779L115.96 80.852L116.466 92.4636L113.653 92.5863L113.54 90.0048L114.098 89.7165C114.012 90.3255 113.786 90.8773 113.42 91.3718C113.061 91.859 112.607 92.2448 112.056 92.5292C111.505 92.8066 110.907 92.9594 110.26 92.9876C109.438 93.0234 108.707 92.8759 108.066 92.5449C107.425 92.2139 106.922 91.7256 106.556 91.08C106.19 90.4273 105.988 89.6655 105.95 88.7944L105.623 81.3027L108.5 81.1773L108.798 88.0263C108.82 88.518 108.926 88.9427 109.118 89.3003C109.316 89.6576 109.581 89.9275 109.913 90.1101C110.252 90.2854 110.642 90.3634 111.085 90.3441C111.534 90.3245 111.933 90.191 112.281 89.9435C112.636 89.6888 112.91 89.3531 113.103 88.9365C113.296 88.5128 113.381 88.0446 113.358 87.5318L113.073 80.9779Z" fill="white"/>
<path d="M99.7873 78.6853L102.622 78.5617L103.253 93.0393L100.419 93.1629L99.7873 78.6853ZM97.8681 81.6404L104.78 81.339L104.886 83.773L97.9743 84.0745L97.8681 81.6404Z" fill="white"/>
<path d="M90.8923 93.7997C89.8316 93.846 88.8718 93.6239 88.0129 93.1335C87.161 92.6428 86.4763 91.9513 85.9588 91.0589C85.4481 90.1592 85.1674 89.1298 85.1169 87.9708C85.0733 86.8114 85.274 85.7646 85.7189 84.8303C86.1635 83.8889 86.796 83.1434 87.6166 82.5939C88.4372 82.0443 89.3815 81.7498 90.4496 81.7103C91.138 81.6802 91.8041 81.7849 92.448 82.0243C93.0915 82.2566 93.6379 82.6023 94.0873 83.0613C94.5363 83.5132 94.8262 84.0284 94.957 84.6069L94.2286 84.607L94.1064 81.8042L96.9935 81.6783L97.4998 93.2899L94.6338 93.4149L94.5386 90.9909L95.3 90.5355C95.1431 91.1335 94.8395 91.6781 94.3894 92.1693C93.939 92.6534 93.4033 93.0392 92.7825 93.3267C92.1686 93.6139 91.5385 93.7715 90.8923 93.7997ZM91.3373 91.1728C91.9414 91.1464 92.4864 90.9749 92.9722 90.6581C93.4648 90.334 93.8438 89.9057 94.1091 89.3733C94.3812 88.8336 94.5062 88.23 94.4841 87.5623C94.4553 86.902 94.2821 86.3184 93.9644 85.8114C93.6534 85.2971 93.2386 84.9035 92.72 84.6305C92.2013 84.3576 91.64 84.2342 91.0358 84.2606C90.4388 84.2866 89.9112 84.4539 89.4531 84.7624C89.0017 85.0636 88.6576 85.4833 88.4206 86.0215C88.1837 86.5597 88.0799 87.1659 88.1093 87.8403C88.139 88.5217 88.2952 89.1166 88.5778 89.6251C88.8603 90.1336 89.2399 90.5252 89.7164 90.8001C90.1999 91.0746 90.7402 91.1988 91.3373 91.1728Z" fill="white"/>
<path d="M79.6828 79.5622L82.5172 79.4386L83.1486 93.9163L80.3141 94.0399L79.6828 79.5622ZM77.7636 82.5174L84.6758 82.216L84.782 84.65L77.8698 84.9514L77.7636 82.5174Z" fill="white"/>
<path d="M72.5174 94.6326C71.4216 94.6804 70.4502 94.5152 69.6032 94.1369C68.7633 93.7582 68.0885 93.2141 67.579 92.5043C67.0692 91.7876 66.7506 90.9393 66.6235 89.9596L69.7108 89.8249C69.7728 90.2797 69.9244 90.6883 70.1654 91.0508C70.4131 91.406 70.7281 91.6879 71.1102 91.8964C71.492 92.0979 71.9287 92.188 72.4204 92.1665C72.8419 92.1482 73.2108 92.0547 73.5272 91.886C73.8503 91.7101 74.0937 91.4813 74.2574 91.1997C74.4208 90.911 74.4948 90.5911 74.4795 90.2399C74.4648 89.9027 74.3887 89.6104 74.2512 89.363C74.1208 89.1154 73.9251 88.9057 73.6643 88.7341C73.4104 88.5622 73.091 88.4178 72.7058 88.3008L70.3532 87.6117C69.5692 87.3854 68.9049 87.0801 68.3603 86.6957C67.8157 86.3112 67.3979 85.8508 67.1071 85.3146C66.816 84.7713 66.6554 84.1554 66.6254 83.467C66.5865 82.5749 66.7696 81.7716 67.1748 81.0572C67.5797 80.3357 68.1599 79.7615 68.9155 79.3344C69.671 78.9073 70.5405 78.6724 71.524 78.6295C72.5074 78.5866 73.3867 78.7383 74.1619 79.0845C74.9371 79.4308 75.5577 79.9421 76.0235 80.6185C76.4964 81.2947 76.7952 82.0945 76.9199 83.0181L73.8748 83.1509C73.7932 82.7322 73.6435 82.3657 73.4256 82.0514C73.2146 81.7299 72.9471 81.4882 72.6234 81.3263C72.3063 81.1572 71.9581 81.0809 71.5788 81.0974C71.1925 81.1142 70.8551 81.2064 70.5668 81.3738C70.2783 81.5342 70.0556 81.755 69.899 82.0363C69.7423 82.3176 69.6715 82.6304 69.6865 82.9746C69.7071 83.4452 69.8604 83.8151 70.1466 84.0841C70.4325 84.3461 70.8823 84.5728 71.4959 84.7643L73.7431 85.458C74.5559 85.6971 75.2351 86.0229 75.781 86.4354C76.3335 86.8406 76.7525 87.3291 77.0378 87.9008C77.3299 88.4652 77.4915 89.1056 77.5228 89.8221C77.562 90.7213 77.379 91.5281 76.9738 92.2425C76.5753 92.9496 75.9876 93.5136 75.2107 93.9346C74.4407 94.3552 73.543 94.5879 72.5174 94.6326Z" fill="white"/>
<path d="M408.238 73.3975H413.492V100.233H408.238V73.3975ZM404.449 78.71H417.261V83.2217H404.449V78.71Z" fill="#00D580"/>
<path d="M389.488 100.233H384.136V78.71H389.351V83.4951L388.297 83.9834C388.505 82.8636 388.961 81.8675 389.664 80.9951C390.38 80.1097 391.259 79.4326 392.301 78.9639C393.342 78.4821 394.462 78.2412 395.66 78.2412C397.183 78.2412 398.524 78.5732 399.683 79.2373C400.842 79.9014 401.734 80.8519 402.359 82.0889C402.984 83.3128 403.297 84.7321 403.297 86.3467V100.233H397.965V87.5381C397.965 86.6266 397.795 85.8324 397.457 85.1553C397.131 84.4782 396.663 83.9639 396.051 83.6123C395.452 83.2477 394.742 83.0654 393.922 83.0654C393.088 83.0654 392.333 83.2868 391.656 83.7295C390.992 84.1592 390.465 84.7581 390.074 85.5264C389.683 86.2816 389.488 87.1344 389.488 88.085V100.233Z" fill="#00D580"/>
<path d="M370.836 100.741C368.713 100.754 366.799 100.285 365.094 99.335C363.401 98.3714 362.066 97.0368 361.09 95.3311C360.126 93.6253 359.644 91.6787 359.644 89.4912C359.644 87.3688 360.139 85.4482 361.129 83.7295C362.118 82.0107 363.459 80.6696 365.152 79.7061C366.845 78.7425 368.733 78.2607 370.816 78.2607C373.16 78.2607 375.211 78.7816 376.969 79.8232C378.739 80.8649 380.061 82.3428 380.933 84.2568C381.819 86.1579 382.138 88.3389 381.89 90.7998H361.812V87.1865H377.34L376.383 87.6162C376.357 86.6527 376.103 85.7868 375.621 85.0186C375.152 84.2503 374.514 83.6579 373.707 83.2412C372.899 82.8115 371.988 82.5967 370.972 82.5967C369.892 82.5967 368.909 82.8441 368.023 83.3389C367.138 83.8337 366.435 84.5303 365.914 85.4287C365.406 86.3141 365.152 87.3102 365.152 88.417V90.4482C365.152 91.568 365.399 92.5771 365.894 93.4756C366.389 94.361 367.079 95.0511 367.965 95.5459C368.85 96.0407 369.84 96.2881 370.933 96.2881C371.767 96.2751 372.541 96.1318 373.258 95.8584C373.974 95.5719 374.579 95.1878 375.074 94.7061C375.582 94.2243 375.94 93.6774 376.148 93.0654H381.734C381.396 94.5628 380.719 95.8975 379.703 97.0693C378.687 98.2282 377.411 99.1331 375.875 99.7842C374.338 100.435 372.659 100.754 370.836 100.741Z" fill="#00D580"/>
<path d="M348.668 78.71H353.765V83.4365L352.73 83.8076C352.978 82.6748 353.414 81.6917 354.039 80.8584C354.664 80.012 355.432 79.3675 356.344 78.9248C357.255 78.4821 358.264 78.2607 359.371 78.2607V83.2412C358.225 83.2282 357.242 83.4365 356.422 83.8662C355.614 84.2829 354.996 84.9079 354.566 85.7412C354.136 86.5615 353.922 87.5576 353.922 88.7295V100.233H348.668V78.71Z" fill="#00D580"/>
<path d="M336.129 78.71H341.226V83.4365L340.191 83.8076C340.439 82.6748 340.875 81.6917 341.5 80.8584C342.125 80.012 342.893 79.3675 343.804 78.9248C344.716 78.4821 345.725 78.2607 346.832 78.2607V83.2412C345.686 83.2282 344.703 83.4365 343.883 83.8662C343.075 84.2829 342.457 84.9079 342.027 85.7412C341.597 86.5615 341.383 87.5576 341.383 88.7295V100.233H336.129V78.71Z" fill="#00D580"/>
<path d="M327.554 78.71H332.906V100.233H327.691V95.4482L328.746 94.96C328.538 96.0798 328.075 97.0824 327.359 97.9678C326.656 98.8402 325.784 99.5173 324.742 99.999C323.7 100.468 322.58 100.702 321.383 100.702C319.859 100.702 318.518 100.37 317.359 99.7061C316.2 99.042 315.308 98.098 314.683 96.874C314.058 95.637 313.746 94.2113 313.746 92.5967V78.71H319.078V91.4053C319.078 92.3167 319.241 93.111 319.566 93.7881C319.905 94.4652 320.373 94.986 320.972 95.3506C321.584 95.7021 322.301 95.8779 323.121 95.8779C323.954 95.8779 324.703 95.6631 325.367 95.2334C326.044 94.7907 326.578 94.1917 326.969 93.4365C327.359 92.6683 327.554 91.8089 327.554 90.8584V78.71Z" fill="#00D580"/>
<path d="M297.047 100.702C294.182 100.702 291.63 100.071 289.39 98.8076C287.151 97.5446 285.406 95.7868 284.156 93.5342C282.906 91.2816 282.281 88.723 282.281 85.8584C282.281 82.9938 282.906 80.4352 284.156 78.1826C285.406 75.93 287.151 74.1722 289.39 72.9092C291.63 71.6462 294.182 71.0146 297.047 71.0146C299.534 71.0146 301.799 71.4834 303.844 72.4209C305.901 73.3584 307.594 74.693 308.922 76.4248C310.25 78.1566 311.103 80.1618 311.48 82.4404H305.406C305.041 81.1904 304.455 80.0967 303.648 79.1592C302.854 78.2217 301.89 77.499 300.758 76.9912C299.625 76.4704 298.401 76.21 297.086 76.21C295.341 76.21 293.798 76.6136 292.457 77.4209C291.129 78.2152 290.087 79.348 289.332 80.8193C288.59 82.2907 288.219 83.9704 288.219 85.8584C288.219 87.7464 288.59 89.4196 289.332 90.8779C290.087 92.3363 291.135 93.4756 292.476 94.2959C293.817 95.1032 295.354 95.5068 297.086 95.5068C298.492 95.5068 299.768 95.2594 300.914 94.7646C302.073 94.2568 303.03 93.5472 303.785 92.6357C304.553 91.7113 305.08 90.6436 305.367 89.4326H311.461C311.096 91.6462 310.256 93.6058 308.941 95.3115C307.639 97.0042 305.959 98.3258 303.902 99.2764C301.845 100.227 299.56 100.702 297.047 100.702Z" fill="#00D580"/>
<path d="M261.48 78.71H266.578V83.4365L265.543 83.8076C265.79 82.6748 266.226 81.6917 266.851 80.8584C267.476 80.012 268.245 79.3675 269.156 78.9248C270.067 78.4821 271.077 78.2607 272.183 78.2607V83.2412C271.038 83.2282 270.054 83.4365 269.234 83.8662C268.427 84.2829 267.808 84.9079 267.379 85.7412C266.949 86.5615 266.734 87.5576 266.734 88.7295V100.233H261.48V78.71Z" fill="white"/>
<path d="M252.906 78.71H258.258V100.233H253.043V95.4482L254.097 94.96C253.889 96.0798 253.427 97.0824 252.711 97.9678C252.008 98.8402 251.135 99.5173 250.094 99.999C249.052 100.468 247.932 100.702 246.734 100.702C245.211 100.702 243.87 100.37 242.711 99.7061C241.552 99.042 240.66 98.098 240.035 96.874C239.41 95.637 239.097 94.2113 239.097 92.5967V78.71H244.429V91.4053C244.429 92.3167 244.592 93.111 244.918 93.7881C245.256 94.4652 245.725 94.986 246.324 95.3506C246.936 95.7021 247.652 95.8779 248.472 95.8779C249.306 95.8779 250.054 95.6631 250.719 95.2334C251.396 94.7907 251.929 94.1917 252.32 93.4365C252.711 92.6683 252.906 91.8089 252.906 90.8584V78.71Z" fill="white"/>
<path d="M225.679 100.702C223.505 100.702 221.558 100.227 219.84 99.2764C218.134 98.3128 216.793 96.9847 215.816 95.292C214.853 93.5863 214.371 91.6527 214.371 89.4912C214.371 87.3167 214.853 85.3766 215.816 83.6709C216.793 81.9521 218.134 80.6175 219.84 79.667C221.558 78.7165 223.505 78.2412 225.679 78.2412C227.867 78.2412 229.82 78.7165 231.539 79.667C233.271 80.6175 234.618 81.9456 235.582 83.6514C236.545 85.3571 237.034 87.3037 237.047 89.4912C237.034 91.6527 236.545 93.5863 235.582 95.292C234.631 96.9847 233.29 98.3128 231.558 99.2764C229.827 100.227 227.867 100.702 225.679 100.702ZM225.679 95.7998C226.825 95.7998 227.841 95.5394 228.726 95.0186C229.612 94.4847 230.295 93.7425 230.777 92.792C231.259 91.8285 231.5 90.7282 231.5 89.4912C231.5 88.2412 231.259 87.1344 230.777 86.1709C230.295 85.2074 229.612 84.4652 228.726 83.9443C227.841 83.4105 226.825 83.1436 225.679 83.1436C224.547 83.1436 223.538 83.4105 222.652 83.9443C221.78 84.4652 221.103 85.2074 220.621 86.1709C220.139 87.1344 219.905 88.2412 219.918 89.4912C219.918 90.7282 220.159 91.8285 220.64 92.792C221.135 93.7425 221.812 94.4847 222.672 95.0186C223.544 95.5394 224.547 95.7998 225.679 95.7998Z" fill="white"/>
<path d="M205.875 103.905C205.471 105.038 204.957 105.976 204.332 106.718C203.72 107.473 202.971 108.039 202.086 108.417C201.2 108.795 200.185 108.983 199.039 108.983H195.152V104.374H198.258C198.674 104.374 199.045 104.309 199.371 104.179C199.696 104.049 199.97 103.853 200.191 103.593C200.413 103.345 200.608 103.02 200.777 102.616C200.816 102.525 200.842 102.453 200.855 102.401C200.881 102.349 200.914 102.278 200.953 102.187L201.617 100.272L193.297 78.71H199.273L206.148 98.5928H202.789L209.019 78.71H214.761L205.875 103.905Z" fill="white"/>
<path d="M174.879 79.4131C174.879 77.6683 175.276 76.1188 176.07 74.7646C176.864 73.3975 177.978 72.3363 179.41 71.5811C180.855 70.8128 182.541 70.4157 184.469 70.3896V75.1357C183.57 75.1488 182.802 75.3376 182.164 75.7021C181.539 76.0537 181.057 76.568 180.719 77.2451C180.38 77.9222 180.211 78.7165 180.211 79.6279V100.233H174.879V79.4131ZM171.441 78.71H184.351V83.2217H171.441V78.71Z" fill="white"/>
<path d="M159.742 100.702C157.567 100.702 155.621 100.227 153.902 99.2764C152.196 98.3128 150.855 96.9847 149.879 95.292C148.915 93.5863 148.433 91.6527 148.433 89.4912C148.433 87.3167 148.915 85.3766 149.879 83.6709C150.855 81.9521 152.196 80.6175 153.902 79.667C155.621 78.7165 157.567 78.2412 159.742 78.2412C161.929 78.2412 163.883 78.7165 165.601 79.667C167.333 80.6175 168.681 81.9456 169.644 83.6514C170.608 85.3571 171.096 87.3037 171.109 89.4912C171.096 91.6527 170.608 93.5863 169.644 95.292C168.694 96.9847 167.353 98.3128 165.621 99.2764C163.889 100.227 161.929 100.702 159.742 100.702ZM159.742 95.7998C160.888 95.7998 161.903 95.5394 162.789 95.0186C163.674 94.4847 164.358 93.7425 164.84 92.792C165.321 91.8285 165.562 90.7282 165.562 89.4912C165.562 88.2412 165.321 87.1344 164.84 86.1709C164.358 85.2074 163.674 84.4652 162.789 83.9443C161.903 83.4105 160.888 83.1436 159.742 83.1436C158.609 83.1436 157.6 83.4105 156.715 83.9443C155.842 84.4652 155.165 85.2074 154.683 86.1709C154.202 87.1344 153.967 88.2412 153.98 89.4912C153.98 90.7282 154.221 91.8285 154.703 92.792C155.198 93.7425 155.875 94.4847 156.734 95.0186C157.607 95.5394 158.609 95.7998 159.742 95.7998Z" fill="white"/>
<rect x="84.6396" y="123.44" width="93.72" height="30.1243" rx="5.02071" fill="white"/>
<path d="M169.721 128.461C170.146 128.461 170.567 128.548 170.96 128.715C171.352 128.882 171.709 129.128 172.01 129.437C172.31 129.746 172.549 130.114 172.711 130.518C172.873 130.921 172.957 131.354 172.956 131.791V145.849C172.956 146.285 172.872 146.719 172.71 147.122C172.547 147.525 172.309 147.892 172.009 148.2C171.708 148.509 171.351 148.754 170.959 148.921C170.566 149.088 170.146 149.175 169.721 149.175H120.653C120.228 149.175 119.808 149.088 119.415 148.921C119.023 148.754 118.666 148.509 118.365 148.2C118.065 147.892 117.827 147.525 117.664 147.122C117.502 146.719 117.417 146.285 117.417 145.849V131.787C117.417 130.905 117.759 130.059 118.365 129.436C118.972 128.812 119.795 128.461 120.653 128.461H169.721ZM100.746 130.049C101.567 130.049 102.659 130.603 102.659 131.347C102.656 131.416 102.641 131.496 102.614 131.587L98.1299 146.677C97.9235 147.4 97.0615 147.732 96.1719 147.732C95.2823 147.732 94.4447 147.396 94.21 146.677L89.7051 131.587C89.681 131.492 89.6603 131.397 89.6602 131.347C89.6606 130.578 90.7565 130.054 91.5732 130.054C92.0866 130.054 92.479 130.22 92.6006 130.677L96.1719 143.68L99.7188 130.673C99.8362 130.22 100.233 130.049 100.746 130.049ZM125.312 130.045C122.372 130.045 119.921 131.538 119.921 135.54V142.232C119.921 146.243 122.348 147.727 125.288 147.728C128.56 147.727 130.865 145.882 130.865 142.98C130.865 141.759 130.38 141.446 129.328 141.446C128.536 141.446 127.881 141.684 127.836 142.428C127.763 143.438 127.577 144.992 125.454 144.992C123.845 144.992 122.958 144.103 122.958 142.232V135.54C122.958 133.67 123.844 132.784 125.409 132.784C127.625 132.784 127.787 134.413 127.836 135.153C127.856 135.876 128.487 136.143 129.353 136.143C130.38 136.143 130.869 135.852 130.869 134.604C130.869 131.82 128.556 130.045 125.312 130.045ZM110.105 130.049C113.163 130.049 115.637 131.251 115.638 135.066C115.638 137.822 114.327 139.311 112.576 139.859L115.634 145.695C115.709 145.808 115.748 145.942 115.747 146.078C115.747 146.868 114.744 147.711 113.858 147.711C113.438 147.711 113.041 147.445 112.807 146.967L109.49 140.346H107.533V146.605C107.533 147.254 106.78 147.591 106.012 147.591C105.243 147.591 104.499 147.254 104.499 146.605V131.01C104.501 130.88 104.528 130.751 104.578 130.633C104.628 130.514 104.701 130.407 104.792 130.317C104.883 130.228 104.992 130.158 105.109 130.112C105.227 130.066 105.353 130.044 105.479 130.049H110.105ZM142.958 130.053C142.19 130.053 141.442 130.34 141.441 131.009V137.273H136.188V131.009C136.187 130.34 135.439 130.053 134.671 130.053C133.903 130.053 133.155 130.34 133.154 131.009V146.605C133.155 147.254 133.923 147.59 134.671 147.59C135.419 147.59 136.187 147.254 136.188 146.605V139.722H141.441V146.605C141.442 147.254 142.21 147.59 142.958 147.59C143.706 147.59 144.474 147.254 144.475 146.605V131.009C144.474 130.34 143.726 130.053 142.958 130.053ZM152.807 129.907C151.945 129.907 151.08 130.244 150.873 130.963L146.367 146.052C146.343 146.147 146.32 146.243 146.319 146.293C146.319 147.058 147.415 147.586 148.232 147.586C148.746 147.586 149.142 147.42 149.26 146.963L150.146 143.771H155.492L156.382 146.963C156.499 147.42 156.896 147.586 157.409 147.586C158.222 147.586 159.322 147.037 159.322 146.293C159.317 146.224 159.3 146.143 159.273 146.052L154.768 130.963C154.557 130.24 153.668 129.907 152.807 129.907ZM159.625 130.053C158.97 130.053 158.667 130.776 158.667 131.449C158.667 132.21 159.019 132.863 159.625 132.863H163.055V146.601C163.055 147.249 163.823 147.586 164.571 147.586C165.32 147.586 166.089 147.249 166.089 146.601V132.858H169.498C170.105 132.858 170.456 132.193 170.456 131.445C170.456 130.772 170.149 130.053 169.494 130.053H159.625ZM154.842 141.326H150.78L152.811 133.96L154.842 141.326ZM107.537 137.894H110.109L110.104 137.898C111.625 137.898 112.604 137.25 112.604 135.354C112.604 133.459 111.621 132.785 110.104 132.785H107.537V137.894Z" fill="black"/>
<path d="M173.339 153.564L173.339 159.277C173.339 160.257 172.154 160.747 171.461 160.054L164.971 153.564H173.339Z" fill="white"/>
<path d="M334.149 153.008C332.027 153.021 330.112 152.552 328.407 151.602C326.714 150.638 325.379 149.303 324.403 147.598C323.439 145.892 322.958 143.945 322.958 141.758C322.958 139.635 323.452 137.715 324.442 135.996C325.431 134.277 326.773 132.936 328.465 131.973C330.158 131.009 332.046 130.527 334.129 130.527C336.473 130.527 338.524 131.048 340.282 132.09C342.053 133.132 343.374 134.609 344.247 136.523C345.132 138.424 345.451 140.605 345.204 143.066H325.125V139.453H340.653L339.696 139.883C339.67 138.919 339.416 138.053 338.934 137.285C338.465 136.517 337.827 135.924 337.02 135.508C336.213 135.078 335.301 134.863 334.286 134.863C333.205 134.863 332.222 135.111 331.336 135.605C330.451 136.1 329.748 136.797 329.227 137.695C328.719 138.581 328.465 139.577 328.465 140.684V142.715C328.465 143.835 328.713 144.844 329.208 145.742C329.702 146.628 330.392 147.318 331.278 147.812C332.163 148.307 333.153 148.555 334.247 148.555C335.08 148.542 335.855 148.398 336.571 148.125C337.287 147.839 337.892 147.454 338.387 146.973C338.895 146.491 339.253 145.944 339.461 145.332H345.047C344.709 146.829 344.032 148.164 343.016 149.336C342 150.495 340.724 151.4 339.188 152.051C337.652 152.702 335.972 153.021 334.149 153.008Z" fill="white"/>
<path d="M311.102 152.969C308.915 152.969 306.961 152.487 305.243 151.523C303.524 150.547 302.17 149.212 301.18 147.52C300.204 145.827 299.715 143.906 299.715 141.758C299.715 139.583 300.191 137.643 301.141 135.938C302.105 134.219 303.433 132.884 305.125 131.934C306.818 130.983 308.745 130.508 310.907 130.508C312.847 130.508 314.611 130.892 316.2 131.66C317.801 132.428 319.097 133.509 320.086 134.902C321.089 136.283 321.708 137.858 321.942 139.629H316.219C316.011 138.796 315.653 138.066 315.145 137.441C314.637 136.803 314.012 136.315 313.27 135.977C312.528 135.625 311.734 135.449 310.887 135.449C309.767 135.449 308.784 135.716 307.938 136.25C307.105 136.771 306.447 137.507 305.965 138.457C305.497 139.408 305.262 140.508 305.262 141.758C305.262 142.995 305.503 144.095 305.985 145.059C306.467 146.009 307.144 146.745 308.016 147.266C308.889 147.786 309.904 148.047 311.063 148.047C311.831 148.047 312.567 147.891 313.27 147.578C313.986 147.266 314.592 146.829 315.086 146.27C315.581 145.71 315.933 145.059 316.141 144.316H321.844C321.558 146.035 320.92 147.552 319.93 148.867C318.941 150.182 317.678 151.198 316.141 151.914C314.618 152.617 312.938 152.969 311.102 152.969Z" fill="white"/>
<path d="M283.895 152.5H278.543V130.977H283.758V135.762L282.704 136.25C282.912 135.13 283.368 134.134 284.071 133.262C284.787 132.376 285.666 131.699 286.708 131.23C287.749 130.749 288.869 130.508 290.067 130.508C291.59 130.508 292.931 130.84 294.09 131.504C295.249 132.168 296.141 133.118 296.766 134.355C297.391 135.579 297.704 136.999 297.704 138.613V152.5H292.372V139.805C292.372 138.893 292.202 138.099 291.864 137.422C291.538 136.745 291.069 136.23 290.458 135.879C289.859 135.514 289.149 135.332 288.329 135.332C287.495 135.332 286.74 135.553 286.063 135.996C285.399 136.426 284.872 137.025 284.481 137.793C284.09 138.548 283.895 139.401 283.895 140.352V152.5Z" fill="white"/>
<path d="M263.016 152.91C261.05 152.91 259.292 152.422 257.743 151.446C256.206 150.469 254.995 149.134 254.11 147.442C253.237 145.736 252.801 143.809 252.801 141.66C252.814 139.512 253.27 137.591 254.168 135.899C255.067 134.193 256.297 132.865 257.86 131.914C259.422 130.964 261.193 130.495 263.172 130.508C264.448 130.508 265.672 130.755 266.844 131.25C268.016 131.732 268.999 132.416 269.793 133.301C270.588 134.173 271.083 135.15 271.278 136.231L269.93 136.172V130.977H275.282V152.5H269.969L269.989 148.008L271.434 147.227C271.096 148.321 270.49 149.304 269.618 150.176C268.745 151.035 267.723 151.706 266.551 152.188C265.392 152.67 264.214 152.91 263.016 152.91ZM264.051 148.086C265.171 148.086 266.193 147.813 267.118 147.266C268.055 146.706 268.791 145.944 269.325 144.981C269.872 144.004 270.152 142.897 270.165 141.66C270.165 140.436 269.891 139.343 269.344 138.379C268.81 137.403 268.075 136.641 267.137 136.094C266.2 135.547 265.171 135.274 264.051 135.274C262.944 135.274 261.955 135.541 261.083 136.074C260.223 136.595 259.553 137.344 259.071 138.321C258.589 139.297 258.348 140.41 258.348 141.66C258.348 142.923 258.589 144.037 259.071 145C259.553 145.964 260.223 146.719 261.083 147.266C261.955 147.813 262.944 148.086 264.051 148.086Z" fill="white"/>
<path d="M243.426 125.664H248.68V152.5H243.426V125.664ZM239.637 130.977H252.45V135.488H239.637V130.977Z" fill="white"/>
<path d="M233.309 137.5C233.231 136.927 233.049 136.419 232.762 135.977C232.489 135.521 232.131 135.176 231.688 134.941C231.245 134.694 230.757 134.57 230.223 134.57C229.767 134.57 229.364 134.674 229.012 134.883C228.661 135.091 228.381 135.365 228.172 135.703C227.964 136.042 227.86 136.413 227.86 136.816C227.86 137.311 228.036 137.747 228.387 138.125C228.752 138.49 229.286 138.776 229.989 138.984L233.211 139.805C235.086 140.312 236.48 141.1 237.391 142.168C238.303 143.236 238.758 144.57 238.758 146.172C238.758 147.461 238.413 148.613 237.723 149.629C237.033 150.645 236.083 151.439 234.872 152.012C233.661 152.585 232.287 152.871 230.75 152.871C229.097 152.871 227.625 152.585 226.336 152.012C225.047 151.426 224.012 150.612 223.231 149.57C222.45 148.516 221.987 147.298 221.844 145.918H227.157C227.261 146.478 227.476 146.986 227.801 147.441C228.14 147.884 228.563 148.236 229.071 148.496C229.579 148.743 230.152 148.867 230.79 148.867C231.31 148.867 231.773 148.776 232.176 148.594C232.58 148.411 232.886 148.171 233.094 147.871C233.316 147.559 233.426 147.201 233.426 146.797C233.413 146.224 233.231 145.749 232.879 145.371C232.528 144.98 232.014 144.688 231.336 144.492L228.309 143.711C226.981 143.359 225.894 142.904 225.047 142.344C224.201 141.771 223.563 141.087 223.133 140.293C222.704 139.486 222.489 138.555 222.489 137.5C222.489 136.185 222.827 135 223.504 133.945C224.181 132.891 225.125 132.064 226.336 131.465C227.547 130.853 228.928 130.547 230.477 130.547C232.014 130.547 233.374 130.833 234.559 131.406C235.744 131.966 236.681 132.773 237.372 133.828C238.075 134.87 238.491 136.094 238.622 137.5H233.309Z" fill="white"/>
<path d="M205.77 152.5H200.418V130.977H205.633V135.762L204.579 136.25C204.787 135.13 205.243 134.134 205.946 133.262C206.662 132.376 207.541 131.699 208.583 131.23C209.624 130.749 210.744 130.508 211.942 130.508C213.465 130.508 214.806 130.84 215.965 131.504C217.124 132.168 218.016 133.118 218.641 134.355C219.266 135.579 219.579 136.999 219.579 138.613V152.5H214.247V139.805C214.247 138.893 214.077 138.099 213.739 137.422C213.413 136.745 212.944 136.23 212.333 135.879C211.734 135.514 211.024 135.332 210.204 135.332C209.37 135.332 208.615 135.553 207.938 135.996C207.274 136.426 206.747 137.025 206.356 137.793C205.965 138.548 205.77 139.401 205.77 140.352V152.5Z" fill="white"/>
<path d="M197.196 152.5H191.571V123.75H197.196V152.5ZM197.196 123.75V128.379H191.571V123.75H197.196ZM197.196 147.871V152.5H191.571V147.871H197.196Z" fill="white"/>
<path d="M266.024 154.926C254.902 154.245 239.524 153.819 224.85 154.075C210.236 154.33 196.114 155.263 187.621 157.36C186.548 157.625 185.894 158.709 186.159 159.781C186.424 160.854 187.507 161.508 188.58 161.243C196.586 159.266 210.295 158.331 224.92 158.075C236.538 157.873 248.604 158.1 258.605 158.543C253.806 158.613 248.166 158.653 241.6 158.652C236.526 158.652 232.95 158.777 230.766 158.996C229.746 159.099 228.794 159.241 228.145 159.5C227.967 159.571 227.701 159.694 227.441 159.901C227.194 160.097 226.743 160.539 226.629 161.276C226.507 162.069 226.853 162.672 227.121 162.989C227.371 163.286 227.653 163.465 227.823 163.562C228.434 163.909 229.349 164.136 230.219 164.313C231.189 164.51 232.44 164.706 233.936 164.899C236.934 165.284 241.02 165.668 246.026 166.01C266.052 167.378 301.14 168.101 341.227 165.543C342.329 165.473 343.166 164.522 343.096 163.42C343.026 162.318 342.075 161.481 340.973 161.551C307.027 163.717 276.698 163.517 256.177 162.574C261.942 162.507 266.625 162.4 270.342 162.259C273.572 162.136 276.091 161.99 277.967 161.822C279.777 161.661 281.162 161.469 282 161.202C282.218 161.133 282.508 161.025 282.788 160.852C282.994 160.724 283.638 160.295 283.825 159.422C284.049 158.374 283.452 157.652 283.155 157.379C282.855 157.104 282.528 156.946 282.335 156.862C281.581 156.537 280.348 156.3 278.991 156.099C276.114 155.672 271.572 155.266 266.024 154.926Z" fill="#E76E50"/>
<defs>
<linearGradient id="paint0_linear_1638_1343" x1="229.477" y1="33.8897" x2="230.781" y2="38.176" gradientUnits="userSpaceOnUse">
<stop offset="0.125" stop-color="#9C6CFE"/>
<stop offset="1" stop-color="#7A41DC"/>
</linearGradient>
<radialGradient id="paint1_radial_1638_1343" cx="0" cy="0" r="1" gradientUnits="userSpaceOnUse" gradientTransform="translate(226.766 35.2875) rotate(-4.19602) scale(4.78742 4.96073)">
<stop offset="0.392" stop-color="#3B148A"/>
<stop offset="1" stop-color="#3B148A" stop-opacity="0"/>
</radialGradient>
<linearGradient id="paint2_linear_1638_1343" x1="221.633" y1="33.6153" x2="223.25" y2="39.1694" gradientUnits="userSpaceOnUse">
<stop offset="0.125" stop-color="#BD96FF"/>
<stop offset="1" stop-color="#9C6CFE"/>
</linearGradient>
<linearGradient id="paint3_linear_1638_1343" x1="224.228" y1="32.393" x2="226.433" y2="41.5203" gradientUnits="userSpaceOnUse">
<stop stop-color="#885EDB" stop-opacity="0"/>
<stop offset="1" stop-color="#E362F8"/>
</linearGradient>
<linearGradient id="paint4_linear_1638_1343" x1="230.436" y1="28.0011" x2="232.669" y2="32.0461" gradientUnits="userSpaceOnUse">
<stop offset="0.125" stop-color="#9C6CFE"/>
<stop offset="1" stop-color="#7A41DC"/>
</linearGradient>
<linearGradient id="paint5_linear_1638_1343" x1="222.973" y1="26.5428" x2="225.762" y2="31.5993" gradientUnits="userSpaceOnUse">
<stop offset="0.125" stop-color="#BD96FF"/>
<stop offset="1" stop-color="#9C6CFE"/>
</linearGradient>
</defs>
</svg>
