<svg viewBox="0 0 16 16" fill="none" xmlns="http://www.w3.org/2000/svg">
<path d="M12.147 11.0215L7.99958 15.1689L3.85216 11.0215C3.03189 10.2012 2.47328 9.15608 2.24697 8.01833C2.02067 6.88057 2.13682 5.70126 2.58076 4.62952C3.02469 3.55778 3.77646 2.64175 4.741 1.99727C5.70554 1.35278 6.83954 1.00879 7.99958 1.00879C9.15962 1.00879 10.2936 1.35278 11.2582 1.99727C12.2227 2.64175 12.9745 3.55778 13.4184 4.62952C13.8623 5.70126 13.9785 6.88057 13.7522 8.01833C13.5259 9.15608 12.9673 10.2012 12.147 11.0215ZM7.99958 9.48084C8.69095 9.48084 9.354 9.20619 9.84287 8.71732C10.3317 8.22845 10.6064 7.5654 10.6064 6.87404C10.6064 6.18267 10.3317 5.51962 9.84287 5.03075C9.354 4.54188 8.69095 4.26724 7.99958 4.26724C7.30821 4.26724 6.64516 4.54188 6.15629 5.03075C5.66742 5.51962 5.39278 6.18267 5.39278 6.87404C5.39278 7.5654 5.66742 8.22845 6.15629 8.71732C6.64516 9.20619 7.30821 9.48084 7.99958 9.48084ZM7.99958 8.17744C7.6539 8.17744 7.32237 8.04012 7.07794 7.79568C6.8335 7.55125 6.69618 7.21972 6.69618 6.87404C6.69618 6.52836 6.8335 6.19683 7.07794 5.9524C7.32237 5.70796 7.6539 5.57064 7.99958 5.57064C8.34526 5.57064 8.67679 5.70796 8.92122 5.9524C9.16566 6.19683 9.30298 6.52836 9.30298 6.87404C9.30298 7.21972 9.16566 7.55125 8.92122 7.79568C8.67679 8.04012 8.34526 8.17744 7.99958 8.17744Z" fill="currentColor"/>
</svg>
