<svg width="16" height="16" viewBox="0 0 16 16" fill="none" xmlns="http://www.w3.org/2000/svg">
<g clip-path="url(#clip0_333_1071)">
<rect width="16" height="16" rx="3" fill="white" fill-opacity="0.08"/>
<path d="M9.31026 11.7354H7.98026L7.26776 9.7024H4.63626L3.92376 11.7354H2.59376L5.30126 4.2969H6.59326L9.31026 11.7354ZM5.91876 6.0069L5.04476 8.5244H6.85926L5.97576 6.0069H5.91876ZM10.0564 11.7354L10.0184 6.3774H11.2724V7.3654H11.3199C11.5225 7.01074 11.7885 6.73524 12.1179 6.5389C12.4535 6.34257 12.8494 6.2444 13.3054 6.2444H13.3624V7.4604H13.2769C12.6182 7.4604 12.1179 7.59024 11.7759 7.8499C11.4402 8.10957 11.2724 8.46424 11.2724 8.9139V11.7354H10.0564Z" fill="white"/>
</g>
<defs>
<clipPath id="clip0_333_1071">
<rect width="16" height="16" fill="white"/>
</clipPath>
</defs>
</svg>
