<svg viewBox="0 0 16 16" fill="none" xmlns="http://www.w3.org/2000/svg">
<g clip-path="url(#clip0_333_1044)">
<rect width="16" height="16" rx="3" fill="white" fill-opacity="0.08"/>
<path d="M2.46224 11.7354V4.2969H4.96074C5.73974 4.2969 6.40474 4.4489 6.95574 4.7529C7.51308 5.05057 7.93424 5.48124 8.21924 6.0449C8.51058 6.60224 8.65624 7.2609 8.65624 8.0209C8.65624 8.7809 8.50424 9.43957 8.20024 9.9969C7.90258 10.5542 7.46241 10.9849 6.87974 11.2889C6.30341 11.5866 5.60991 11.7354 4.79924 11.7354H2.46224ZM4.80874 10.5574C5.62574 10.5574 6.25591 10.3357 6.69924 9.8924C7.14258 9.44907 7.36424 8.82524 7.36424 8.0209C7.36424 7.21024 7.14891 6.58324 6.71824 6.1399C6.29391 5.69657 5.68274 5.4749 4.88474 5.4749H3.71624V10.5574H4.80874ZM10.8927 11.8684C10.3987 11.8684 9.99651 11.7322 9.68618 11.4599C9.38218 11.1876 9.23018 10.8171 9.23018 10.3484C9.23018 9.7784 9.45818 9.33507 9.91418 9.0184C10.3765 8.70174 11.0162 8.5434 11.8332 8.5434H12.4412V8.2774C12.4412 7.96707 12.3493 7.72324 12.1657 7.5459C11.9883 7.36857 11.7445 7.2799 11.4342 7.2799C11.0288 7.2799 10.6362 7.4699 10.2562 7.8499L9.49618 7.1849C10.0535 6.5579 10.7407 6.2444 11.5577 6.2444C12.1973 6.2444 12.7072 6.42174 13.0872 6.7764C13.4672 7.13107 13.6572 7.60607 13.6572 8.2014V11.7354H12.4412V11.0514H12.3842C12.2575 11.3111 12.058 11.5106 11.7857 11.6499C11.5197 11.7956 11.222 11.8684 10.8927 11.8684ZM11.2252 10.8424C11.5355 10.8424 11.8142 10.7537 12.0612 10.5764C12.3145 10.3927 12.4412 10.1394 12.4412 9.8164V9.5694H11.9852C11.4722 9.5694 11.089 9.6264 10.8357 9.7404C10.5887 9.8544 10.4652 10.0317 10.4652 10.2724C10.4652 10.4434 10.5317 10.5827 10.6647 10.6904C10.804 10.7917 10.9908 10.8424 11.2252 10.8424Z" fill="white"/>
</g>
<defs>
<clipPath id="clip0_333_1044">
<rect width="16" height="16" fill="white"/>
</clipPath>
</defs>
</svg>
