<svg width="16" height="16" viewBox="0 0 16 16" fill="none" xmlns="http://www.w3.org/2000/svg">
<g clip-path="url(#clip0_333_1068)">
<rect width="16" height="16" rx="3" fill="white" fill-opacity="0.08"/>
<path d="M8.64092 10.3104C8.37492 10.8044 8.00758 11.1876 7.53892 11.4599C7.07658 11.7322 6.55092 11.8684 5.96192 11.8684C5.29692 11.8684 4.70475 11.7069 4.18542 11.3839C3.67242 11.0546 3.27025 10.5954 2.97892 10.0064C2.69392 9.4174 2.55142 8.7429 2.55142 7.9829C2.55142 7.23557 2.69392 6.57374 2.97892 5.9974C3.27025 5.41474 3.67558 4.96507 4.19492 4.6484C4.72058 4.3254 5.32542 4.1639 6.00942 4.1639C6.59842 4.1639 7.11775 4.30324 7.56742 4.5819C8.01708 4.86057 8.37175 5.24057 8.63142 5.7219L7.55792 6.2824C7.39325 5.98474 7.16525 5.75357 6.87392 5.5889C6.58892 5.42424 6.28175 5.3419 5.95242 5.3419C5.54075 5.3419 5.17342 5.45274 4.85042 5.6744C4.53375 5.89607 4.28675 6.2064 4.10942 6.6054C3.93842 7.0044 3.85292 7.46357 3.85292 7.9829C3.85292 8.50857 3.93842 8.97724 4.10942 9.3889C4.28675 9.80057 4.53375 10.1204 4.85042 10.3484C5.17342 10.5764 5.54075 10.6904 5.95242 10.6904C6.27542 10.6904 6.57625 10.6081 6.85492 10.4434C7.13992 10.2724 7.37742 10.0381 7.56742 9.7404L8.64092 10.3104ZM11.5521 11.8684C11.0138 11.8684 10.5483 11.7481 10.1556 11.5074C9.76931 11.2667 9.48748 10.9437 9.31015 10.5384L10.3266 10.0539C10.4406 10.3009 10.6053 10.4941 10.8206 10.6334C11.036 10.7727 11.2798 10.8424 11.5521 10.8424C11.8245 10.8424 12.0335 10.7917 12.1791 10.6904C12.3248 10.5891 12.3976 10.4529 12.3976 10.2819C12.3976 10.1109 12.3153 9.97157 12.1506 9.8639C11.9923 9.7499 11.7358 9.6549 11.3811 9.5789C10.7478 9.43324 10.2633 9.23057 9.92765 8.9709C9.59831 8.7049 9.43365 8.35657 9.43365 7.9259C9.43365 7.40657 9.62048 6.99807 9.99415 6.7004C10.3678 6.3964 10.8681 6.2444 11.4951 6.2444C11.9828 6.2444 12.4103 6.3584 12.7776 6.5864C13.1513 6.8144 13.4395 7.1279 13.6421 7.5269L12.6541 8.0304C12.5148 7.78974 12.3438 7.6029 12.1411 7.4699C11.9385 7.3369 11.7263 7.2704 11.5046 7.2704C11.245 7.2704 11.0391 7.32424 10.8871 7.4319C10.7415 7.53957 10.6686 7.68207 10.6686 7.8594C10.6686 8.01774 10.7573 8.1539 10.9346 8.2679C11.112 8.3819 11.4001 8.4864 11.7991 8.5814C13.0278 8.85374 13.6421 9.3889 13.6421 10.1869C13.6421 10.5162 13.5535 10.8107 13.3761 11.0704C13.1988 11.3237 12.9518 11.5201 12.6351 11.6594C12.3185 11.7987 11.9575 11.8684 11.5521 11.8684Z" fill="white"/>
</g>
<defs>
<clipPath id="clip0_333_1068">
<rect width="16" height="16" fill="white"/>
</clipPath>
</defs>
</svg>
