<svg width="16" height="16" viewBox="0 0 16 16" fill="none" xmlns="http://www.w3.org/2000/svg">
<g clip-path="url(#clip0_334_1127)">
<rect width="16" height="16" rx="3" fill="white" fill-opacity="0.08"/>
<path d="M10.15 3.54V4.4H12.42V5.46H10.15V6.15H9.04V5.46H6.95V6.15H5.84V5.46H3.57V4.4H5.84V3.54H6.95V4.4H9.04V3.54H10.15ZM5.43 12.69H4.34V6.54H11.66V12.69H10.56V12.06H5.43V12.69ZM7.45 8.78V7.57H5.43V8.78H7.45ZM8.55 8.78H10.56V7.57H8.55V8.78ZM5.43 9.78V11.02H7.45V9.78H5.43ZM8.55 9.78V11.02H10.56V9.78H8.55Z" fill="white"/>
</g>
<defs>
<clipPath id="clip0_334_1127">
<rect width="16" height="16" fill="white"/>
</clipPath>
</defs>
</svg>
