<svg width="16" height="16" viewBox="0 0 16 16" fill="none" xmlns="http://www.w3.org/2000/svg">
<g clip-path="url(#clip0_331_970)">
<rect width="16" height="16" rx="3" fill="white" fill-opacity="0.08"/>
<path d="M4.09327 8.4959V10.5859H7.65577V11.7354H2.83927V4.2969H7.53227V5.4559H4.09327V7.3464H7.34227V8.4959H4.09327ZM8.67316 11.7354V6.3774H9.87966V7.0994H9.92716C10.0918 6.8334 10.3135 6.6244 10.5922 6.4724C10.8708 6.3204 11.1717 6.2444 11.4947 6.2444C12.0583 6.2444 12.4953 6.4249 12.8057 6.7859C13.1223 7.14057 13.2807 7.6409 13.2807 8.2869V11.7354H12.0742V8.5244C12.0742 8.1824 11.9792 7.9069 11.7892 7.6979C11.6055 7.48257 11.3648 7.3749 11.0672 7.3749C10.7125 7.3749 10.4243 7.4889 10.2027 7.7169C9.98733 7.9449 9.87966 8.2489 9.87966 8.6289V11.7354H8.67316Z" fill="white"/>
</g>
<defs>
<clipPath id="clip0_331_970">
<rect width="16" height="16" fill="white"/>
</clipPath>
</defs>
</svg>
