<svg width="16" height="16" viewBox="0 0 16 16" fill="none" xmlns="http://www.w3.org/2000/svg">
<g clip-path="url(#clip0_331_987)">
<rect width="16" height="16" rx="3" fill="white" fill-opacity="0.08"/>
<path d="M9.76039 3.43005H11.0904V10.35H9.76039V3.43005ZM10.7204 6.25005H12.3204V7.35005H10.7204V6.25005ZM3.81039 4.40005H9.25039V5.44005H3.81039V4.40005ZM6.53039 5.77005C6.97706 5.77005 7.37039 5.84672 7.71039 6.00005C8.05706 6.14672 8.32706 6.35672 8.52039 6.63005C8.71372 6.89672 8.81039 7.20338 8.81039 7.55005C8.81039 7.90338 8.71372 8.21672 8.52039 8.49005C8.32706 8.75672 8.05706 8.96672 7.71039 9.12005C7.37039 9.26672 6.97706 9.34005 6.53039 9.34005C6.09039 9.34005 5.69706 9.26672 5.35039 9.12005C5.00372 8.96672 4.73372 8.75672 4.54039 8.49005C4.34706 8.21672 4.25039 7.90338 4.25039 7.55005C4.25039 7.20338 4.34706 6.89672 4.54039 6.63005C4.73372 6.35672 5.00372 6.14672 5.35039 6.00005C5.69706 5.84672 6.09039 5.77005 6.53039 5.77005ZM6.53039 6.78005C6.23706 6.78005 5.99706 6.84672 5.81039 6.98005C5.62372 7.11338 5.53039 7.30672 5.53039 7.56005C5.53039 7.80672 5.62372 7.99672 5.81039 8.13005C5.99706 8.26338 6.23706 8.33005 6.53039 8.33005C6.83039 8.33005 7.07039 8.26338 7.25039 8.13005C7.43706 7.99672 7.53039 7.80672 7.53039 7.56005C7.53039 7.30672 7.43706 7.11338 7.25039 6.98005C7.07039 6.84672 6.83039 6.78005 6.53039 6.78005ZM5.87039 3.42005H7.19039V4.90005H5.87039V3.42005ZM5.12039 11.46H11.4204V12.53H5.12039V11.46ZM5.12039 9.83005H6.46039V11.92H5.12039V9.83005Z" fill="white"/>
</g>
<defs>
<clipPath id="clip0_331_987">
<rect width="16" height="16" fill="white"/>
</clipPath>
</defs>
</svg>
