<svg viewBox="0 0 16 16" fill="none" xmlns="http://www.w3.org/2000/svg">
<g clip-path="url(#clip0_334_1112)">
<rect width="16" height="16" rx="3" fill="white" fill-opacity="0.08"/>
<path d="M12.44 7.04V7.94H3.57V7.04H5.32C4.98667 6.62667 4.64333 6.24333 4.29 5.89L4.87 5.33H3.88V4.44H6.05C5.93 4.26 5.75333 4.00667 5.52 3.68L6.59 3.37C6.97 3.91667 7.21 4.27333 7.31 4.44H8.81C9.11 3.98667 9.32667 3.63333 9.46 3.38L10.54 3.64C10.42 3.85333 10.26 4.12 10.06 4.44H12.15V5.33H11.07L11.73 5.83C11.2567 6.39667 10.8967 6.8 10.65 7.04H12.44ZM5.05 5.33L6.07 6.43L5.43 7.04H6.44V5.33H5.05ZM7.47 7.04H8.54V5.33H7.47V7.04ZM9.9 6.5C10.2467 6.18 10.5933 5.79 10.94 5.33H9.59V7.04H10.54L9.9 6.5ZM5.72 12.73H4.64V8.51H11.37V12.73H10.3V12.33H5.72V12.73ZM10.3 10.05V9.36H5.72V10.05H10.3ZM5.72 10.81V11.48H10.3V10.81H5.72Z" fill="white"/>
</g>
<defs>
<clipPath id="clip0_334_1112">
<rect width="16" height="16" fill="white"/>
</clipPath>
</defs>
</svg>
