<svg viewBox="0 0 16 16" fill="none" xmlns="http://www.w3.org/2000/svg">
<g clip-path="url(#clip0_334_1106)">
<rect width="16" height="16" rx="3" fill="white" fill-opacity="0.08"/>
<path d="M4.73081 8.7049V11.7354H3.47681V4.2969H8.09381V5.4749H4.73081V7.5269H7.85631V8.7049H4.73081ZM10.2751 4.6959C10.2751 4.93024 10.2054 5.1139 10.0661 5.2469C9.9331 5.3799 9.74944 5.4464 9.5151 5.4464C9.2871 5.4464 9.1066 5.3799 8.9736 5.2469C8.84693 5.1139 8.7836 4.93024 8.7836 4.6959C8.7836 4.4679 8.84693 4.2874 8.9736 4.1544C9.1066 4.01507 9.2871 3.9454 9.5151 3.9454C9.74944 3.9454 9.9331 4.01507 10.0661 4.1544C10.2054 4.2874 10.2751 4.4679 10.2751 4.6959ZM10.1326 6.3774V11.7354H8.9261V6.3774H10.1326ZM11.1899 4.2969H12.3964V10.2819C12.3964 10.5226 12.5168 10.6429 12.7574 10.6429H13.0234V11.7829H12.4154C12.0164 11.7829 11.7124 11.6879 11.5034 11.4979C11.2944 11.3016 11.1899 11.0197 11.1899 10.6524V4.2969Z" fill="white"/>
</g>
<defs>
<clipPath id="clip0_334_1106">
<rect width="16" height="16" fill="white"/>
</clipPath>
</defs>
</svg>
