<svg viewBox="0 0 16 16" fill="none" xmlns="http://www.w3.org/2000/svg">
<g clip-path="url(#clip0_333_1032)">
<rect width="16" height="16" rx="3" fill="white" fill-opacity="0.08"/>
<path d="M5.32493 11.8684C4.6916 11.8684 4.1311 11.7196 3.64343 11.4219C3.15577 11.1242 2.77893 10.7157 2.51293 10.1964L3.59593 9.6454C3.76693 10.0001 4.00127 10.2661 4.29893 10.4434C4.5966 10.6207 4.94177 10.7094 5.33443 10.7094C5.75243 10.7094 6.09127 10.6207 6.35093 10.4434C6.6106 10.2597 6.74043 10.0254 6.74043 9.7404C6.74043 9.54407 6.68977 9.3794 6.58843 9.2464C6.4871 9.10707 6.32243 8.98674 6.09443 8.8854C5.86643 8.77774 5.5466 8.66374 5.13493 8.5434C4.64093 8.40407 4.23243 8.26474 3.90943 8.1254C3.59277 7.97974 3.31727 7.7644 3.08293 7.4794C2.85493 7.1944 2.74093 6.8144 2.74093 6.3394C2.74093 5.9214 2.85493 5.54774 3.08293 5.2184C3.31093 4.88907 3.62443 4.63257 4.02343 4.4489C4.42877 4.2589 4.88477 4.1639 5.39143 4.1639C6.58843 4.1639 7.45927 4.68007 8.00393 5.7124L6.95893 6.2919C6.58527 5.6459 6.05643 5.3229 5.37243 5.3229C4.99243 5.3229 4.66943 5.41474 4.40343 5.5984C4.14377 5.78207 4.01393 6.00374 4.01393 6.2634C4.01393 6.4914 4.0741 6.67507 4.19443 6.8144C4.3211 6.95374 4.49527 7.0709 4.71693 7.1659C4.9386 7.25457 5.24577 7.35274 5.63843 7.4604C6.11977 7.5934 6.52193 7.7359 6.84493 7.8879C7.17427 8.03357 7.45293 8.25207 7.68093 8.5434C7.90893 8.83474 8.02293 9.21157 8.02293 9.6739C8.02293 10.1172 7.90893 10.5036 7.68093 10.8329C7.45927 11.1622 7.1426 11.4187 6.73093 11.6024C6.3256 11.7797 5.85693 11.8684 5.32493 11.8684ZM10.3127 11.7354L8.27016 6.3774H9.59066L10.9397 10.2819H10.9967L12.3362 6.3774H13.6472L11.5762 11.7354H10.3127Z" fill="white"/>
</g>
<defs>
<clipPath id="clip0_333_1032">
<rect width="16" height="16" fill="white"/>
</clipPath>
</defs>
</svg>
