<svg viewBox="0 0 16 16" fill="none" xmlns="http://www.w3.org/2000/svg">
<g clip-path="url(#clip0_333_1062)">
<rect width="16" height="16" rx="3" fill="white" fill-opacity="0.08"/>
<path d="M5.7632 8.7049V11.7354H4.5092V4.2969H9.1262V5.4749H5.7632V7.5269H8.8887V8.7049H5.7632ZM11.5925 4.6959C11.5925 4.93024 11.5228 5.1139 11.3835 5.2469C11.2505 5.3799 11.0668 5.4464 10.8325 5.4464C10.6045 5.4464 10.424 5.3799 10.291 5.2469C10.1643 5.1139 10.101 4.93024 10.101 4.6959C10.101 4.4679 10.1643 4.2874 10.291 4.1544C10.424 4.01507 10.6045 3.9454 10.8325 3.9454C11.0668 3.9454 11.2505 4.01507 11.3835 4.1544C11.5228 4.2874 11.5925 4.4679 11.5925 4.6959ZM11.45 6.3774V11.7354H10.2435V6.3774H11.45Z" fill="white"/>
</g>
<defs>
<clipPath id="clip0_333_1062">
<rect width="16" height="16" fill="white"/>
</clipPath>
</defs>
</svg>
