<svg viewBox="0 0 16 16" fill="none" xmlns="http://www.w3.org/2000/svg">
<g clip-path="url(#clip0_333_1080)">
<rect width="16" height="16" rx="3" fill="white" fill-opacity="0.08"/>
<path d="M5.25721 10.6904C5.73854 10.6904 6.11854 10.5289 6.39721 10.2059C6.68221 9.8829 6.82471 9.4459 6.82471 8.8949V4.2969H8.07871V8.9614C8.07871 9.55674 7.96471 10.0729 7.73671 10.5099C7.50871 10.9469 7.18254 11.2826 6.75821 11.5169C6.33388 11.7512 5.83354 11.8684 5.25721 11.8684C4.68721 11.8684 4.18688 11.7512 3.75621 11.5169C3.33188 11.2826 3.00571 10.9469 2.77771 10.5099C2.54971 10.0729 2.43571 9.55674 2.43571 8.9614V4.2969H3.68971V8.8569C3.68971 9.42057 3.82904 9.86707 4.10771 10.1964C4.39271 10.5257 4.77588 10.6904 5.25721 10.6904ZM14.1614 11.7354H12.6319L10.9314 9.4459L10.5894 9.7784V11.7354H9.38288V4.2969H10.5894V8.2584L12.3659 6.3774H14.0284L11.7674 8.6194L14.1614 11.7354Z" fill="white"/>
</g>
<defs>
<clipPath id="clip0_333_1080">
<rect width="16" height="16" fill="white"/>
</clipPath>
</defs>
</svg>
