<svg width="16" height="16" viewBox="0 0 16 16" fill="none" xmlns="http://www.w3.org/2000/svg">
<g clip-path="url(#clip0_331_984)">
<rect width="16" height="16" rx="3" fill="white" fill-opacity="0.08"/>
<path d="M4.88691 11.9401C5.05358 11.0801 5.30691 10.3701 5.64691 9.8101C5.99358 9.24343 6.48025 8.82676 7.10691 8.5601V8.4901C6.48691 8.33676 6.01025 8.08676 5.67691 7.7401C5.35025 7.38676 5.18691 6.9501 5.18691 6.4301C5.18691 5.6901 5.44691 5.1201 5.96691 4.7201C6.49358 4.31343 7.24358 4.1101 8.21691 4.1101H10.6969V11.9401H9.36691V8.9301H8.76691C8.13358 8.9301 7.60025 9.20343 7.16691 9.7501C6.73358 10.2968 6.43691 11.0268 6.27691 11.9401H4.88691ZM9.36691 7.7201V5.3301H8.36691C7.78025 5.3301 7.33025 5.43676 7.01691 5.6501C6.70358 5.85676 6.54691 6.15343 6.54691 6.5401C6.54691 6.95343 6.73025 7.25343 7.09691 7.4401C7.46358 7.62676 7.98691 7.7201 8.66691 7.7201H9.36691Z" fill="white"/>
</g>
<defs>
<clipPath id="clip0_331_984">
<rect width="16" height="16" fill="white"/>
</clipPath>
</defs>
</svg>
