<svg viewBox="0 0 16 16" fill="none" xmlns="http://www.w3.org/2000/svg">
<g clip-path="url(#clip0_917_677)">
<rect width="16" height="16" rx="3" fill="white" fill-opacity="0.08"/>
<path d="M8.88 10.32V11.23H7.67V12.69H6.75V11.23H5.32V10.32H6.75V9.64H5.64V5.92H6.76V5.3H5.57V4.41H6.76V3.54H7.66V4.41H8.91V5.3H7.66V5.92H8.78V9.64H7.67V10.32H8.88ZM4.9 5.78C4.58 5.45333 4.15333 5.05333 3.62 4.58L4.27 3.82C4.70333 4.18667 5.12667 4.57 5.54 4.97L4.9 5.78ZM9.28 4.05H12.11V11.45C12.11 11.7433 12.0733 11.97 12 12.13C11.9333 12.2967 11.8133 12.4167 11.64 12.49C11.4733 12.5633 11.2333 12.6 10.92 12.6H10.23L10.02 11.56H10.74C10.9333 11.56 11.0567 11.5333 11.11 11.48C11.1633 11.42 11.19 11.29 11.19 11.09V9.75H10.14C10.0933 10.3567 10 10.88 9.86 11.32C9.72667 11.7533 9.51667 12.24 9.23 12.78L8.38 12.26C8.66667 11.7667 8.87 11.35 8.99 11.01C9.11 10.6633 9.18667 10.2567 9.22 9.79C9.26 9.31667 9.28 8.59667 9.28 7.63V4.05ZM11.19 6.4V5.09H10.2V6.4H11.19ZM4.91 8.35C4.49 7.92333 3.99333 7.45667 3.42 6.95L4.06 6.15C4.46667 6.47 4.96667 6.91 5.56 7.47L4.91 8.35ZM7.91 7.37V6.75H6.5V7.37H7.91ZM11.19 8.72V7.41H10.2V8.12C10.2 8.39333 10.1967 8.59333 10.19 8.72H11.19ZM7.91 8.16H6.5V8.78H7.91V8.16ZM4.87 8.94L5.32 9.07C5.22 9.51 5.07 10.1667 4.87 11.04C4.67667 11.9133 4.56333 12.4433 4.53 12.63L3.57 12.37C3.67667 11.91 3.81333 11.3133 3.98 10.58C4.14667 9.84667 4.28 9.25667 4.38 8.81L4.87 8.94Z" fill="white"/>
</g>
<defs>
<clipPath id="clip0_917_677">
<rect width="16" height="16" fill="white"/>
</clipPath>
</defs>
</svg>
