<svg viewBox="0 0 16 16" fill="none" xmlns="http://www.w3.org/2000/svg">
<g clip-path="url(#clip0_331_967)">
<rect width="16" height="16" rx="3" fill="white" fill-opacity="0.08"/>
<path d="M8.76 6.75C9.71333 6.75 10.5 6.96667 11.12 7.4C11.74 7.82667 12.05 8.49 12.05 9.39C12.05 10.1233 11.81 10.7533 11.33 11.28C10.85 11.8 10.1867 12.14 9.34 12.3L8.82 11.38C9.48667 11.2533 10 11.0167 10.36 10.67C10.72 10.3167 10.9 9.88667 10.9 9.38C10.9 9.03333 10.8 8.73333 10.6 8.48C10.4 8.22 10.12 8.03333 9.76 7.92C9.68 8.66 9.48 9.33 9.16 9.93C8.84667 10.53 8.41333 11.01 7.86 11.37C7.31333 11.7233 6.67 11.9 5.93 11.9C5.33 11.9 4.85 11.74 4.49 11.42C4.13 11.0933 3.95 10.6567 3.95 10.11C3.95 9.50333 4.15333 8.95 4.56 8.45C4.96667 7.94333 5.51667 7.54 6.21 7.24V5.9H4.34V4.84H6.21V3.83H7.36V4.84H11.78V5.9H7.36V6.89C7.81333 6.79667 8.28 6.75 8.76 6.75ZM7.81 10.01C8.03667 9.73667 8.22333 9.41 8.37 9.03C8.52333 8.65 8.62333 8.23333 8.67 7.78C8.23 7.78667 7.79667 7.84333 7.37 7.95C7.41 8.77667 7.55667 9.46333 7.81 10.01ZM5.1 10C5.1 10.2733 5.18667 10.49 5.36 10.65C5.53333 10.8033 5.77333 10.88 6.08 10.88C6.36667 10.88 6.65333 10.8167 6.94 10.69C6.74667 10.33 6.59333 9.96667 6.48 9.6C6.37333 9.22667 6.29667 8.82333 6.25 8.39C5.89 8.59667 5.60667 8.84 5.4 9.12C5.2 9.39333 5.1 9.68667 5.1 10Z" fill="white"/>
</g>
<defs>
<clipPath id="clip0_331_967">
<rect width="16" height="16" fill="white"/>
</clipPath>
</defs>
</svg>
