<svg width="16" height="16" viewBox="0 0 16 16" fill="none" xmlns="http://www.w3.org/2000/svg">
<g clip-path="url(#clip0_333_1050)">
<rect width="16" height="16" rx="3" fill="white" fill-opacity="0.08"/>
<path d="M3.56317 11.7354H2.30917V4.2969H3.50617L6.86917 9.4079H6.91667V4.2969H8.17067V11.7354H7.02117L3.62017 6.6244H3.56317V11.7354ZM11.4647 11.8684C10.9517 11.8684 10.5052 11.7544 10.1252 11.5264C9.74522 11.2984 9.45388 10.9722 9.25122 10.5479C9.04855 10.1236 8.94722 9.6264 8.94722 9.0564C8.94722 8.4864 9.04855 7.98924 9.25122 7.5649C9.45388 7.14057 9.74522 6.8144 10.1252 6.5864C10.5052 6.3584 10.9517 6.2444 11.4647 6.2444C11.9777 6.2444 12.4242 6.3584 12.8042 6.5864C13.1842 6.8144 13.4756 7.14057 13.6782 7.5649C13.8872 7.98924 13.9917 8.4864 13.9917 9.0564C13.9917 9.6264 13.8872 10.1236 13.6782 10.5479C13.4756 10.9722 13.1842 11.2984 12.8042 11.5264C12.4242 11.7544 11.9777 11.8684 11.4647 11.8684ZM11.4647 10.7284C11.8637 10.7284 12.1772 10.5796 12.4052 10.2819C12.6396 9.9779 12.7567 9.5694 12.7567 9.0564C12.7567 8.53707 12.6396 8.12857 12.4052 7.8309C12.1772 7.53324 11.8637 7.3844 11.4647 7.3844C11.0721 7.3844 10.7586 7.53324 10.5242 7.8309C10.2962 8.12857 10.1822 8.53707 10.1822 9.0564C10.1822 9.5694 10.2962 9.9779 10.5242 10.2819C10.7586 10.5796 11.0721 10.7284 11.4647 10.7284Z" fill="white"/>
</g>
<defs>
<clipPath id="clip0_333_1050">
<rect width="16" height="16" fill="white"/>
</clipPath>
</defs>
</svg>
