<svg width="16" height="16" viewBox="0 0 16 16" fill="none" xmlns="http://www.w3.org/2000/svg">
<g clip-path="url(#clip0_337_1186)">
<rect width="16" height="16" rx="3" fill="#8252EF"/>
<path d="M8.07348 11.7354H6.45848L3.81748 8.4294L3.31398 8.9329V11.7354H2.05998V4.2969H3.31398V7.3274L6.14498 4.2969H7.87398L4.70098 7.5269L8.07348 11.7354ZM14.4924 11.7354H13.0294L11.4524 8.8854H11.3859H10.1699V11.7354H8.91593V4.2969H11.2909C12.1966 4.2969 12.8996 4.50274 13.3999 4.9144C13.9003 5.31974 14.1504 5.8834 14.1504 6.6054C14.1504 7.11207 14.0238 7.5459 13.7704 7.9069C13.5234 8.26157 13.1656 8.52124 12.6969 8.6859L14.4924 11.7354ZM10.1699 7.7264H11.1389C11.6899 7.7264 12.1143 7.6314 12.4119 7.4414C12.7096 7.24507 12.8584 6.9664 12.8584 6.6054C12.8584 6.23807 12.7096 5.95624 12.4119 5.7599C12.1143 5.55724 11.6899 5.4559 11.1389 5.4559H10.1699V7.7264Z" fill="white"/>
</g>
<defs>
<clipPath id="clip0_337_1186">
<rect width="16" height="16" fill="white"/>
</clipPath>
</defs>
</svg>
