<svg viewBox="0 0 16 16" fill="none" xmlns="http://www.w3.org/2000/svg">
<g clip-path="url(#clip0_333_1026)">
<rect width="16" height="16" rx="3" fill="white" fill-opacity="0.08"/>
<path d="M2.3138 11.7354V4.2969H4.8123C5.5913 4.2969 6.2563 4.4489 6.8073 4.7529C7.36464 5.05057 7.7858 5.48124 8.0708 6.0449C8.36214 6.60224 8.5078 7.2609 8.5078 8.0209C8.5078 8.7809 8.35581 9.43957 8.05181 9.9969C7.75414 10.5542 7.31397 10.9849 6.7313 11.2889C6.15497 11.5866 5.46147 11.7354 4.6508 11.7354H2.3138ZM4.6603 10.5574C5.4773 10.5574 6.10747 10.3357 6.5508 9.8924C6.99414 9.44907 7.2158 8.82524 7.2158 8.0209C7.2158 7.21024 7.00047 6.58324 6.5698 6.1399C6.14547 5.69657 5.5343 5.4749 4.7363 5.4749H3.5678V10.5574H4.6603ZM13.9932 8.6384C13.9932 8.95507 13.9616 9.2369 13.8982 9.4839H10.3357C10.3864 9.90824 10.5289 10.2407 10.7632 10.4814C10.9976 10.7157 11.3111 10.8329 11.7037 10.8329C11.9507 10.8329 12.1756 10.7696 12.3782 10.6429C12.5872 10.5099 12.7582 10.3231 12.8912 10.0824L13.8697 10.5859C13.6671 10.9912 13.3821 11.3079 13.0147 11.5359C12.6474 11.7576 12.2104 11.8684 11.7037 11.8684C11.1717 11.8684 10.7062 11.7576 10.3072 11.5359C9.91457 11.3079 9.61057 10.9849 9.39524 10.5669C9.18624 10.1426 9.08174 9.64857 9.08174 9.0849C9.08174 8.50857 9.18307 8.00824 9.38574 7.5839C9.59474 7.15324 9.88924 6.8239 10.2692 6.5959C10.6492 6.36157 11.0957 6.2444 11.6087 6.2444C12.0901 6.2444 12.5112 6.34257 12.8722 6.5389C13.2332 6.73524 13.5087 7.0139 13.6987 7.3749C13.8951 7.7359 13.9932 8.15707 13.9932 8.6384ZM12.7582 8.4579C12.7582 8.0969 12.6537 7.80874 12.4447 7.5934C12.2357 7.37807 11.9571 7.2704 11.6087 7.2704C11.2794 7.2704 11.0102 7.3749 10.8012 7.5839C10.5922 7.78657 10.4497 8.0779 10.3737 8.4579H12.7582Z" fill="white"/>
</g>
<defs>
<clipPath id="clip0_333_1026">
<rect width="16" height="16" fill="white"/>
</clipPath>
</defs>
</svg>
