<svg viewBox="0 0 16 16" fill="none" xmlns="http://www.w3.org/2000/svg">
<g clip-path="url(#clip0_337_1174)">
<rect width="16" height="16" rx="3" fill="#8252EF"/>
<path d="M4.57069 10.6904C5.05202 10.6904 5.43202 10.5289 5.71069 10.2059C5.99569 9.8829 6.13819 9.4459 6.13819 8.8949V4.2969H7.39219V8.9614C7.39219 9.55674 7.27819 10.0729 7.05019 10.5099C6.82219 10.9469 6.49602 11.2826 6.07169 11.5169C5.64735 11.7512 5.14702 11.8684 4.57069 11.8684C4.00069 11.8684 3.50035 11.7512 3.06969 11.5169C2.64535 11.2826 2.31919 10.9469 2.09119 10.5099C1.86319 10.0729 1.74919 9.55674 1.74919 8.9614V4.2969H3.00319V8.8569C3.00319 9.42057 3.14252 9.86707 3.42119 10.1964C3.70619 10.5257 4.08935 10.6904 4.57069 10.6904ZM14.7764 11.7354H13.1614L10.5204 8.4294L10.0169 8.9329V11.7354H8.76286V4.2969H10.0169V7.3274L12.8479 4.2969H14.5769L11.4039 7.5269L14.7764 11.7354Z" fill="white"/>
</g>
<defs>
<clipPath id="clip0_337_1174">
<rect width="16" height="16" fill="white"/>
</clipPath>
</defs>
</svg>
