<svg viewBox="0 0 16 16" fill="none" xmlns="http://www.w3.org/2000/svg">
<g clip-path="url(#clip0_337_1180)">
<rect width="16" height="16" rx="3" fill="#8252EF"/>
<path d="M3.89381 8.7049V11.7354H2.63981V4.2969H7.25681V5.4749H3.89381V7.5269H7.01931V8.7049H3.89381ZM13.9126 11.7354H12.4496L10.8726 8.8854H10.8061H9.5901V11.7354H8.3361V4.2969H10.7111C11.6168 4.2969 12.3198 4.50274 12.8201 4.9144C13.3204 5.31974 13.5706 5.8834 13.5706 6.6054C13.5706 7.11207 13.4439 7.5459 13.1906 7.9069C12.9436 8.26157 12.5858 8.52124 12.1171 8.6859L13.9126 11.7354ZM9.5901 7.7264H10.5591C11.1101 7.7264 11.5344 7.6314 11.8321 7.4414C12.1298 7.24507 12.2786 6.9664 12.2786 6.6054C12.2786 6.23807 12.1298 5.95624 11.8321 5.7599C11.5344 5.55724 11.1101 5.4559 10.5591 5.4559H9.5901V7.7264Z" fill="white"/>
</g>
<defs>
<clipPath id="clip0_337_1180">
<rect width="16" height="16" fill="white"/>
</clipPath>
</defs>
</svg>
