<svg width="16" height="16" viewBox="0 0 16 16" fill="none" xmlns="http://www.w3.org/2000/svg">
<g clip-path="url(#clip0_334_1103)">
<rect width="16" height="16" rx="3" fill="white" fill-opacity="0.08"/>
<path d="M3.22851 11.7354H2.00301V4.2969H3.17151L5.67001 8.3249H5.72701L8.21601 4.2969H9.38451V11.7354H8.15901V6.6814H8.10201L6.12601 9.8544H5.26151L3.28551 6.6909H3.22851V11.7354ZM12.3095 11.8684C11.7712 11.8684 11.3057 11.7481 10.913 11.5074C10.5267 11.2667 10.2449 10.9437 10.0675 10.5384L11.084 10.0539C11.198 10.3009 11.3627 10.4941 11.578 10.6334C11.7934 10.7727 12.0372 10.8424 12.3095 10.8424C12.5819 10.8424 12.7909 10.7917 12.9365 10.6904C13.0822 10.5891 13.155 10.4529 13.155 10.2819C13.155 10.1109 13.0727 9.97157 12.908 9.8639C12.7497 9.7499 12.4932 9.6549 12.1385 9.5789C11.5052 9.43324 11.0207 9.23057 10.685 8.9709C10.3557 8.7049 10.191 8.35657 10.191 7.9259C10.191 7.40657 10.3779 6.99807 10.7515 6.7004C11.1252 6.3964 11.6255 6.2444 12.2525 6.2444C12.7402 6.2444 13.1677 6.3584 13.535 6.5864C13.9087 6.8144 14.1969 7.1279 14.3995 7.5269L13.4115 8.0304C13.2722 7.78974 13.1012 7.6029 12.8985 7.4699C12.6959 7.3369 12.4837 7.2704 12.262 7.2704C12.0024 7.2704 11.7965 7.32424 11.6445 7.4319C11.4989 7.53957 11.426 7.68207 11.426 7.8594C11.426 8.01774 11.5147 8.1539 11.692 8.2679C11.8694 8.3819 12.1575 8.4864 12.5565 8.5814C13.7852 8.85374 14.3995 9.3889 14.3995 10.1869C14.3995 10.5162 14.3109 10.8107 14.1335 11.0704C13.9562 11.3237 13.7092 11.5201 13.3925 11.6594C13.0759 11.7987 12.7149 11.8684 12.3095 11.8684Z" fill="white"/>
</g>
<defs>
<clipPath id="clip0_334_1103">
<rect width="16" height="16" fill="white"/>
</clipPath>
</defs>
</svg>
