<svg viewBox="0 0 16 16" fill="none" xmlns="http://www.w3.org/2000/svg">
<g clip-path="url(#clip0_334_1118)">
<rect width="16" height="16" rx="3" fill="white" fill-opacity="0.08"/>
<path d="M7.00083 7.3179V4.2969H8.25483V11.7354H7.00083V8.4864H3.61883V11.7354H2.36483V4.2969H3.61883V7.3179H7.00083ZM13.9422 8.6384C13.9422 8.95507 13.9105 9.2369 13.8472 9.4839H10.2847C10.3354 9.90824 10.4779 10.2407 10.7122 10.4814C10.9465 10.7157 11.26 10.8329 11.6527 10.8329C11.8997 10.8329 12.1245 10.7696 12.3272 10.6429C12.5362 10.5099 12.7072 10.3231 12.8402 10.0824L13.8187 10.5859C13.616 10.9912 13.331 11.3079 12.9637 11.5359C12.5964 11.7576 12.1594 11.8684 11.6527 11.8684C11.1207 11.8684 10.6552 11.7576 10.2562 11.5359C9.86355 11.3079 9.55955 10.9849 9.34421 10.5669C9.13521 10.1426 9.03071 9.64857 9.03071 9.0849C9.03071 8.50857 9.13205 8.00824 9.33471 7.5839C9.54371 7.15324 9.83821 6.8239 10.2182 6.5959C10.5982 6.36157 11.0447 6.2444 11.5577 6.2444C12.039 6.2444 12.4602 6.34257 12.8212 6.5389C13.1822 6.73524 13.4577 7.0139 13.6477 7.3749C13.844 7.7359 13.9422 8.15707 13.9422 8.6384ZM12.7072 8.4579C12.7072 8.0969 12.6027 7.80874 12.3937 7.5934C12.1847 7.37807 11.906 7.2704 11.5577 7.2704C11.2284 7.2704 10.9592 7.3749 10.7502 7.5839C10.5412 7.78657 10.3987 8.0779 10.3227 8.4579H12.7072Z" fill="white"/>
</g>
<defs>
<clipPath id="clip0_334_1118">
<rect width="16" height="16" fill="white"/>
</clipPath>
</defs>
</svg>
