<svg viewBox="0 0 16 16" fill="none" xmlns="http://www.w3.org/2000/svg">
<g clip-path="url(#clip0_333_1077)">
<rect width="16" height="16" rx="3" fill="white" fill-opacity="0.08"/>
<path d="M6.02997 11.7354L3.30347 4.2969H4.65247L6.64747 9.9874H6.70447L8.68997 4.2969H10.0485L7.32197 11.7354H6.02997ZM12.2187 4.6959C12.2187 4.93024 12.149 5.1139 12.0097 5.2469C11.8767 5.3799 11.693 5.4464 11.4587 5.4464C11.2307 5.4464 11.0502 5.3799 10.9172 5.2469C10.7905 5.1139 10.7272 4.93024 10.7272 4.6959C10.7272 4.4679 10.7905 4.2874 10.9172 4.1544C11.0502 4.01507 11.2307 3.9454 11.4587 3.9454C11.693 3.9454 11.8767 4.01507 12.0097 4.1544C12.149 4.2874 12.2187 4.4679 12.2187 4.6959ZM12.0762 6.3774V11.7354H10.8697V6.3774H12.0762Z" fill="white"/>
</g>
<defs>
<clipPath id="clip0_333_1077">
<rect width="16" height="16" fill="white"/>
</clipPath>
</defs>
</svg>
