<svg viewBox="0 0 16 16" fill="none" xmlns="http://www.w3.org/2000/svg">
<g clip-path="url(#clip0_334_1097)">
<rect width="16" height="16" rx="3" fill="white" fill-opacity="0.08"/>
<path d="M5.62867 4.2969V11.7354H4.37467V4.2969H5.62867ZM11.6932 11.7354H10.4772V11.0419H10.4202C10.2618 11.3079 10.056 11.5106 9.80266 11.6499C9.54933 11.7956 9.2675 11.8684 8.95716 11.8684C8.51383 11.8684 8.12116 11.7481 7.77916 11.5074C7.43716 11.2667 7.17116 10.9311 6.98116 10.5004C6.79116 10.0634 6.69616 9.56307 6.69616 8.9994C6.69616 8.45474 6.788 7.9734 6.97166 7.5554C7.16166 7.1374 7.4245 6.8144 7.76016 6.5864C8.09583 6.3584 8.48216 6.2444 8.91916 6.2444C9.2295 6.2444 9.5145 6.31724 9.77416 6.4629C10.0338 6.60857 10.2492 6.81124 10.4202 7.0709H10.4772V4.2969H11.6932V11.7354ZM10.5152 9.0564C10.5152 8.55607 10.3948 8.1539 10.1542 7.8499C9.91983 7.5459 9.6095 7.3939 9.22316 7.3939C8.84316 7.3939 8.53283 7.54907 8.29216 7.8594C8.0515 8.1634 7.93116 8.5624 7.93116 9.0564C7.93116 9.55674 8.05466 9.9589 8.30166 10.2629C8.54866 10.5669 8.8685 10.7189 9.26116 10.7189C9.63483 10.7189 9.93566 10.5669 10.1637 10.2629C10.398 9.9589 10.5152 9.55674 10.5152 9.0564Z" fill="white"/>
</g>
<defs>
<clipPath id="clip0_334_1097">
<rect width="16" height="16" fill="white"/>
</clipPath>
</defs>
</svg>
