<svg viewBox="0 0 16 16" fill="none" xmlns="http://www.w3.org/2000/svg">
<g clip-path="url(#clip0_337_1183)">
<rect width="16" height="16" rx="3" fill="#8252EF"/>
<path d="M4.53688 11.8684C4.01755 11.8684 3.58055 11.7259 3.22588 11.4409C2.87121 11.1559 2.61471 10.7632 2.45638 10.2629L3.59638 9.7404C3.80538 10.3737 4.12205 10.6904 4.54638 10.6904C4.82505 10.6904 5.04038 10.5732 5.19238 10.3389C5.35071 10.1046 5.42988 9.76574 5.42988 9.3224V4.2969H6.68388V9.4459C6.68388 10.2249 6.49705 10.8234 6.12338 11.2414C5.75605 11.6594 5.22721 11.8684 4.53688 11.8684ZM10.5231 4.2969C11.4225 4.2969 12.1223 4.51224 12.6226 4.9429C13.123 5.36724 13.3731 5.9594 13.3731 6.7194C13.3731 7.4794 13.1293 8.07157 12.6416 8.4959C12.154 8.92024 11.4763 9.1324 10.6086 9.1324H9.30714V11.7354H8.05314V4.2969H10.5231ZM10.3616 7.9829C10.9063 7.9829 11.3306 7.87207 11.6346 7.6504C11.9386 7.42874 12.0906 7.1184 12.0906 6.7194C12.0906 6.3204 11.9386 6.01007 11.6346 5.7884C11.3306 5.56674 10.9063 5.4559 10.3616 5.4559H9.30714V7.9829H10.3616Z" fill="white"/>
</g>
<defs>
<clipPath id="clip0_337_1183">
<rect width="16" height="16" fill="white"/>
</clipPath>
</defs>
</svg>
