<svg viewBox="0 0 16 16" fill="none" xmlns="http://www.w3.org/2000/svg">
<g clip-path="url(#clip0_334_1133)">
<rect width="16" height="16" rx="3" fill="white" fill-opacity="0.08"/>
<path d="M4.6 3.85H11.4V6.8H4.6V3.85ZM5.67 5.83H10.32V4.83H5.67V5.83ZM8.77 10.15C9.11 10.5433 9.57333 10.8567 10.16 11.09C10.7467 11.3233 11.5067 11.4867 12.44 11.58L12.09 12.68C11.11 12.52 10.2833 12.2867 9.61 11.98C8.94333 11.6733 8.41 11.28 8.01 10.8C7.70333 11.2133 7.22667 11.5767 6.58 11.89C5.93333 12.2033 5.07333 12.49 4 12.75L3.54 11.68C4.54 11.52 5.32667 11.3167 5.9 11.07C6.48 10.8167 6.89 10.51 7.13 10.15H3.69V9.23H7.41C7.42333 9.04333 7.43 8.77 7.43 8.41H4.14V7.51H11.84V8.41H8.53C8.53 8.73 8.52333 9.00333 8.51 9.23H12.29V10.15H8.77Z" fill="white"/>
</g>
<defs>
<clipPath id="clip0_334_1133">
<rect width="16" height="16" fill="white"/>
</clipPath>
</defs>
</svg>
