<svg viewBox="0 0 16 16" fill="none" xmlns="http://www.w3.org/2000/svg">
<g clip-path="url(#clip0_333_1059)">
<rect width="16" height="16" rx="3" fill="white" fill-opacity="0.08"/>
<path d="M5.73855 11.7354H4.48455V5.4749H2.31855V4.2969H7.89506V5.4749H5.73855V11.7354ZM8.74738 11.7354V4.2969H9.95388V7.0994H10.0014C10.166 6.8334 10.3877 6.6244 10.6664 6.4724C10.945 6.3204 11.2459 6.2444 11.5689 6.2444C12.1325 6.2444 12.5695 6.4249 12.8799 6.7859C13.1965 7.14057 13.3549 7.6409 13.3549 8.2869V11.7354H12.1484V8.5244C12.1484 8.1824 12.0534 7.9069 11.8634 7.6979C11.6797 7.48257 11.439 7.3749 11.1414 7.3749C10.7867 7.3749 10.4985 7.4889 10.2769 7.7169C10.0615 7.9449 9.95388 8.2489 9.95388 8.6289V11.7354H8.74738Z" fill="white"/>
</g>
<defs>
<clipPath id="clip0_333_1059">
<rect width="16" height="16" fill="white"/>
</clipPath>
</defs>
</svg>
