<svg viewBox="0 0 16 16" fill="none" xmlns="http://www.w3.org/2000/svg">
<g clip-path="url(#clip0_333_1038)">
<rect width="16" height="16" rx="3" fill="white" fill-opacity="0.08"/>
<path d="M6.65913 4.2969C7.55846 4.2969 8.25829 4.51224 8.75863 4.9429C9.25896 5.36724 9.50913 5.9594 9.50913 6.7194C9.50913 7.4794 9.26529 8.07157 8.77763 8.4959C8.28996 8.92024 7.61229 9.1324 6.74463 9.1324H5.44313V11.7354H4.18913V4.2969H6.65913ZM6.49763 7.9829C7.04229 7.9829 7.46663 7.87207 7.77063 7.6504C8.07463 7.42874 8.22663 7.1184 8.22663 6.7194C8.22663 6.3204 8.07463 6.01007 7.77063 5.7884C7.46663 5.56674 7.04229 5.4559 6.49763 5.4559H5.44313V7.9829H6.49763ZM10.4776 4.2969H11.6841V10.2819C11.6841 10.5226 11.8044 10.6429 12.0451 10.6429H12.3111V11.7829H11.7031C11.3041 11.7829 11.0001 11.6879 10.7911 11.4979C10.5821 11.3016 10.4776 11.0197 10.4776 10.6524V4.2969Z" fill="white"/>
</g>
<defs>
<clipPath id="clip0_333_1038">
<rect width="16" height="16" fill="white"/>
</clipPath>
</defs>
</svg>
