<svg viewBox="0 0 16 16" fill="none" xmlns="http://www.w3.org/2000/svg">
<g clip-path="url(#clip0_333_1023)">
<rect width="16" height="16" rx="3" fill="white" fill-opacity="0.08"/>
<path d="M6.04218 4.2969C6.94152 4.2969 7.64135 4.51224 8.14168 4.9429C8.64202 5.36724 8.89218 5.9594 8.89218 6.7194C8.89218 7.4794 8.64835 8.07157 8.16068 8.4959C7.67302 8.92024 6.99535 9.1324 6.12768 9.1324H4.82618V11.7354H3.57218V4.2969H6.04218ZM5.88068 7.9829C6.42535 7.9829 6.84968 7.87207 7.15368 7.6504C7.45768 7.42874 7.60968 7.1184 7.60968 6.7194C7.60968 6.3204 7.45768 6.01007 7.15368 5.7884C6.84968 5.56674 6.42535 5.4559 5.88068 5.4559H4.82618V7.9829H5.88068ZM12.9197 7.5174H11.4567V9.9969C11.4567 10.2312 11.52 10.4149 11.6467 10.5479C11.7797 10.6746 11.9665 10.7379 12.2072 10.7379C12.4098 10.7379 12.6093 10.7062 12.8057 10.6429V11.7734C12.5397 11.8621 12.2483 11.9064 11.9317 11.9064C11.387 11.9064 10.969 11.7544 10.6777 11.4504C10.3927 11.1464 10.2502 10.7126 10.2502 10.1489V7.5174H9.41416V6.3774H10.2502V4.7814H11.4567V6.3774H12.9197V7.5174Z" fill="white"/>
</g>
<defs>
<clipPath id="clip0_333_1023">
<rect width="16" height="16" fill="white"/>
</clipPath>
</defs>
</svg>
