<svg width="16" height="16" viewBox="0 0 16 16" fill="none" xmlns="http://www.w3.org/2000/svg">
<g clip-path="url(#clip0_334_1130)">
<rect width="16" height="16" rx="3" fill="white" fill-opacity="0.08"/>
<path d="M3.36169 10.929V5.364L3.68719 5.049H3.02569C2.59869 5.049 2.35719 5.1645 2.30119 5.3955H2.07019L1.47169 4.5345C1.55569 4.4015 1.66419 4.2825 1.79719 4.1775C1.93019 4.0725 2.05969 4.02 2.18569 4.02H4.95769C5.38469 4.02 5.62619 3.9045 5.68219 3.6735H5.91319L6.51169 4.5345C6.42769 4.6675 6.31919 4.7865 6.18619 4.8915C6.05319 4.9965 5.92369 5.049 5.79769 5.049H4.62169V10.383C4.62169 10.642 4.64969 10.8275 4.70569 10.9395C4.76169 11.0515 4.87719 11.1075 5.05219 11.1075V11.433L2.89969 12.336L2.73169 12C2.88569 12 3.03269 11.909 3.17269 11.727C3.29869 11.552 3.36169 11.286 3.36169 10.929ZM6.12565 10.467V6.981C6.12565 6.932 6.52465 6.7605 7.32265 6.4665C8.12065 6.1655 8.57915 6.015 8.69815 6.015C8.81715 6.015 8.99565 6.1585 9.23365 6.4455C9.47865 6.7325 9.60115 6.9915 9.60115 7.2225V11.0235C9.60115 11.0795 9.21615 11.258 8.44615 11.559C7.68315 11.853 7.21415 12 7.03915 12C6.87115 12 6.67515 11.8495 6.45115 11.5485C6.23415 11.2475 6.12565 10.887 6.12565 10.467ZM7.92115 11.034C8.05415 11.034 8.19065 10.978 8.33065 10.866V7.7685C8.33065 7.2505 8.15215 6.9915 7.79515 6.9915C7.65515 6.9915 7.51865 7.044 7.38565 7.149V10.257C7.38565 10.775 7.56415 11.034 7.92115 11.034ZM11.5926 10.446C11.5926 10.873 11.7361 11.1145 12.0231 11.1705V11.4015L10.9626 12C10.8086 11.937 10.6651 11.8355 10.5321 11.6955C10.3991 11.5485 10.3326 11.412 10.3326 11.286V6.0885C10.3326 5.8995 10.3011 5.7665 10.2381 5.6895C10.1751 5.6055 10.0666 5.5635 9.91262 5.5635V5.2695C10.8226 4.7935 11.6346 4.3455 12.3486 3.9255L12.5166 4.2615C12.4466 4.2965 12.3486 4.3665 12.2226 4.4715C12.0966 4.5695 11.9916 4.671 11.9076 4.776C11.6976 5.042 11.5926 5.343 11.5926 5.679V6.645C12.2436 6.225 12.6286 6.015 12.7476 6.015C12.9436 6.015 13.1606 6.1445 13.3986 6.4035C13.6366 6.6555 13.7556 6.939 13.7556 7.254V8.3985C13.7556 8.4755 13.3916 8.654 12.6636 8.934C13.1046 10.103 13.5351 10.775 13.9551 10.95C14.0881 11.013 14.2351 11.0515 14.3961 11.0655V11.37C13.7451 11.79 13.3356 12 13.1676 12C12.9436 12 12.6566 11.6605 12.3066 10.9815C11.9636 10.2955 11.7256 9.725 11.5926 9.27V10.446ZM11.5926 8.7555C11.7326 8.7555 11.9846 8.668 12.3486 8.493L12.5376 8.3985V7.926C12.5376 7.331 12.3346 7.0335 11.9286 7.0335L11.5926 7.086V8.7555Z" fill="white"/>
</g>
<defs>
<clipPath id="clip0_334_1130">
<rect width="16" height="16" fill="white"/>
</clipPath>
</defs>
</svg>
