<svg width="16" height="16" viewBox="0 0 16 16" fill="none" xmlns="http://www.w3.org/2000/svg">
<g clip-path="url(#clip0_337_1150)">
<rect width="16" height="16" rx="3" fill="#8252EF"/>
<path d="M4.94178 10.6904C5.42311 10.6904 5.80311 10.5289 6.08178 10.2059C6.36678 9.8829 6.50928 9.4459 6.50928 8.8949V4.2969H7.76328V8.9614C7.76328 9.55674 7.64928 10.0729 7.42128 10.5099C7.19328 10.9469 6.86711 11.2826 6.44278 11.5169C6.01845 11.7512 5.51811 11.8684 4.94178 11.8684C4.37178 11.8684 3.87145 11.7512 3.44078 11.5169C3.01645 11.2826 2.69028 10.9469 2.46228 10.5099C2.23428 10.0729 2.12028 9.55674 2.12028 8.9614V4.2969H3.37428V8.8569C3.37428 9.42057 3.51361 9.86707 3.79228 10.1964C4.07728 10.5257 4.46045 10.6904 4.94178 10.6904ZM11.4805 11.8684C10.8471 11.8684 10.2866 11.7196 9.79895 11.4219C9.31128 11.1242 8.93445 10.7157 8.66845 10.1964L9.75145 9.6454C9.92245 10.0001 10.1568 10.2661 10.4545 10.4434C10.7521 10.6207 11.0973 10.7094 11.49 10.7094C11.908 10.7094 12.2468 10.6207 12.5065 10.4434C12.7661 10.2597 12.896 10.0254 12.896 9.7404C12.896 9.54407 12.8453 9.3794 12.744 9.2464C12.6426 9.10707 12.478 8.98674 12.25 8.8854C12.022 8.77774 11.7021 8.66374 11.2905 8.5434C10.7965 8.40407 10.388 8.26474 10.065 8.1254C9.74828 7.97974 9.47278 7.7644 9.23845 7.4794C9.01045 7.1944 8.89645 6.8144 8.89645 6.3394C8.89645 5.9214 9.01045 5.54774 9.23845 5.2184C9.46645 4.88907 9.77995 4.63257 10.179 4.4489C10.5843 4.2589 11.0403 4.1639 11.547 4.1639C12.744 4.1639 13.6148 4.68007 14.1595 5.7124L13.1145 6.2919C12.7408 5.6459 12.212 5.3229 11.528 5.3229C11.148 5.3229 10.825 5.41474 10.559 5.5984C10.2993 5.78207 10.1695 6.00374 10.1695 6.2634C10.1695 6.4914 10.2296 6.67507 10.35 6.8144C10.4766 6.95374 10.6508 7.0709 10.8725 7.1659C11.0941 7.25457 11.4013 7.35274 11.794 7.4604C12.2753 7.5934 12.6775 7.7359 13.0005 7.8879C13.3298 8.03357 13.6085 8.25207 13.8365 8.5434C14.0645 8.83474 14.1785 9.21157 14.1785 9.6739C14.1785 10.1172 14.0645 10.5036 13.8365 10.8329C13.6148 11.1622 13.2981 11.4187 12.8865 11.6024C12.4811 11.7797 12.0125 11.8684 11.4805 11.8684Z" fill="white"/>
</g>
<defs>
<clipPath id="clip0_337_1150">
<rect width="16" height="16" fill="white"/>
</clipPath>
</defs>
</svg>
