<svg viewBox="0 0 16 16" fill="none" xmlns="http://www.w3.org/2000/svg">
<g clip-path="url(#clip0_333_1065)">
<rect width="16" height="16" rx="3" fill="white" fill-opacity="0.08"/>
<path d="M6.79803 7.3179V4.2969H8.05203V11.7354H6.79803V8.4864H3.41603V11.7354H2.16203V4.2969H3.41603V7.3179H6.79803ZM13.9104 6.3774V11.7354H12.6944V11.0229H12.6374C12.4854 11.2826 12.2701 11.4884 11.9914 11.6404C11.7191 11.7924 11.4182 11.8684 11.0889 11.8684C10.5316 11.8684 10.0914 11.6942 9.76841 11.3459C9.45174 10.9912 9.29341 10.4941 9.29341 9.8544V6.3774H10.5094V9.5979C10.5094 9.94624 10.6012 10.2249 10.7849 10.4339C10.9749 10.6429 11.2187 10.7474 11.5164 10.7474C11.8711 10.7474 12.1561 10.6334 12.3714 10.4054C12.5867 10.1774 12.6944 9.87657 12.6944 9.5029V6.3774H13.9104Z" fill="white"/>
</g>
<defs>
<clipPath id="clip0_333_1065">
<rect width="16" height="16" fill="white"/>
</clipPath>
</defs>
</svg>
