<svg width="16" height="16" viewBox="0 0 16 16" fill="none" xmlns="http://www.w3.org/2000/svg">
<g clip-path="url(#clip0_333_1053)">
<rect width="16" height="16" rx="3" fill="white" fill-opacity="0.08"/>
<path d="M4.29014 4.2969V11.7354H3.03614V4.2969H4.29014ZM8.36913 7.5174H6.90613V9.9969C6.90613 10.2312 6.96946 10.4149 7.09613 10.5479C7.22913 10.6746 7.41596 10.7379 7.65663 10.7379C7.85929 10.7379 8.05879 10.7062 8.25513 10.6429V11.7734C7.98913 11.8621 7.69779 11.9064 7.38113 11.9064C6.83646 11.9064 6.41846 11.7544 6.12713 11.4504C5.84213 11.1464 5.69963 10.7126 5.69963 10.1489V7.5174H4.86363V6.3774H5.69963V4.7814H6.90613V6.3774H8.36913V7.5174ZM10.3188 11.8684C9.82478 11.8684 9.42261 11.7322 9.11228 11.4599C8.80828 11.1876 8.65628 10.8171 8.65628 10.3484C8.65628 9.7784 8.88428 9.33507 9.34028 9.0184C9.80261 8.70174 10.4423 8.5434 11.2593 8.5434H11.8673V8.2774C11.8673 7.96707 11.7754 7.72324 11.5918 7.5459C11.4144 7.36857 11.1706 7.2799 10.8603 7.2799C10.4549 7.2799 10.0623 7.4699 9.68228 7.8499L8.92228 7.1849C9.47961 6.5579 10.1668 6.2444 10.9838 6.2444C11.6234 6.2444 12.1333 6.42174 12.5133 6.7764C12.8933 7.13107 13.0833 7.60607 13.0833 8.2014V11.7354H11.8673V11.0514H11.8103C11.6836 11.3111 11.4841 11.5106 11.2118 11.6499C10.9458 11.7956 10.6481 11.8684 10.3188 11.8684ZM10.6513 10.8424C10.9616 10.8424 11.2403 10.7537 11.4873 10.5764C11.7406 10.3927 11.8673 10.1394 11.8673 9.8164V9.5694H11.4113C10.8983 9.5694 10.5151 9.6264 10.2618 9.7404C10.0148 9.8544 9.89128 10.0317 9.89128 10.2724C9.89128 10.4434 9.95778 10.5827 10.0908 10.6904C10.2301 10.7917 10.4169 10.8424 10.6513 10.8424Z" fill="white"/>
</g>
<defs>
<clipPath id="clip0_333_1053">
<rect width="16" height="16" fill="white"/>
</clipPath>
</defs>
</svg>
