<svg width="16" height="16" viewBox="0 0 16 16" fill="none" xmlns="http://www.w3.org/2000/svg">
<g clip-path="url(#clip0_333_1074)">
<rect width="16" height="16" rx="3" fill="white" fill-opacity="0.08"/>
<path d="M8.25342 11.7354H6.79042L5.21342 8.8854H5.14692H3.93092V11.7354H2.67692V4.2969H5.05192C5.95759 4.2969 6.66059 4.50274 7.16092 4.9144C7.66125 5.31974 7.91142 5.8834 7.91142 6.6054C7.91142 7.11207 7.78475 7.5459 7.53142 7.9069C7.28442 8.26157 6.92659 8.52124 6.45792 8.6859L8.25342 11.7354ZM3.93092 7.7264H4.89992C5.45092 7.7264 5.87525 7.6314 6.17292 7.4414C6.47059 7.24507 6.61942 6.9664 6.61942 6.6054C6.61942 6.23807 6.47059 5.95624 6.17292 5.7599C5.87525 5.55724 5.45092 5.4559 4.89992 5.4559H3.93092V7.7264ZM11.097 11.8684C10.584 11.8684 10.1375 11.7544 9.75746 11.5264C9.37746 11.2984 9.08613 10.9722 8.88346 10.5479C8.6808 10.1236 8.57946 9.6264 8.57946 9.0564C8.57946 8.4864 8.6808 7.98924 8.88346 7.5649C9.08613 7.14057 9.37746 6.8144 9.75746 6.5864C10.1375 6.3584 10.584 6.2444 11.097 6.2444C11.61 6.2444 12.0565 6.3584 12.4365 6.5864C12.8165 6.8144 13.1078 7.14057 13.3105 7.5649C13.5195 7.98924 13.624 8.4864 13.624 9.0564C13.624 9.6264 13.5195 10.1236 13.3105 10.5479C13.1078 10.9722 12.8165 11.2984 12.4365 11.5264C12.0565 11.7544 11.61 11.8684 11.097 11.8684ZM11.097 10.7284C11.496 10.7284 11.8095 10.5796 12.0375 10.2819C12.2718 9.9779 12.389 9.5694 12.389 9.0564C12.389 8.53707 12.2718 8.12857 12.0375 7.8309C11.8095 7.53324 11.496 7.3844 11.097 7.3844C10.7043 7.3844 10.3908 7.53324 10.1565 7.8309C9.92846 8.12857 9.81446 8.53707 9.81446 9.0564C9.81446 9.5694 9.92846 9.9779 10.1565 10.2819C10.3908 10.5796 10.7043 10.7284 11.097 10.7284Z" fill="white"/>
</g>
<defs>
<clipPath id="clip0_333_1074">
<rect width="16" height="16" fill="white"/>
</clipPath>
</defs>
</svg>
