<svg width="16" height="16" viewBox="0 0 16 16" fill="none" xmlns="http://www.w3.org/2000/svg">
<g clip-path="url(#clip0_333_1091)">
<rect width="16" height="16" rx="3" fill="white" fill-opacity="0.08"/>
<path d="M11.77 4.14V8.75H4.27V4.14H6.91C6.97 3.98 7.04333 3.76 7.13 3.48L8.3 3.63C8.24 3.81667 8.17667 3.98667 8.11 4.14H11.77ZM10.77 7.99V4.9H9.93L10.27 5.35L10.08 5.48C9.65333 5.75333 9.38 5.92333 9.26 5.99H10.47V6.63H8.78C9.33333 6.84333 9.90333 7.07667 10.49 7.33L10.17 7.94C9.82333 7.76 9.25333 7.49667 8.46 7.15V7.84H7.57V7.12C7.07 7.44667 6.48 7.71333 5.8 7.92L5.42 7.3C6.12667 7.09333 6.70667 6.87 7.16 6.63H5.58V5.99H6.7C6.26 5.68333 5.95333 5.46333 5.78 5.33L6.14 4.9H5.27V7.99H10.77ZM7.57 5.03H8.46V5.99H9.08L8.77 5.56C9.04333 5.39333 9.38333 5.17333 9.79 4.9H6.29C6.55667 5.06 6.88333 5.28667 7.27 5.58L6.92 5.99H7.57V5.03ZM12.44 9.99H6.25L6.14 10.44H11.38L11.28 11.46C11.24 11.7867 11.16 12.03 11.04 12.19C10.9267 12.3567 10.76 12.4667 10.54 12.52C10.3267 12.58 10.02 12.61 9.62 12.61H7.44L7.24 11.79H9.35C9.57667 11.79 9.74667 11.78 9.86 11.76C9.97333 11.74 10.0533 11.71 10.1 11.67C10.1467 11.6233 10.18 11.5567 10.2 11.47L10.24 11.19H4.89L5.19 9.99H3.58V9.19H12.44V9.99Z" fill="white"/>
</g>
<defs>
<clipPath id="clip0_333_1091">
<rect width="16" height="16" fill="white"/>
</clipPath>
</defs>
</svg>
