<svg width="16" height="16" viewBox="0 0 16 16" fill="none" xmlns="http://www.w3.org/2000/svg">
<g clip-path="url(#clip0_331_1018)">
<rect width="16" height="16" rx="3" fill="white" fill-opacity="0.08"/>
<path d="M4.53859 8.4959V10.5859H8.10109V11.7354H3.28459V4.2969H7.97759V5.4559H4.53859V7.3464H7.78759V8.4959H4.53859ZM11.028 11.8684C10.4896 11.8684 10.0241 11.7481 9.63148 11.5074C9.24514 11.2667 8.96331 10.9437 8.78598 10.5384L9.80248 10.0539C9.91648 10.3009 10.0811 10.4941 10.2965 10.6334C10.5118 10.7727 10.7556 10.8424 11.028 10.8424C11.3003 10.8424 11.5093 10.7917 11.655 10.6904C11.8006 10.5891 11.8735 10.4529 11.8735 10.2819C11.8735 10.1109 11.7911 9.97157 11.6265 9.8639C11.4681 9.7499 11.2116 9.6549 10.857 9.5789C10.2236 9.43324 9.73914 9.23057 9.40348 8.9709C9.07414 8.7049 8.90948 8.35657 8.90948 7.9259C8.90948 7.40657 9.09631 6.99807 9.46998 6.7004C9.84364 6.3964 10.344 6.2444 10.971 6.2444C11.4586 6.2444 11.8861 6.3584 12.2535 6.5864C12.6271 6.8144 12.9153 7.1279 13.118 7.5269L12.13 8.0304C11.9906 7.78974 11.8196 7.6029 11.617 7.4699C11.4143 7.3369 11.2021 7.2704 10.9805 7.2704C10.7208 7.2704 10.515 7.32424 10.363 7.4319C10.2173 7.53957 10.1445 7.68207 10.1445 7.8594C10.1445 8.01774 10.2331 8.1539 10.4105 8.2679C10.5878 8.3819 10.876 8.4864 11.275 8.5814C12.5036 8.85374 13.118 9.3889 13.118 10.1869C13.118 10.5162 13.0293 10.8107 12.852 11.0704C12.6746 11.3237 12.4276 11.5201 12.111 11.6594C11.7943 11.7987 11.4333 11.8684 11.028 11.8684Z" fill="white"/>
</g>
<defs>
<clipPath id="clip0_331_1018">
<rect width="16" height="16" fill="white"/>
</clipPath>
</defs>
</svg>
