<svg width="180" height="108" viewBox="0 0 180 108" fill="none" xmlns="http://www.w3.org/2000/svg">
<path d="M94.9952 7.41786C96.401 6.75786 97.5407 7.64586 97.5407 9.40146V15.7588C97.5407 17.5141 96.401 19.4725 94.9952 20.1325L73.7819 30.0913L66.9938 40.6951V33.2782L66.1454 33.6766C64.7393 34.3366 63.5996 33.4486 63.5996 31.693V25.336C63.5996 23.5804 64.7393 21.6223 66.1454 20.9623L94.9952 7.41786Z" fill="#E76E50"/>
<path d="M80.7363 33.0455C80.7363 31.7583 81.5721 30.3223 82.6031 29.8384L95.6696 23.7039C96.7006 23.2199 97.5363 23.8711 97.5363 25.1585V32.151C97.5363 33.4383 96.7006 34.8741 95.6696 35.3582L82.6031 41.4926C81.5721 41.9765 80.7363 41.3253 80.7363 40.038V33.0455Z" fill="white"/>
<path d="M112.141 31.5932C113.547 30.9332 114.687 31.8211 114.687 33.5767V39.9341C114.687 41.6893 113.547 43.6477 112.141 44.3077L111.293 44.7061V52.1228L104.504 47.8927L83.2914 57.8518C81.8853 58.5118 80.7456 57.6238 80.7456 55.8682V49.5112C80.7456 47.7557 81.8853 45.7976 83.2914 45.1376L112.141 31.5932Z" fill="#E76E50"/>
<path d="M128.209 95.3438V79.2788H136.058C137.144 79.2788 138.1 79.493 138.927 79.9214C139.768 80.3345 140.426 80.9159 140.9 81.6656C141.375 82.4153 141.612 83.2798 141.612 84.259C141.612 85.2841 141.321 86.1868 140.74 86.9671C140.174 87.7474 139.424 88.3288 138.491 88.7113L142.025 95.3438H138.307L135.163 89.1932H131.56V95.3438H128.209ZM131.56 86.4622H135.76C136.509 86.4622 137.106 86.2633 137.55 85.8655C138.009 85.4677 138.238 84.9475 138.238 84.3049C138.238 83.6623 138.009 83.1421 137.55 82.7443C137.106 82.3465 136.509 82.1476 135.76 82.1476H131.56V86.4622Z" fill="white"/>
<path d="M116.382 95.3438L109.864 79.2788H113.467L118.378 91.9243L123.404 79.2788H126.847L120.237 95.3438H116.382Z" fill="white"/>
<path d="M103.466 95.3437V83.8457H105.165V85.4752C105.517 84.8785 105.96 84.4195 106.496 84.0982C107.047 83.7616 107.674 83.5933 108.378 83.5933C108.775 83.5933 109.135 83.6468 109.456 83.7539V85.3145C109.257 85.238 109.058 85.1845 108.86 85.1539C108.661 85.1233 108.462 85.108 108.263 85.108C107.559 85.108 106.939 85.3145 106.404 85.7276C105.884 86.1254 105.471 86.7068 105.165 87.4718V95.3437H103.466Z" fill="white"/>
<path d="M95.9055 95.5492C94.8039 95.5492 93.8017 95.2891 92.899 94.7689C92.0116 94.2334 91.3002 93.5143 90.7647 92.6116C90.2445 91.7089 89.9844 90.6991 89.9844 89.5822C89.9844 88.4806 90.2368 87.4861 90.7417 86.5987C91.2466 85.696 91.9275 84.9846 92.7843 84.4644C93.6411 83.9289 94.5973 83.6611 95.653 83.6611C96.6781 83.6611 97.5961 83.9289 98.407 84.4644C99.2332 84.9846 99.8835 85.696 100.358 86.5987C100.847 87.4861 101.092 88.4806 101.092 89.5822V90.1101H91.6597C91.7515 90.8598 91.9887 91.533 92.3712 92.1297C92.769 92.7264 93.2815 93.2007 93.9088 93.5526C94.5361 93.8892 95.2246 94.0575 95.9743 94.0575C96.571 94.0575 97.1524 93.9657 97.7185 93.7821C98.2846 93.5985 98.7589 93.3384 99.1414 93.0018L100.197 94.1263C99.5545 94.6006 98.8813 94.9602 98.1775 95.205C97.489 95.4345 96.7317 95.5492 95.9055 95.5492ZM91.7056 88.756H99.3939C99.3021 88.0675 99.0726 87.4555 98.7054 86.92C98.3535 86.3692 97.9098 85.9408 97.3743 85.6348C96.8388 85.3135 96.2497 85.1529 95.6071 85.1529C94.9492 85.1529 94.3449 85.3059 93.7941 85.6119C93.2433 85.9179 92.7843 86.3463 92.4171 86.8971C92.0499 87.4326 91.8127 88.0522 91.7056 88.756Z" fill="white"/>
<path d="M77.917 95.3438V79.2788L79.6153 78.8887V85.1999C80.518 84.1442 81.7267 83.6164 83.2414 83.6164C84.1135 83.6164 84.8785 83.8076 85.5364 84.1901C86.2096 84.5573 86.7298 85.0775 87.097 85.7507C87.4795 86.4086 87.6707 87.1813 87.6707 88.0687V95.3438H85.9954V88.4129C85.9954 87.3878 85.7047 86.5846 85.1233 86.0032C84.5572 85.4065 83.7769 85.1081 82.7824 85.1081C82.0939 85.1081 81.4819 85.2611 80.9464 85.5671C80.4109 85.8731 79.9672 86.3092 79.6153 86.8753V95.3438H77.917Z" fill="white"/>
<path d="M64.3794 100.024V83.8447H66.0547V85.084C67.0492 84.1354 68.2885 83.6611 69.7726 83.6611C70.8589 83.6611 71.8381 83.9289 72.7102 84.4644C73.5823 84.9846 74.2708 85.6884 74.7757 86.5758C75.2959 87.4632 75.556 88.4653 75.556 89.5822C75.556 90.6991 75.2959 91.7089 74.7757 92.6116C74.2708 93.499 73.5823 94.2105 72.7102 94.746C71.8381 95.2662 70.8513 95.5263 69.7497 95.5263C69.0765 95.5263 68.4262 95.4115 67.7989 95.182C67.1716 94.9525 66.5979 94.6236 66.0777 94.1952V100.024H64.3794ZM69.612 94.0345C70.4229 94.0345 71.1496 93.8433 71.7922 93.4608C72.4348 93.063 72.9397 92.5351 73.3069 91.8772C73.6894 91.204 73.8807 90.4467 73.8807 89.6052C73.8807 88.7637 73.6894 88.0063 73.3069 87.3331C72.9397 86.6599 72.4348 86.1321 71.7922 85.7496C71.1496 85.3518 70.4229 85.1529 69.612 85.1529C68.8929 85.1529 68.2197 85.2982 67.5924 85.5889C66.9804 85.8643 66.4755 86.2545 66.0777 86.7594V92.451C66.4755 92.9406 66.988 93.3307 67.6153 93.6214C68.2426 93.8968 68.9082 94.0345 69.612 94.0345Z" fill="white"/>
<path d="M53.1636 100.255C52.9494 100.255 52.7429 100.24 52.544 100.209C52.3604 100.194 52.2074 100.171 52.085 100.14V98.6026C52.3451 98.6638 52.6664 98.6944 53.0489 98.6944C54.0587 98.6944 54.8237 98.0977 55.3439 96.9043L56.0324 95.3207L51.3506 83.8457H53.2325L56.9504 93.2782L60.9666 83.8457H62.8026L57.0651 97.1338C56.7438 97.8682 56.3996 98.4649 56.0324 98.9239C55.6652 99.3829 55.2444 99.7195 54.7701 99.9337C54.3111 100.148 53.7756 100.255 53.1636 100.255Z" fill="white"/>
<path d="M38.1602 95.3438V94.0816L48.3729 80.8394H38.252V79.2788H50.6909V80.5411L40.4322 93.7832H50.8745V95.3438H38.1602Z" fill="white"/>
</svg>
