<svg width="24" height="24" viewBox="0 0 24 24" fill="none" xmlns="http://www.w3.org/2000/svg">
<path fill-rule="evenodd" clip-rule="evenodd" d="M2.93913 9.02794C2.99433 9.17472 3.07337 9.27508 3.23144 9.4758L4.56877 11.1744C4.67099 11.3059 4.72223 11.4699 4.71304 11.6361C4.70113 11.8785 4.70113 12.1213 4.71304 12.3637C4.72223 12.53 4.67099 12.694 4.56877 12.8254L3.23144 14.524C3.07337 14.7248 2.99308 14.8251 2.93913 14.9719C2.89515 15.1028 2.87435 15.2404 2.87766 15.3784C2.88644 15.5339 2.92282 15.628 2.99433 15.815C3.10724 16.1035 3.26782 16.4648 3.49364 16.8562C3.7458 17.2928 3.99294 17.6378 4.19743 17.8962C4.32539 18.0568 4.38937 18.1371 4.52486 18.2249C4.64694 18.2984 4.78121 18.3494 4.9213 18.3755C5.08062 18.4006 5.20984 18.3792 5.46827 18.3353L7.57965 17.9778C7.70198 17.9577 7.82735 17.9856 7.92967 18.0556C8.06139 18.1434 8.19563 18.2287 8.33363 18.309C8.42521 18.3629 8.47162 18.3893 8.50048 18.4093C8.60391 18.4799 8.68698 18.5763 8.74135 18.6891C8.75766 18.7217 8.77397 18.7631 8.80784 18.8459L9.67723 21.0188C9.7801 21.2772 9.83154 21.4052 9.94068 21.5356C10.0197 21.6322 10.1753 21.7564 10.2882 21.8129C10.4387 21.8882 10.5466 21.9057 10.7599 21.9396C11.0936 21.9923 11.5189 22.0362 12.0094 22.0362C12.5564 22.0362 13.0155 21.9923 13.3681 21.9396C13.5876 21.907 13.698 21.8894 13.8536 21.8116C13.9702 21.7527 14.1296 21.6235 14.2111 21.5231C14.3203 21.3851 14.3692 21.2534 14.4683 20.9874L15.2762 18.8146C15.3013 18.7443 15.3151 18.7092 15.3264 18.6828C15.3818 18.5548 15.4733 18.4458 15.5898 18.3692C15.6137 18.3529 15.6526 18.3303 15.7304 18.2839C15.852 18.2111 15.9725 18.1346 16.0904 18.0556C16.1927 17.9856 16.3181 17.9577 16.4404 17.9778L18.5518 18.3353C18.8102 18.3792 18.9395 18.4006 19.0988 18.3767C19.2388 18.3506 19.3731 18.2996 19.4952 18.2262C19.6294 18.1371 19.6934 18.0568 19.8214 17.8962C20.0271 17.6391 20.273 17.2928 20.5252 16.8562C20.7523 16.4636 20.9141 16.1035 21.0245 15.815C21.0972 15.6268 21.1324 15.5339 21.1412 15.3784C21.1448 15.2404 21.1245 15.1029 21.0809 14.9719C21.0257 14.8251 20.9467 14.7248 20.7886 14.524L19.45 12.8254C19.3484 12.6942 19.2976 12.5307 19.307 12.365C19.3189 12.1218 19.3189 11.8781 19.307 11.6349C19.2976 11.4692 19.3484 11.3056 19.45 11.1744L20.7874 9.4758C20.9467 9.27508 21.0257 9.17472 21.0809 9.02794C21.1249 8.89705 21.1457 8.7595 21.1424 8.62147C21.129 8.47056 21.0891 8.3232 21.0245 8.18614C20.8853 7.82662 20.7184 7.47848 20.5252 7.14488C20.317 6.78097 20.0821 6.43294 19.8226 6.10362C19.6934 5.94304 19.6294 5.86275 19.4952 5.77493C19.3731 5.70151 19.2388 5.65052 19.0988 5.62439C18.9395 5.5993 18.8102 5.62062 18.5518 5.66453L16.4404 6.02208L16.4078 6.02709C16.3066 6.04383 16.2028 6.02091 16.118 5.96311C15.991 5.87666 15.8613 5.79424 15.7291 5.71597C15.6814 5.68894 15.6346 5.66049 15.5886 5.63066C15.473 5.55362 15.3824 5.44466 15.3276 5.31703C15.3151 5.29068 15.3026 5.2543 15.2762 5.1853L14.4683 3.01245C14.3692 2.74649 14.3203 2.61351 14.2099 2.47802C14.1093 2.36131 13.9886 2.26358 13.8536 2.18948C13.698 2.10919 13.5876 2.09288 13.3681 2.06026C12.9182 1.99467 12.4641 1.96238 12.0094 1.96366C11.5189 1.96366 11.0936 2.00757 10.7599 2.06026C10.5466 2.09413 10.4387 2.11044 10.2882 2.18571C10.1569 2.25803 10.039 2.35222 9.93943 2.46422C9.83154 2.59469 9.7801 2.72391 9.67723 2.98109L8.80658 5.15394C8.77397 5.23674 8.7564 5.27939 8.74009 5.31075C8.68594 5.42294 8.60332 5.51897 8.50048 5.58926C8.44634 5.6255 8.39067 5.6594 8.33363 5.69088C8.19625 5.77094 8.06153 5.85545 7.92967 5.94429C7.82701 6.01461 7.70114 6.04248 7.5784 6.02208L5.46953 5.66453C5.21109 5.62062 5.08188 5.5993 4.92255 5.62313C4.7824 5.64965 4.64814 5.70107 4.52612 5.77493C4.39063 5.86275 4.32665 5.94304 4.19994 6.10487C3.9942 6.36205 3.74831 6.70705 3.49489 7.14363C3.26907 7.5363 3.10724 7.89635 2.99559 8.18489C2.92408 8.37307 2.8877 8.46591 2.87891 8.62147C2.8756 8.7595 2.89641 8.89705 2.94039 9.02794H2.93913ZM15.7642 11.9999C15.7642 11.0018 15.3677 10.0445 14.6619 9.33866C13.9561 8.63285 12.9988 8.23633 12.0006 8.23633C11.0025 8.23633 10.0452 8.63285 9.33936 9.33866C8.63355 10.0445 8.23703 11.0018 8.23703 11.9999C8.23703 12.9981 8.63355 13.9554 9.33936 14.6612C10.0452 15.367 11.0025 15.7635 12.0006 15.7635C12.9988 15.7635 13.9561 15.367 14.6619 14.6612C15.3677 13.9554 15.7642 12.9981 15.7642 11.9999Z" fill="currentColor"/>
</svg>
