<svg width="24" height="24" viewBox="0 0 24 24" fill="none" xmlns="http://www.w3.org/2000/svg">
<path d="M5.5 20C3.84315 20 2.5 18.6569 2.5 17L2.5 7C2.5 5.34314 3.84315 4 5.5 4L18.5 4C18.5518 4 18.6032 4.00132 18.6543 4.00391C20.2394 4.08421 21.5 5.39489 21.5 7L21.5 17C21.5 18.6569 20.1569 20 18.5 20L5.5 20ZM16 5.5L5.5 5.5C4.67157 5.5 4 6.17157 4 7L4 17C4 17.8284 4.67157 18.5 5.5 18.5L16 18.5L16 5.5Z" fill="currentColor"/>
<path d="M7.85641 12.3536C7.66115 12.1583 7.66115 11.8418 7.85641 11.6465L10.6493 8.8536C10.9643 8.53862 11.5029 8.7617 11.5029 9.20716L11.5029 14.7929C11.5029 15.2384 10.9643 15.4615 10.6493 15.1465L7.85641 12.3536Z" fill="currentColor"/>
</svg>
