<svg viewBox="0 0 24 24" fill="none" xmlns="http://www.w3.org/2000/svg">
<path d="M3.45025 8.20025C3.45022 5.57688 5.57688 3.4502 8.20025 3.4502H9.05026C10.1548 3.4502 11.0503 4.34563 11.0503 5.4502V10.9502C11.0503 12.0548 10.1548 12.9502 9.05026 12.9502H5.45028C4.34572 12.9502 3.45029 12.0548 3.45028 10.9502L3.45025 8.20025Z" fill="currentColor"/>
<path d="M3.45032 16.5392C3.45025 15.6063 4.20644 14.8501 5.13926 14.8501H9.05037C10.1549 14.8501 11.0504 15.7455 11.0504 16.8501V18.5501C11.0504 19.6547 10.1549 20.5501 9.05038 20.5501H7.46156C5.24633 20.5501 3.45049 18.7544 3.45032 16.5392V16.5392Z" fill="currentColor"/>
<path d="M12.9502 5.45027C12.9502 4.34567 13.8457 3.45022 14.9503 3.45024L16.5392 3.45028C18.7545 3.45034 20.5503 5.24619 20.5503 7.46146V7.46146C20.5503 8.39422 19.7942 9.15038 18.8614 9.15038H14.9502C13.8457 9.15038 12.9502 8.25496 12.9502 7.1504L12.9502 5.45027Z" fill="currentColor"/>
<path d="M12.9502 13.0504C12.9502 11.9458 13.8456 11.0504 14.9502 11.0504L18.5502 11.0503C19.6548 11.0503 20.5503 11.9457 20.5503 13.0503V15.8003C20.5503 18.4236 18.4236 20.5503 15.8003 20.5503H14.9503C13.8457 20.5503 12.9503 19.6549 12.9503 18.5503L12.9502 13.0504Z" fill="currentColor"/>
</svg>
