<svg viewBox="0 0 24 24" fill="none" xmlns="http://www.w3.org/2000/svg">
<path d="M5.5 20C3.84315 20 2.5 18.6569 2.5 17L2.5 7C2.5 5.34314 3.84315 4 5.5 4L18.5 4C20.1569 4 21.5 5.34315 21.5 7L21.5 17C21.5 18.6569 20.1569 20 18.5 20L5.5 20ZM16 5.5L5.5 5.5C4.67157 5.5 4 6.17157 4 7L4 17C4 17.8284 4.67157 18.5 5.5 18.5L16 18.5L16 5.5Z" fill="currentColor"/>
<path d="M12.1464 11.6464C12.3417 11.8417 12.3417 12.1582 12.1464 12.3535L9.3535 15.1464C9.03852 15.4614 8.49995 15.2383 8.49995 14.7928L8.49995 9.20706C8.49995 8.7616 9.03852 8.53852 9.35351 8.8535L12.1464 11.6464Z" fill="currentColor"/>
</svg>
