<svg width="24" height="24" viewBox="0 0 24 24" fill="none" xmlns="http://www.w3.org/2000/svg">
<path d="M18.5 4C20.1569 4 21.5 5.34315 21.5 7V17C21.5 18.6569 20.1569 20 18.5 20H5.5C3.84315 20 2.5 18.6569 2.5 17V7C2.5 5.39489 3.76055 4.08421 5.3457 4.00391C5.39681 4.00132 5.44825 4 5.5 4H18.5ZM8 18.5H18.5C19.3284 18.5 20 17.8284 20 17V7C20 6.17157 19.3284 5.5 18.5 5.5H8V18.5Z" fill="currentColor"/>
<path d="M16.1464 11.6464C16.3417 11.8417 16.3417 12.1582 16.1464 12.3535L13.3535 15.1464C13.0385 15.4614 12.5 15.2383 12.5 14.7928L12.5 9.20706C12.5 8.7616 13.0385 8.53852 13.3535 8.8535L16.1464 11.6464Z" fill="currentColor"/>
</svg>
