<svg viewBox="0 0 24 24" fill="none" xmlns="http://www.w3.org/2000/svg">
<path d="M18.5 4C20.1569 4 21.5 5.34315 21.5 7V17C21.5 18.6569 20.1569 20 18.5 20H5.5C3.84315 20 2.5 18.6569 2.5 17V7C2.5 5.39489 3.76055 4.08421 5.3457 4.00391C5.39681 4.00132 5.44825 4 5.5 4H18.5ZM8 18.5H18.5C19.3284 18.5 20 17.8284 20 17V7C20 6.17157 19.3284 5.5 18.5 5.5H8V18.5Z" fill="currentColor"/>
<path d="M11.8536 12.3536C11.6583 12.1583 11.6583 11.8418 11.8536 11.6465L14.6465 8.8536C14.9615 8.53862 15.5 8.7617 15.5 9.20716L15.5 14.7929C15.5 15.2384 14.9615 15.4615 14.6465 15.1465L11.8536 12.3536Z" fill="currentColor"/>
</svg>
