<svg width="24" height="24" viewBox="0 0 24 24" fill="none" xmlns="http://www.w3.org/2000/svg">
<path d="M14.6821 0.442759C15.3265 0.140259 15.8488 0.547259 15.8488 1.35191V4.26567C15.8488 5.07018 15.3265 5.96778 14.6821 6.27028L4.95937 10.8347L1.84816 15.6948V12.2954L1.45931 12.478C0.814843 12.7805 0.29248 12.3735 0.29248 11.5688V8.65522C0.29248 7.85057 0.814843 6.95311 1.45931 6.65061L14.6821 0.442759Z" fill="#E76E50"/>
<path d="M8.14697 12.1884C8.14697 11.5984 8.53003 10.9402 9.00257 10.7184L14.9914 7.90682C15.4639 7.68498 15.847 7.98345 15.847 8.57351V11.7784C15.847 12.3684 15.4639 13.0265 14.9914 13.2483L9.00257 16.06C8.53003 16.2817 8.14697 15.9833 8.14697 15.3933V12.1884Z" fill="white"/>
<path d="M22.5405 11.5223C23.1849 11.2198 23.7072 11.6268 23.7072 12.4315V15.3453C23.7072 16.1498 23.1849 17.0474 22.5405 17.3499L22.1517 17.5325V20.9317L19.0403 18.993L9.3177 23.5576C8.67324 23.8601 8.15088 23.4531 8.15088 22.6484V19.7348C8.15088 18.9302 8.67324 18.0327 9.3177 17.7302L22.5405 11.5223Z" fill="#E76E50"/>
</svg>
