<svg viewBox="0 0 24 24" fill="none" xmlns="http://www.w3.org/2000/svg">
<path d="M21.62 7.793C21.62 6.25047 20.3695 5 18.827 5H5.793C4.25047 5 3 6.25047 3 7.793V17.103C3 18.6455 4.25047 19.896 5.793 19.896H18.827C20.3695 19.896 21.62 18.6455 21.62 17.103V7.793ZM19.758 8.4144C19.758 8.607 19.6588 8.78601 19.4955 8.88809L12.31 13.379L5.12454 8.88809C4.96122 8.78601 4.862 8.607 4.862 8.4144V7.36593C4.862 7.14655 5.1033 7.01281 5.28933 7.12908L12.31 11.517L19.3307 7.12908C19.5167 7.01281 19.758 7.14655 19.758 7.36593V8.4144Z" fill="currentColor"/>
</svg>
