<svg width="24" height="24" viewBox="0 0 24 24" fill="none" xmlns="http://www.w3.org/2000/svg">
<path d="M21.8011 10.1378C21.8991 9.64778 21.5071 9.05971 21.017 9.05971L15.4304 8.27563L12.8822 3.17911C12.7842 2.98309 12.6862 2.88508 12.4901 2.78707C12.0001 2.49304 11.412 2.68906 11.118 3.17911L8.66776 8.27563L3.08119 9.05971C2.78716 9.05971 2.59114 9.15772 2.49313 9.35374C2.10109 9.74578 2.10109 10.3338 2.49313 10.7259L6.51154 14.6463L5.53144 20.2329C5.53144 20.4289 5.53144 20.6249 5.62945 20.8209C5.92348 21.311 6.51154 21.507 7.00159 21.213L12.0001 18.5667L16.9986 21.213C17.0966 21.311 17.2926 21.311 17.4887 21.311H17.6847C18.1747 21.213 18.5668 20.7229 18.4688 20.1348L17.4887 14.5483L21.5071 10.6279C21.7031 10.5299 21.8011 10.3338 21.8011 10.1378Z" fill="currentColor"/>
</svg>
