<svg width="76" height="24" viewBox="0 0 76 24" fill="none" xmlns="http://www.w3.org/2000/svg">
<path d="M64.5342 17.3774V6.22119H69.9848C70.7392 6.22119 71.4032 6.36994 71.977 6.66744C72.5614 6.95432 73.0182 7.35807 73.3476 7.87869C73.677 8.39932 73.8417 8.99963 73.8417 9.67963C73.8417 10.3915 73.6398 11.0184 73.2361 11.5603C72.8429 12.1021 72.3223 12.5059 71.6742 12.7715L74.1286 17.3774H71.5467L69.3632 13.1062H66.8611V17.3774H64.5342ZM66.8611 11.2096H69.7776C70.2982 11.2096 70.7126 11.0715 71.0207 10.7953C71.3395 10.519 71.4989 10.1578 71.4989 9.7115C71.4989 9.26525 71.3395 8.904 71.0207 8.62775C70.7126 8.3515 70.2982 8.21338 69.7776 8.21338H66.8611V11.2096Z" fill="white"/>
<path d="M56.3207 17.3774L51.7944 6.22119H54.2966L57.7072 15.0028L61.1976 6.22119H63.5882L58.9982 17.3774H56.3207Z" fill="white"/>
<path d="M47.3516 17.3773V9.3926H48.5309V10.5242C48.7753 10.1098 49.0834 9.79104 49.4553 9.56791C49.8378 9.33416 50.2734 9.21729 50.7622 9.21729C51.0384 9.21729 51.2881 9.25447 51.5113 9.32885V10.4126C51.3731 10.3595 51.235 10.3223 51.0969 10.301C50.9588 10.2798 50.8206 10.2692 50.6825 10.2692C50.1938 10.2692 49.7634 10.4126 49.3916 10.6995C49.0303 10.9757 48.7434 11.3795 48.5309 11.9107V17.3773H47.3516Z" fill="white"/>
<path d="M42.1016 17.5208C41.3366 17.5208 40.6407 17.3401 40.0138 16.9789C39.3976 16.607 38.9035 16.1076 38.5316 15.4808C38.1704 14.8539 37.9897 14.1526 37.9897 13.377C37.9897 12.612 38.1651 11.9214 38.5157 11.3051C38.8663 10.6783 39.3391 10.1842 39.9341 9.82295C40.5291 9.45107 41.1932 9.26514 41.9263 9.26514C42.6382 9.26514 43.2757 9.45107 43.8388 9.82295C44.4126 10.1842 44.8641 10.6783 45.1935 11.3051C45.5335 11.9214 45.7035 12.612 45.7035 13.377V13.7436H39.1532C39.2169 14.2642 39.3816 14.7317 39.6472 15.1461C39.9235 15.5604 40.2794 15.8898 40.7151 16.1342C41.1507 16.3679 41.6288 16.4848 42.1494 16.4848C42.5638 16.4848 42.9676 16.4211 43.3607 16.2936C43.7538 16.1661 44.0832 15.9854 44.3488 15.7517L45.0819 16.5326C44.6357 16.862 44.1682 17.1117 43.6794 17.2817C43.2013 17.4411 42.6754 17.5208 42.1016 17.5208ZM39.1851 12.8033H44.5241C44.4604 12.3251 44.301 11.9001 44.046 11.5283C43.8016 11.1458 43.4935 10.8483 43.1216 10.6358C42.7497 10.4126 42.3407 10.3011 41.8944 10.3011C41.4376 10.3011 41.0179 10.4073 40.6354 10.6198C40.2529 10.8323 39.9341 11.1298 39.6791 11.5123C39.4241 11.8842 39.2594 12.3145 39.1851 12.8033Z" fill="white"/>
<path d="M29.6094 17.3774V6.22113L30.7888 5.9502V10.333C31.4156 9.59988 32.255 9.23332 33.3069 9.23332C33.9125 9.23332 34.4438 9.36613 34.9006 9.63176C35.3681 9.88676 35.7294 10.248 35.9844 10.7155C36.25 11.1724 36.3828 11.7089 36.3828 12.3252V17.3774H35.2194V12.5643C35.2194 11.8524 35.0175 11.2946 34.6138 10.8908C34.2206 10.4764 33.6788 10.2693 32.9881 10.2693C32.51 10.2693 32.085 10.3755 31.7131 10.588C31.3412 10.8005 31.0331 11.1033 30.7888 11.4964V17.3774H29.6094Z" fill="white"/>
<path d="M20.208 20.6286V9.39264H21.3714V10.2533C22.0621 9.59451 22.9227 9.26514 23.9533 9.26514C24.7077 9.26514 25.3877 9.45107 25.9933 9.82295C26.5989 10.1842 27.0771 10.6729 27.4277 11.2892C27.7889 11.9054 27.9696 12.6014 27.9696 13.377C27.9696 14.1526 27.7889 14.8539 27.4277 15.4808C27.0771 16.097 26.5989 16.5911 25.9933 16.9629C25.3877 17.3242 24.7024 17.5048 23.9374 17.5048C23.4699 17.5048 23.0183 17.4251 22.5827 17.2658C22.1471 17.1064 21.7486 16.8779 21.3874 16.5804V20.6286H20.208ZM23.8418 16.4689C24.4049 16.4689 24.9096 16.3361 25.3558 16.0704C25.8021 15.7942 26.1527 15.4276 26.4077 14.9708C26.6733 14.5033 26.8061 13.9773 26.8061 13.3929C26.8061 12.8086 26.6733 12.2826 26.4077 11.8151C26.1527 11.3476 25.8021 10.9811 25.3558 10.7154C24.9096 10.4392 24.4049 10.3011 23.8418 10.3011C23.3424 10.3011 22.8749 10.402 22.4393 10.6039C22.0143 10.7951 21.6636 11.0661 21.3874 11.4167V15.3692C21.6636 15.7092 22.0196 15.9801 22.4552 16.182C22.8908 16.3733 23.353 16.4689 23.8418 16.4689Z" fill="white"/>
<path d="M12.4192 20.7879C12.2705 20.7879 12.127 20.7773 11.9889 20.756C11.8614 20.7454 11.7552 20.7295 11.6702 20.7082V19.6404C11.8508 19.6829 12.0739 19.7041 12.3395 19.7041C13.0408 19.7041 13.572 19.2898 13.9333 18.461L14.4114 17.3613L11.1602 9.39258H12.467L15.0489 15.9429L17.838 9.39258H19.113L15.1286 18.6204C14.9055 19.1304 14.6664 19.5448 14.4114 19.8635C14.1564 20.1823 13.8642 20.416 13.5348 20.5648C13.2161 20.7135 12.8442 20.7879 12.4192 20.7879Z" fill="white"/>
<path d="M2 17.3774V16.5009L9.09219 7.30494H2.06375V6.22119H10.7019V7.09775L3.57781 16.2937H10.8294V17.3774H2Z" fill="white"/>
</svg>
