<svg width="24" height="24" viewBox="0 0 24 24" fill="none" xmlns="http://www.w3.org/2000/svg">
<path d="M11.7648 13.5237C12.1156 13.5237 12.4572 13.6112 12.7611 13.7735C12.8217 13.8058 12.881 13.8408 12.9384 13.8791C13.0535 13.9558 13.1614 14.0443 13.2607 14.1435C13.6575 14.5403 13.8805 15.0783 13.8805 15.6394V15.8745C13.8805 15.8745 13.8805 20.1059 8.23866 20.1059C2.5968 20.1059 2.5968 15.8745 2.5968 15.8745V15.6394C2.5968 15.0783 2.81986 14.5403 3.21664 14.1435C3.31589 14.0443 3.42386 13.9558 3.53895 13.8791C3.5963 13.8408 3.65559 13.8058 3.71617 13.7735C4.02008 13.6112 4.3617 13.5237 4.7125 13.5237H11.7648ZM19.3341 13.5237C19.8828 13.5237 20.409 13.7418 20.7969 14.1298C21.1849 14.5177 21.403 15.0439 21.403 15.5926C21.4029 15.6199 21.3821 18.6954 16.7015 18.6954C15.9755 18.6954 15.3621 18.6194 14.8429 18.4943C15.1667 17.9037 15.3466 17.3427 15.4443 16.9029C15.5055 16.6277 15.5378 16.3925 15.5545 16.217C15.5629 16.1291 15.5676 16.0551 15.5701 15.9975C15.5714 15.9688 15.5725 15.9436 15.5729 15.9231V15.6394C15.5729 14.8809 15.347 14.1454 14.9319 13.5237H19.3341ZM8.23866 4.12061C9.2362 4.12061 10.1926 4.51716 10.898 5.22253C11.6033 5.9279 11.9999 6.8843 11.9999 7.88185C11.9999 8.87939 11.6033 9.83579 10.898 10.5412C10.1926 11.2465 9.2362 11.6431 8.23866 11.6431C7.24112 11.6431 6.28472 11.2465 5.57935 10.5412C4.87398 9.83579 4.47742 8.87939 4.47742 7.88185C4.47742 6.8843 4.87398 5.9279 5.57935 5.22253C6.28472 4.51716 7.24112 4.12061 8.23866 4.12061ZM16.7015 6.00123C17.4496 6.00123 18.1669 6.29864 18.6959 6.82767C19.225 7.3567 19.5224 8.074 19.5224 8.82216C19.5224 9.57031 19.225 10.2876 18.6959 10.8166C18.1669 11.3457 17.4496 11.6431 16.7015 11.6431C15.9533 11.6431 15.236 11.3457 14.707 10.8166C14.1779 10.2876 13.8805 9.57031 13.8805 8.82216C13.8805 8.074 14.1779 7.3567 14.707 6.82767C15.236 6.29864 15.9533 6.00123 16.7015 6.00123Z" fill="currentColor"/>
</svg>
