<svg viewBox="0 0 24 24" fill="none" xmlns="http://www.w3.org/2000/svg">
<path d="M12.0002 6.06C14.3214 6.06 16.4077 6.86125 17.8127 8.3025C18.9684 8.45428 20.0586 8.92622 20.9602 9.665C19.3839 6.3525 16.1189 4.5 12.0002 4.5C7.93768 4.5 4.65018 6.35 3.05518 9.6525C3.88172 8.97939 4.86668 8.52887 5.91643 8.34375C7.29518 6.84 9.46768 6.06 12.0002 6.06Z" fill="currentColor"/>
<path d="M16.9998 19.5C15.6995 19.4999 14.4503 18.9933 13.5173 18.0875L13.5148 18.085C13.4071 18.004 13.2915 17.934 13.1698 17.8763C12.803 17.7076 12.4035 17.6219 11.9998 17.625C11.4823 17.625 11.0886 17.7538 10.8311 17.8763C10.7089 17.934 10.5929 18.0039 10.4848 18.085L10.4823 18.0875C9.89458 18.6581 9.17567 19.0755 8.38879 19.3031C7.6019 19.5307 6.77116 19.5615 5.96959 19.3928C5.16802 19.224 4.42018 18.861 3.79183 18.3355C3.16347 17.81 2.67386 17.1381 2.36602 16.379C2.05818 15.6199 1.94156 14.7968 2.02641 13.9821C2.11125 13.1674 2.39496 12.386 2.8526 11.7066C3.31024 11.0272 3.92778 10.4707 4.65092 10.0859C5.37407 9.70115 6.18067 9.49995 6.99981 9.5H16.9998C18.3259 9.5 19.5977 10.0268 20.5353 10.9645C21.473 11.9021 21.9998 13.1739 21.9998 14.5C21.9998 15.8261 21.473 17.0979 20.5353 18.0355C19.5977 18.9732 18.3259 19.5 16.9998 19.5Z" fill="currentColor"/>
</svg>
