<svg viewBox="0 0 24 24" fill="none" xmlns="http://www.w3.org/2000/svg">
<path d="M19.0015 3.26758C20.242 3.26758 21.2474 4.27315 21.2476 5.51367V15.0234C21.2475 16.1882 20.3612 17.1461 19.2261 17.2588V20.1768C19.2256 21.2415 17.8814 21.7077 17.2212 20.8721L13.6655 17.2695H4.99951C3.75937 17.269 2.7525 16.2637 2.75244 15.0234V5.51367C2.75257 4.27348 3.75941 3.26811 4.99951 3.26758H19.0015ZM11.0298 6.17969C10.7938 6.17997 10.6102 6.25958 10.5562 6.46777L8.92139 12.4619L7.2749 6.46875C7.21854 6.2591 7.03747 6.18164 6.80127 6.18164C6.42525 6.18231 5.9204 6.42396 5.91943 6.77734C5.91943 6.80013 5.92889 6.84499 5.93994 6.88867L8.01709 13.8438C8.12527 14.1746 8.51191 14.3298 8.92139 14.3301C9.33127 14.33 9.72855 14.1768 9.82373 13.8438L11.8901 6.88867C11.9025 6.84665 11.9094 6.8092 11.9106 6.77734C11.9096 6.43504 11.4078 6.17987 11.0298 6.17969ZM13.2104 6.17969C13.1529 6.17784 13.0943 6.18798 13.0405 6.20898C12.9866 6.23024 12.9358 6.2627 12.894 6.30371C12.8523 6.34481 12.8185 6.39473 12.7954 6.44922C12.7724 6.50358 12.7601 6.56281 12.7593 6.62207V13.8105C12.7593 14.1091 13.1028 14.2643 13.4565 14.2646C13.8107 14.2646 14.1577 14.1094 14.1577 13.8105V10.9258H15.0601L16.5884 13.9775C16.6963 14.1973 16.8794 14.3198 17.0728 14.3203C17.481 14.3203 17.9429 13.9314 17.9429 13.5674C17.9433 13.5049 17.9254 13.4432 17.8911 13.3916L16.4819 10.7012C17.289 10.4483 17.8931 9.76235 17.8931 8.49219C17.8927 6.73426 16.7521 6.17978 15.3433 6.17969H13.2104ZM15.3423 7.44043C16.0411 7.44043 16.4944 7.7519 16.4946 8.625C16.4946 9.49848 16.0431 9.79688 15.3423 9.79688L15.3442 9.79492H14.1587V7.44043H15.3423Z" fill="currentColor"/>
</svg>
