<svg viewBox="0 0 24 24" fill="none" xmlns="http://www.w3.org/2000/svg">
<path d="M7.15002 16.85H9.09002V10.06H7.15002V16.85ZM11.03 16.85H12.97V7.15002H11.03V16.85ZM14.91 16.85H16.85V12.97H14.91V16.85ZM16.85 9.09002V7.15002H14.91V5.21002H16.85V3.27002H18.79V5.21002H20.73V7.15002H18.79V9.09002H16.85ZM5.21002 20.73C4.67652 20.73 4.21997 20.5402 3.84038 20.1606C3.46079 19.781 3.27067 19.3242 3.27002 18.79V5.21002C3.27002 4.67652 3.46014 4.21997 3.84038 3.84038C4.22062 3.46079 4.67717 3.27067 5.21002 3.27002H13.94V8.12002C13.94 8.65352 14.1301 9.11039 14.5104 9.49063C14.8906 9.87087 15.3472 10.0607 15.88 10.06H20.73V18.79C20.73 19.3235 20.5402 19.7804 20.1606 20.1606C19.781 20.5409 19.3242 20.7307 18.79 20.73H5.21002Z" fill="currentColor"/>
</svg>
