<svg viewBox="0 0 24 24" fill="none" xmlns="http://www.w3.org/2000/svg">
<path d="M18.265 19C18.6151 19.0002 18.9592 18.9086 19.2628 18.7341C19.5664 18.5597 19.8189 18.3086 19.995 18.006C19.98 18.772 19.925 19.247 19.727 19.635C19.4874 20.1051 19.1051 20.4874 18.635 20.727C18.1 21 17.4 21 16 21H10.4C8.16 21 7.04 21 6.184 20.564C5.43139 20.1805 4.81949 19.5686 4.436 18.816C4 17.96 4 16.84 4 14.6V9.4C4 7.16 4 6.04 4.436 5.184C4.81949 4.43139 5.43139 3.81949 6.184 3.436C7.04 3 8.16 3 10.4 3H11.003L11 8.556C10.9999 8.63012 11.0204 8.7028 11.0592 8.76595C11.098 8.82909 11.1536 8.88021 11.2198 8.91361C11.2859 8.947 11.3601 8.96136 11.4339 8.95507C11.5078 8.94878 11.5784 8.9221 11.638 8.878L13.262 7.676C13.3309 7.62501 13.4143 7.59749 13.5 7.59749C13.5857 7.59749 13.6691 7.62501 13.738 7.676L15.362 8.878C15.4216 8.9221 15.4922 8.94878 15.5661 8.95507C15.6399 8.96136 15.7141 8.947 15.7802 8.91361C15.8464 8.88021 15.902 8.82909 15.9408 8.76595C15.9796 8.7028 16.0001 8.63012 16 8.556V3C17.4 3 18.1 3 18.635 3.272C19.1053 3.5119 19.4875 3.89451 19.727 4.365C20 4.9 20 5.6 20 7V15C20 15.5304 19.7893 16.0391 19.4142 16.4142C19.0391 16.7893 18.5304 17 18 17H7C6.73478 17 6.48043 17.1054 6.29289 17.2929C6.10536 17.4804 6 17.7348 6 18C6 18.2652 6.10536 18.5196 6.29289 18.7071C6.48043 18.8946 6.73478 19 7 19H18.265Z" fill="currentColor"/>
</svg>
