<svg width="74" height="24" viewBox="0 0 74 24" fill="none" xmlns="http://www.w3.org/2000/svg">
<path d="M63.5342 17.3774V6.22119H68.9848C69.7392 6.22119 70.4032 6.36994 70.977 6.66744C71.5614 6.95432 72.0182 7.35807 72.3476 7.87869C72.677 8.39932 72.8417 8.99963 72.8417 9.67963C72.8417 10.3915 72.6398 11.0184 72.2361 11.5603C71.8429 12.1021 71.3223 12.5059 70.6742 12.7715L73.1286 17.3774H70.5467L68.3632 13.1062H65.8611V17.3774H63.5342ZM65.8611 11.2096H68.7776C69.2982 11.2096 69.7126 11.0715 70.0207 10.7953C70.3395 10.519 70.4989 10.1578 70.4989 9.7115C70.4989 9.26525 70.3395 8.904 70.0207 8.62775C69.7126 8.3515 69.2982 8.21338 68.7776 8.21338H65.8611V11.2096Z" fill="white"/>
<path d="M55.3207 17.3774L50.7944 6.22119H53.2966L56.7072 15.0028L60.1976 6.22119H62.5882L57.9982 17.3774H55.3207Z" fill="white"/>
<path d="M46.3516 17.3773V9.3926H47.5309V10.5242C47.7753 10.1098 48.0834 9.79104 48.4553 9.56791C48.8378 9.33416 49.2734 9.21729 49.7622 9.21729C50.0384 9.21729 50.2881 9.25447 50.5113 9.32885V10.4126C50.3731 10.3595 50.235 10.3223 50.0969 10.301C49.9588 10.2798 49.8206 10.2692 49.6825 10.2692C49.1938 10.2692 48.7634 10.4126 48.3916 10.6995C48.0303 10.9757 47.7434 11.3795 47.5309 11.9107V17.3773H46.3516Z" fill="white"/>
<path d="M41.1016 17.5208C40.3366 17.5208 39.6407 17.3401 39.0138 16.9789C38.3976 16.607 37.9035 16.1076 37.5316 15.4808C37.1704 14.8539 36.9897 14.1526 36.9897 13.377C36.9897 12.612 37.1651 11.9214 37.5157 11.3051C37.8663 10.6783 38.3391 10.1842 38.9341 9.82295C39.5291 9.45107 40.1932 9.26514 40.9263 9.26514C41.6382 9.26514 42.2757 9.45107 42.8388 9.82295C43.4126 10.1842 43.8641 10.6783 44.1935 11.3051C44.5335 11.9214 44.7035 12.612 44.7035 13.377V13.7436H38.1532C38.2169 14.2642 38.3816 14.7317 38.6472 15.1461C38.9235 15.5604 39.2794 15.8898 39.7151 16.1342C40.1507 16.3679 40.6288 16.4848 41.1494 16.4848C41.5638 16.4848 41.9676 16.4211 42.3607 16.2936C42.7538 16.1661 43.0832 15.9854 43.3488 15.7517L44.0819 16.5326C43.6357 16.862 43.1682 17.1117 42.6794 17.2817C42.2013 17.4411 41.6754 17.5208 41.1016 17.5208ZM38.1851 12.8033H43.5241C43.4604 12.3251 43.301 11.9001 43.046 11.5283C42.8016 11.1458 42.4935 10.8483 42.1216 10.6358C41.7497 10.4126 41.3407 10.3011 40.8944 10.3011C40.4376 10.3011 40.0179 10.4073 39.6354 10.6198C39.2529 10.8323 38.9341 11.1298 38.6791 11.5123C38.4241 11.8842 38.2594 12.3145 38.1851 12.8033Z" fill="white"/>
<path d="M28.6094 17.3774V6.22113L29.7888 5.9502V10.333C30.4156 9.59988 31.255 9.23332 32.3069 9.23332C32.9125 9.23332 33.4438 9.36613 33.9006 9.63176C34.3681 9.88676 34.7294 10.248 34.9844 10.7155C35.25 11.1724 35.3828 11.7089 35.3828 12.3252V17.3774H34.2194V12.5643C34.2194 11.8524 34.0175 11.2946 33.6138 10.8908C33.2206 10.4764 32.6788 10.2693 31.9881 10.2693C31.51 10.2693 31.085 10.3755 30.7131 10.588C30.3412 10.8005 30.0331 11.1033 29.7888 11.4964V17.3774H28.6094Z" fill="white"/>
<path d="M19.208 20.6286V9.39264H20.3714V10.2533C21.0621 9.59451 21.9227 9.26514 22.9533 9.26514C23.7077 9.26514 24.3877 9.45107 24.9933 9.82295C25.5989 10.1842 26.0771 10.6729 26.4277 11.2892C26.7889 11.9054 26.9696 12.6014 26.9696 13.377C26.9696 14.1526 26.7889 14.8539 26.4277 15.4808C26.0771 16.097 25.5989 16.5911 24.9933 16.9629C24.3877 17.3242 23.7024 17.5048 22.9374 17.5048C22.4699 17.5048 22.0183 17.4251 21.5827 17.2658C21.1471 17.1064 20.7486 16.8779 20.3874 16.5804V20.6286H19.208ZM22.8418 16.4689C23.4049 16.4689 23.9096 16.3361 24.3558 16.0704C24.8021 15.7942 25.1527 15.4276 25.4077 14.9708C25.6733 14.5033 25.8061 13.9773 25.8061 13.3929C25.8061 12.8086 25.6733 12.2826 25.4077 11.8151C25.1527 11.3476 24.8021 10.9811 24.3558 10.7154C23.9096 10.4392 23.4049 10.3011 22.8418 10.3011C22.3424 10.3011 21.8749 10.402 21.4393 10.6039C21.0143 10.7951 20.6636 11.0661 20.3874 11.4167V15.3692C20.6636 15.7092 21.0196 15.9801 21.4552 16.182C21.8908 16.3733 22.353 16.4689 22.8418 16.4689Z" fill="white"/>
<path d="M11.4192 20.7879C11.2705 20.7879 11.127 20.7773 10.9889 20.756C10.8614 20.7454 10.7552 20.7295 10.6702 20.7082V19.6404C10.8508 19.6829 11.0739 19.7041 11.3395 19.7041C12.0408 19.7041 12.572 19.2898 12.9333 18.461L13.4114 17.3613L10.1602 9.39258H11.467L14.0489 15.9429L16.838 9.39258H18.113L14.1286 18.6204C13.9055 19.1304 13.6664 19.5448 13.4114 19.8635C13.1564 20.1823 12.8642 20.416 12.5348 20.5648C12.2161 20.7135 11.8442 20.7879 11.4192 20.7879Z" fill="white"/>
<path d="M1 17.3774V16.5009L8.09219 7.30494H1.06375V6.22119H9.70188V7.09775L2.57781 16.2937H9.82938V17.3774H1Z" fill="white"/>
</svg>
