<svg width="256" height="220" viewBox="0 0 256 220" fill="none" xmlns="http://www.w3.org/2000/svg">
<path opacity="1" d="M47.9844 20C49.9527 35.7468 60.2525 55.7973 73.2578 69.6016C78.9196 75.6111 85.042 80.3772 91.1445 83.1016C89.6575 81.4151 88.4114 79.6849 87.4375 77.918C84.089 71.8427 83.9284 65.3914 87.832 59.3594C91.6783 53.4163 96.8237 50.774 102.031 50.5312C107.196 50.2909 112.312 52.4132 116.172 55.7812C120.028 59.1472 122.725 63.8414 122.922 68.8477C123.12 73.9049 120.758 79.0996 114.848 83.375C109.827 87.0064 104.36 88.1469 98.8086 87.4141C101.153 89.1867 103.812 90.8903 106.766 92.4883C123.646 101.622 149.705 107.243 178.891 104.238L179.094 106.227C149.57 109.266 123.102 103.599 105.816 94.2461C101.449 91.8829 97.6446 89.2741 94.5234 86.4922C94.0791 86.3603 93.6354 86.2159 93.1914 86.0625C85.7893 83.5042 78.4216 78.0001 71.8008 70.9727C58.5701 56.9289 48.0319 36.5028 46 20.25L47.9844 20ZM102.125 52.5273C97.602 52.7379 93.0259 55.0092 89.5078 60.4453C86.0479 65.7925 86.1551 71.4514 89.1875 76.9531C90.6426 79.5932 92.7802 82.1934 95.5234 84.6914C101.884 86.4734 108.081 85.8045 113.676 81.7578C119.13 77.8127 121.094 73.2155 120.926 68.9258C120.755 64.5863 118.396 60.3746 114.855 57.2852C111.317 54.1975 106.691 52.3148 102.125 52.5273Z" fill="url(#paint0_linear_900_713)"/>
<path d="M108.179 156.861C108.389 156.901 108.56 157.063 108.615 157.273C108.669 157.483 108.596 157.7 108.428 157.823C106.832 159.003 105.415 159.722 104.27 160.135C103.21 160.518 102.356 160.648 101.801 160.615L101.694 160.607C99.5386 160.383 98.207 159.39 97.5075 158.231C97.0326 157.444 96.8545 156.576 96.9181 155.872C95.9383 155.477 94.9688 155.692 94.6105 155.853C94.3494 155.971 94.0334 155.847 93.9051 155.576C93.7769 155.305 93.8849 154.99 94.1459 154.872C94.6746 154.634 95.9317 154.352 97.2372 154.868C97.9217 153.616 98.8626 153.09 99.8768 153.102C100.893 153.113 101.856 153.663 102.539 154.236C103.378 154.94 104.493 155.543 105.564 156.001C106.634 156.459 107.62 156.755 108.179 156.861Z" fill="currentColor"/>
<path d="M121.512 131.409C121.728 131.36 121.959 131.443 122.099 131.62C122.238 131.797 122.259 132.034 122.151 132.221C121.123 134.01 120.074 135.285 119.156 136.156C118.307 136.962 117.547 137.442 117.006 137.643L116.9 137.679C114.755 138.365 113.074 137.975 111.924 137.163C111.144 136.612 110.613 135.86 110.38 135.164C109.282 135.196 108.449 135.805 108.175 136.108C107.975 136.328 107.623 136.342 107.388 136.138C107.153 135.934 107.124 135.589 107.324 135.368C107.728 134.92 108.807 134.128 110.265 134.075C110.394 132.597 111.071 131.705 112.041 131.292C113.013 130.879 114.16 131.002 115.049 131.262C116.141 131.582 117.454 131.692 118.664 131.681C119.874 131.671 120.935 131.541 121.512 131.409Z" fill="currentColor"/>
<path d="M86.7134 125.121C86.8279 125.101 86.9468 125.15 87.0152 125.246C87.0836 125.343 87.0883 125.467 87.0271 125.563C86.4429 126.473 85.8604 127.114 85.3576 127.546C84.8919 127.947 84.4819 128.178 84.193 128.27L84.1368 128.286C82.9959 128.59 82.1253 128.342 81.5444 127.888C81.15 127.579 80.891 127.171 80.7869 126.801C80.2113 126.789 79.7592 127.087 79.6081 127.238C79.4979 127.349 79.3129 127.347 79.195 127.234C79.0773 127.121 79.0712 126.939 79.1813 126.829C79.4044 126.605 79.99 126.218 80.7548 126.227C80.8607 125.457 81.2379 125.007 81.7566 124.816C82.2761 124.625 82.8736 124.718 83.3324 124.878C83.8962 125.074 84.5808 125.165 85.2149 125.19C85.8487 125.216 86.408 125.175 86.7134 125.121Z" fill="currentColor"/>
<path d="M71.4039 146.613C71.2877 146.609 71.1821 146.535 71.1357 146.427C71.0895 146.318 71.1115 146.195 71.1916 146.115C71.9564 145.35 72.6621 144.848 73.2454 144.533C73.7857 144.241 74.2357 144.102 74.5374 144.074L74.5958 144.07C75.7752 144.017 76.5731 144.444 77.0438 145.012C77.3634 145.398 77.5295 145.851 77.5522 146.235C78.1122 146.369 78.6172 146.175 78.7972 146.059C78.9285 145.975 79.1088 146.016 79.1998 146.151C79.2908 146.287 79.2581 146.465 79.1269 146.55C78.8613 146.721 78.2067 146.975 77.4614 146.802C77.1938 147.532 76.7293 147.892 76.1818 147.968C75.6335 148.044 75.0697 147.825 74.6554 147.572C74.1463 147.26 73.4969 147.025 72.8827 146.865C72.269 146.705 71.7139 146.625 71.4039 146.613Z" fill="currentColor"/>
<path d="M143.663 142.314C143.499 142.282 143.328 142.35 143.228 142.486C143.128 142.623 143.119 142.801 143.204 142.939C144.022 144.257 144.843 145.188 145.553 145.819C146.212 146.403 146.794 146.745 147.206 146.882L147.286 146.907C148.913 147.368 150.164 147.034 151.005 146.396C151.576 145.963 151.956 145.385 152.112 144.856C152.936 144.853 153.578 145.289 153.791 145.51C153.946 145.671 154.211 145.672 154.382 145.513C154.553 145.354 154.566 145.094 154.41 144.933C154.095 144.608 153.265 144.039 152.17 144.035C152.034 142.93 151.504 142.276 150.765 141.99C150.025 141.705 149.168 141.825 148.508 142.043C147.697 142.31 146.715 142.425 145.806 142.447C144.899 142.469 144.099 142.399 143.663 142.314Z" fill="currentColor"/>
<path d="M179.377 153.933C179.266 153.941 179.167 154.013 179.126 154.118C179.085 154.223 179.11 154.339 179.188 154.414C179.939 155.122 180.626 155.582 181.19 155.867C181.714 156.131 182.146 156.252 182.435 156.27L182.49 156.272C183.616 156.292 184.364 155.864 184.797 155.31C185.091 154.934 185.236 154.497 185.247 154.13C185.777 153.988 186.264 154.16 186.439 154.265C186.566 154.342 186.737 154.298 186.82 154.166C186.903 154.035 186.866 153.866 186.739 153.789C186.481 153.633 185.85 153.408 185.145 153.592C184.869 152.904 184.416 152.573 183.892 152.515C183.367 152.458 182.836 152.681 182.448 152.933C181.972 153.244 181.36 153.485 180.779 153.654C180.198 153.823 179.672 153.913 179.377 153.933Z" fill="currentColor"/>
<path d="M231.47 128.774C231.309 128.818 231.186 128.955 231.157 129.122C231.127 129.288 231.198 129.452 231.336 129.538C232.653 130.357 233.801 130.829 234.718 131.079C235.567 131.311 236.24 131.36 236.67 131.301L236.753 131.287C238.416 130.98 239.39 130.126 239.861 129.181C240.181 128.54 240.265 127.854 240.171 127.31C240.909 126.942 241.677 127.05 241.966 127.153C242.176 127.228 242.415 127.112 242.497 126.894C242.58 126.675 242.476 126.437 242.266 126.361C241.839 126.209 240.843 126.067 239.86 126.549C239.248 125.618 238.483 125.267 237.694 125.338C236.904 125.409 236.189 125.897 235.693 126.385C235.085 126.984 234.255 127.522 233.451 127.944C232.647 128.366 231.898 128.657 231.47 128.774Z" fill="currentColor"/>
<path d="M152.746 70.9258C155.071 69.7971 157.917 69.7394 160.184 71.5664C162.257 73.2382 162.992 75.8142 162.992 78.1523V105.051C161.649 105.05 160.315 105.03 158.992 104.993V78.1523C158.992 74.9414 156.977 73.3165 154.492 74.5234L103.492 99.3008L103.031 99.5547C100.763 100.955 98.9926 104.291 98.9922 107.301V138.098L99.0156 138.68C99.2304 141.312 100.913 142.669 103.031 141.918L103.492 141.727L140.992 123.508L152.992 131.246V117.68L154.492 116.949C156.822 115.817 158.738 112.598 158.969 109.555L158.992 108.949V106.993C160.316 107.029 161.649 107.048 162.992 107.049V108.949C162.992 111.342 162.257 113.709 161.16 115.66C160.209 117.351 158.81 119.03 156.992 120.133V138.586L140.711 128.086L105.242 145.324C102.918 146.453 100.068 146.511 97.8008 144.684C95.7273 143.012 94.9922 140.436 94.9922 138.098V107.301C94.9924 104.908 95.7269 102.541 96.8242 100.59C97.9029 98.6723 99.5567 96.7666 101.746 95.7031L152.746 70.9258Z" fill="currentColor"/>
<defs>
<linearGradient id="paint0_linear_900_713" x1="46.9922" y1="22.125" x2="90.9922" y2="54.125" gradientUnits="userSpaceOnUse">
<stop stop-color="white" stop-opacity="0"/>
<stop offset="1" stop-color="white"/>
</linearGradient>
</defs>
</svg>
