<svg width="16" height="16" viewBox="0 0 16 16" fill="none" xmlns="http://www.w3.org/2000/svg">
<path d="M11.5569 13.3668C10.8667 14.0177 10.1131 13.9149 9.38773 13.6066C8.62005 13.2915 7.91575 13.2778 7.10581 13.6066C6.09163 14.0314 5.55637 13.9081 4.95068 13.3668C1.51373 9.92078 2.02082 4.67292 5.9226 4.4811C6.8734 4.52905 7.53543 4.98807 8.09183 5.02917C8.92289 4.86475 9.71874 4.39203 10.6062 4.45369C11.6696 4.5359 12.4725 4.94696 13.0008 5.68687C10.8034 6.968 11.3245 9.78376 13.3388 10.5716C12.9374 11.5993 12.4162 12.6201 11.5499 13.3737L11.5569 13.3668ZM8.0214 4.43999C7.91575 2.91222 9.19052 1.65164 10.6555 1.52832C10.8597 3.29587 9.00741 4.61126 8.0214 4.43999Z" fill="currentColor"/>
</svg>
