<svg width="16" height="16" viewBox="0 0 16 16" fill="none" xmlns="http://www.w3.org/2000/svg">
<path d="M0.669434 11.9984C0.769394 10.81 1.13325 9.71597 1.761 8.71637C2.38875 7.71677 3.22441 6.92264 4.26799 6.33399L3.03515 4.20151C2.96851 4.10155 2.95185 3.99604 2.98517 3.88497C3.01849 3.7739 3.09069 3.6906 3.20175 3.63507C3.29061 3.57954 3.39057 3.56843 3.50163 3.60175C3.6127 3.63507 3.70155 3.70171 3.76819 3.80167L5.00103 5.93415C5.95621 5.53431 6.95581 5.33439 7.99983 5.33439C9.04386 5.33439 10.0435 5.53431 10.9986 5.93415L12.2315 3.80167C12.2981 3.70171 12.387 3.63507 12.498 3.60175C12.6091 3.56843 12.7091 3.57954 12.7979 3.63507C12.909 3.6906 12.9812 3.7739 13.0145 3.88497C13.0478 3.99604 13.0312 4.10155 12.9645 4.20151L11.7317 6.33399C12.7757 6.92264 13.6114 7.71677 14.2387 8.71637C14.866 9.71597 15.2298 10.81 15.3302 11.9984H0.669434ZM4.66783 10.1658C4.90107 10.1658 5.09833 10.0852 5.2596 9.92389C5.42087 9.76262 5.50128 9.56559 5.50083 9.33279C5.50039 9.09999 5.41976 8.90274 5.25893 8.74103C5.09811 8.57931 4.90107 8.4989 4.66783 8.49979C4.43459 8.50068 4.23734 8.58131 4.07607 8.74169C3.9148 8.90207 3.83439 9.09911 3.83483 9.33279C3.83528 9.56647 3.91591 9.76373 4.07674 9.92455C4.23756 10.0854 4.43459 10.1658 4.66783 10.1658ZM11.3318 10.1658C11.5651 10.1658 11.7623 10.0852 11.9236 9.92389C12.0849 9.76262 12.1653 9.56559 12.1648 9.33279C12.1644 9.09999 12.0838 8.90274 11.9229 8.74103C11.7621 8.57931 11.5651 8.4989 11.3318 8.49979C11.0986 8.50068 10.9013 8.58131 10.7401 8.74169C10.5788 8.90207 10.4984 9.09911 10.4988 9.33279C10.4993 9.56647 10.5799 9.76373 10.7407 9.92455C10.9016 10.0854 11.0986 10.1658 11.3318 10.1658Z" fill="currentColor"/>
</svg>
