<svg width="18" height="18" viewBox="0 0 18 18" fill="none" xmlns="http://www.w3.org/2000/svg">
<rect width="18" height="18" rx="3.38" fill="#1D3452"/>
<path d="M8.99984 3.16699C9.76588 3.16699 10.5244 3.31788 11.2322 3.61103C11.9399 3.90418 12.583 4.33386 13.1246 4.87554C13.6663 5.41721 14.096 6.06027 14.3891 6.76801C14.6823 7.47574 14.8332 8.23428 14.8332 9.00033C14.8332 10.5474 14.2186 12.0312 13.1246 13.1251C12.0307 14.2191 10.5469 14.8337 8.99984 14.8337C6.3165 14.8337 4.07067 13.037 3.3765 10.5928L5.61067 11.5145C5.68722 11.8882 5.89037 12.224 6.18582 12.4652C6.48127 12.7065 6.85091 12.8384 7.23234 12.8387C8.14234 12.8387 8.88317 12.0978 8.88317 11.1878V11.112L10.8665 9.69449H10.9132C12.1265 9.69449 13.1123 8.70866 13.1123 7.49533C13.1123 6.28199 12.1265 5.29616 10.9132 5.29616C9.69984 5.29616 8.70817 6.28199 8.70817 7.49533V7.52449L7.32567 9.54283L7.23234 9.53699C6.88817 9.53699 6.56734 9.64199 6.30484 9.82283L3.1665 8.53366C3.41734 5.52949 5.92567 3.16699 8.99984 3.16699ZM6.82984 12.0162C7.2965 12.2087 7.83317 11.9928 8.02567 11.5262C8.21817 11.0595 7.9965 10.5287 7.5415 10.3362L6.79484 10.027C7.08067 9.92199 7.4015 9.91616 7.70484 10.0445C8.014 10.167 8.25317 10.4062 8.37567 10.7153C8.504 11.0187 8.504 11.357 8.37567 11.6603C8.12484 12.2903 7.384 12.5937 6.754 12.3312C6.46234 12.2087 6.24067 11.987 6.11817 11.7245L6.82984 12.0162ZM12.3832 7.49533C12.3832 8.30616 11.724 8.96533 10.9132 8.96533C10.5243 8.96378 10.1519 8.80823 9.87749 8.53272C9.60307 8.2572 9.449 7.88419 9.449 7.49533C9.44823 7.30283 9.48558 7.11209 9.55889 6.9341C9.63219 6.75611 9.74001 6.5944 9.87613 6.45828C10.0122 6.32217 10.174 6.21435 10.3519 6.14104C10.5299 6.06773 10.7207 6.03039 10.9132 6.03116C11.302 6.03116 11.675 6.18523 11.9506 6.45965C12.2261 6.73407 12.3816 7.10647 12.3832 7.49533ZM9.8165 7.49533C9.8165 8.10199 10.3065 8.59783 10.919 8.59783C11.5257 8.59783 12.0157 8.10199 12.0157 7.49533C12.0157 6.88866 11.5257 6.39283 10.919 6.39283C10.3065 6.39283 9.8165 6.88866 9.8165 7.49533Z" fill="white"/>
</svg>
