<svg width="18" height="18" viewBox="0 0 18 18" fill="none" xmlns="http://www.w3.org/2000/svg">
<rect width="18" height="18" rx="3.38" fill="#00B3EF"/>
<path d="M12.7025 3.69838C12.7716 3.76744 12.8264 3.84944 12.8638 3.93969C12.9012 4.02994 12.9204 4.12667 12.9204 4.22436C12.9204 4.32204 12.9012 4.41877 12.8638 4.50902C12.8264 4.59927 12.7716 4.68127 12.7025 4.75034L12.0224 5.42983H12.7186C13.0116 5.42983 13.3018 5.48756 13.5726 5.59973C13.8433 5.7119 14.0893 5.8763 14.2965 6.08356C14.5037 6.29081 14.668 6.53685 14.7801 6.80763C14.8922 7.0784 14.9499 7.36861 14.9498 7.66167V12.1242C14.9498 12.7159 14.7147 13.2835 14.2963 13.7019C13.8778 14.1203 13.3103 14.3554 12.7186 14.3554H5.28105C4.68929 14.3554 4.12176 14.1203 3.70332 13.7019C3.28488 13.2835 3.0498 12.7159 3.0498 12.1242V7.66167C3.0498 7.06991 3.28488 6.50238 3.70332 6.08394C4.12176 5.6655 4.68929 5.43042 5.28105 5.43042H5.97482L5.29593 4.75093C5.16041 4.6107 5.08539 4.42285 5.08703 4.22784C5.08867 4.03283 5.16684 3.84626 5.30469 3.70833C5.44255 3.57039 5.62907 3.49212 5.82408 3.49037C6.01909 3.48862 6.20698 3.56353 6.34729 3.69897L7.92524 5.27691C7.97244 5.32412 8.01171 5.37509 8.04305 5.42983H9.95478C9.98651 5.37429 10.026 5.32312 10.0732 5.27632L11.6505 3.69838C11.7196 3.62929 11.8016 3.57449 11.8918 3.5371C11.9821 3.49971 12.0788 3.48047 12.1765 3.48047C12.2742 3.48047 12.3709 3.49971 12.4612 3.5371C12.5514 3.57449 12.6334 3.62929 12.7025 3.69838ZM12.7186 6.92328H5.28105C5.09333 6.92321 4.91252 6.99413 4.77491 7.12181C4.6373 7.24949 4.55306 7.42449 4.53909 7.61169L4.5373 7.66762V12.1301C4.5373 12.5222 4.84075 12.8429 5.22572 12.8715L5.28105 12.8739H12.7186C12.9063 12.8739 13.0871 12.803 13.2247 12.6753C13.3623 12.5477 13.4466 12.3727 13.4605 12.1855L13.4623 12.1301V7.66762C13.4623 7.25707 13.1291 6.92387 12.7186 6.92387M6.76855 8.41137C7.1791 8.41137 7.5123 8.74457 7.5123 9.15512V9.89887C7.5123 10.0961 7.43395 10.2853 7.29447 10.4248C7.15499 10.5643 6.96581 10.6426 6.76855 10.6426C6.5713 10.6426 6.38212 10.5643 6.24264 10.4248C6.10316 10.2853 6.0248 10.0961 6.0248 9.89887V9.15512C6.0248 8.74457 6.358 8.41137 6.76855 8.41137ZM11.2311 8.41137C11.6416 8.41137 11.9748 8.74457 11.9748 9.15512V9.89887C11.9748 10.0961 11.8964 10.2853 11.757 10.4248C11.6175 10.5643 11.4283 10.6426 11.2311 10.6426C11.0338 10.6426 10.8446 10.5643 10.7051 10.4248C10.5657 10.2853 10.4873 10.0961 10.4873 9.89887V9.15512C10.4873 8.74457 10.8205 8.41137 11.2311 8.41137Z" fill="white"/>
</svg>
