<svg width="18" height="18" viewBox="0 0 18 18" fill="none" xmlns="http://www.w3.org/2000/svg">
<rect width="18" height="18" rx="3.38" fill="#5865F2"/>
<path d="M13.2407 5.10884C12.4649 4.74717 11.6249 4.48467 10.7499 4.33301C10.7345 4.33323 10.7198 4.33952 10.7091 4.35051C10.6041 4.54301 10.4816 4.79384 10.3999 4.98634C9.47182 4.84643 8.528 4.84643 7.59991 4.98634C7.51824 4.78801 7.39574 4.54301 7.28491 4.35051C7.27907 4.33884 7.26157 4.33301 7.24407 4.33301C6.36907 4.48467 5.53491 4.74717 4.75324 5.10884C4.74741 5.10884 4.74157 5.11467 4.73574 5.12051C3.14907 7.49467 2.71157 9.80467 2.92741 12.0913C2.92741 12.103 2.93324 12.1147 2.94491 12.1205C3.99491 12.8905 5.00407 13.3572 6.00157 13.6663C6.01907 13.6722 6.03657 13.6663 6.04241 13.6547C6.27574 13.3338 6.48574 12.9955 6.66657 12.6397C6.67824 12.6163 6.66657 12.593 6.64324 12.5872C6.31074 12.4588 5.99574 12.3072 5.68657 12.1322C5.66324 12.1205 5.66324 12.0855 5.68074 12.068C5.74491 12.0213 5.80907 11.9688 5.87324 11.9222C5.88491 11.9105 5.90241 11.9105 5.91407 11.9163C7.92074 12.8322 10.0849 12.8322 12.0682 11.9163C12.0799 11.9105 12.0974 11.9105 12.1091 11.9222C12.1732 11.9747 12.2374 12.0213 12.3016 12.0738C12.3249 12.0913 12.3249 12.1263 12.2957 12.138C11.9924 12.3188 11.6716 12.4647 11.3391 12.593C11.3157 12.5988 11.3099 12.628 11.3157 12.6455C11.5024 13.0013 11.7124 13.3397 11.9399 13.6605C11.9574 13.6663 11.9749 13.6722 11.9924 13.6663C12.9957 13.3572 14.0049 12.8905 15.0549 12.1205C15.0666 12.1147 15.0724 12.103 15.0724 12.0913C15.3291 9.44884 14.6466 7.15634 13.2641 5.12051C13.2582 5.11467 13.2524 5.10884 13.2407 5.10884ZM6.96991 10.6972C6.36907 10.6972 5.86741 10.143 5.86741 9.46051C5.86741 8.77801 6.35741 8.22384 6.96991 8.22384C7.58824 8.22384 8.07824 8.78384 8.07241 9.46051C8.07241 10.143 7.58241 10.6972 6.96991 10.6972ZM11.0357 10.6972C10.4349 10.6972 9.93324 10.143 9.93324 9.46051C9.93324 8.77801 10.4232 8.22384 11.0357 8.22384C11.6541 8.22384 12.1441 8.78384 12.1382 9.46051C12.1382 10.143 11.6541 10.6972 11.0357 10.6972Z" fill="white"/>
</svg>
