<svg width="18" height="18" viewBox="0 0 18 18" fill="none" xmlns="http://www.w3.org/2000/svg">
<rect width="18" height="18" rx="3.38" fill="black"/>
<path d="M10.8857 10.8023V6.93309C11.6337 7.46893 12.5501 7.78668 13.5351 7.78668V6.30381C12.9616 6.17921 12.4629 5.87391 12.0888 5.45023C11.4904 5.06394 11.0602 4.44089 10.9293 3.71191H9.53294V11.3443C9.50176 12.1979 8.79731 12.8833 7.93705 12.8833C7.40093 12.8833 6.92715 12.6216 6.64039 12.2166C6.12921 11.9487 5.78011 11.4129 5.78011 10.8023C5.78011 9.91752 6.49702 9.20102 7.38221 9.20102C7.54432 9.20102 7.70639 9.22594 7.85601 9.27576V7.78045C5.9609 7.82405 4.43359 9.38171 4.43359 11.282C4.43359 12.2041 4.78892 13.0452 5.37491 13.6683C5.94219 14.0671 6.64039 14.3038 7.38221 14.3038C9.30851 14.3101 10.8857 12.7337 10.8857 10.8023Z" fill="white"/>
<path d="M7.85016 7.78053V7.33196C7.69432 7.31324 7.53847 7.30078 7.37636 7.30078C5.44387 7.30078 3.8667 8.8709 3.8667 10.8086C3.8667 11.9924 4.45892 13.0454 5.36283 13.6809C4.77685 13.0516 4.42152 12.2167 4.42152 11.2946C4.42775 9.3818 5.95505 7.82417 7.85016 7.78053Z" fill="#00FAF0"/>
<path d="M7.93143 12.8819C8.79169 12.8819 9.49614 12.1966 9.52729 11.343V3.71059H10.9237C10.8925 3.55483 10.8801 3.39283 10.8801 3.22461H8.97248V10.857C8.94131 11.7106 8.23689 12.396 7.37659 12.396C7.10854 12.396 6.85295 12.3274 6.63477 12.209C6.92776 12.6203 7.40154 12.8819 7.93143 12.8819Z" fill="#00FAF0"/>
<path d="M13.5351 6.3028V5.87912C13.0053 5.87912 12.5065 5.72336 12.0889 5.44922C12.4629 5.8729 12.9678 6.17819 13.5351 6.3028Z" fill="#00FAF0"/>
<path d="M12.0959 5.45023C11.6907 4.98295 11.4413 4.37858 11.4413 3.71191H10.9302C11.0673 4.43466 11.4974 5.05771 12.0959 5.45023Z" fill="#FF0050"/>
<path d="M7.37604 9.19987C6.49083 9.19987 5.77393 9.91637 5.77393 10.8011C5.77393 11.4179 6.12302 11.9475 6.63421 12.2154C6.44719 11.9538 6.32874 11.6298 6.32874 11.2809C6.32874 10.3961 7.04564 9.67962 7.93087 9.67962C8.09295 9.67962 8.25502 9.70454 8.40464 9.75436V7.81044C8.24879 7.79175 8.09295 7.7793 7.93087 7.7793C7.90592 7.7793 7.87475 7.7793 7.8498 7.7793V9.27461C7.70022 9.22478 7.54434 9.19987 7.37604 9.19987Z" fill="#FF0050"/>
<path d="M13.5351 6.30371V7.78659C12.5439 7.78659 11.6337 7.46884 10.8856 6.933V10.8022C10.8856 12.7336 9.31469 14.3099 7.37597 14.3099C6.6279 14.3099 5.93594 14.0732 5.36865 13.6744C6.01074 14.3598 6.92089 14.7959 7.93703 14.7959C9.86953 14.7959 11.4467 13.2258 11.4467 11.2881V7.41898C12.1948 7.95482 13.1111 8.27257 14.0961 8.27257V6.36602C13.9029 6.35979 13.7158 6.34109 13.5351 6.30371Z" fill="#FF0050"/>
</svg>
