<svg width="18" height="18" viewBox="0 0 18 18" fill="none" xmlns="http://www.w3.org/2000/svg">
<rect width="18" height="18" rx="3.38" fill="#FE4500"/>
<rect width="18" height="18" rx="3.38" fill="url(#paint0_radial_1216_1454)"/>
<rect width="18" height="18" rx="3.38" fill="url(#paint1_radial_1216_1454)"/>
<path d="M9.00056 3.18555C7.42159 3.18555 7.22339 3.19247 6.60327 3.22066C5.98431 3.24904 5.56181 3.347 5.19216 3.49078C4.80971 3.63927 4.48535 3.83793 4.16221 4.16118C3.83877 4.48438 3.64011 4.80874 3.49115 5.19101C3.34697 5.56077 3.24888 5.98345 3.22104 6.60211C3.1933 7.22228 3.18604 7.42054 3.18604 8.99955C3.18604 10.5786 3.19301 10.7761 3.22115 11.3962C3.24964 12.0152 3.34761 12.4377 3.49127 12.8073C3.63988 13.1898 3.83854 13.5141 4.1618 13.8373C4.48488 14.1607 4.80925 14.3598 5.1914 14.5083C5.56134 14.6521 5.98391 14.7501 6.60275 14.7784C7.22293 14.8066 7.42095 14.8135 8.99986 14.8135C10.579 14.8135 10.7766 14.8066 11.3967 14.7784C12.0156 14.7501 12.4386 14.6521 12.8086 14.5083C13.1908 14.3598 13.5147 14.1607 13.8377 13.8373C14.1612 13.5141 14.3598 13.1898 14.5088 12.8075C14.6517 12.4377 14.7498 12.0151 14.7789 11.3963C14.8068 10.7762 14.814 10.5786 14.814 8.99955C14.814 7.42054 14.8068 7.2224 14.7789 6.60223C14.7498 5.98327 14.6517 5.56083 14.5088 5.19118C14.3598 4.80874 14.1612 4.48438 13.8377 4.16118C13.5144 3.83781 13.1909 3.63915 12.8082 3.49084C12.4376 3.347 12.0148 3.24898 11.3959 3.22066C10.7757 3.19247 10.5782 3.18555 8.99876 3.18555H9.00056ZM8.47898 4.23328C8.63381 4.23304 8.80654 4.23328 9.00056 4.23328C10.553 4.23328 10.7369 4.23886 11.3499 4.26671C11.9168 4.29264 12.2245 4.38735 12.4294 4.46694C12.7008 4.57229 12.8942 4.69828 13.0976 4.90182C13.3011 5.10531 13.427 5.29909 13.5326 5.57043C13.6122 5.77508 13.707 6.08275 13.7329 6.64961C13.7607 7.26252 13.7668 7.44658 13.7668 8.99821C13.7668 10.5498 13.7607 10.734 13.7329 11.3468C13.7069 11.9137 13.6122 12.2213 13.5326 12.4261C13.4273 12.6974 13.3011 12.8906 13.0976 13.094C12.8941 13.2974 12.7009 13.4234 12.4294 13.5288C12.2247 13.6087 11.9168 13.7032 11.3499 13.7291C10.737 13.757 10.553 13.763 9.00056 13.763C7.4481 13.763 7.26409 13.757 6.65124 13.7291C6.08437 13.703 5.7767 13.6083 5.57158 13.5287C5.3003 13.4233 5.10646 13.2973 4.90297 13.0938C4.69948 12.8904 4.57355 12.697 4.46791 12.4256C4.38831 12.2209 4.29349 11.9132 4.26767 11.3463C4.23982 10.7334 4.23424 10.5494 4.23424 8.99676C4.23424 7.44414 4.23982 7.26106 4.26767 6.64816C4.2936 6.0813 4.38831 5.77362 4.46791 5.56868C4.57331 5.29734 4.69948 5.10357 4.90303 4.90008C5.10657 4.69659 5.3003 4.5706 5.57164 4.46502C5.77658 4.38508 6.08437 4.2906 6.65124 4.26456C7.18758 4.24031 7.39543 4.23304 8.47898 4.23182V4.23328ZM12.1041 5.19862C11.7189 5.19862 11.4064 5.51083 11.4064 5.89606C11.4064 6.28124 11.7189 6.59374 12.1041 6.59374C12.4892 6.59374 12.8018 6.28124 12.8018 5.89606C12.8018 5.51089 12.4892 5.19839 12.1041 5.19839V5.19862ZM9.00056 6.0138C7.35171 6.0138 6.01484 7.35065 6.01484 8.99955C6.01484 10.6484 7.35171 11.9847 9.00056 11.9847C10.6495 11.9847 11.9859 10.6484 11.9859 8.99955C11.9859 7.35071 10.6494 6.0138 9.00044 6.0138H9.00056ZM9.00056 7.06153C10.0709 7.06153 10.9386 7.92914 10.9386 8.99955C10.9386 10.0698 10.0709 10.9376 9.00056 10.9376C7.93026 10.9376 7.06258 10.0698 7.06258 8.99955C7.06258 7.92914 7.9302 7.06153 9.00056 7.06153Z" fill="white"/>
<defs>
<radialGradient id="paint0_radial_1216_1454" cx="0" cy="0" r="1" gradientUnits="userSpaceOnUse" gradientTransform="translate(4.78125 19.3864) rotate(-90) scale(17.8393 16.592)">
<stop stop-color="#FFDD55"/>
<stop offset="0.1" stop-color="#FFDD55"/>
<stop offset="0.5" stop-color="#FF543E"/>
<stop offset="1" stop-color="#C837AB"/>
</radialGradient>
<radialGradient id="paint1_radial_1216_1454" cx="0" cy="0" r="1" gradientUnits="userSpaceOnUse" gradientTransform="translate(-3.01507 1.29663) rotate(78.681) scale(7.97428 32.8702)">
<stop stop-color="#3771C8"/>
<stop offset="0.128" stop-color="#3771C8"/>
<stop offset="1" stop-color="#6600FF" stop-opacity="0"/>
</radialGradient>
</defs>
</svg>
