<svg width="18" height="18" viewBox="0 0 18 18" fill="none" xmlns="http://www.w3.org/2000/svg">
<rect width="18" height="18" rx="3.38" fill="white"/>
<path fill-rule="evenodd" clip-rule="evenodd" d="M13.4798 5.57704H10.3074L11.61 4.33613C11.6964 4.25246 11.7471 4.13852 11.7512 4.01828C11.7554 3.89804 11.7128 3.78086 11.6323 3.6914C11.5931 3.64767 11.5455 3.61227 11.4924 3.58732C11.4392 3.56238 11.3816 3.54839 11.3229 3.5462C11.2642 3.54401 11.2056 3.55367 11.1508 3.57458C11.0959 3.5955 11.0458 3.62725 11.0034 3.66795L8.99997 5.57704L6.99652 3.66795C6.95417 3.62725 6.90407 3.5955 6.84919 3.57458C6.79431 3.55367 6.73578 3.54401 6.67709 3.5462C6.6184 3.54839 6.56075 3.56238 6.50758 3.58732C6.45441 3.61227 6.40681 3.64767 6.36761 3.6914C6.28697 3.78081 6.24427 3.89808 6.24854 4.01841C6.25282 4.13873 6.30373 4.25268 6.39052 4.33613L7.69252 5.57704H4.5207C4.2604 5.57877 4.01144 5.6838 3.82856 5.86904C3.64567 6.05427 3.54383 6.30456 3.54543 6.56486V12.4901C3.54543 13.0356 3.98288 13.4785 4.5207 13.4785H5.7567L6.49306 14.3458C6.51949 14.3796 6.55327 14.4069 6.59183 14.4257C6.63038 14.4445 6.67272 14.4542 6.71561 14.4542C6.7585 14.4542 6.80084 14.4445 6.83939 14.4257C6.87795 14.4069 6.91173 14.3796 6.93816 14.3458L7.67452 13.4785H10.3254L11.0618 14.3458C11.0882 14.3796 11.122 14.4069 11.1606 14.4257C11.1991 14.4445 11.2414 14.4542 11.2843 14.4542C11.3272 14.4542 11.3696 14.4445 11.4081 14.4257C11.4467 14.4069 11.4805 14.3796 11.5069 14.3458L12.2432 13.4785H13.4792C14.0192 13.4785 14.4545 13.0361 14.4545 12.4901V6.56486C14.4545 6.0194 14.0187 5.57704 13.4798 5.57704Z" fill="#252525"/>
</svg>
