<svg width="18" height="18" viewBox="0 0 18 18" fill="none" xmlns="http://www.w3.org/2000/svg">
<rect width="18" height="18" rx="3.38" fill="#FE4500"/>
<path d="M12.6048 3.65145C12.767 3.6436 12.9287 3.67954 13.0724 3.75501C13.216 3.83049 13.3366 3.94322 13.4221 4.08109C13.5075 4.21896 13.5547 4.3773 13.5585 4.53944C13.5621 4.70152 13.5227 4.86238 13.4436 5.00394C13.3645 5.1454 13.2482 5.26353 13.1083 5.3454C12.9684 5.42711 12.8089 5.46987 12.6469 5.46947C12.1574 5.46933 11.7639 5.08476 11.7374 4.60404L9.83937 4.20208L9.26208 6.93065C10.6001 6.97442 11.7979 7.38586 12.6725 8.01551C12.8065 7.88757 12.9678 7.79002 13.1432 7.73045C13.3187 7.67094 13.5055 7.64996 13.6897 7.66996C13.8739 7.69002 14.052 7.75047 14.2106 7.84632C14.3691 7.94219 14.5051 8.07198 14.6085 8.22572C14.7117 8.37944 14.7806 8.55449 14.8094 8.73739C14.8382 8.92026 14.8265 9.10799 14.7756 9.28597C14.7246 9.46393 14.6344 9.62902 14.5131 9.76893C14.3918 9.90874 14.2411 10.0213 14.0722 10.0971C14.0896 10.2193 14.0988 10.3506 14.0988 10.4816C14.0984 12.4405 11.8157 14.0325 8.99958 14.0325C6.18357 14.0324 3.90071 12.4405 3.90031 10.4816C3.90031 10.3507 3.90955 10.2193 3.92697 10.0971C3.48106 9.89595 3.17453 9.44906 3.17433 8.93324C3.1731 8.6828 3.24602 8.43708 3.38351 8.22777C3.52127 8.01835 3.71888 7.85423 3.94953 7.75609C4.1801 7.65815 4.43438 7.63013 4.68063 7.67611C4.92716 7.72226 5.15513 7.84054 5.33483 8.01551C6.21817 7.37706 7.443 6.97443 8.7986 6.93065L9.44562 3.87806C9.45435 3.817 9.48976 3.76491 9.54201 3.73861C9.59432 3.70373 9.6553 3.69411 9.71632 3.70272L11.8338 4.15799C11.9055 4.01264 12.0151 3.8891 12.1506 3.80013C12.2862 3.71123 12.4429 3.65939 12.6048 3.65145ZM7.00519 11.8443C6.9743 11.8444 6.9433 11.8505 6.91496 11.8628C6.88655 11.8752 6.86024 11.8935 6.83908 11.9161C6.81649 11.9373 6.7981 11.9636 6.78576 11.992C6.7735 12.0204 6.7673 12.0523 6.7673 12.0832C6.76743 12.1141 6.77348 12.1452 6.78576 12.1735C6.79817 12.2019 6.8164 12.2282 6.83908 12.2494C7.45979 12.8699 8.64905 12.922 8.99958 12.922C9.34931 12.922 10.5389 12.8697 11.1601 12.2494C11.1827 12.2283 11.201 12.2018 11.2134 12.1735C11.2257 12.1452 11.2327 12.1141 11.2329 12.0832C11.2329 12.0522 11.2257 12.0205 11.2134 11.992C11.201 11.9635 11.1827 11.9373 11.1601 11.9161C11.0726 11.829 10.9239 11.8289 10.8278 11.9161C10.4341 12.3094 9.59414 12.4503 8.99958 12.4503C8.40491 12.4502 7.56586 12.3095 7.17233 11.9161C7.15106 11.8933 7.12503 11.8752 7.09645 11.8628C7.06787 11.8504 7.03635 11.8443 7.00519 11.8443ZM6.99699 8.93426C6.49855 8.9344 6.08747 9.34532 6.08747 9.84378C6.08764 10.0848 6.18363 10.3163 6.35407 10.4867C6.52458 10.6571 6.75594 10.7532 6.99699 10.7533C7.23802 10.7533 7.46938 10.657 7.63991 10.4867C7.81035 10.3163 7.90634 10.0848 7.90651 9.84378C7.90651 9.34526 7.49551 8.9343 6.99699 8.93426ZM11.0032 8.93426C10.5048 8.9344 10.0937 9.34532 10.0937 9.84378C10.094 10.342 10.505 10.7532 11.0032 10.7533C11.5014 10.7531 11.9124 10.3419 11.9127 9.84378C11.9127 9.34536 11.5103 8.93446 11.0032 8.93426Z" fill="white"/>
</svg>
