<svg width="18" height="18" viewBox="0 0 18 18" fill="none" xmlns="http://www.w3.org/2000/svg">
<rect width="18" height="18" rx="3.38" fill="#22BA4F"/>
<path fill-rule="evenodd" clip-rule="evenodd" d="M9.0001 3.75C5.86532 3.75 3.2251 5.8164 3.2251 8.475C3.2251 10.9073 5.4406 12.8467 8.20997 13.1564C8.25767 13.1609 8.30325 13.1783 8.34175 13.2068C8.368 13.2278 8.37797 13.2488 8.38007 13.2724C8.41682 13.6426 8.33597 14.1397 8.2294 14.4196C8.21435 14.4593 8.20918 14.5021 8.21434 14.5443C8.21949 14.5865 8.2348 14.6268 8.25897 14.6618C8.28314 14.6967 8.31543 14.7253 8.35308 14.745C8.39073 14.7647 8.4326 14.775 8.4751 14.775C8.54912 14.775 8.6326 14.7529 8.70242 14.7319C8.78012 14.7078 8.87305 14.6737 8.977 14.6311C9.24019 14.5204 9.49823 14.3978 9.75032 14.2636C10.4815 13.8785 11.1802 13.4345 11.8393 12.9359C12.5743 12.3778 13.304 11.7085 13.8511 10.9609C14.3971 10.2138 14.7751 9.37222 14.7751 8.475C14.7751 5.8164 12.1349 3.75 9.0001 3.75ZM4.93135 7.1625H5.71885V9.13125H6.9001V9.91875H4.93135V7.1625ZM7.29385 7.1625V9.91875H8.08135V7.1625H7.29385ZM8.34385 7.1625H9.23635L9.91885 8.44245V7.1625H10.7063V9.91875H9.81385L9.13135 8.6388V9.91875H8.34385V7.1625ZM10.9688 7.1625H12.6751V7.95H11.7563V8.14687H12.6751V8.93437H11.7563V9.13125H12.6751V9.91875H10.9688V7.1625Z" fill="white"/>
</svg>
