<svg width="18" height="18" viewBox="0 0 18 18" fill="none" xmlns="http://www.w3.org/2000/svg">
<rect width="18" height="18" rx="3.38" fill="#0095F9"/>
<path d="M5.65625 3.90039C5.70217 3.90055 5.74782 3.91158 5.78809 3.93359C5.82831 3.9556 5.86191 3.98789 5.88672 4.02637L6.44629 4.89355C7.12221 4.3585 7.93616 4.02467 8.79395 3.92969C9.65162 3.83478 10.5188 3.98234 11.2959 4.35645C12.0731 4.73064 12.7287 5.3161 13.1875 6.04492C13.6463 6.7738 13.8897 7.61704 13.8896 8.47754C13.8897 9.29064 13.6729 10.0894 13.2607 10.791C12.8485 11.4927 12.2555 12.0721 11.5439 12.4697C10.8324 12.8673 10.0274 13.0693 9.21191 13.0537C8.39645 13.0381 7.59996 12.8054 6.9043 12.3809V13.876C6.90371 13.9482 6.8746 14.0174 6.82324 14.0684C6.77171 14.1193 6.70149 14.1484 6.62891 14.1484H4.98535C4.91276 14.1484 4.84255 14.1193 4.79102 14.0684C4.73959 14.0174 4.71055 13.9483 4.70996 13.876V4.17383C4.70996 4.13799 4.71678 4.10247 4.73047 4.06934C4.7443 4.03605 4.76449 4.00497 4.79004 3.97949C4.81559 3.95402 4.84651 3.93371 4.87988 3.91992C4.91316 3.90623 4.94935 3.89941 4.98535 3.89941L5.65625 3.90039ZM9.29395 6.08496C8.97486 6.07935 8.6578 6.13698 8.36133 6.25391C8.06471 6.3709 7.79423 6.54515 7.56641 6.7666C7.33861 6.98804 7.15775 7.25253 7.03418 7.54395C6.91069 7.83523 6.84683 8.14797 6.84668 8.46387C6.84658 8.77994 6.91078 9.09325 7.03418 9.38477C7.15756 9.67616 7.33784 9.94059 7.56543 10.1621C7.79305 10.3836 8.06294 10.5586 8.35938 10.6758C8.65592 10.793 8.97372 10.8502 9.29297 10.8447C9.92311 10.8339 10.524 10.5786 10.9658 10.1338C11.4077 9.68888 11.655 9.08973 11.6553 8.46582C11.6555 7.84198 11.4083 7.24303 10.9668 6.79785C10.5252 6.35264 9.92417 6.09614 9.29395 6.08496Z" fill="white"/>
</svg>
