<svg width="18" height="18" viewBox="0 0 18 18" fill="none" xmlns="http://www.w3.org/2000/svg">
<rect width="18" height="18" rx="3.38" fill="#27A5E5"/>
<path d="M8.99984 3.16699C5.77984 3.16699 3.1665 5.78033 3.1665 9.00033C3.1665 12.2203 5.77984 14.8337 8.99984 14.8337C12.2198 14.8337 14.8332 12.2203 14.8332 9.00033C14.8332 5.78033 12.2198 3.16699 8.99984 3.16699ZM11.7065 7.13366C11.619 8.05533 11.2398 10.2953 11.0473 11.3278C10.9657 11.7653 10.8023 11.9112 10.6507 11.9287C10.3123 11.9578 10.0557 11.707 9.729 11.4912C9.21567 11.1528 8.924 10.9428 8.42817 10.6162C7.85067 10.237 8.224 10.027 8.5565 9.68866C8.644 9.60116 10.1373 8.24199 10.1665 8.11949C10.1706 8.10094 10.17 8.08168 10.1649 8.06338C10.1599 8.04508 10.1504 8.0283 10.1373 8.01449C10.1023 7.98533 10.0557 7.99699 10.0148 8.00283C9.96234 8.01449 9.14567 8.55699 7.55317 9.63033C7.31984 9.78783 7.10984 9.86949 6.92317 9.86366C6.71317 9.85783 6.3165 9.74699 6.019 9.64783C5.6515 9.53116 5.36567 9.46699 5.389 9.26283C5.40067 9.15783 5.5465 9.05283 5.82067 8.94199C7.524 8.20116 8.65567 7.71116 9.2215 7.47783C10.8432 6.80116 11.1757 6.68449 11.3973 6.68449C11.444 6.68449 11.5548 6.69616 11.6248 6.75449C11.6832 6.80116 11.7007 6.86533 11.7065 6.91199C11.7007 6.94699 11.7123 7.05199 11.7065 7.13366Z" fill="white"/>
</svg>
