<svg width="18" height="18" viewBox="0 0 18 18" fill="none" xmlns="http://www.w3.org/2000/svg">
<rect width="18" height="18" rx="3.38" fill="#D62B2A"/>
<path d="M8.21466 9.4451C7.23705 9.19101 6.13312 9.67766 5.70819 10.539C5.27609 11.4175 5.69384 12.3923 6.68149 12.711C7.7036 13.0411 8.90946 12.5358 9.32864 11.5869C9.74065 10.6596 9.22528 9.70637 8.21466 9.4451ZM7.46817 11.6874C7.27007 12.0047 6.84371 12.1425 6.52358 11.9975C6.20776 11.8539 6.11445 11.485 6.31399 11.1764C6.51066 10.8692 6.92123 10.7314 7.23849 10.8649C7.56005 11.0012 7.66341 11.3673 7.46817 11.6874ZM8.12135 10.8476C8.04957 10.9711 7.89022 11.0299 7.76677 10.9783C7.64475 10.928 7.60599 10.7902 7.67489 10.6696C7.74667 10.549 7.89884 10.4916 8.02086 10.539C8.14575 10.5849 8.19025 10.7242 8.12135 10.8476ZM12.9233 8.01673C13.1386 8.08564 13.3683 7.96792 13.4386 7.75403C13.608 7.22862 13.5018 6.62856 13.1056 6.18928C12.9175 5.98085 12.6778 5.82561 12.4107 5.73917C12.1436 5.65274 11.8584 5.63815 11.5839 5.69689C11.5314 5.70806 11.4815 5.72947 11.4373 5.75991C11.3931 5.79036 11.3553 5.82922 11.3261 5.87429C11.2969 5.91936 11.2768 5.96975 11.2671 6.02257C11.2574 6.07538 11.2582 6.1296 11.2695 6.1821C11.2807 6.23456 11.3022 6.28428 11.3327 6.32842C11.3632 6.37256 11.4021 6.41025 11.4471 6.43932C11.4922 6.46839 11.5426 6.48828 11.5954 6.49785C11.6482 6.50741 11.7023 6.50646 11.7547 6.49505C12.0189 6.43907 12.3045 6.52089 12.4998 6.73479C12.5919 6.83665 12.6555 6.9611 12.684 7.0955C12.7125 7.22989 12.7049 7.36943 12.662 7.49993C12.6451 7.55102 12.6384 7.60494 12.6424 7.65861C12.6464 7.71227 12.6609 7.76462 12.6852 7.81264C12.7095 7.86067 12.743 7.90342 12.7839 7.93844C12.8247 7.97347 12.8721 8.00007 12.9233 8.01673ZM14.3559 5.05951C13.542 4.15655 12.3404 3.81202 11.2307 4.04744C11.1697 4.06036 11.1117 4.08523 11.0603 4.12062C11.0089 4.15601 10.9649 4.20123 10.931 4.25366C10.8972 4.3061 10.874 4.36472 10.8628 4.42615C10.8517 4.48759 10.8528 4.55062 10.8661 4.61161C10.8791 4.6727 10.904 4.73063 10.9394 4.78209C10.9748 4.83355 11.02 4.87753 11.0724 4.91152C11.1248 4.94552 11.1833 4.96886 11.2447 4.98021C11.3062 4.99156 11.3692 4.9907 11.4303 4.97768C12.2198 4.80972 13.0725 5.0552 13.6525 5.69689C14.231 6.33858 14.3875 7.21426 14.1406 7.98084C14.0602 8.23063 14.1966 8.49764 14.4464 8.57947C14.6962 8.65986 14.9632 8.52348 15.0436 8.27513V8.27369C15.3895 7.19129 15.1713 5.96103 14.3559 5.05951ZM12.115 8.81346C11.9399 8.76178 11.8208 8.72589 11.9126 8.4962C12.1107 7.99807 12.1308 7.56741 11.9169 7.26163C11.515 6.68598 10.4125 6.71756 9.1492 7.24584C9.1492 7.24584 8.75299 7.41954 8.85348 7.10516C9.04728 6.4807 9.01856 5.95816 8.71566 5.65526C8.03091 4.96907 6.2092 5.6811 4.64589 7.24297C3.47735 8.41294 2.79834 9.65326 2.79834 10.7256C2.79834 12.777 5.42826 14.0245 8.0022 14.0245C11.3757 14.0245 13.6195 12.065 13.6195 10.5074C13.6195 9.56712 12.8271 9.03453 12.115 8.81346ZM8.00938 13.2895C5.95654 13.4919 4.18364 12.5645 4.05014 11.2151C3.91663 9.86715 5.4742 8.60961 7.52703 8.4072C9.57986 8.20335 11.3528 9.13215 11.4863 10.4801C11.6183 11.8281 10.0622 13.0856 8.00938 13.2895Z" fill="white"/>
</svg>
