<svg width="18" height="18" viewBox="0 0 18 18" fill="none" xmlns="http://www.w3.org/2000/svg">
<rect width="18" height="18" rx="3.38" fill="#08D1FD"/>
<path d="M14.1075 6.52195C14.0588 7.57641 13.3234 9.02021 11.9012 10.8588C10.4304 12.7838 9.18666 13.7301 8.15923 13.7301C7.53737 13.7301 7.00203 13.1461 6.56402 11.9727C6.26661 10.9128 5.99623 9.84215 5.69341 8.77147C5.36896 7.60345 5.02288 7.01944 4.64436 7.01944C4.56865 7.01944 4.28746 7.19248 3.80079 7.53315L3.29248 6.87344C3.83323 6.40298 4.35235 5.93253 4.87147 5.46208C5.58526 4.84562 6.1206 4.52117 6.47209 4.48873C7.31566 4.40221 7.83478 4.98622 8.02945 6.21913C8.24034 7.55478 8.38635 8.38213 8.46746 8.70658C8.69998 9.80971 8.97036 10.3505 9.26777 10.3505C9.49488 10.3505 9.83556 10.0044 10.2898 9.28518C10.744 8.57139 10.9874 8.02523 11.0198 7.64671C11.0847 7.03025 10.8414 6.72203 10.2898 6.72203C10.0302 6.72203 9.76526 6.78151 9.48948 6.90047C10.0194 5.15385 11.036 4.30487 12.5339 4.35354C13.6478 4.38599 14.1724 5.11059 14.1075 6.52195Z" fill="#1F1F1F"/>
</svg>
