<svg width="18" height="18" viewBox="0 0 18 18" fill="none" xmlns="http://www.w3.org/2000/svg">
<rect width="18" height="18" rx="3.38" fill="#0861F2"/>
<path d="M8.99984 3.19043C5.7915 3.19043 3.1665 5.8096 3.1665 9.03543C3.1665 11.9521 5.3015 14.3729 8.08984 14.8104V10.7271H6.60817V9.03543H8.08984V7.74626C8.08984 6.2821 8.959 5.4771 10.2948 5.4771C10.9307 5.4771 11.5957 5.58793 11.5957 5.58793V7.02876H10.8607C10.1373 7.02876 9.90984 7.47793 9.90984 7.93876V9.03543H11.5315L11.269 10.7271H9.90984V14.8104C11.2844 14.5933 12.5361 13.892 13.439 12.833C14.3418 11.7739 14.8363 10.4271 14.8332 9.03543C14.8332 5.8096 12.2082 3.19043 8.99984 3.19043Z" fill="white"/>
</svg>
