<svg width="18" height="18" viewBox="0 0 18 18" fill="none" xmlns="http://www.w3.org/2000/svg">
<rect width="18" height="18" rx="3.38" fill="white"/>
<path d="M8.66559 4.21777C7.27509 4.21777 6.0978 4.23065 5.14814 4.35167C3.88999 4.51132 2.81982 5.47386 2.81982 7.2537C2.81982 9.05929 2.91355 10.4106 3.6361 11.6276C4.45186 13.0186 5.81609 13.7813 7.58203 13.7813H8.00948C10.1771 13.7813 11.3539 12.6308 11.9425 11.7213C12.1837 11.3474 12.3727 10.9423 12.5044 10.5173C14.0427 10.3839 15.1798 9.11285 15.1798 7.56167V7.34794C15.1798 5.67574 14.0829 4.51184 12.1969 4.32489C11.3946 4.24455 10.8322 4.21777 8.66559 4.21777ZM8.66559 5.22048C10.8327 5.22048 11.2869 5.24726 12.0497 5.31421C13.401 5.47437 14.1766 6.12997 14.1766 7.37421V7.57506C14.1766 8.6854 13.2537 9.55472 12.1836 9.55472H11.702L11.6217 9.88895C11.5146 10.4106 11.3142 10.8252 11.0866 11.2001C10.6185 11.9356 9.77593 12.7781 8.03677 12.7781H7.6222C6.29813 12.7781 5.13423 12.3234 4.49203 11.1327C3.93068 10.1027 3.82356 8.99285 3.82356 7.26709C3.82356 6.14387 4.26491 5.51506 5.37474 5.35438C6.16423 5.23438 7.20762 5.22048 8.66559 5.22048ZM12.0373 6.39828C11.8231 6.39828 11.7025 6.51879 11.7025 6.67947V8.191C11.7025 8.35116 11.8231 8.47167 12.0373 8.47167C12.7192 8.47167 13.0936 8.08336 13.0936 7.44167C13.0936 6.79998 12.7197 6.39828 12.0373 6.39828Z" fill="black"/>
<path d="M5.13428 8.11032C5.13428 7.25439 5.7497 6.49219 6.68597 6.49219C7.23496 6.49219 7.62276 6.77286 7.87665 7.16066C8.15784 6.77286 8.53225 6.49219 9.08072 6.49219C10.0036 6.49219 10.6458 7.25439 10.6458 8.11032C10.6458 8.89981 10.2045 9.58219 9.6292 10.1173C9.26818 10.4783 8.68005 10.8532 8.27835 11.0937C8.16103 11.1638 8.02694 11.2007 7.8903 11.2007C7.75366 11.2007 7.61957 11.1638 7.50225 11.0937C7.10106 10.8532 6.51242 10.4783 6.13801 10.1173C5.57615 9.58167 5.13428 8.89981 5.13428 8.11032Z" fill="#FF5A16"/>
</svg>
