<svg width="18" height="18" viewBox="0 0 18 18" fill="none" xmlns="http://www.w3.org/2000/svg">
<rect width="18" height="18" rx="3.38" fill="#2182FF"/>
<path d="M13.6129 12.616C13.377 12.6442 12.7257 11.6157 12.6362 11.4727C12.6334 11.4676 12.626 11.4704 12.626 11.476C12.6193 12.16 12.2663 13.045 11.5114 13.6884C11.5108 13.6891 11.5103 13.6899 11.5101 13.6907C11.5098 13.6916 11.5098 13.6925 11.5099 13.6934C11.5101 13.6943 11.5105 13.6951 11.511 13.6958C11.5116 13.6965 11.5123 13.6971 11.5131 13.6974C11.888 13.814 12.7077 14.1191 12.5106 14.4518C12.3502 14.7231 9.75105 14.6252 9.00064 14.5402C8.25022 14.6246 5.65108 14.7226 5.49008 14.4518C5.29136 14.1168 6.12396 13.81 6.49551 13.6952V13.6941C5.72989 13.045 5.37467 12.1471 5.37411 11.4586L5.37298 11.458C5.34484 11.5031 4.63608 12.6459 4.38782 12.616C4.2696 12.6014 4.11423 11.9641 4.59273 10.4239C4.81792 9.69768 5.07687 9.09364 5.47544 8.09778C5.40845 5.52622 6.47074 3.37012 9.00007 3.37012C11.5013 3.37012 12.5878 5.484 12.5247 8.09721C12.9227 9.09138 13.1822 9.69881 13.4074 10.4233C13.8859 11.9636 13.7311 12.6019 13.6129 12.616Z" fill="white"/>
</svg>
