<svg width="18" height="18" viewBox="0 0 18 18" fill="none" xmlns="http://www.w3.org/2000/svg">
<rect width="18" height="18" rx="3.38" fill="#FF0033"/>
<path d="M7.73366 10.8997L11.0207 8.99974L7.73366 7.09974V10.8997ZM15.055 5.94074C15.1373 6.23841 15.1943 6.63741 15.2323 7.14407C15.2767 7.65074 15.2957 8.08774 15.2957 8.46774L15.3337 8.99974C15.3337 10.3867 15.2323 11.4064 15.055 12.0587C14.8967 12.6287 14.5293 12.9961 13.9593 13.1544C13.6617 13.2367 13.117 13.2937 12.281 13.3317C11.4577 13.3761 10.704 13.3951 10.0073 13.3951L9.00033 13.4331C6.34666 13.4331 4.69366 13.3317 4.04133 13.1544C3.47133 12.9961 3.10399 12.6287 2.94566 12.0587C2.86333 11.7611 2.80633 11.3621 2.76833 10.8554C2.72399 10.3487 2.70499 9.91174 2.70499 9.53174L2.66699 8.99974C2.66699 7.61274 2.76833 6.59307 2.94566 5.94074C3.10399 5.37074 3.47133 5.00341 4.04133 4.84507C4.33899 4.76274 4.88366 4.70574 5.71966 4.66774C6.54299 4.62341 7.29666 4.60441 7.99333 4.60441L9.00033 4.56641C11.654 4.56641 13.307 4.66774 13.9593 4.84507C14.5293 5.00341 14.8967 5.37074 15.055 5.94074Z" fill="white"/>
</svg>
