<svg width="18" height="18" viewBox="0 0 18 18" fill="none" xmlns="http://www.w3.org/2000/svg">
<rect width="18" height="18" rx="3.38" fill="url(#paint0_linear_1163_1427)"/>
<path d="M8.99984 3.16699C8.23379 3.16699 7.47525 3.31788 6.76752 3.61103C6.05978 3.90418 5.41672 4.33386 4.87505 4.87554C3.78109 5.9695 3.1665 7.45323 3.1665 9.00033C3.1665 11.5787 4.84067 13.7662 7.1565 14.542C7.44817 14.5887 7.5415 14.4078 7.5415 14.2503V13.2645C5.92567 13.6145 5.5815 12.4828 5.5815 12.4828C5.31317 11.8062 4.934 11.6253 4.934 11.6253C4.40317 11.2637 4.97484 11.2753 4.97484 11.2753C5.55817 11.3162 5.86734 11.8762 5.86734 11.8762C6.37484 12.7628 7.23234 12.5003 7.56484 12.3603C7.61734 11.9812 7.769 11.7245 7.93234 11.5787C6.63734 11.4328 5.27817 10.9312 5.27817 8.70866C5.27817 8.06116 5.49984 7.54199 5.879 7.12783C5.82067 6.98199 5.6165 6.37533 5.93734 5.58783C5.93734 5.58783 6.42734 5.43033 7.5415 6.18283C8.00234 6.05449 8.504 5.99033 8.99984 5.99033C9.49567 5.99033 9.99734 6.05449 10.4582 6.18283C11.5723 5.43033 12.0623 5.58783 12.0623 5.58783C12.3832 6.37533 12.179 6.98199 12.1207 7.12783C12.4998 7.54199 12.7215 8.06116 12.7215 8.70866C12.7215 10.937 11.3565 11.427 10.0557 11.5728C10.2657 11.7537 10.4582 12.1095 10.4582 12.652V14.2503C10.4582 14.4078 10.5515 14.5945 10.849 14.542C13.1648 13.7603 14.8332 11.5787 14.8332 9.00033C14.8332 8.23428 14.6823 7.47574 14.3891 6.76801C14.096 6.06027 13.6663 5.41721 13.1246 4.87554C12.583 4.33386 11.9399 3.90418 11.2322 3.61103C10.5244 3.31788 9.76588 3.16699 8.99984 3.16699Z" fill="white"/>
<defs>
<linearGradient id="paint0_linear_1163_1427" x1="9" y1="0" x2="9" y2="18" gradientUnits="userSpaceOnUse">
<stop/>
<stop offset="1" stop-color="#24273C"/>
</linearGradient>
</defs>
</svg>
